G04 #@! TF.GenerationSoftware,KiCad,Pcbnew,(5.1.2-1)-1*
G04 #@! TF.CreationDate,2019-10-21T00:17:46+03:00*
G04 #@! TF.ProjectId,uaf0,75616630-2e6b-4696-9361-645f70636258,rev?*
G04 #@! TF.SameCoordinates,Original*
G04 #@! TF.FileFunction,Copper,L1,Top*
G04 #@! TF.FilePolarity,Positive*
%FSLAX46Y46*%
G04 Gerber Fmt 4.6, Leading zero omitted, Abs format (unit mm)*
G04 Created by KiCad (PCBNEW (5.1.2-1)-1) date 2019-10-21 00:17:46*
%MOMM*%
%LPD*%
G04 APERTURE LIST*
%ADD10R,1.500000X0.550000*%
%ADD11R,0.550000X1.500000*%
%ADD12R,1.700000X1.700000*%
%ADD13C,1.700000*%
%ADD14R,2.000000X2.000000*%
%ADD15C,2.000000*%
%ADD16R,1.100000X0.800000*%
%ADD17R,1.000000X1.000000*%
%ADD18R,0.800000X1.100000*%
%ADD19R,4.000000X2.000000*%
%ADD20R,1.500000X2.000000*%
%ADD21R,1.500000X4.000000*%
%ADD22R,1.473200X0.609600*%
%ADD23C,0.800000*%
%ADD24C,0.250000*%
%ADD25C,0.450000*%
%ADD26C,0.200000*%
G04 APERTURE END LIST*
D10*
X69000000Y-83700000D03*
X69000000Y-84500000D03*
X69000000Y-85300000D03*
X69000000Y-86100000D03*
X69000000Y-86900000D03*
X69000000Y-87700000D03*
X69000000Y-88500000D03*
X69000000Y-89300000D03*
D11*
X67250000Y-91000000D03*
X66450000Y-91000000D03*
X65650000Y-91000000D03*
X64850000Y-91000000D03*
X64050000Y-91000000D03*
X63250000Y-91000000D03*
X62450000Y-91000000D03*
X61650000Y-91000000D03*
D10*
X59950000Y-89300000D03*
X59950000Y-88500000D03*
X59950000Y-87700000D03*
X59950000Y-86900000D03*
X59950000Y-86100000D03*
X59950000Y-85300000D03*
X59950000Y-84500000D03*
X59950000Y-83700000D03*
D11*
X61650000Y-82000000D03*
X62450000Y-82000000D03*
X63250000Y-82000000D03*
X64050000Y-82000000D03*
X64850000Y-82000000D03*
X65650000Y-82000000D03*
X66450000Y-82000000D03*
X67250000Y-82000000D03*
D12*
X50540000Y-84330000D03*
X50540000Y-81790000D03*
X50540000Y-79250000D03*
X48000000Y-84330000D03*
X48000000Y-81790000D03*
D13*
X48000000Y-79250000D03*
D14*
X90000000Y-67000000D03*
D15*
X90000000Y-72000000D03*
D14*
X90000000Y-46000000D03*
D15*
X90000000Y-51000000D03*
D14*
X90000000Y-56000000D03*
D15*
X90000000Y-61000000D03*
D14*
X90000000Y-87000000D03*
D15*
X90000000Y-92000000D03*
D14*
X90000000Y-77000000D03*
D15*
X90000000Y-82000000D03*
D14*
X50000000Y-72000000D03*
D15*
X50000000Y-67000000D03*
D14*
X50000000Y-61000000D03*
D15*
X50000000Y-56000000D03*
D14*
X50000000Y-51000000D03*
D15*
X50000000Y-46000000D03*
D16*
X56650000Y-72000000D03*
X58850000Y-71050000D03*
X58850000Y-72950000D03*
X56650000Y-67000000D03*
X58850000Y-66050000D03*
X58850000Y-67950000D03*
X80400000Y-76750000D03*
X82600000Y-75800000D03*
X82600000Y-77700000D03*
X80400000Y-81750000D03*
X82600000Y-80800000D03*
X82600000Y-82700000D03*
D17*
X72750000Y-88750000D03*
X74250000Y-88750000D03*
X65750000Y-50750000D03*
X65750000Y-52250000D03*
D18*
X66750000Y-44900000D03*
X67700000Y-47100000D03*
X65800000Y-47100000D03*
D19*
X60000000Y-44750000D03*
D20*
X60000000Y-51000000D03*
X57750000Y-51000000D03*
X62250000Y-51000000D03*
D21*
X64000000Y-56000000D03*
X59500000Y-56000000D03*
D22*
X82544000Y-45500000D03*
X82544000Y-46770000D03*
X82544000Y-48040000D03*
X82544000Y-49310000D03*
X76956000Y-49310000D03*
X76956000Y-48040000D03*
X76956000Y-46770000D03*
X76956000Y-45500000D03*
D23*
X57750000Y-52750000D03*
X65750000Y-56000000D03*
X83750000Y-49500000D03*
X66000000Y-48250000D03*
X83750000Y-80000000D03*
X83750000Y-75000000D03*
X64750000Y-93250000D03*
X64000000Y-79750000D03*
X65750000Y-79750000D03*
X71500000Y-89750000D03*
X62250000Y-52750000D03*
X54250000Y-72000000D03*
X54250000Y-67000000D03*
X60000000Y-52750000D03*
X83750000Y-45500000D03*
X64500000Y-51000000D03*
X74500000Y-80250000D03*
X74500000Y-83000000D03*
X83500000Y-56000000D03*
X83500000Y-61000000D03*
X50500000Y-90750000D03*
X63250000Y-80500000D03*
X64750000Y-80500000D03*
X59750000Y-81762653D03*
X67250000Y-48250000D03*
X54750000Y-91500000D03*
X75000000Y-92750000D03*
X75000000Y-91500000D03*
X60250000Y-71000000D03*
X60250000Y-66000000D03*
X73250000Y-83000000D03*
X88000000Y-83250000D03*
X88000000Y-84250000D03*
X71000000Y-86175000D03*
X88012733Y-85262572D03*
X94250000Y-56000000D03*
X87987347Y-86487347D03*
X94250000Y-62250000D03*
X54750000Y-92500000D03*
X57000000Y-79250000D03*
X54750000Y-88500000D03*
X64250000Y-76250000D03*
X64250000Y-71000000D03*
X75250000Y-47500000D03*
X73250000Y-80250000D03*
X75250000Y-49500000D03*
X75500000Y-44750000D03*
X68500000Y-54500000D03*
X75750000Y-88500000D03*
X79000000Y-82250000D03*
X79000000Y-78750000D03*
X83750000Y-83500000D03*
X83750000Y-78750000D03*
X60250000Y-67750000D03*
X60250000Y-72750000D03*
X70250000Y-88500000D03*
X64000000Y-92500000D03*
D24*
X90000000Y-67000000D02*
X90000000Y-72000000D01*
X57750000Y-51000000D02*
X57750000Y-52750000D01*
X64000000Y-56000000D02*
X65750000Y-56000000D01*
X83560000Y-49310000D02*
X83750000Y-49500000D01*
X82544000Y-49310000D02*
X83560000Y-49310000D01*
X65800000Y-48050000D02*
X66000000Y-48250000D01*
X65800000Y-47100000D02*
X65800000Y-48050000D01*
X65750000Y-50750000D02*
X65750000Y-49000000D01*
X65750000Y-49000000D02*
X66000000Y-48750000D01*
X66000000Y-48750000D02*
X66000000Y-48250000D01*
X82600000Y-80800000D02*
X83450000Y-80800000D01*
X83750000Y-80500000D02*
X83750000Y-80000000D01*
X83450000Y-80800000D02*
X83750000Y-80500000D01*
X82600000Y-75800000D02*
X83450000Y-75800000D01*
X83750000Y-75500000D02*
X83750000Y-75000000D01*
X83450000Y-75800000D02*
X83750000Y-75500000D01*
X64850000Y-93150000D02*
X64750000Y-93250000D01*
X64850000Y-91000000D02*
X64850000Y-93150000D01*
X64000000Y-81950000D02*
X64000000Y-79750000D01*
X64050000Y-82000000D02*
X64000000Y-81950000D01*
X65650000Y-79850000D02*
X65750000Y-79750000D01*
X65650000Y-82000000D02*
X65650000Y-79850000D01*
X71750000Y-88750000D02*
X71500000Y-89000000D01*
X72750000Y-88750000D02*
X71750000Y-88750000D01*
X71500000Y-89000000D02*
X71500000Y-89750000D01*
D25*
X50000000Y-46000000D02*
X50000000Y-51000000D01*
X62250000Y-52750000D02*
X62250000Y-51000000D01*
X56650000Y-72000000D02*
X54250000Y-72000000D01*
X54250000Y-67000000D02*
X56500000Y-67000000D01*
D24*
X74750000Y-44000000D02*
X76250000Y-44000000D01*
X60000000Y-52750000D02*
X60000000Y-51000000D01*
X82544000Y-45500000D02*
X83750000Y-45500000D01*
X60925001Y-53675001D02*
X62824999Y-53675001D01*
X60000000Y-52750000D02*
X60925001Y-53675001D01*
X64500000Y-52000000D02*
X64000000Y-52500000D01*
X64500000Y-51000000D02*
X64500000Y-52000000D01*
X62824999Y-53675001D02*
X64000000Y-52500000D01*
X64500000Y-51000000D02*
X64500000Y-44750000D01*
X64500000Y-44750000D02*
X65250000Y-44000000D01*
X65250000Y-44000000D02*
X66500000Y-44000000D01*
X66500000Y-44000000D02*
X66750000Y-44250000D01*
X66750000Y-44250000D02*
X66750000Y-45000000D01*
X63250000Y-80500000D02*
X63250000Y-81065685D01*
X63250000Y-81065685D02*
X63250000Y-82000000D01*
X64850000Y-80600000D02*
X64750000Y-80500000D01*
X64850000Y-82000000D02*
X64850000Y-80600000D01*
X62450000Y-91000000D02*
X62450000Y-92450000D01*
X63500000Y-94000000D02*
X63750000Y-94000000D01*
X65500000Y-94250000D02*
X65750000Y-94000000D01*
X64000000Y-94250000D02*
X65500000Y-94250000D01*
X63750000Y-94000000D02*
X65750000Y-94000000D01*
X65750000Y-94000000D02*
X66000000Y-94000000D01*
X64000000Y-94250000D02*
X63750000Y-94000000D01*
X63500000Y-78500000D02*
X63250000Y-78750000D01*
X64500000Y-78500000D02*
X63500000Y-78500000D01*
X63250000Y-78750000D02*
X63250000Y-80500000D01*
X64750000Y-78750000D02*
X64500000Y-78500000D01*
X64750000Y-80500000D02*
X64750000Y-78750000D01*
X74750000Y-44000000D02*
X75000000Y-43750000D01*
X75000000Y-43750000D02*
X76000000Y-43750000D01*
X76000000Y-43750000D02*
X76250000Y-44000000D01*
X59434315Y-52750000D02*
X58184315Y-54000000D01*
X60000000Y-52750000D02*
X59434315Y-52750000D01*
X58184315Y-54000000D02*
X57750000Y-54000000D01*
X67700000Y-47800000D02*
X67250000Y-48250000D01*
X67700000Y-47100000D02*
X67700000Y-47800000D01*
X64000000Y-92500000D02*
X64000000Y-91000000D01*
X68500000Y-48750000D02*
X67750000Y-48750000D01*
X69000000Y-48250000D02*
X68500000Y-48750000D01*
X69000000Y-43750000D02*
X69000000Y-48250000D01*
X68500000Y-43250000D02*
X69000000Y-43750000D01*
X46500000Y-43250000D02*
X68500000Y-43250000D01*
X45750000Y-91000000D02*
X45750000Y-44000000D01*
X67750000Y-48750000D02*
X67250000Y-48250000D01*
X45750000Y-44000000D02*
X46500000Y-43250000D01*
X46250000Y-91500000D02*
X45750000Y-91000000D01*
X54750000Y-91500000D02*
X46250000Y-91500000D01*
X66450000Y-92000000D02*
X67200000Y-92750000D01*
X66450000Y-91000000D02*
X66450000Y-92000000D01*
X67200000Y-92750000D02*
X75000000Y-92750000D01*
X67250000Y-92000000D02*
X67500000Y-92250000D01*
X67250000Y-91000000D02*
X67250000Y-92000000D01*
X74250000Y-92250000D02*
X75000000Y-91500000D01*
X67500000Y-92250000D02*
X74250000Y-92250000D01*
D25*
X50000000Y-56000000D02*
X50000000Y-57414213D01*
X50000000Y-57414213D02*
X50000000Y-61250000D01*
X50000000Y-56000000D02*
X58000000Y-56000000D01*
X58000000Y-56000000D02*
X59500000Y-56000000D01*
X60200000Y-71050000D02*
X60250000Y-71000000D01*
X58850000Y-71050000D02*
X60200000Y-71050000D01*
X60200000Y-66050000D02*
X60250000Y-66000000D01*
X58850000Y-66050000D02*
X60200000Y-66050000D01*
D24*
X72550000Y-83700000D02*
X73250000Y-83000000D01*
X69000000Y-83700000D02*
X72550000Y-83700000D01*
X71034412Y-84500000D02*
X72534392Y-85999980D01*
X69000000Y-84500000D02*
X71034412Y-84500000D01*
X87926998Y-83250000D02*
X88000000Y-83250000D01*
X85177018Y-85999980D02*
X87926998Y-83250000D01*
X72534392Y-85999980D02*
X85177018Y-85999980D01*
X71198002Y-85300000D02*
X72347992Y-86449990D01*
X69000000Y-85300000D02*
X71198002Y-85300000D01*
X85800010Y-86449990D02*
X88000000Y-84250000D01*
X84050010Y-86449990D02*
X85800010Y-86449990D01*
X72347992Y-86449990D02*
X84050010Y-86449990D01*
X70925000Y-86100000D02*
X71000000Y-86175000D01*
X69000000Y-86100000D02*
X70925000Y-86100000D01*
X70349990Y-87249990D02*
X86000171Y-87249990D01*
X88000161Y-85250000D02*
X88012733Y-85262572D01*
X70000000Y-86900000D02*
X70349990Y-87249990D01*
X69000000Y-86900000D02*
X70000000Y-86900000D01*
X86000171Y-87249990D02*
X88000161Y-85250000D01*
X94250000Y-56000000D02*
X90000000Y-56000000D01*
X86774694Y-87700000D02*
X87987347Y-86487347D01*
X84050000Y-87700000D02*
X86774694Y-87700000D01*
X69000000Y-87700000D02*
X84050000Y-87700000D01*
X94250000Y-61684315D02*
X94250000Y-62250000D01*
X93565685Y-61000000D02*
X94250000Y-61684315D01*
X90000000Y-61000000D02*
X93565685Y-61000000D01*
X61650000Y-91000000D02*
X61650000Y-92350000D01*
X61650000Y-92350000D02*
X61500000Y-92500000D01*
X61500000Y-92500000D02*
X54750000Y-92500000D01*
X54000000Y-88823002D02*
X54000000Y-82250000D01*
X54476998Y-89300000D02*
X54000000Y-88823002D01*
X54000000Y-82250000D02*
X57000000Y-79250000D01*
X59950000Y-89300000D02*
X54476998Y-89300000D01*
X59950000Y-88500000D02*
X54750000Y-88500000D01*
X63250000Y-76250000D02*
X64250000Y-76250000D01*
X62000000Y-76250000D02*
X63250000Y-76250000D01*
X56750000Y-81500000D02*
X62000000Y-76250000D01*
X56750000Y-85500000D02*
X56750000Y-81500000D01*
X58950000Y-87700000D02*
X56750000Y-85500000D01*
X59950000Y-87700000D02*
X58950000Y-87700000D01*
X58950000Y-86900000D02*
X57250000Y-85200000D01*
X59950000Y-86900000D02*
X58950000Y-86900000D01*
X57250000Y-84250000D02*
X57250000Y-81750000D01*
X57250000Y-85200000D02*
X57250000Y-84250000D01*
X57250000Y-84250000D02*
X57250000Y-84000000D01*
X57250000Y-81750000D02*
X59500000Y-79500000D01*
X59500000Y-79500000D02*
X61500000Y-77500000D01*
X61500000Y-77500000D02*
X62000000Y-77000000D01*
X62000000Y-77000000D02*
X64750000Y-77000000D01*
X64750000Y-77000000D02*
X65250000Y-76500000D01*
X65250000Y-72000000D02*
X64250000Y-71000000D01*
X65250000Y-76500000D02*
X65250000Y-72000000D01*
X75980000Y-46770000D02*
X75250000Y-47500000D01*
X76956000Y-46770000D02*
X75980000Y-46770000D01*
X75790000Y-48040000D02*
X75250000Y-47500000D01*
X76956000Y-48040000D02*
X75790000Y-48040000D01*
X74250000Y-61000000D02*
X74250000Y-48500000D01*
X65750000Y-76636410D02*
X65750000Y-69500000D01*
X62299990Y-77450010D02*
X64936401Y-77450009D01*
X64936401Y-77450009D02*
X65750000Y-76636410D01*
X57750000Y-82000000D02*
X62299990Y-77450010D01*
X74250000Y-48500000D02*
X75250000Y-47500000D01*
X57750000Y-84900000D02*
X57750000Y-82000000D01*
X58950000Y-86100000D02*
X57750000Y-84900000D01*
X65750000Y-69500000D02*
X74250000Y-61000000D01*
X59950000Y-86100000D02*
X58950000Y-86100000D01*
X67250000Y-81000000D02*
X67250000Y-82000000D01*
X68000000Y-80250000D02*
X67250000Y-81000000D01*
X73250000Y-80250000D02*
X68000000Y-80250000D01*
X87750000Y-46000000D02*
X88750000Y-46000000D01*
X86980000Y-46770000D02*
X87750000Y-46000000D01*
X88750000Y-46000000D02*
X90000000Y-46000000D01*
X82544000Y-46770000D02*
X86980000Y-46770000D01*
X87040000Y-48040000D02*
X86540000Y-48040000D01*
X90000000Y-51000000D02*
X87040000Y-48040000D01*
X82544000Y-48040000D02*
X86540000Y-48040000D01*
X75440000Y-49310000D02*
X75250000Y-49500000D01*
X76956000Y-49310000D02*
X75440000Y-49310000D01*
X75969400Y-45500000D02*
X76956000Y-45500000D01*
X75500000Y-45030600D02*
X75969400Y-45500000D01*
X75500000Y-44750000D02*
X75500000Y-45030600D01*
X68500000Y-54500000D02*
X67250000Y-54500000D01*
X67250000Y-54500000D02*
X65750000Y-53000000D01*
X65750000Y-53000000D02*
X65750000Y-52250000D01*
X75500000Y-88750000D02*
X75750000Y-88500000D01*
X74250000Y-88750000D02*
X75500000Y-88750000D01*
X79500000Y-81750000D02*
X79000000Y-82250000D01*
X80400000Y-81750000D02*
X79500000Y-81750000D01*
X79000000Y-78750000D02*
X79000000Y-78184315D01*
X79000000Y-78184315D02*
X79000000Y-77000000D01*
X79000000Y-77000000D02*
X79250000Y-76750000D01*
X79250000Y-76750000D02*
X80500000Y-76750000D01*
X82600000Y-82700000D02*
X83450000Y-82700000D01*
X83450000Y-82700000D02*
X83750000Y-83000000D01*
X83750000Y-83000000D02*
X83750000Y-83500000D01*
X83400000Y-77700000D02*
X83750000Y-78050000D01*
X82600000Y-77700000D02*
X83400000Y-77700000D01*
X83750000Y-78050000D02*
X83750000Y-78750000D01*
X60050000Y-67950000D02*
X60250000Y-67750000D01*
X58850000Y-67950000D02*
X60050000Y-67950000D01*
X60050000Y-72950000D02*
X60250000Y-72750000D01*
X58850000Y-72950000D02*
X60050000Y-72950000D01*
X69000000Y-88500000D02*
X70250000Y-88500000D01*
D26*
G36*
X62473704Y-92084955D02*
G01*
X62475000Y-92086534D01*
X62475000Y-92200000D01*
X62625000Y-92350000D01*
X62725000Y-92352903D01*
X62842621Y-92341318D01*
X62850000Y-92339080D01*
X62857379Y-92341318D01*
X62975000Y-92352903D01*
X63009668Y-92352903D01*
X63000000Y-92401509D01*
X63000000Y-92598491D01*
X63038429Y-92791689D01*
X63113811Y-92973678D01*
X63223249Y-93137463D01*
X63362537Y-93276751D01*
X63526322Y-93386189D01*
X63708311Y-93461571D01*
X63775137Y-93474863D01*
X63788429Y-93541689D01*
X63863811Y-93723678D01*
X63973249Y-93887463D01*
X64112537Y-94026751D01*
X64276322Y-94136189D01*
X64309665Y-94150000D01*
X46100000Y-94150000D01*
X46100000Y-92212120D01*
X46107875Y-92214509D01*
X46214393Y-92225000D01*
X46214403Y-92225000D01*
X46250000Y-92228506D01*
X46285597Y-92225000D01*
X53785109Y-92225000D01*
X53750000Y-92401509D01*
X53750000Y-92598491D01*
X53788429Y-92791689D01*
X53863811Y-92973678D01*
X53973249Y-93137463D01*
X54112537Y-93276751D01*
X54276322Y-93386189D01*
X54458311Y-93461571D01*
X54651509Y-93500000D01*
X54848491Y-93500000D01*
X55041689Y-93461571D01*
X55223678Y-93386189D01*
X55387463Y-93276751D01*
X55439214Y-93225000D01*
X61464403Y-93225000D01*
X61500000Y-93228506D01*
X61535597Y-93225000D01*
X61535607Y-93225000D01*
X61642125Y-93214509D01*
X61778788Y-93173053D01*
X61904737Y-93105731D01*
X62015132Y-93015132D01*
X62037832Y-92987472D01*
X62137472Y-92887832D01*
X62165132Y-92865132D01*
X62255731Y-92754737D01*
X62323053Y-92628788D01*
X62364509Y-92492125D01*
X62375000Y-92385607D01*
X62375000Y-92385598D01*
X62378506Y-92350001D01*
X62375000Y-92314404D01*
X62375000Y-92250000D01*
X62425000Y-92200000D01*
X62425000Y-92086534D01*
X62426296Y-92084955D01*
X62450000Y-92040608D01*
X62473704Y-92084955D01*
X62473704Y-92084955D01*
G37*
X62473704Y-92084955D02*
X62475000Y-92086534D01*
X62475000Y-92200000D01*
X62625000Y-92350000D01*
X62725000Y-92352903D01*
X62842621Y-92341318D01*
X62850000Y-92339080D01*
X62857379Y-92341318D01*
X62975000Y-92352903D01*
X63009668Y-92352903D01*
X63000000Y-92401509D01*
X63000000Y-92598491D01*
X63038429Y-92791689D01*
X63113811Y-92973678D01*
X63223249Y-93137463D01*
X63362537Y-93276751D01*
X63526322Y-93386189D01*
X63708311Y-93461571D01*
X63775137Y-93474863D01*
X63788429Y-93541689D01*
X63863811Y-93723678D01*
X63973249Y-93887463D01*
X64112537Y-94026751D01*
X64276322Y-94136189D01*
X64309665Y-94150000D01*
X46100000Y-94150000D01*
X46100000Y-92212120D01*
X46107875Y-92214509D01*
X46214393Y-92225000D01*
X46214403Y-92225000D01*
X46250000Y-92228506D01*
X46285597Y-92225000D01*
X53785109Y-92225000D01*
X53750000Y-92401509D01*
X53750000Y-92598491D01*
X53788429Y-92791689D01*
X53863811Y-92973678D01*
X53973249Y-93137463D01*
X54112537Y-93276751D01*
X54276322Y-93386189D01*
X54458311Y-93461571D01*
X54651509Y-93500000D01*
X54848491Y-93500000D01*
X55041689Y-93461571D01*
X55223678Y-93386189D01*
X55387463Y-93276751D01*
X55439214Y-93225000D01*
X61464403Y-93225000D01*
X61500000Y-93228506D01*
X61535597Y-93225000D01*
X61535607Y-93225000D01*
X61642125Y-93214509D01*
X61778788Y-93173053D01*
X61904737Y-93105731D01*
X62015132Y-93015132D01*
X62037832Y-92987472D01*
X62137472Y-92887832D01*
X62165132Y-92865132D01*
X62255731Y-92754737D01*
X62323053Y-92628788D01*
X62364509Y-92492125D01*
X62375000Y-92385607D01*
X62375000Y-92385598D01*
X62378506Y-92350001D01*
X62375000Y-92314404D01*
X62375000Y-92250000D01*
X62425000Y-92200000D01*
X62425000Y-92086534D01*
X62426296Y-92084955D01*
X62450000Y-92040608D01*
X62473704Y-92084955D01*
G36*
X93900000Y-55062582D02*
G01*
X93776322Y-55113811D01*
X93612537Y-55223249D01*
X93560786Y-55275000D01*
X91602903Y-55275000D01*
X91602903Y-55000000D01*
X91591318Y-54882379D01*
X91557010Y-54769279D01*
X91501296Y-54665045D01*
X91426317Y-54573683D01*
X91334955Y-54498704D01*
X91230721Y-54442990D01*
X91117621Y-54408682D01*
X91000000Y-54397097D01*
X89000000Y-54397097D01*
X88882379Y-54408682D01*
X88769279Y-54442990D01*
X88665045Y-54498704D01*
X88573683Y-54573683D01*
X88498704Y-54665045D01*
X88442990Y-54769279D01*
X88408682Y-54882379D01*
X88397097Y-55000000D01*
X88397097Y-57000000D01*
X88408682Y-57117621D01*
X88442990Y-57230721D01*
X88498704Y-57334955D01*
X88573683Y-57426317D01*
X88665045Y-57501296D01*
X88769279Y-57557010D01*
X88882379Y-57591318D01*
X89000000Y-57602903D01*
X91000000Y-57602903D01*
X91117621Y-57591318D01*
X91230721Y-57557010D01*
X91334955Y-57501296D01*
X91426317Y-57426317D01*
X91501296Y-57334955D01*
X91557010Y-57230721D01*
X91591318Y-57117621D01*
X91602903Y-57000000D01*
X91602903Y-56725000D01*
X93560786Y-56725000D01*
X93612537Y-56776751D01*
X93776322Y-56886189D01*
X93900000Y-56937418D01*
X93900000Y-60356627D01*
X93844473Y-60326947D01*
X93707810Y-60285491D01*
X93601292Y-60275000D01*
X93601282Y-60275000D01*
X93565685Y-60271494D01*
X93530088Y-60275000D01*
X91431523Y-60275000D01*
X91417902Y-60242116D01*
X91242801Y-59980059D01*
X91019941Y-59757199D01*
X90757884Y-59582098D01*
X90466703Y-59461487D01*
X90157586Y-59400000D01*
X89842414Y-59400000D01*
X89533297Y-59461487D01*
X89242116Y-59582098D01*
X88980059Y-59757199D01*
X88757199Y-59980059D01*
X88582098Y-60242116D01*
X88461487Y-60533297D01*
X88400000Y-60842414D01*
X88400000Y-61157586D01*
X88461487Y-61466703D01*
X88582098Y-61757884D01*
X88757199Y-62019941D01*
X88980059Y-62242801D01*
X89242116Y-62417902D01*
X89533297Y-62538513D01*
X89842414Y-62600000D01*
X90157586Y-62600000D01*
X90466703Y-62538513D01*
X90757884Y-62417902D01*
X91019941Y-62242801D01*
X91242801Y-62019941D01*
X91417902Y-61757884D01*
X91431523Y-61725000D01*
X93265381Y-61725000D01*
X93350013Y-61809633D01*
X93288429Y-61958311D01*
X93250000Y-62151509D01*
X93250000Y-62348491D01*
X93288429Y-62541689D01*
X93363811Y-62723678D01*
X93473249Y-62887463D01*
X93612537Y-63026751D01*
X93776322Y-63136189D01*
X93900000Y-63187418D01*
X93900000Y-94150000D01*
X65190335Y-94150000D01*
X65223678Y-94136189D01*
X65387463Y-94026751D01*
X65526751Y-93887463D01*
X65636189Y-93723678D01*
X65711571Y-93541689D01*
X65750000Y-93348491D01*
X65750000Y-93151509D01*
X65711571Y-92958311D01*
X65636189Y-92776322D01*
X65575000Y-92684746D01*
X65575000Y-92352903D01*
X65816563Y-92352903D01*
X65844269Y-92404736D01*
X65912170Y-92487474D01*
X65912173Y-92487477D01*
X65934869Y-92515132D01*
X65962523Y-92537827D01*
X66662172Y-93237477D01*
X66684868Y-93265132D01*
X66712523Y-93287828D01*
X66712525Y-93287830D01*
X66786441Y-93348491D01*
X66795263Y-93355731D01*
X66921212Y-93423053D01*
X67057875Y-93464509D01*
X67164393Y-93475000D01*
X67164402Y-93475000D01*
X67199999Y-93478506D01*
X67235596Y-93475000D01*
X74310786Y-93475000D01*
X74362537Y-93526751D01*
X74526322Y-93636189D01*
X74708311Y-93711571D01*
X74901509Y-93750000D01*
X75098491Y-93750000D01*
X75291689Y-93711571D01*
X75473678Y-93636189D01*
X75637463Y-93526751D01*
X75776751Y-93387463D01*
X75886189Y-93223678D01*
X75961571Y-93041689D01*
X76000000Y-92848491D01*
X76000000Y-92651509D01*
X75961571Y-92458311D01*
X75886189Y-92276322D01*
X75785079Y-92125000D01*
X75886189Y-91973678D01*
X75940560Y-91842414D01*
X88400000Y-91842414D01*
X88400000Y-92157586D01*
X88461487Y-92466703D01*
X88582098Y-92757884D01*
X88757199Y-93019941D01*
X88980059Y-93242801D01*
X89242116Y-93417902D01*
X89533297Y-93538513D01*
X89842414Y-93600000D01*
X90157586Y-93600000D01*
X90466703Y-93538513D01*
X90757884Y-93417902D01*
X91019941Y-93242801D01*
X91242801Y-93019941D01*
X91417902Y-92757884D01*
X91538513Y-92466703D01*
X91600000Y-92157586D01*
X91600000Y-91842414D01*
X91538513Y-91533297D01*
X91417902Y-91242116D01*
X91242801Y-90980059D01*
X91019941Y-90757199D01*
X90757884Y-90582098D01*
X90466703Y-90461487D01*
X90157586Y-90400000D01*
X89842414Y-90400000D01*
X89533297Y-90461487D01*
X89242116Y-90582098D01*
X88980059Y-90757199D01*
X88757199Y-90980059D01*
X88582098Y-91242116D01*
X88461487Y-91533297D01*
X88400000Y-91842414D01*
X75940560Y-91842414D01*
X75961571Y-91791689D01*
X76000000Y-91598491D01*
X76000000Y-91401509D01*
X75961571Y-91208311D01*
X75886189Y-91026322D01*
X75776751Y-90862537D01*
X75637463Y-90723249D01*
X75473678Y-90613811D01*
X75291689Y-90538429D01*
X75098491Y-90500000D01*
X74901509Y-90500000D01*
X74708311Y-90538429D01*
X74526322Y-90613811D01*
X74362537Y-90723249D01*
X74223249Y-90862537D01*
X74113811Y-91026322D01*
X74038429Y-91208311D01*
X74000000Y-91401509D01*
X74000000Y-91474696D01*
X73949696Y-91525000D01*
X68127903Y-91525000D01*
X68127903Y-90250000D01*
X68119269Y-90162341D01*
X68132379Y-90166318D01*
X68250000Y-90177903D01*
X69750000Y-90177903D01*
X69867621Y-90166318D01*
X69980721Y-90132010D01*
X70084955Y-90076296D01*
X70176317Y-90001317D01*
X70251296Y-89909955D01*
X70307010Y-89805721D01*
X70341318Y-89692621D01*
X70352903Y-89575000D01*
X70352903Y-89499122D01*
X70537620Y-89462380D01*
X70500000Y-89651509D01*
X70500000Y-89848491D01*
X70538429Y-90041689D01*
X70613811Y-90223678D01*
X70723249Y-90387463D01*
X70862537Y-90526751D01*
X71026322Y-90636189D01*
X71208311Y-90711571D01*
X71401509Y-90750000D01*
X71598491Y-90750000D01*
X71791689Y-90711571D01*
X71973678Y-90636189D01*
X72137463Y-90526751D01*
X72276751Y-90387463D01*
X72386189Y-90223678D01*
X72461571Y-90041689D01*
X72499122Y-89852903D01*
X73250000Y-89852903D01*
X73367621Y-89841318D01*
X73480721Y-89807010D01*
X73500000Y-89796705D01*
X73519279Y-89807010D01*
X73632379Y-89841318D01*
X73750000Y-89852903D01*
X74750000Y-89852903D01*
X74867621Y-89841318D01*
X74980721Y-89807010D01*
X75084955Y-89751296D01*
X75176317Y-89676317D01*
X75251296Y-89584955D01*
X75307010Y-89480721D01*
X75308745Y-89475000D01*
X75464403Y-89475000D01*
X75500000Y-89478506D01*
X75529061Y-89475644D01*
X75651509Y-89500000D01*
X75848491Y-89500000D01*
X76041689Y-89461571D01*
X76223678Y-89386189D01*
X76387463Y-89276751D01*
X76526751Y-89137463D01*
X76636189Y-88973678D01*
X76711571Y-88791689D01*
X76750000Y-88598491D01*
X76750000Y-88425000D01*
X86739097Y-88425000D01*
X86774694Y-88428506D01*
X86810291Y-88425000D01*
X86810301Y-88425000D01*
X86916819Y-88414509D01*
X87053482Y-88373053D01*
X87179431Y-88305731D01*
X87289826Y-88215132D01*
X87312526Y-88187472D01*
X88012652Y-87487347D01*
X88085838Y-87487347D01*
X88279036Y-87448918D01*
X88397097Y-87400016D01*
X88397097Y-88000000D01*
X88408682Y-88117621D01*
X88442990Y-88230721D01*
X88498704Y-88334955D01*
X88573683Y-88426317D01*
X88665045Y-88501296D01*
X88769279Y-88557010D01*
X88882379Y-88591318D01*
X89000000Y-88602903D01*
X91000000Y-88602903D01*
X91117621Y-88591318D01*
X91230721Y-88557010D01*
X91334955Y-88501296D01*
X91426317Y-88426317D01*
X91501296Y-88334955D01*
X91557010Y-88230721D01*
X91591318Y-88117621D01*
X91602903Y-88000000D01*
X91602903Y-86000000D01*
X91591318Y-85882379D01*
X91557010Y-85769279D01*
X91501296Y-85665045D01*
X91426317Y-85573683D01*
X91334955Y-85498704D01*
X91230721Y-85442990D01*
X91117621Y-85408682D01*
X91000000Y-85397097D01*
X89005565Y-85397097D01*
X89012733Y-85361063D01*
X89012733Y-85164081D01*
X88974304Y-84970883D01*
X88898922Y-84788894D01*
X88870767Y-84746758D01*
X88886189Y-84723678D01*
X88961571Y-84541689D01*
X89000000Y-84348491D01*
X89000000Y-84151509D01*
X88961571Y-83958311D01*
X88886189Y-83776322D01*
X88868601Y-83750000D01*
X88886189Y-83723678D01*
X88961571Y-83541689D01*
X89000000Y-83348491D01*
X89000000Y-83256125D01*
X89242116Y-83417902D01*
X89533297Y-83538513D01*
X89842414Y-83600000D01*
X90157586Y-83600000D01*
X90466703Y-83538513D01*
X90757884Y-83417902D01*
X91019941Y-83242801D01*
X91242801Y-83019941D01*
X91417902Y-82757884D01*
X91538513Y-82466703D01*
X91600000Y-82157586D01*
X91600000Y-81842414D01*
X91538513Y-81533297D01*
X91417902Y-81242116D01*
X91242801Y-80980059D01*
X91019941Y-80757199D01*
X90757884Y-80582098D01*
X90466703Y-80461487D01*
X90157586Y-80400000D01*
X89842414Y-80400000D01*
X89533297Y-80461487D01*
X89242116Y-80582098D01*
X88980059Y-80757199D01*
X88757199Y-80980059D01*
X88582098Y-81242116D01*
X88461487Y-81533297D01*
X88400000Y-81842414D01*
X88400000Y-82157586D01*
X88438088Y-82349069D01*
X88291689Y-82288429D01*
X88098491Y-82250000D01*
X87901509Y-82250000D01*
X87708311Y-82288429D01*
X87526322Y-82363811D01*
X87362537Y-82473249D01*
X87223249Y-82612537D01*
X87113811Y-82776322D01*
X87038429Y-82958311D01*
X87000000Y-83151509D01*
X87000000Y-83151693D01*
X84876714Y-85274980D01*
X72834697Y-85274980D01*
X71984716Y-84425000D01*
X72514403Y-84425000D01*
X72550000Y-84428506D01*
X72585597Y-84425000D01*
X72585607Y-84425000D01*
X72692125Y-84414509D01*
X72828788Y-84373053D01*
X72954737Y-84305731D01*
X73065132Y-84215132D01*
X73087832Y-84187472D01*
X73275304Y-84000000D01*
X73348491Y-84000000D01*
X73541689Y-83961571D01*
X73723678Y-83886189D01*
X73887463Y-83776751D01*
X74026751Y-83637463D01*
X74136189Y-83473678D01*
X74211571Y-83291689D01*
X74250000Y-83098491D01*
X74250000Y-82901509D01*
X74211571Y-82708311D01*
X74136189Y-82526322D01*
X74026751Y-82362537D01*
X73887463Y-82223249D01*
X73723678Y-82113811D01*
X73541689Y-82038429D01*
X73348491Y-82000000D01*
X73151509Y-82000000D01*
X72958311Y-82038429D01*
X72776322Y-82113811D01*
X72612537Y-82223249D01*
X72473249Y-82362537D01*
X72363811Y-82526322D01*
X72288429Y-82708311D01*
X72250000Y-82901509D01*
X72250000Y-82974696D01*
X72249696Y-82975000D01*
X70147459Y-82975000D01*
X70084955Y-82923704D01*
X69980721Y-82867990D01*
X69867621Y-82833682D01*
X69750000Y-82822097D01*
X68250000Y-82822097D01*
X68132379Y-82833682D01*
X68119269Y-82837659D01*
X68127903Y-82750000D01*
X68127903Y-81250000D01*
X68118704Y-81156601D01*
X68300305Y-80975000D01*
X72560786Y-80975000D01*
X72612537Y-81026751D01*
X72776322Y-81136189D01*
X72958311Y-81211571D01*
X73151509Y-81250000D01*
X73348491Y-81250000D01*
X73541689Y-81211571D01*
X73723678Y-81136189D01*
X73887463Y-81026751D01*
X74026751Y-80887463D01*
X74136189Y-80723678D01*
X74211571Y-80541689D01*
X74250000Y-80348491D01*
X74250000Y-80151509D01*
X74211571Y-79958311D01*
X74136189Y-79776322D01*
X74026751Y-79612537D01*
X73887463Y-79473249D01*
X73723678Y-79363811D01*
X73541689Y-79288429D01*
X73348491Y-79250000D01*
X73151509Y-79250000D01*
X72958311Y-79288429D01*
X72776322Y-79363811D01*
X72612537Y-79473249D01*
X72560786Y-79525000D01*
X68035596Y-79525000D01*
X67999999Y-79521494D01*
X67964402Y-79525000D01*
X67964393Y-79525000D01*
X67857875Y-79535491D01*
X67740118Y-79571212D01*
X67721212Y-79576947D01*
X67595263Y-79644269D01*
X67512525Y-79712170D01*
X67512523Y-79712172D01*
X67484868Y-79734868D01*
X67462172Y-79762523D01*
X66762524Y-80462172D01*
X66734868Y-80484869D01*
X66712172Y-80512524D01*
X66712170Y-80512526D01*
X66693229Y-80535606D01*
X66644269Y-80595264D01*
X66616563Y-80647097D01*
X66375000Y-80647097D01*
X66375000Y-80535079D01*
X66387463Y-80526751D01*
X66526751Y-80387463D01*
X66636189Y-80223678D01*
X66711571Y-80041689D01*
X66750000Y-79848491D01*
X66750000Y-79651509D01*
X66711571Y-79458311D01*
X66636189Y-79276322D01*
X66526751Y-79112537D01*
X66387463Y-78973249D01*
X66223678Y-78863811D01*
X66041689Y-78788429D01*
X65848491Y-78750000D01*
X65651509Y-78750000D01*
X65458311Y-78788429D01*
X65276322Y-78863811D01*
X65112537Y-78973249D01*
X64973249Y-79112537D01*
X64875000Y-79259577D01*
X64776751Y-79112537D01*
X64637463Y-78973249D01*
X64473678Y-78863811D01*
X64291689Y-78788429D01*
X64098491Y-78750000D01*
X63901509Y-78750000D01*
X63708311Y-78788429D01*
X63526322Y-78863811D01*
X63362537Y-78973249D01*
X63223249Y-79112537D01*
X63113811Y-79276322D01*
X63038429Y-79458311D01*
X63000000Y-79651509D01*
X63000000Y-79848491D01*
X63038429Y-80041689D01*
X63113811Y-80223678D01*
X63223249Y-80387463D01*
X63275001Y-80439215D01*
X63275001Y-80799999D01*
X63275000Y-80800000D01*
X63275000Y-80913466D01*
X63273704Y-80915045D01*
X63250000Y-80959392D01*
X63226296Y-80915045D01*
X63225000Y-80913466D01*
X63225000Y-80800000D01*
X63075000Y-80650000D01*
X62975000Y-80647097D01*
X62857379Y-80658682D01*
X62850000Y-80660920D01*
X62842621Y-80658682D01*
X62725000Y-80647097D01*
X62175000Y-80647097D01*
X62057379Y-80658682D01*
X62050000Y-80660920D01*
X62042621Y-80658682D01*
X61925000Y-80647097D01*
X61375000Y-80647097D01*
X61257379Y-80658682D01*
X61144279Y-80692990D01*
X61040045Y-80748704D01*
X60948683Y-80823683D01*
X60873704Y-80915045D01*
X60817990Y-81019279D01*
X60783682Y-81132379D01*
X60772097Y-81250000D01*
X60772097Y-82750000D01*
X60779974Y-82829974D01*
X60700000Y-82822097D01*
X59200000Y-82822097D01*
X59082379Y-82833682D01*
X58969279Y-82867990D01*
X58865045Y-82923704D01*
X58773683Y-82998683D01*
X58698704Y-83090045D01*
X58642990Y-83194279D01*
X58608682Y-83307379D01*
X58597097Y-83425000D01*
X58597097Y-83975000D01*
X58608682Y-84092621D01*
X58610920Y-84100000D01*
X58608682Y-84107379D01*
X58597097Y-84225000D01*
X58597097Y-84721793D01*
X58475000Y-84599696D01*
X58475000Y-82300304D01*
X62123795Y-78651509D01*
X78000000Y-78651509D01*
X78000000Y-78848491D01*
X78038429Y-79041689D01*
X78113811Y-79223678D01*
X78223249Y-79387463D01*
X78362537Y-79526751D01*
X78526322Y-79636189D01*
X78708311Y-79711571D01*
X78901509Y-79750000D01*
X79098491Y-79750000D01*
X79291689Y-79711571D01*
X79473678Y-79636189D01*
X79637463Y-79526751D01*
X79776751Y-79387463D01*
X79886189Y-79223678D01*
X79961571Y-79041689D01*
X80000000Y-78848491D01*
X80000000Y-78651509D01*
X79961571Y-78458311D01*
X79886189Y-78276322D01*
X79776751Y-78112537D01*
X79725000Y-78060786D01*
X79725000Y-77739080D01*
X79732379Y-77741318D01*
X79850000Y-77752903D01*
X79900000Y-77752903D01*
X79900000Y-78000000D01*
X79901921Y-78019509D01*
X79907612Y-78038268D01*
X79916853Y-78055557D01*
X79929289Y-78070711D01*
X79944443Y-78083147D01*
X79961732Y-78092388D01*
X79980491Y-78098079D01*
X80000000Y-78100000D01*
X81447097Y-78100000D01*
X81458682Y-78217621D01*
X81492990Y-78330721D01*
X81548704Y-78434955D01*
X81623683Y-78526317D01*
X81715045Y-78601296D01*
X81819279Y-78657010D01*
X81932379Y-78691318D01*
X82050000Y-78702903D01*
X82750000Y-78702903D01*
X82750000Y-78848491D01*
X82788429Y-79041689D01*
X82863811Y-79223678D01*
X82964921Y-79375000D01*
X82863811Y-79526322D01*
X82788429Y-79708311D01*
X82770769Y-79797097D01*
X82050000Y-79797097D01*
X81932379Y-79808682D01*
X81819279Y-79842990D01*
X81715045Y-79898704D01*
X81623683Y-79973683D01*
X81548704Y-80065045D01*
X81492990Y-80169279D01*
X81458682Y-80282379D01*
X81447097Y-80400000D01*
X80000000Y-80400000D01*
X79980491Y-80401921D01*
X79961732Y-80407612D01*
X79944443Y-80416853D01*
X79929289Y-80429289D01*
X79916853Y-80444443D01*
X79907612Y-80461732D01*
X79901921Y-80480491D01*
X79900000Y-80500000D01*
X79900000Y-80747097D01*
X79850000Y-80747097D01*
X79732379Y-80758682D01*
X79619279Y-80792990D01*
X79515045Y-80848704D01*
X79423683Y-80923683D01*
X79348704Y-81015045D01*
X79333886Y-81042768D01*
X79221212Y-81076947D01*
X79095263Y-81144269D01*
X79012525Y-81212170D01*
X79012523Y-81212172D01*
X78984868Y-81234868D01*
X78972449Y-81250000D01*
X78901509Y-81250000D01*
X78708311Y-81288429D01*
X78526322Y-81363811D01*
X78362537Y-81473249D01*
X78223249Y-81612537D01*
X78113811Y-81776322D01*
X78038429Y-81958311D01*
X78000000Y-82151509D01*
X78000000Y-82348491D01*
X78038429Y-82541689D01*
X78113811Y-82723678D01*
X78223249Y-82887463D01*
X78362537Y-83026751D01*
X78526322Y-83136189D01*
X78708311Y-83211571D01*
X78901509Y-83250000D01*
X79098491Y-83250000D01*
X79291689Y-83211571D01*
X79473678Y-83136189D01*
X79637463Y-83026751D01*
X79776751Y-82887463D01*
X79866661Y-82752903D01*
X79900000Y-82752903D01*
X79900000Y-83000000D01*
X79901921Y-83019509D01*
X79907612Y-83038268D01*
X79916853Y-83055557D01*
X79929289Y-83070711D01*
X79944443Y-83083147D01*
X79961732Y-83092388D01*
X79980491Y-83098079D01*
X80000000Y-83100000D01*
X81447097Y-83100000D01*
X81458682Y-83217621D01*
X81492990Y-83330721D01*
X81548704Y-83434955D01*
X81623683Y-83526317D01*
X81715045Y-83601296D01*
X81819279Y-83657010D01*
X81932379Y-83691318D01*
X82050000Y-83702903D01*
X82770769Y-83702903D01*
X82788429Y-83791689D01*
X82863811Y-83973678D01*
X82973249Y-84137463D01*
X83112537Y-84276751D01*
X83276322Y-84386189D01*
X83458311Y-84461571D01*
X83651509Y-84500000D01*
X83848491Y-84500000D01*
X84041689Y-84461571D01*
X84223678Y-84386189D01*
X84387463Y-84276751D01*
X84526751Y-84137463D01*
X84636189Y-83973678D01*
X84711571Y-83791689D01*
X84750000Y-83598491D01*
X84750000Y-83401509D01*
X84711571Y-83208311D01*
X84636189Y-83026322D01*
X84526751Y-82862537D01*
X84439437Y-82775223D01*
X84423053Y-82721212D01*
X84355731Y-82595263D01*
X84295190Y-82521494D01*
X84287830Y-82512526D01*
X84287828Y-82512524D01*
X84265131Y-82484868D01*
X84237476Y-82462172D01*
X83987832Y-82212528D01*
X83965132Y-82184868D01*
X83854737Y-82094269D01*
X83728788Y-82026947D01*
X83675790Y-82010870D01*
X83651296Y-81965045D01*
X83576317Y-81873683D01*
X83484955Y-81798704D01*
X83393836Y-81750000D01*
X83484955Y-81701296D01*
X83576317Y-81626317D01*
X83651296Y-81534955D01*
X83675790Y-81489130D01*
X83728788Y-81473053D01*
X83854737Y-81405731D01*
X83965132Y-81315132D01*
X83987832Y-81287472D01*
X84237476Y-81037828D01*
X84265131Y-81015132D01*
X84289969Y-80984868D01*
X84347271Y-80915045D01*
X84355731Y-80904737D01*
X84423053Y-80778788D01*
X84439437Y-80724777D01*
X84526751Y-80637463D01*
X84636189Y-80473678D01*
X84711571Y-80291689D01*
X84750000Y-80098491D01*
X84750000Y-79901509D01*
X84711571Y-79708311D01*
X84636189Y-79526322D01*
X84535079Y-79375000D01*
X84636189Y-79223678D01*
X84711571Y-79041689D01*
X84750000Y-78848491D01*
X84750000Y-78651509D01*
X84711571Y-78458311D01*
X84636189Y-78276322D01*
X84526751Y-78112537D01*
X84477225Y-78063011D01*
X84478506Y-78050000D01*
X84475000Y-78014403D01*
X84475000Y-78014393D01*
X84464509Y-77907875D01*
X84423053Y-77771212D01*
X84355731Y-77645263D01*
X84265131Y-77534868D01*
X84237476Y-77512172D01*
X83937832Y-77212528D01*
X83915132Y-77184868D01*
X83804737Y-77094269D01*
X83686621Y-77031134D01*
X83651296Y-76965045D01*
X83576317Y-76873683D01*
X83484955Y-76798704D01*
X83393836Y-76750000D01*
X83484955Y-76701296D01*
X83576317Y-76626317D01*
X83651296Y-76534955D01*
X83675790Y-76489130D01*
X83728788Y-76473053D01*
X83854737Y-76405731D01*
X83965132Y-76315132D01*
X83987832Y-76287472D01*
X84237476Y-76037828D01*
X84265131Y-76015132D01*
X84277550Y-76000000D01*
X88397097Y-76000000D01*
X88397097Y-78000000D01*
X88408682Y-78117621D01*
X88442990Y-78230721D01*
X88498704Y-78334955D01*
X88573683Y-78426317D01*
X88665045Y-78501296D01*
X88769279Y-78557010D01*
X88882379Y-78591318D01*
X89000000Y-78602903D01*
X91000000Y-78602903D01*
X91117621Y-78591318D01*
X91230721Y-78557010D01*
X91334955Y-78501296D01*
X91426317Y-78426317D01*
X91501296Y-78334955D01*
X91557010Y-78230721D01*
X91591318Y-78117621D01*
X91602903Y-78000000D01*
X91602903Y-76000000D01*
X91591318Y-75882379D01*
X91557010Y-75769279D01*
X91501296Y-75665045D01*
X91426317Y-75573683D01*
X91334955Y-75498704D01*
X91230721Y-75442990D01*
X91117621Y-75408682D01*
X91000000Y-75397097D01*
X89000000Y-75397097D01*
X88882379Y-75408682D01*
X88769279Y-75442990D01*
X88665045Y-75498704D01*
X88573683Y-75573683D01*
X88498704Y-75665045D01*
X88442990Y-75769279D01*
X88408682Y-75882379D01*
X88397097Y-76000000D01*
X84277550Y-76000000D01*
X84289969Y-75984868D01*
X84340182Y-75923683D01*
X84355731Y-75904737D01*
X84423053Y-75778788D01*
X84439437Y-75724777D01*
X84526751Y-75637463D01*
X84636189Y-75473678D01*
X84711571Y-75291689D01*
X84750000Y-75098491D01*
X84750000Y-74901509D01*
X84711571Y-74708311D01*
X84636189Y-74526322D01*
X84526751Y-74362537D01*
X84387463Y-74223249D01*
X84223678Y-74113811D01*
X84041689Y-74038429D01*
X83848491Y-74000000D01*
X83651509Y-74000000D01*
X83458311Y-74038429D01*
X83276322Y-74113811D01*
X83112537Y-74223249D01*
X82973249Y-74362537D01*
X82863811Y-74526322D01*
X82788429Y-74708311D01*
X82770769Y-74797097D01*
X82050000Y-74797097D01*
X81932379Y-74808682D01*
X81819279Y-74842990D01*
X81715045Y-74898704D01*
X81623683Y-74973683D01*
X81548704Y-75065045D01*
X81492990Y-75169279D01*
X81458682Y-75282379D01*
X81447097Y-75400000D01*
X80000000Y-75400000D01*
X79980491Y-75401921D01*
X79961732Y-75407612D01*
X79944443Y-75416853D01*
X79929289Y-75429289D01*
X79916853Y-75444443D01*
X79907612Y-75461732D01*
X79901921Y-75480491D01*
X79900000Y-75500000D01*
X79900000Y-75747097D01*
X79850000Y-75747097D01*
X79732379Y-75758682D01*
X79619279Y-75792990D01*
X79515045Y-75848704D01*
X79423683Y-75923683D01*
X79348704Y-76015045D01*
X79343383Y-76025000D01*
X79285596Y-76025000D01*
X79249999Y-76021494D01*
X79214402Y-76025000D01*
X79214393Y-76025000D01*
X79107875Y-76035491D01*
X78971212Y-76076947D01*
X78845263Y-76144269D01*
X78734868Y-76234868D01*
X78712168Y-76262528D01*
X78512524Y-76462172D01*
X78484869Y-76484868D01*
X78462173Y-76512523D01*
X78462170Y-76512526D01*
X78394269Y-76595264D01*
X78326947Y-76721213D01*
X78307449Y-76785492D01*
X78285492Y-76857875D01*
X78279846Y-76915197D01*
X78271494Y-77000000D01*
X78275001Y-77035607D01*
X78275000Y-78060786D01*
X78223249Y-78112537D01*
X78113811Y-78276322D01*
X78038429Y-78458311D01*
X78000000Y-78651509D01*
X62123795Y-78651509D01*
X62600295Y-78175010D01*
X64900794Y-78175008D01*
X64936401Y-78178515D01*
X65030176Y-78169279D01*
X65078526Y-78164517D01*
X65130642Y-78148708D01*
X65215188Y-78123062D01*
X65341137Y-78055740D01*
X65423875Y-77987839D01*
X65423878Y-77987836D01*
X65451533Y-77965140D01*
X65474229Y-77937485D01*
X66237482Y-77174233D01*
X66265131Y-77151542D01*
X66287823Y-77123892D01*
X66287830Y-77123885D01*
X66355731Y-77041147D01*
X66423053Y-76915198D01*
X66440441Y-76857876D01*
X66464509Y-76778535D01*
X66475000Y-76672017D01*
X66475000Y-76672007D01*
X66478506Y-76636410D01*
X66475000Y-76600813D01*
X66475000Y-69800304D01*
X70275304Y-66000000D01*
X88397097Y-66000000D01*
X88397097Y-68000000D01*
X88408682Y-68117621D01*
X88442990Y-68230721D01*
X88498704Y-68334955D01*
X88573683Y-68426317D01*
X88665045Y-68501296D01*
X88769279Y-68557010D01*
X88882379Y-68591318D01*
X89000000Y-68602903D01*
X89275000Y-68602903D01*
X89275001Y-70568477D01*
X89242116Y-70582098D01*
X88980059Y-70757199D01*
X88757199Y-70980059D01*
X88582098Y-71242116D01*
X88461487Y-71533297D01*
X88400000Y-71842414D01*
X88400000Y-72157586D01*
X88461487Y-72466703D01*
X88582098Y-72757884D01*
X88757199Y-73019941D01*
X88980059Y-73242801D01*
X89242116Y-73417902D01*
X89533297Y-73538513D01*
X89842414Y-73600000D01*
X90157586Y-73600000D01*
X90466703Y-73538513D01*
X90757884Y-73417902D01*
X91019941Y-73242801D01*
X91242801Y-73019941D01*
X91417902Y-72757884D01*
X91538513Y-72466703D01*
X91600000Y-72157586D01*
X91600000Y-71842414D01*
X91538513Y-71533297D01*
X91417902Y-71242116D01*
X91242801Y-70980059D01*
X91019941Y-70757199D01*
X90757884Y-70582098D01*
X90725000Y-70568477D01*
X90725000Y-68602903D01*
X91000000Y-68602903D01*
X91117621Y-68591318D01*
X91230721Y-68557010D01*
X91334955Y-68501296D01*
X91426317Y-68426317D01*
X91501296Y-68334955D01*
X91557010Y-68230721D01*
X91591318Y-68117621D01*
X91602903Y-68000000D01*
X91602903Y-66000000D01*
X91591318Y-65882379D01*
X91557010Y-65769279D01*
X91501296Y-65665045D01*
X91426317Y-65573683D01*
X91334955Y-65498704D01*
X91230721Y-65442990D01*
X91117621Y-65408682D01*
X91000000Y-65397097D01*
X89000000Y-65397097D01*
X88882379Y-65408682D01*
X88769279Y-65442990D01*
X88665045Y-65498704D01*
X88573683Y-65573683D01*
X88498704Y-65665045D01*
X88442990Y-65769279D01*
X88408682Y-65882379D01*
X88397097Y-66000000D01*
X70275304Y-66000000D01*
X74737482Y-61537823D01*
X74765131Y-61515132D01*
X74787823Y-61487482D01*
X74787830Y-61487475D01*
X74855731Y-61404737D01*
X74923053Y-61278788D01*
X74923053Y-61278787D01*
X74964509Y-61142125D01*
X74975000Y-61035607D01*
X74975000Y-61035598D01*
X74978506Y-61000001D01*
X74975000Y-60964404D01*
X74975000Y-50464891D01*
X75151509Y-50500000D01*
X75348491Y-50500000D01*
X75541689Y-50461571D01*
X75723678Y-50386189D01*
X75887463Y-50276751D01*
X75991537Y-50172677D01*
X76101779Y-50206118D01*
X76219400Y-50217703D01*
X77692600Y-50217703D01*
X77810221Y-50206118D01*
X77923321Y-50171810D01*
X78027555Y-50116096D01*
X78118917Y-50041117D01*
X78193896Y-49949755D01*
X78247216Y-49850000D01*
X81252784Y-49850000D01*
X81306104Y-49949755D01*
X81381083Y-50041117D01*
X81472445Y-50116096D01*
X81576679Y-50171810D01*
X81689779Y-50206118D01*
X81807400Y-50217703D01*
X83053489Y-50217703D01*
X83112537Y-50276751D01*
X83276322Y-50386189D01*
X83458311Y-50461571D01*
X83651509Y-50500000D01*
X83848491Y-50500000D01*
X84041689Y-50461571D01*
X84223678Y-50386189D01*
X84387463Y-50276751D01*
X84526751Y-50137463D01*
X84636189Y-49973678D01*
X84711571Y-49791689D01*
X84750000Y-49598491D01*
X84750000Y-49401509D01*
X84711571Y-49208311D01*
X84636189Y-49026322D01*
X84526751Y-48862537D01*
X84429214Y-48765000D01*
X86739696Y-48765000D01*
X88475108Y-50500413D01*
X88461487Y-50533297D01*
X88400000Y-50842414D01*
X88400000Y-51157586D01*
X88461487Y-51466703D01*
X88582098Y-51757884D01*
X88757199Y-52019941D01*
X88980059Y-52242801D01*
X89242116Y-52417902D01*
X89533297Y-52538513D01*
X89842414Y-52600000D01*
X90157586Y-52600000D01*
X90466703Y-52538513D01*
X90757884Y-52417902D01*
X91019941Y-52242801D01*
X91242801Y-52019941D01*
X91417902Y-51757884D01*
X91538513Y-51466703D01*
X91600000Y-51157586D01*
X91600000Y-50842414D01*
X91538513Y-50533297D01*
X91417902Y-50242116D01*
X91242801Y-49980059D01*
X91019941Y-49757199D01*
X90757884Y-49582098D01*
X90466703Y-49461487D01*
X90157586Y-49400000D01*
X89842414Y-49400000D01*
X89533297Y-49461487D01*
X89500413Y-49475108D01*
X87577832Y-47552528D01*
X87555132Y-47524868D01*
X87444737Y-47434269D01*
X87359979Y-47388964D01*
X87384737Y-47375731D01*
X87495132Y-47285132D01*
X87517832Y-47257472D01*
X88050305Y-46725000D01*
X88397097Y-46725000D01*
X88397097Y-47000000D01*
X88408682Y-47117621D01*
X88442990Y-47230721D01*
X88498704Y-47334955D01*
X88573683Y-47426317D01*
X88665045Y-47501296D01*
X88769279Y-47557010D01*
X88882379Y-47591318D01*
X89000000Y-47602903D01*
X91000000Y-47602903D01*
X91117621Y-47591318D01*
X91230721Y-47557010D01*
X91334955Y-47501296D01*
X91426317Y-47426317D01*
X91501296Y-47334955D01*
X91557010Y-47230721D01*
X91591318Y-47117621D01*
X91602903Y-47000000D01*
X91602903Y-45000000D01*
X91591318Y-44882379D01*
X91557010Y-44769279D01*
X91501296Y-44665045D01*
X91426317Y-44573683D01*
X91334955Y-44498704D01*
X91230721Y-44442990D01*
X91117621Y-44408682D01*
X91000000Y-44397097D01*
X89000000Y-44397097D01*
X88882379Y-44408682D01*
X88769279Y-44442990D01*
X88665045Y-44498704D01*
X88573683Y-44573683D01*
X88498704Y-44665045D01*
X88442990Y-44769279D01*
X88408682Y-44882379D01*
X88397097Y-45000000D01*
X88397097Y-45275000D01*
X87785596Y-45275000D01*
X87749999Y-45271494D01*
X87714402Y-45275000D01*
X87714393Y-45275000D01*
X87607875Y-45285491D01*
X87471212Y-45326947D01*
X87357996Y-45387463D01*
X87345263Y-45394269D01*
X87262525Y-45462170D01*
X87262523Y-45462172D01*
X87234868Y-45484868D01*
X87212172Y-45512523D01*
X86679696Y-46045000D01*
X83832543Y-46045000D01*
X83837610Y-46035521D01*
X83871918Y-45922421D01*
X83883503Y-45804800D01*
X83880600Y-45675000D01*
X83730600Y-45525000D01*
X82569000Y-45525000D01*
X82569000Y-45545000D01*
X82519000Y-45545000D01*
X82519000Y-45525000D01*
X82499000Y-45525000D01*
X82499000Y-45475000D01*
X82519000Y-45475000D01*
X82519000Y-44745200D01*
X82569000Y-44745200D01*
X82569000Y-45475000D01*
X83730600Y-45475000D01*
X83880600Y-45325000D01*
X83883503Y-45195200D01*
X83871918Y-45077579D01*
X83837610Y-44964479D01*
X83781896Y-44860245D01*
X83706917Y-44768883D01*
X83615555Y-44693904D01*
X83511321Y-44638190D01*
X83398221Y-44603882D01*
X83280600Y-44592297D01*
X82719000Y-44595200D01*
X82569000Y-44745200D01*
X82519000Y-44745200D01*
X82369000Y-44595200D01*
X81807400Y-44592297D01*
X81689779Y-44603882D01*
X81576679Y-44638190D01*
X81472445Y-44693904D01*
X81381083Y-44768883D01*
X81306104Y-44860245D01*
X81284855Y-44900000D01*
X78215145Y-44900000D01*
X78193896Y-44860245D01*
X78118917Y-44768883D01*
X78027555Y-44693904D01*
X77923321Y-44638190D01*
X77810221Y-44603882D01*
X77692600Y-44592297D01*
X76488222Y-44592297D01*
X76461571Y-44458311D01*
X76386189Y-44276322D01*
X76276751Y-44112537D01*
X76137463Y-43973249D01*
X75973678Y-43863811D01*
X75940335Y-43850000D01*
X93900000Y-43850000D01*
X93900000Y-55062582D01*
X93900000Y-55062582D01*
G37*
X93900000Y-55062582D02*
X93776322Y-55113811D01*
X93612537Y-55223249D01*
X93560786Y-55275000D01*
X91602903Y-55275000D01*
X91602903Y-55000000D01*
X91591318Y-54882379D01*
X91557010Y-54769279D01*
X91501296Y-54665045D01*
X91426317Y-54573683D01*
X91334955Y-54498704D01*
X91230721Y-54442990D01*
X91117621Y-54408682D01*
X91000000Y-54397097D01*
X89000000Y-54397097D01*
X88882379Y-54408682D01*
X88769279Y-54442990D01*
X88665045Y-54498704D01*
X88573683Y-54573683D01*
X88498704Y-54665045D01*
X88442990Y-54769279D01*
X88408682Y-54882379D01*
X88397097Y-55000000D01*
X88397097Y-57000000D01*
X88408682Y-57117621D01*
X88442990Y-57230721D01*
X88498704Y-57334955D01*
X88573683Y-57426317D01*
X88665045Y-57501296D01*
X88769279Y-57557010D01*
X88882379Y-57591318D01*
X89000000Y-57602903D01*
X91000000Y-57602903D01*
X91117621Y-57591318D01*
X91230721Y-57557010D01*
X91334955Y-57501296D01*
X91426317Y-57426317D01*
X91501296Y-57334955D01*
X91557010Y-57230721D01*
X91591318Y-57117621D01*
X91602903Y-57000000D01*
X91602903Y-56725000D01*
X93560786Y-56725000D01*
X93612537Y-56776751D01*
X93776322Y-56886189D01*
X93900000Y-56937418D01*
X93900000Y-60356627D01*
X93844473Y-60326947D01*
X93707810Y-60285491D01*
X93601292Y-60275000D01*
X93601282Y-60275000D01*
X93565685Y-60271494D01*
X93530088Y-60275000D01*
X91431523Y-60275000D01*
X91417902Y-60242116D01*
X91242801Y-59980059D01*
X91019941Y-59757199D01*
X90757884Y-59582098D01*
X90466703Y-59461487D01*
X90157586Y-59400000D01*
X89842414Y-59400000D01*
X89533297Y-59461487D01*
X89242116Y-59582098D01*
X88980059Y-59757199D01*
X88757199Y-59980059D01*
X88582098Y-60242116D01*
X88461487Y-60533297D01*
X88400000Y-60842414D01*
X88400000Y-61157586D01*
X88461487Y-61466703D01*
X88582098Y-61757884D01*
X88757199Y-62019941D01*
X88980059Y-62242801D01*
X89242116Y-62417902D01*
X89533297Y-62538513D01*
X89842414Y-62600000D01*
X90157586Y-62600000D01*
X90466703Y-62538513D01*
X90757884Y-62417902D01*
X91019941Y-62242801D01*
X91242801Y-62019941D01*
X91417902Y-61757884D01*
X91431523Y-61725000D01*
X93265381Y-61725000D01*
X93350013Y-61809633D01*
X93288429Y-61958311D01*
X93250000Y-62151509D01*
X93250000Y-62348491D01*
X93288429Y-62541689D01*
X93363811Y-62723678D01*
X93473249Y-62887463D01*
X93612537Y-63026751D01*
X93776322Y-63136189D01*
X93900000Y-63187418D01*
X93900000Y-94150000D01*
X65190335Y-94150000D01*
X65223678Y-94136189D01*
X65387463Y-94026751D01*
X65526751Y-93887463D01*
X65636189Y-93723678D01*
X65711571Y-93541689D01*
X65750000Y-93348491D01*
X65750000Y-93151509D01*
X65711571Y-92958311D01*
X65636189Y-92776322D01*
X65575000Y-92684746D01*
X65575000Y-92352903D01*
X65816563Y-92352903D01*
X65844269Y-92404736D01*
X65912170Y-92487474D01*
X65912173Y-92487477D01*
X65934869Y-92515132D01*
X65962523Y-92537827D01*
X66662172Y-93237477D01*
X66684868Y-93265132D01*
X66712523Y-93287828D01*
X66712525Y-93287830D01*
X66786441Y-93348491D01*
X66795263Y-93355731D01*
X66921212Y-93423053D01*
X67057875Y-93464509D01*
X67164393Y-93475000D01*
X67164402Y-93475000D01*
X67199999Y-93478506D01*
X67235596Y-93475000D01*
X74310786Y-93475000D01*
X74362537Y-93526751D01*
X74526322Y-93636189D01*
X74708311Y-93711571D01*
X74901509Y-93750000D01*
X75098491Y-93750000D01*
X75291689Y-93711571D01*
X75473678Y-93636189D01*
X75637463Y-93526751D01*
X75776751Y-93387463D01*
X75886189Y-93223678D01*
X75961571Y-93041689D01*
X76000000Y-92848491D01*
X76000000Y-92651509D01*
X75961571Y-92458311D01*
X75886189Y-92276322D01*
X75785079Y-92125000D01*
X75886189Y-91973678D01*
X75940560Y-91842414D01*
X88400000Y-91842414D01*
X88400000Y-92157586D01*
X88461487Y-92466703D01*
X88582098Y-92757884D01*
X88757199Y-93019941D01*
X88980059Y-93242801D01*
X89242116Y-93417902D01*
X89533297Y-93538513D01*
X89842414Y-93600000D01*
X90157586Y-93600000D01*
X90466703Y-93538513D01*
X90757884Y-93417902D01*
X91019941Y-93242801D01*
X91242801Y-93019941D01*
X91417902Y-92757884D01*
X91538513Y-92466703D01*
X91600000Y-92157586D01*
X91600000Y-91842414D01*
X91538513Y-91533297D01*
X91417902Y-91242116D01*
X91242801Y-90980059D01*
X91019941Y-90757199D01*
X90757884Y-90582098D01*
X90466703Y-90461487D01*
X90157586Y-90400000D01*
X89842414Y-90400000D01*
X89533297Y-90461487D01*
X89242116Y-90582098D01*
X88980059Y-90757199D01*
X88757199Y-90980059D01*
X88582098Y-91242116D01*
X88461487Y-91533297D01*
X88400000Y-91842414D01*
X75940560Y-91842414D01*
X75961571Y-91791689D01*
X76000000Y-91598491D01*
X76000000Y-91401509D01*
X75961571Y-91208311D01*
X75886189Y-91026322D01*
X75776751Y-90862537D01*
X75637463Y-90723249D01*
X75473678Y-90613811D01*
X75291689Y-90538429D01*
X75098491Y-90500000D01*
X74901509Y-90500000D01*
X74708311Y-90538429D01*
X74526322Y-90613811D01*
X74362537Y-90723249D01*
X74223249Y-90862537D01*
X74113811Y-91026322D01*
X74038429Y-91208311D01*
X74000000Y-91401509D01*
X74000000Y-91474696D01*
X73949696Y-91525000D01*
X68127903Y-91525000D01*
X68127903Y-90250000D01*
X68119269Y-90162341D01*
X68132379Y-90166318D01*
X68250000Y-90177903D01*
X69750000Y-90177903D01*
X69867621Y-90166318D01*
X69980721Y-90132010D01*
X70084955Y-90076296D01*
X70176317Y-90001317D01*
X70251296Y-89909955D01*
X70307010Y-89805721D01*
X70341318Y-89692621D01*
X70352903Y-89575000D01*
X70352903Y-89499122D01*
X70537620Y-89462380D01*
X70500000Y-89651509D01*
X70500000Y-89848491D01*
X70538429Y-90041689D01*
X70613811Y-90223678D01*
X70723249Y-90387463D01*
X70862537Y-90526751D01*
X71026322Y-90636189D01*
X71208311Y-90711571D01*
X71401509Y-90750000D01*
X71598491Y-90750000D01*
X71791689Y-90711571D01*
X71973678Y-90636189D01*
X72137463Y-90526751D01*
X72276751Y-90387463D01*
X72386189Y-90223678D01*
X72461571Y-90041689D01*
X72499122Y-89852903D01*
X73250000Y-89852903D01*
X73367621Y-89841318D01*
X73480721Y-89807010D01*
X73500000Y-89796705D01*
X73519279Y-89807010D01*
X73632379Y-89841318D01*
X73750000Y-89852903D01*
X74750000Y-89852903D01*
X74867621Y-89841318D01*
X74980721Y-89807010D01*
X75084955Y-89751296D01*
X75176317Y-89676317D01*
X75251296Y-89584955D01*
X75307010Y-89480721D01*
X75308745Y-89475000D01*
X75464403Y-89475000D01*
X75500000Y-89478506D01*
X75529061Y-89475644D01*
X75651509Y-89500000D01*
X75848491Y-89500000D01*
X76041689Y-89461571D01*
X76223678Y-89386189D01*
X76387463Y-89276751D01*
X76526751Y-89137463D01*
X76636189Y-88973678D01*
X76711571Y-88791689D01*
X76750000Y-88598491D01*
X76750000Y-88425000D01*
X86739097Y-88425000D01*
X86774694Y-88428506D01*
X86810291Y-88425000D01*
X86810301Y-88425000D01*
X86916819Y-88414509D01*
X87053482Y-88373053D01*
X87179431Y-88305731D01*
X87289826Y-88215132D01*
X87312526Y-88187472D01*
X88012652Y-87487347D01*
X88085838Y-87487347D01*
X88279036Y-87448918D01*
X88397097Y-87400016D01*
X88397097Y-88000000D01*
X88408682Y-88117621D01*
X88442990Y-88230721D01*
X88498704Y-88334955D01*
X88573683Y-88426317D01*
X88665045Y-88501296D01*
X88769279Y-88557010D01*
X88882379Y-88591318D01*
X89000000Y-88602903D01*
X91000000Y-88602903D01*
X91117621Y-88591318D01*
X91230721Y-88557010D01*
X91334955Y-88501296D01*
X91426317Y-88426317D01*
X91501296Y-88334955D01*
X91557010Y-88230721D01*
X91591318Y-88117621D01*
X91602903Y-88000000D01*
X91602903Y-86000000D01*
X91591318Y-85882379D01*
X91557010Y-85769279D01*
X91501296Y-85665045D01*
X91426317Y-85573683D01*
X91334955Y-85498704D01*
X91230721Y-85442990D01*
X91117621Y-85408682D01*
X91000000Y-85397097D01*
X89005565Y-85397097D01*
X89012733Y-85361063D01*
X89012733Y-85164081D01*
X88974304Y-84970883D01*
X88898922Y-84788894D01*
X88870767Y-84746758D01*
X88886189Y-84723678D01*
X88961571Y-84541689D01*
X89000000Y-84348491D01*
X89000000Y-84151509D01*
X88961571Y-83958311D01*
X88886189Y-83776322D01*
X88868601Y-83750000D01*
X88886189Y-83723678D01*
X88961571Y-83541689D01*
X89000000Y-83348491D01*
X89000000Y-83256125D01*
X89242116Y-83417902D01*
X89533297Y-83538513D01*
X89842414Y-83600000D01*
X90157586Y-83600000D01*
X90466703Y-83538513D01*
X90757884Y-83417902D01*
X91019941Y-83242801D01*
X91242801Y-83019941D01*
X91417902Y-82757884D01*
X91538513Y-82466703D01*
X91600000Y-82157586D01*
X91600000Y-81842414D01*
X91538513Y-81533297D01*
X91417902Y-81242116D01*
X91242801Y-80980059D01*
X91019941Y-80757199D01*
X90757884Y-80582098D01*
X90466703Y-80461487D01*
X90157586Y-80400000D01*
X89842414Y-80400000D01*
X89533297Y-80461487D01*
X89242116Y-80582098D01*
X88980059Y-80757199D01*
X88757199Y-80980059D01*
X88582098Y-81242116D01*
X88461487Y-81533297D01*
X88400000Y-81842414D01*
X88400000Y-82157586D01*
X88438088Y-82349069D01*
X88291689Y-82288429D01*
X88098491Y-82250000D01*
X87901509Y-82250000D01*
X87708311Y-82288429D01*
X87526322Y-82363811D01*
X87362537Y-82473249D01*
X87223249Y-82612537D01*
X87113811Y-82776322D01*
X87038429Y-82958311D01*
X87000000Y-83151509D01*
X87000000Y-83151693D01*
X84876714Y-85274980D01*
X72834697Y-85274980D01*
X71984716Y-84425000D01*
X72514403Y-84425000D01*
X72550000Y-84428506D01*
X72585597Y-84425000D01*
X72585607Y-84425000D01*
X72692125Y-84414509D01*
X72828788Y-84373053D01*
X72954737Y-84305731D01*
X73065132Y-84215132D01*
X73087832Y-84187472D01*
X73275304Y-84000000D01*
X73348491Y-84000000D01*
X73541689Y-83961571D01*
X73723678Y-83886189D01*
X73887463Y-83776751D01*
X74026751Y-83637463D01*
X74136189Y-83473678D01*
X74211571Y-83291689D01*
X74250000Y-83098491D01*
X74250000Y-82901509D01*
X74211571Y-82708311D01*
X74136189Y-82526322D01*
X74026751Y-82362537D01*
X73887463Y-82223249D01*
X73723678Y-82113811D01*
X73541689Y-82038429D01*
X73348491Y-82000000D01*
X73151509Y-82000000D01*
X72958311Y-82038429D01*
X72776322Y-82113811D01*
X72612537Y-82223249D01*
X72473249Y-82362537D01*
X72363811Y-82526322D01*
X72288429Y-82708311D01*
X72250000Y-82901509D01*
X72250000Y-82974696D01*
X72249696Y-82975000D01*
X70147459Y-82975000D01*
X70084955Y-82923704D01*
X69980721Y-82867990D01*
X69867621Y-82833682D01*
X69750000Y-82822097D01*
X68250000Y-82822097D01*
X68132379Y-82833682D01*
X68119269Y-82837659D01*
X68127903Y-82750000D01*
X68127903Y-81250000D01*
X68118704Y-81156601D01*
X68300305Y-80975000D01*
X72560786Y-80975000D01*
X72612537Y-81026751D01*
X72776322Y-81136189D01*
X72958311Y-81211571D01*
X73151509Y-81250000D01*
X73348491Y-81250000D01*
X73541689Y-81211571D01*
X73723678Y-81136189D01*
X73887463Y-81026751D01*
X74026751Y-80887463D01*
X74136189Y-80723678D01*
X74211571Y-80541689D01*
X74250000Y-80348491D01*
X74250000Y-80151509D01*
X74211571Y-79958311D01*
X74136189Y-79776322D01*
X74026751Y-79612537D01*
X73887463Y-79473249D01*
X73723678Y-79363811D01*
X73541689Y-79288429D01*
X73348491Y-79250000D01*
X73151509Y-79250000D01*
X72958311Y-79288429D01*
X72776322Y-79363811D01*
X72612537Y-79473249D01*
X72560786Y-79525000D01*
X68035596Y-79525000D01*
X67999999Y-79521494D01*
X67964402Y-79525000D01*
X67964393Y-79525000D01*
X67857875Y-79535491D01*
X67740118Y-79571212D01*
X67721212Y-79576947D01*
X67595263Y-79644269D01*
X67512525Y-79712170D01*
X67512523Y-79712172D01*
X67484868Y-79734868D01*
X67462172Y-79762523D01*
X66762524Y-80462172D01*
X66734868Y-80484869D01*
X66712172Y-80512524D01*
X66712170Y-80512526D01*
X66693229Y-80535606D01*
X66644269Y-80595264D01*
X66616563Y-80647097D01*
X66375000Y-80647097D01*
X66375000Y-80535079D01*
X66387463Y-80526751D01*
X66526751Y-80387463D01*
X66636189Y-80223678D01*
X66711571Y-80041689D01*
X66750000Y-79848491D01*
X66750000Y-79651509D01*
X66711571Y-79458311D01*
X66636189Y-79276322D01*
X66526751Y-79112537D01*
X66387463Y-78973249D01*
X66223678Y-78863811D01*
X66041689Y-78788429D01*
X65848491Y-78750000D01*
X65651509Y-78750000D01*
X65458311Y-78788429D01*
X65276322Y-78863811D01*
X65112537Y-78973249D01*
X64973249Y-79112537D01*
X64875000Y-79259577D01*
X64776751Y-79112537D01*
X64637463Y-78973249D01*
X64473678Y-78863811D01*
X64291689Y-78788429D01*
X64098491Y-78750000D01*
X63901509Y-78750000D01*
X63708311Y-78788429D01*
X63526322Y-78863811D01*
X63362537Y-78973249D01*
X63223249Y-79112537D01*
X63113811Y-79276322D01*
X63038429Y-79458311D01*
X63000000Y-79651509D01*
X63000000Y-79848491D01*
X63038429Y-80041689D01*
X63113811Y-80223678D01*
X63223249Y-80387463D01*
X63275001Y-80439215D01*
X63275001Y-80799999D01*
X63275000Y-80800000D01*
X63275000Y-80913466D01*
X63273704Y-80915045D01*
X63250000Y-80959392D01*
X63226296Y-80915045D01*
X63225000Y-80913466D01*
X63225000Y-80800000D01*
X63075000Y-80650000D01*
X62975000Y-80647097D01*
X62857379Y-80658682D01*
X62850000Y-80660920D01*
X62842621Y-80658682D01*
X62725000Y-80647097D01*
X62175000Y-80647097D01*
X62057379Y-80658682D01*
X62050000Y-80660920D01*
X62042621Y-80658682D01*
X61925000Y-80647097D01*
X61375000Y-80647097D01*
X61257379Y-80658682D01*
X61144279Y-80692990D01*
X61040045Y-80748704D01*
X60948683Y-80823683D01*
X60873704Y-80915045D01*
X60817990Y-81019279D01*
X60783682Y-81132379D01*
X60772097Y-81250000D01*
X60772097Y-82750000D01*
X60779974Y-82829974D01*
X60700000Y-82822097D01*
X59200000Y-82822097D01*
X59082379Y-82833682D01*
X58969279Y-82867990D01*
X58865045Y-82923704D01*
X58773683Y-82998683D01*
X58698704Y-83090045D01*
X58642990Y-83194279D01*
X58608682Y-83307379D01*
X58597097Y-83425000D01*
X58597097Y-83975000D01*
X58608682Y-84092621D01*
X58610920Y-84100000D01*
X58608682Y-84107379D01*
X58597097Y-84225000D01*
X58597097Y-84721793D01*
X58475000Y-84599696D01*
X58475000Y-82300304D01*
X62123795Y-78651509D01*
X78000000Y-78651509D01*
X78000000Y-78848491D01*
X78038429Y-79041689D01*
X78113811Y-79223678D01*
X78223249Y-79387463D01*
X78362537Y-79526751D01*
X78526322Y-79636189D01*
X78708311Y-79711571D01*
X78901509Y-79750000D01*
X79098491Y-79750000D01*
X79291689Y-79711571D01*
X79473678Y-79636189D01*
X79637463Y-79526751D01*
X79776751Y-79387463D01*
X79886189Y-79223678D01*
X79961571Y-79041689D01*
X80000000Y-78848491D01*
X80000000Y-78651509D01*
X79961571Y-78458311D01*
X79886189Y-78276322D01*
X79776751Y-78112537D01*
X79725000Y-78060786D01*
X79725000Y-77739080D01*
X79732379Y-77741318D01*
X79850000Y-77752903D01*
X79900000Y-77752903D01*
X79900000Y-78000000D01*
X79901921Y-78019509D01*
X79907612Y-78038268D01*
X79916853Y-78055557D01*
X79929289Y-78070711D01*
X79944443Y-78083147D01*
X79961732Y-78092388D01*
X79980491Y-78098079D01*
X80000000Y-78100000D01*
X81447097Y-78100000D01*
X81458682Y-78217621D01*
X81492990Y-78330721D01*
X81548704Y-78434955D01*
X81623683Y-78526317D01*
X81715045Y-78601296D01*
X81819279Y-78657010D01*
X81932379Y-78691318D01*
X82050000Y-78702903D01*
X82750000Y-78702903D01*
X82750000Y-78848491D01*
X82788429Y-79041689D01*
X82863811Y-79223678D01*
X82964921Y-79375000D01*
X82863811Y-79526322D01*
X82788429Y-79708311D01*
X82770769Y-79797097D01*
X82050000Y-79797097D01*
X81932379Y-79808682D01*
X81819279Y-79842990D01*
X81715045Y-79898704D01*
X81623683Y-79973683D01*
X81548704Y-80065045D01*
X81492990Y-80169279D01*
X81458682Y-80282379D01*
X81447097Y-80400000D01*
X80000000Y-80400000D01*
X79980491Y-80401921D01*
X79961732Y-80407612D01*
X79944443Y-80416853D01*
X79929289Y-80429289D01*
X79916853Y-80444443D01*
X79907612Y-80461732D01*
X79901921Y-80480491D01*
X79900000Y-80500000D01*
X79900000Y-80747097D01*
X79850000Y-80747097D01*
X79732379Y-80758682D01*
X79619279Y-80792990D01*
X79515045Y-80848704D01*
X79423683Y-80923683D01*
X79348704Y-81015045D01*
X79333886Y-81042768D01*
X79221212Y-81076947D01*
X79095263Y-81144269D01*
X79012525Y-81212170D01*
X79012523Y-81212172D01*
X78984868Y-81234868D01*
X78972449Y-81250000D01*
X78901509Y-81250000D01*
X78708311Y-81288429D01*
X78526322Y-81363811D01*
X78362537Y-81473249D01*
X78223249Y-81612537D01*
X78113811Y-81776322D01*
X78038429Y-81958311D01*
X78000000Y-82151509D01*
X78000000Y-82348491D01*
X78038429Y-82541689D01*
X78113811Y-82723678D01*
X78223249Y-82887463D01*
X78362537Y-83026751D01*
X78526322Y-83136189D01*
X78708311Y-83211571D01*
X78901509Y-83250000D01*
X79098491Y-83250000D01*
X79291689Y-83211571D01*
X79473678Y-83136189D01*
X79637463Y-83026751D01*
X79776751Y-82887463D01*
X79866661Y-82752903D01*
X79900000Y-82752903D01*
X79900000Y-83000000D01*
X79901921Y-83019509D01*
X79907612Y-83038268D01*
X79916853Y-83055557D01*
X79929289Y-83070711D01*
X79944443Y-83083147D01*
X79961732Y-83092388D01*
X79980491Y-83098079D01*
X80000000Y-83100000D01*
X81447097Y-83100000D01*
X81458682Y-83217621D01*
X81492990Y-83330721D01*
X81548704Y-83434955D01*
X81623683Y-83526317D01*
X81715045Y-83601296D01*
X81819279Y-83657010D01*
X81932379Y-83691318D01*
X82050000Y-83702903D01*
X82770769Y-83702903D01*
X82788429Y-83791689D01*
X82863811Y-83973678D01*
X82973249Y-84137463D01*
X83112537Y-84276751D01*
X83276322Y-84386189D01*
X83458311Y-84461571D01*
X83651509Y-84500000D01*
X83848491Y-84500000D01*
X84041689Y-84461571D01*
X84223678Y-84386189D01*
X84387463Y-84276751D01*
X84526751Y-84137463D01*
X84636189Y-83973678D01*
X84711571Y-83791689D01*
X84750000Y-83598491D01*
X84750000Y-83401509D01*
X84711571Y-83208311D01*
X84636189Y-83026322D01*
X84526751Y-82862537D01*
X84439437Y-82775223D01*
X84423053Y-82721212D01*
X84355731Y-82595263D01*
X84295190Y-82521494D01*
X84287830Y-82512526D01*
X84287828Y-82512524D01*
X84265131Y-82484868D01*
X84237476Y-82462172D01*
X83987832Y-82212528D01*
X83965132Y-82184868D01*
X83854737Y-82094269D01*
X83728788Y-82026947D01*
X83675790Y-82010870D01*
X83651296Y-81965045D01*
X83576317Y-81873683D01*
X83484955Y-81798704D01*
X83393836Y-81750000D01*
X83484955Y-81701296D01*
X83576317Y-81626317D01*
X83651296Y-81534955D01*
X83675790Y-81489130D01*
X83728788Y-81473053D01*
X83854737Y-81405731D01*
X83965132Y-81315132D01*
X83987832Y-81287472D01*
X84237476Y-81037828D01*
X84265131Y-81015132D01*
X84289969Y-80984868D01*
X84347271Y-80915045D01*
X84355731Y-80904737D01*
X84423053Y-80778788D01*
X84439437Y-80724777D01*
X84526751Y-80637463D01*
X84636189Y-80473678D01*
X84711571Y-80291689D01*
X84750000Y-80098491D01*
X84750000Y-79901509D01*
X84711571Y-79708311D01*
X84636189Y-79526322D01*
X84535079Y-79375000D01*
X84636189Y-79223678D01*
X84711571Y-79041689D01*
X84750000Y-78848491D01*
X84750000Y-78651509D01*
X84711571Y-78458311D01*
X84636189Y-78276322D01*
X84526751Y-78112537D01*
X84477225Y-78063011D01*
X84478506Y-78050000D01*
X84475000Y-78014403D01*
X84475000Y-78014393D01*
X84464509Y-77907875D01*
X84423053Y-77771212D01*
X84355731Y-77645263D01*
X84265131Y-77534868D01*
X84237476Y-77512172D01*
X83937832Y-77212528D01*
X83915132Y-77184868D01*
X83804737Y-77094269D01*
X83686621Y-77031134D01*
X83651296Y-76965045D01*
X83576317Y-76873683D01*
X83484955Y-76798704D01*
X83393836Y-76750000D01*
X83484955Y-76701296D01*
X83576317Y-76626317D01*
X83651296Y-76534955D01*
X83675790Y-76489130D01*
X83728788Y-76473053D01*
X83854737Y-76405731D01*
X83965132Y-76315132D01*
X83987832Y-76287472D01*
X84237476Y-76037828D01*
X84265131Y-76015132D01*
X84277550Y-76000000D01*
X88397097Y-76000000D01*
X88397097Y-78000000D01*
X88408682Y-78117621D01*
X88442990Y-78230721D01*
X88498704Y-78334955D01*
X88573683Y-78426317D01*
X88665045Y-78501296D01*
X88769279Y-78557010D01*
X88882379Y-78591318D01*
X89000000Y-78602903D01*
X91000000Y-78602903D01*
X91117621Y-78591318D01*
X91230721Y-78557010D01*
X91334955Y-78501296D01*
X91426317Y-78426317D01*
X91501296Y-78334955D01*
X91557010Y-78230721D01*
X91591318Y-78117621D01*
X91602903Y-78000000D01*
X91602903Y-76000000D01*
X91591318Y-75882379D01*
X91557010Y-75769279D01*
X91501296Y-75665045D01*
X91426317Y-75573683D01*
X91334955Y-75498704D01*
X91230721Y-75442990D01*
X91117621Y-75408682D01*
X91000000Y-75397097D01*
X89000000Y-75397097D01*
X88882379Y-75408682D01*
X88769279Y-75442990D01*
X88665045Y-75498704D01*
X88573683Y-75573683D01*
X88498704Y-75665045D01*
X88442990Y-75769279D01*
X88408682Y-75882379D01*
X88397097Y-76000000D01*
X84277550Y-76000000D01*
X84289969Y-75984868D01*
X84340182Y-75923683D01*
X84355731Y-75904737D01*
X84423053Y-75778788D01*
X84439437Y-75724777D01*
X84526751Y-75637463D01*
X84636189Y-75473678D01*
X84711571Y-75291689D01*
X84750000Y-75098491D01*
X84750000Y-74901509D01*
X84711571Y-74708311D01*
X84636189Y-74526322D01*
X84526751Y-74362537D01*
X84387463Y-74223249D01*
X84223678Y-74113811D01*
X84041689Y-74038429D01*
X83848491Y-74000000D01*
X83651509Y-74000000D01*
X83458311Y-74038429D01*
X83276322Y-74113811D01*
X83112537Y-74223249D01*
X82973249Y-74362537D01*
X82863811Y-74526322D01*
X82788429Y-74708311D01*
X82770769Y-74797097D01*
X82050000Y-74797097D01*
X81932379Y-74808682D01*
X81819279Y-74842990D01*
X81715045Y-74898704D01*
X81623683Y-74973683D01*
X81548704Y-75065045D01*
X81492990Y-75169279D01*
X81458682Y-75282379D01*
X81447097Y-75400000D01*
X80000000Y-75400000D01*
X79980491Y-75401921D01*
X79961732Y-75407612D01*
X79944443Y-75416853D01*
X79929289Y-75429289D01*
X79916853Y-75444443D01*
X79907612Y-75461732D01*
X79901921Y-75480491D01*
X79900000Y-75500000D01*
X79900000Y-75747097D01*
X79850000Y-75747097D01*
X79732379Y-75758682D01*
X79619279Y-75792990D01*
X79515045Y-75848704D01*
X79423683Y-75923683D01*
X79348704Y-76015045D01*
X79343383Y-76025000D01*
X79285596Y-76025000D01*
X79249999Y-76021494D01*
X79214402Y-76025000D01*
X79214393Y-76025000D01*
X79107875Y-76035491D01*
X78971212Y-76076947D01*
X78845263Y-76144269D01*
X78734868Y-76234868D01*
X78712168Y-76262528D01*
X78512524Y-76462172D01*
X78484869Y-76484868D01*
X78462173Y-76512523D01*
X78462170Y-76512526D01*
X78394269Y-76595264D01*
X78326947Y-76721213D01*
X78307449Y-76785492D01*
X78285492Y-76857875D01*
X78279846Y-76915197D01*
X78271494Y-77000000D01*
X78275001Y-77035607D01*
X78275000Y-78060786D01*
X78223249Y-78112537D01*
X78113811Y-78276322D01*
X78038429Y-78458311D01*
X78000000Y-78651509D01*
X62123795Y-78651509D01*
X62600295Y-78175010D01*
X64900794Y-78175008D01*
X64936401Y-78178515D01*
X65030176Y-78169279D01*
X65078526Y-78164517D01*
X65130642Y-78148708D01*
X65215188Y-78123062D01*
X65341137Y-78055740D01*
X65423875Y-77987839D01*
X65423878Y-77987836D01*
X65451533Y-77965140D01*
X65474229Y-77937485D01*
X66237482Y-77174233D01*
X66265131Y-77151542D01*
X66287823Y-77123892D01*
X66287830Y-77123885D01*
X66355731Y-77041147D01*
X66423053Y-76915198D01*
X66440441Y-76857876D01*
X66464509Y-76778535D01*
X66475000Y-76672017D01*
X66475000Y-76672007D01*
X66478506Y-76636410D01*
X66475000Y-76600813D01*
X66475000Y-69800304D01*
X70275304Y-66000000D01*
X88397097Y-66000000D01*
X88397097Y-68000000D01*
X88408682Y-68117621D01*
X88442990Y-68230721D01*
X88498704Y-68334955D01*
X88573683Y-68426317D01*
X88665045Y-68501296D01*
X88769279Y-68557010D01*
X88882379Y-68591318D01*
X89000000Y-68602903D01*
X89275000Y-68602903D01*
X89275001Y-70568477D01*
X89242116Y-70582098D01*
X88980059Y-70757199D01*
X88757199Y-70980059D01*
X88582098Y-71242116D01*
X88461487Y-71533297D01*
X88400000Y-71842414D01*
X88400000Y-72157586D01*
X88461487Y-72466703D01*
X88582098Y-72757884D01*
X88757199Y-73019941D01*
X88980059Y-73242801D01*
X89242116Y-73417902D01*
X89533297Y-73538513D01*
X89842414Y-73600000D01*
X90157586Y-73600000D01*
X90466703Y-73538513D01*
X90757884Y-73417902D01*
X91019941Y-73242801D01*
X91242801Y-73019941D01*
X91417902Y-72757884D01*
X91538513Y-72466703D01*
X91600000Y-72157586D01*
X91600000Y-71842414D01*
X91538513Y-71533297D01*
X91417902Y-71242116D01*
X91242801Y-70980059D01*
X91019941Y-70757199D01*
X90757884Y-70582098D01*
X90725000Y-70568477D01*
X90725000Y-68602903D01*
X91000000Y-68602903D01*
X91117621Y-68591318D01*
X91230721Y-68557010D01*
X91334955Y-68501296D01*
X91426317Y-68426317D01*
X91501296Y-68334955D01*
X91557010Y-68230721D01*
X91591318Y-68117621D01*
X91602903Y-68000000D01*
X91602903Y-66000000D01*
X91591318Y-65882379D01*
X91557010Y-65769279D01*
X91501296Y-65665045D01*
X91426317Y-65573683D01*
X91334955Y-65498704D01*
X91230721Y-65442990D01*
X91117621Y-65408682D01*
X91000000Y-65397097D01*
X89000000Y-65397097D01*
X88882379Y-65408682D01*
X88769279Y-65442990D01*
X88665045Y-65498704D01*
X88573683Y-65573683D01*
X88498704Y-65665045D01*
X88442990Y-65769279D01*
X88408682Y-65882379D01*
X88397097Y-66000000D01*
X70275304Y-66000000D01*
X74737482Y-61537823D01*
X74765131Y-61515132D01*
X74787823Y-61487482D01*
X74787830Y-61487475D01*
X74855731Y-61404737D01*
X74923053Y-61278788D01*
X74923053Y-61278787D01*
X74964509Y-61142125D01*
X74975000Y-61035607D01*
X74975000Y-61035598D01*
X74978506Y-61000001D01*
X74975000Y-60964404D01*
X74975000Y-50464891D01*
X75151509Y-50500000D01*
X75348491Y-50500000D01*
X75541689Y-50461571D01*
X75723678Y-50386189D01*
X75887463Y-50276751D01*
X75991537Y-50172677D01*
X76101779Y-50206118D01*
X76219400Y-50217703D01*
X77692600Y-50217703D01*
X77810221Y-50206118D01*
X77923321Y-50171810D01*
X78027555Y-50116096D01*
X78118917Y-50041117D01*
X78193896Y-49949755D01*
X78247216Y-49850000D01*
X81252784Y-49850000D01*
X81306104Y-49949755D01*
X81381083Y-50041117D01*
X81472445Y-50116096D01*
X81576679Y-50171810D01*
X81689779Y-50206118D01*
X81807400Y-50217703D01*
X83053489Y-50217703D01*
X83112537Y-50276751D01*
X83276322Y-50386189D01*
X83458311Y-50461571D01*
X83651509Y-50500000D01*
X83848491Y-50500000D01*
X84041689Y-50461571D01*
X84223678Y-50386189D01*
X84387463Y-50276751D01*
X84526751Y-50137463D01*
X84636189Y-49973678D01*
X84711571Y-49791689D01*
X84750000Y-49598491D01*
X84750000Y-49401509D01*
X84711571Y-49208311D01*
X84636189Y-49026322D01*
X84526751Y-48862537D01*
X84429214Y-48765000D01*
X86739696Y-48765000D01*
X88475108Y-50500413D01*
X88461487Y-50533297D01*
X88400000Y-50842414D01*
X88400000Y-51157586D01*
X88461487Y-51466703D01*
X88582098Y-51757884D01*
X88757199Y-52019941D01*
X88980059Y-52242801D01*
X89242116Y-52417902D01*
X89533297Y-52538513D01*
X89842414Y-52600000D01*
X90157586Y-52600000D01*
X90466703Y-52538513D01*
X90757884Y-52417902D01*
X91019941Y-52242801D01*
X91242801Y-52019941D01*
X91417902Y-51757884D01*
X91538513Y-51466703D01*
X91600000Y-51157586D01*
X91600000Y-50842414D01*
X91538513Y-50533297D01*
X91417902Y-50242116D01*
X91242801Y-49980059D01*
X91019941Y-49757199D01*
X90757884Y-49582098D01*
X90466703Y-49461487D01*
X90157586Y-49400000D01*
X89842414Y-49400000D01*
X89533297Y-49461487D01*
X89500413Y-49475108D01*
X87577832Y-47552528D01*
X87555132Y-47524868D01*
X87444737Y-47434269D01*
X87359979Y-47388964D01*
X87384737Y-47375731D01*
X87495132Y-47285132D01*
X87517832Y-47257472D01*
X88050305Y-46725000D01*
X88397097Y-46725000D01*
X88397097Y-47000000D01*
X88408682Y-47117621D01*
X88442990Y-47230721D01*
X88498704Y-47334955D01*
X88573683Y-47426317D01*
X88665045Y-47501296D01*
X88769279Y-47557010D01*
X88882379Y-47591318D01*
X89000000Y-47602903D01*
X91000000Y-47602903D01*
X91117621Y-47591318D01*
X91230721Y-47557010D01*
X91334955Y-47501296D01*
X91426317Y-47426317D01*
X91501296Y-47334955D01*
X91557010Y-47230721D01*
X91591318Y-47117621D01*
X91602903Y-47000000D01*
X91602903Y-45000000D01*
X91591318Y-44882379D01*
X91557010Y-44769279D01*
X91501296Y-44665045D01*
X91426317Y-44573683D01*
X91334955Y-44498704D01*
X91230721Y-44442990D01*
X91117621Y-44408682D01*
X91000000Y-44397097D01*
X89000000Y-44397097D01*
X88882379Y-44408682D01*
X88769279Y-44442990D01*
X88665045Y-44498704D01*
X88573683Y-44573683D01*
X88498704Y-44665045D01*
X88442990Y-44769279D01*
X88408682Y-44882379D01*
X88397097Y-45000000D01*
X88397097Y-45275000D01*
X87785596Y-45275000D01*
X87749999Y-45271494D01*
X87714402Y-45275000D01*
X87714393Y-45275000D01*
X87607875Y-45285491D01*
X87471212Y-45326947D01*
X87357996Y-45387463D01*
X87345263Y-45394269D01*
X87262525Y-45462170D01*
X87262523Y-45462172D01*
X87234868Y-45484868D01*
X87212172Y-45512523D01*
X86679696Y-46045000D01*
X83832543Y-46045000D01*
X83837610Y-46035521D01*
X83871918Y-45922421D01*
X83883503Y-45804800D01*
X83880600Y-45675000D01*
X83730600Y-45525000D01*
X82569000Y-45525000D01*
X82569000Y-45545000D01*
X82519000Y-45545000D01*
X82519000Y-45525000D01*
X82499000Y-45525000D01*
X82499000Y-45475000D01*
X82519000Y-45475000D01*
X82519000Y-44745200D01*
X82569000Y-44745200D01*
X82569000Y-45475000D01*
X83730600Y-45475000D01*
X83880600Y-45325000D01*
X83883503Y-45195200D01*
X83871918Y-45077579D01*
X83837610Y-44964479D01*
X83781896Y-44860245D01*
X83706917Y-44768883D01*
X83615555Y-44693904D01*
X83511321Y-44638190D01*
X83398221Y-44603882D01*
X83280600Y-44592297D01*
X82719000Y-44595200D01*
X82569000Y-44745200D01*
X82519000Y-44745200D01*
X82369000Y-44595200D01*
X81807400Y-44592297D01*
X81689779Y-44603882D01*
X81576679Y-44638190D01*
X81472445Y-44693904D01*
X81381083Y-44768883D01*
X81306104Y-44860245D01*
X81284855Y-44900000D01*
X78215145Y-44900000D01*
X78193896Y-44860245D01*
X78118917Y-44768883D01*
X78027555Y-44693904D01*
X77923321Y-44638190D01*
X77810221Y-44603882D01*
X77692600Y-44592297D01*
X76488222Y-44592297D01*
X76461571Y-44458311D01*
X76386189Y-44276322D01*
X76276751Y-44112537D01*
X76137463Y-43973249D01*
X75973678Y-43863811D01*
X75940335Y-43850000D01*
X93900000Y-43850000D01*
X93900000Y-55062582D01*
G36*
X75026322Y-43863811D02*
G01*
X74862537Y-43973249D01*
X74723249Y-44112537D01*
X74613811Y-44276322D01*
X74538429Y-44458311D01*
X74500000Y-44651509D01*
X74500000Y-44848491D01*
X74538429Y-45041689D01*
X74613811Y-45223678D01*
X74723249Y-45387463D01*
X74862537Y-45526751D01*
X75026322Y-45636189D01*
X75118442Y-45674346D01*
X75431568Y-45987472D01*
X75454268Y-46015132D01*
X75564663Y-46105731D01*
X75624721Y-46137833D01*
X75575263Y-46164269D01*
X75492525Y-46232170D01*
X75492523Y-46232172D01*
X75464868Y-46254868D01*
X75442172Y-46282523D01*
X75224695Y-46500000D01*
X75151509Y-46500000D01*
X74958311Y-46538429D01*
X74776322Y-46613811D01*
X74612537Y-46723249D01*
X74473249Y-46862537D01*
X74363811Y-47026322D01*
X74288429Y-47208311D01*
X74250000Y-47401509D01*
X74250000Y-47474695D01*
X73762523Y-47962173D01*
X73734869Y-47984868D01*
X73712173Y-48012523D01*
X73712170Y-48012526D01*
X73644269Y-48095264D01*
X73576947Y-48221213D01*
X73557449Y-48285491D01*
X73539318Y-48345264D01*
X73535492Y-48357876D01*
X73521494Y-48500000D01*
X73525001Y-48535607D01*
X73525000Y-60699695D01*
X65262523Y-68962173D01*
X65234869Y-68984868D01*
X65212173Y-69012523D01*
X65212170Y-69012526D01*
X65144269Y-69095264D01*
X65076947Y-69221213D01*
X65035492Y-69357876D01*
X65021494Y-69500000D01*
X65025001Y-69535607D01*
X65025001Y-70360787D01*
X64887463Y-70223249D01*
X64723678Y-70113811D01*
X64541689Y-70038429D01*
X64348491Y-70000000D01*
X64151509Y-70000000D01*
X63958311Y-70038429D01*
X63776322Y-70113811D01*
X63612537Y-70223249D01*
X63473249Y-70362537D01*
X63363811Y-70526322D01*
X63288429Y-70708311D01*
X63250000Y-70901509D01*
X63250000Y-71098491D01*
X63288429Y-71291689D01*
X63363811Y-71473678D01*
X63473249Y-71637463D01*
X63612537Y-71776751D01*
X63776322Y-71886189D01*
X63958311Y-71961571D01*
X64151509Y-72000000D01*
X64224696Y-72000000D01*
X64525001Y-72300306D01*
X64525000Y-75285109D01*
X64348491Y-75250000D01*
X64151509Y-75250000D01*
X63958311Y-75288429D01*
X63776322Y-75363811D01*
X63612537Y-75473249D01*
X63560786Y-75525000D01*
X62035596Y-75525000D01*
X61999999Y-75521494D01*
X61964402Y-75525000D01*
X61964393Y-75525000D01*
X61857875Y-75535491D01*
X61731972Y-75573683D01*
X61721212Y-75576947D01*
X61595263Y-75644269D01*
X61512525Y-75712170D01*
X61512523Y-75712172D01*
X61484868Y-75734868D01*
X61462172Y-75762523D01*
X58000000Y-79224696D01*
X58000000Y-79151509D01*
X57961571Y-78958311D01*
X57886189Y-78776322D01*
X57776751Y-78612537D01*
X57637463Y-78473249D01*
X57473678Y-78363811D01*
X57291689Y-78288429D01*
X57098491Y-78250000D01*
X56901509Y-78250000D01*
X56708311Y-78288429D01*
X56526322Y-78363811D01*
X56362537Y-78473249D01*
X56223249Y-78612537D01*
X56113811Y-78776322D01*
X56038429Y-78958311D01*
X56000000Y-79151509D01*
X56000000Y-79224695D01*
X53512523Y-81712173D01*
X53484869Y-81734868D01*
X53462173Y-81762523D01*
X53462170Y-81762526D01*
X53394269Y-81845264D01*
X53326947Y-81971213D01*
X53307414Y-82035606D01*
X53285492Y-82107875D01*
X53279073Y-82173053D01*
X53271494Y-82250000D01*
X53275001Y-82285607D01*
X53275000Y-88787405D01*
X53271494Y-88823002D01*
X53275000Y-88858599D01*
X53275000Y-88858608D01*
X53285491Y-88965126D01*
X53304803Y-89028788D01*
X53326947Y-89101789D01*
X53394269Y-89227738D01*
X53434120Y-89276296D01*
X53484868Y-89338133D01*
X53512524Y-89360830D01*
X53939166Y-89787472D01*
X53961866Y-89815132D01*
X54072261Y-89905731D01*
X54198210Y-89973053D01*
X54334873Y-90014509D01*
X54441391Y-90025000D01*
X54441400Y-90025000D01*
X54476997Y-90028506D01*
X54512594Y-90025000D01*
X58802541Y-90025000D01*
X58865045Y-90076296D01*
X58969279Y-90132010D01*
X59082379Y-90166318D01*
X59200000Y-90177903D01*
X60700000Y-90177903D01*
X60779974Y-90170026D01*
X60772097Y-90250000D01*
X60772097Y-91750000D01*
X60774559Y-91775000D01*
X55714891Y-91775000D01*
X55750000Y-91598491D01*
X55750000Y-91401509D01*
X55711571Y-91208311D01*
X55636189Y-91026322D01*
X55526751Y-90862537D01*
X55387463Y-90723249D01*
X55223678Y-90613811D01*
X55041689Y-90538429D01*
X54848491Y-90500000D01*
X54651509Y-90500000D01*
X54458311Y-90538429D01*
X54276322Y-90613811D01*
X54112537Y-90723249D01*
X54060786Y-90775000D01*
X46550305Y-90775000D01*
X46475000Y-90699696D01*
X46475000Y-80940000D01*
X46547097Y-80940000D01*
X46547097Y-82640000D01*
X46558682Y-82757621D01*
X46592990Y-82870721D01*
X46648704Y-82974955D01*
X46718499Y-83060000D01*
X46648704Y-83145045D01*
X46592990Y-83249279D01*
X46558682Y-83362379D01*
X46547097Y-83480000D01*
X46547097Y-85180000D01*
X46558682Y-85297621D01*
X46592990Y-85410721D01*
X46648704Y-85514955D01*
X46723683Y-85606317D01*
X46815045Y-85681296D01*
X46919279Y-85737010D01*
X47032379Y-85771318D01*
X47150000Y-85782903D01*
X48850000Y-85782903D01*
X48967621Y-85771318D01*
X49080721Y-85737010D01*
X49184955Y-85681296D01*
X49270000Y-85611501D01*
X49355045Y-85681296D01*
X49459279Y-85737010D01*
X49572379Y-85771318D01*
X49690000Y-85782903D01*
X51390000Y-85782903D01*
X51507621Y-85771318D01*
X51620721Y-85737010D01*
X51724955Y-85681296D01*
X51816317Y-85606317D01*
X51891296Y-85514955D01*
X51947010Y-85410721D01*
X51981318Y-85297621D01*
X51992903Y-85180000D01*
X51992903Y-83480000D01*
X51981318Y-83362379D01*
X51947010Y-83249279D01*
X51891296Y-83145045D01*
X51821501Y-83060000D01*
X51891296Y-82974955D01*
X51947010Y-82870721D01*
X51981318Y-82757621D01*
X51992903Y-82640000D01*
X51992903Y-80940000D01*
X51981318Y-80822379D01*
X51947010Y-80709279D01*
X51891296Y-80605045D01*
X51821501Y-80520000D01*
X51891296Y-80434955D01*
X51947010Y-80330721D01*
X51981318Y-80217621D01*
X51992903Y-80100000D01*
X51992903Y-78400000D01*
X51981318Y-78282379D01*
X51947010Y-78169279D01*
X51891296Y-78065045D01*
X51816317Y-77973683D01*
X51724955Y-77898704D01*
X51620721Y-77842990D01*
X51507621Y-77808682D01*
X51390000Y-77797097D01*
X49690000Y-77797097D01*
X49572379Y-77808682D01*
X49459279Y-77842990D01*
X49355045Y-77898704D01*
X49263683Y-77973683D01*
X49188704Y-78065045D01*
X49132990Y-78169279D01*
X49098682Y-78282379D01*
X49097275Y-78296665D01*
X48924321Y-78123711D01*
X48686833Y-77965027D01*
X48422949Y-77855723D01*
X48142813Y-77800000D01*
X47857187Y-77800000D01*
X47577051Y-77855723D01*
X47313167Y-77965027D01*
X47075679Y-78123711D01*
X46873711Y-78325679D01*
X46715027Y-78563167D01*
X46605723Y-78827051D01*
X46550000Y-79107187D01*
X46550000Y-79392813D01*
X46605723Y-79672949D01*
X46715027Y-79936833D01*
X46873711Y-80174321D01*
X47046665Y-80347275D01*
X47032379Y-80348682D01*
X46919279Y-80382990D01*
X46815045Y-80438704D01*
X46723683Y-80513683D01*
X46648704Y-80605045D01*
X46592990Y-80709279D01*
X46558682Y-80822379D01*
X46547097Y-80940000D01*
X46475000Y-80940000D01*
X46475000Y-71000000D01*
X48397097Y-71000000D01*
X48397097Y-73000000D01*
X48408682Y-73117621D01*
X48442990Y-73230721D01*
X48498704Y-73334955D01*
X48573683Y-73426317D01*
X48665045Y-73501296D01*
X48769279Y-73557010D01*
X48882379Y-73591318D01*
X49000000Y-73602903D01*
X51000000Y-73602903D01*
X51117621Y-73591318D01*
X51230721Y-73557010D01*
X51334955Y-73501296D01*
X51426317Y-73426317D01*
X51501296Y-73334955D01*
X51557010Y-73230721D01*
X51591318Y-73117621D01*
X51602903Y-73000000D01*
X51602903Y-71901509D01*
X53250000Y-71901509D01*
X53250000Y-72098491D01*
X53288429Y-72291689D01*
X53363811Y-72473678D01*
X53473249Y-72637463D01*
X53612537Y-72776751D01*
X53776322Y-72886189D01*
X53958311Y-72961571D01*
X54151509Y-73000000D01*
X54348491Y-73000000D01*
X54541689Y-72961571D01*
X54723678Y-72886189D01*
X54815254Y-72825000D01*
X55672602Y-72825000D01*
X55673683Y-72826317D01*
X55765045Y-72901296D01*
X55869279Y-72957010D01*
X55982379Y-72991318D01*
X56100000Y-73002903D01*
X56150000Y-73002903D01*
X56150000Y-73250000D01*
X56151921Y-73269509D01*
X56157612Y-73288268D01*
X56166853Y-73305557D01*
X56179289Y-73320711D01*
X56194443Y-73333147D01*
X56211732Y-73342388D01*
X56230491Y-73348079D01*
X56250000Y-73350000D01*
X57697097Y-73350000D01*
X57708682Y-73467621D01*
X57742990Y-73580721D01*
X57798704Y-73684955D01*
X57873683Y-73776317D01*
X57965045Y-73851296D01*
X58069279Y-73907010D01*
X58182379Y-73941318D01*
X58300000Y-73952903D01*
X59400000Y-73952903D01*
X59517621Y-73941318D01*
X59630721Y-73907010D01*
X59734955Y-73851296D01*
X59826317Y-73776317D01*
X59899459Y-73687194D01*
X59958311Y-73711571D01*
X60151509Y-73750000D01*
X60348491Y-73750000D01*
X60541689Y-73711571D01*
X60723678Y-73636189D01*
X60887463Y-73526751D01*
X61026751Y-73387463D01*
X61136189Y-73223678D01*
X61211571Y-73041689D01*
X61250000Y-72848491D01*
X61250000Y-72651509D01*
X61211571Y-72458311D01*
X61136189Y-72276322D01*
X61026751Y-72112537D01*
X60887463Y-71973249D01*
X60740423Y-71875000D01*
X60887463Y-71776751D01*
X61026751Y-71637463D01*
X61136189Y-71473678D01*
X61211571Y-71291689D01*
X61250000Y-71098491D01*
X61250000Y-70901509D01*
X61211571Y-70708311D01*
X61136189Y-70526322D01*
X61026751Y-70362537D01*
X60887463Y-70223249D01*
X60723678Y-70113811D01*
X60541689Y-70038429D01*
X60348491Y-70000000D01*
X60151509Y-70000000D01*
X59958311Y-70038429D01*
X59776322Y-70113811D01*
X59728925Y-70145481D01*
X59630721Y-70092990D01*
X59517621Y-70058682D01*
X59400000Y-70047097D01*
X58300000Y-70047097D01*
X58182379Y-70058682D01*
X58069279Y-70092990D01*
X57965045Y-70148704D01*
X57873683Y-70223683D01*
X57798704Y-70315045D01*
X57742990Y-70419279D01*
X57708682Y-70532379D01*
X57697097Y-70650000D01*
X56250000Y-70650000D01*
X56230491Y-70651921D01*
X56211732Y-70657612D01*
X56194443Y-70666853D01*
X56179289Y-70679289D01*
X56166853Y-70694443D01*
X56157612Y-70711732D01*
X56151921Y-70730491D01*
X56150000Y-70750000D01*
X56150000Y-70997097D01*
X56100000Y-70997097D01*
X55982379Y-71008682D01*
X55869279Y-71042990D01*
X55765045Y-71098704D01*
X55673683Y-71173683D01*
X55672602Y-71175000D01*
X54815254Y-71175000D01*
X54723678Y-71113811D01*
X54541689Y-71038429D01*
X54348491Y-71000000D01*
X54151509Y-71000000D01*
X53958311Y-71038429D01*
X53776322Y-71113811D01*
X53612537Y-71223249D01*
X53473249Y-71362537D01*
X53363811Y-71526322D01*
X53288429Y-71708311D01*
X53250000Y-71901509D01*
X51602903Y-71901509D01*
X51602903Y-71000000D01*
X51591318Y-70882379D01*
X51557010Y-70769279D01*
X51501296Y-70665045D01*
X51426317Y-70573683D01*
X51334955Y-70498704D01*
X51230721Y-70442990D01*
X51117621Y-70408682D01*
X51000000Y-70397097D01*
X49000000Y-70397097D01*
X48882379Y-70408682D01*
X48769279Y-70442990D01*
X48665045Y-70498704D01*
X48573683Y-70573683D01*
X48498704Y-70665045D01*
X48442990Y-70769279D01*
X48408682Y-70882379D01*
X48397097Y-71000000D01*
X46475000Y-71000000D01*
X46475000Y-66842414D01*
X48400000Y-66842414D01*
X48400000Y-67157586D01*
X48461487Y-67466703D01*
X48582098Y-67757884D01*
X48757199Y-68019941D01*
X48980059Y-68242801D01*
X49242116Y-68417902D01*
X49533297Y-68538513D01*
X49842414Y-68600000D01*
X50157586Y-68600000D01*
X50466703Y-68538513D01*
X50757884Y-68417902D01*
X51019941Y-68242801D01*
X51242801Y-68019941D01*
X51417902Y-67757884D01*
X51538513Y-67466703D01*
X51600000Y-67157586D01*
X51600000Y-66901509D01*
X53250000Y-66901509D01*
X53250000Y-67098491D01*
X53288429Y-67291689D01*
X53363811Y-67473678D01*
X53473249Y-67637463D01*
X53612537Y-67776751D01*
X53776322Y-67886189D01*
X53958311Y-67961571D01*
X54151509Y-68000000D01*
X54348491Y-68000000D01*
X54541689Y-67961571D01*
X54723678Y-67886189D01*
X54815254Y-67825000D01*
X55672602Y-67825000D01*
X55673683Y-67826317D01*
X55765045Y-67901296D01*
X55869279Y-67957010D01*
X55982379Y-67991318D01*
X56100000Y-68002903D01*
X56150000Y-68002903D01*
X56150000Y-68250000D01*
X56151921Y-68269509D01*
X56157612Y-68288268D01*
X56166853Y-68305557D01*
X56179289Y-68320711D01*
X56194443Y-68333147D01*
X56211732Y-68342388D01*
X56230491Y-68348079D01*
X56250000Y-68350000D01*
X57697097Y-68350000D01*
X57708682Y-68467621D01*
X57742990Y-68580721D01*
X57798704Y-68684955D01*
X57873683Y-68776317D01*
X57965045Y-68851296D01*
X58069279Y-68907010D01*
X58182379Y-68941318D01*
X58300000Y-68952903D01*
X59400000Y-68952903D01*
X59517621Y-68941318D01*
X59630721Y-68907010D01*
X59734955Y-68851296D01*
X59826317Y-68776317D01*
X59899459Y-68687194D01*
X59958311Y-68711571D01*
X60151509Y-68750000D01*
X60348491Y-68750000D01*
X60541689Y-68711571D01*
X60723678Y-68636189D01*
X60887463Y-68526751D01*
X61026751Y-68387463D01*
X61136189Y-68223678D01*
X61211571Y-68041689D01*
X61250000Y-67848491D01*
X61250000Y-67651509D01*
X61211571Y-67458311D01*
X61136189Y-67276322D01*
X61026751Y-67112537D01*
X60887463Y-66973249D01*
X60740423Y-66875000D01*
X60887463Y-66776751D01*
X61026751Y-66637463D01*
X61136189Y-66473678D01*
X61211571Y-66291689D01*
X61250000Y-66098491D01*
X61250000Y-65901509D01*
X61211571Y-65708311D01*
X61136189Y-65526322D01*
X61026751Y-65362537D01*
X60887463Y-65223249D01*
X60723678Y-65113811D01*
X60541689Y-65038429D01*
X60348491Y-65000000D01*
X60151509Y-65000000D01*
X59958311Y-65038429D01*
X59776322Y-65113811D01*
X59728925Y-65145481D01*
X59630721Y-65092990D01*
X59517621Y-65058682D01*
X59400000Y-65047097D01*
X58300000Y-65047097D01*
X58182379Y-65058682D01*
X58069279Y-65092990D01*
X57965045Y-65148704D01*
X57873683Y-65223683D01*
X57798704Y-65315045D01*
X57742990Y-65419279D01*
X57708682Y-65532379D01*
X57697097Y-65650000D01*
X56250000Y-65650000D01*
X56230491Y-65651921D01*
X56211732Y-65657612D01*
X56194443Y-65666853D01*
X56179289Y-65679289D01*
X56166853Y-65694443D01*
X56157612Y-65711732D01*
X56151921Y-65730491D01*
X56150000Y-65750000D01*
X56150000Y-65997097D01*
X56100000Y-65997097D01*
X55982379Y-66008682D01*
X55869279Y-66042990D01*
X55765045Y-66098704D01*
X55673683Y-66173683D01*
X55672602Y-66175000D01*
X54815254Y-66175000D01*
X54723678Y-66113811D01*
X54541689Y-66038429D01*
X54348491Y-66000000D01*
X54151509Y-66000000D01*
X53958311Y-66038429D01*
X53776322Y-66113811D01*
X53612537Y-66223249D01*
X53473249Y-66362537D01*
X53363811Y-66526322D01*
X53288429Y-66708311D01*
X53250000Y-66901509D01*
X51600000Y-66901509D01*
X51600000Y-66842414D01*
X51538513Y-66533297D01*
X51417902Y-66242116D01*
X51242801Y-65980059D01*
X51019941Y-65757199D01*
X50757884Y-65582098D01*
X50466703Y-65461487D01*
X50157586Y-65400000D01*
X49842414Y-65400000D01*
X49533297Y-65461487D01*
X49242116Y-65582098D01*
X48980059Y-65757199D01*
X48757199Y-65980059D01*
X48582098Y-66242116D01*
X48461487Y-66533297D01*
X48400000Y-66842414D01*
X46475000Y-66842414D01*
X46475000Y-50000000D01*
X48397097Y-50000000D01*
X48397097Y-52000000D01*
X48408682Y-52117621D01*
X48442990Y-52230721D01*
X48498704Y-52334955D01*
X48573683Y-52426317D01*
X48665045Y-52501296D01*
X48769279Y-52557010D01*
X48882379Y-52591318D01*
X49000000Y-52602903D01*
X51000000Y-52602903D01*
X51117621Y-52591318D01*
X51230721Y-52557010D01*
X51334955Y-52501296D01*
X51426317Y-52426317D01*
X51501296Y-52334955D01*
X51557010Y-52230721D01*
X51591318Y-52117621D01*
X51602903Y-52000000D01*
X51602903Y-50000000D01*
X51591318Y-49882379D01*
X51557010Y-49769279D01*
X51501296Y-49665045D01*
X51426317Y-49573683D01*
X51334955Y-49498704D01*
X51230721Y-49442990D01*
X51117621Y-49408682D01*
X51000000Y-49397097D01*
X50825000Y-49397097D01*
X50825000Y-47373056D01*
X51019941Y-47242801D01*
X51242801Y-47019941D01*
X51417902Y-46757884D01*
X51538513Y-46466703D01*
X51600000Y-46157586D01*
X51600000Y-45842414D01*
X51538513Y-45533297D01*
X51417902Y-45242116D01*
X51242801Y-44980059D01*
X51019941Y-44757199D01*
X50757884Y-44582098D01*
X50466703Y-44461487D01*
X50157586Y-44400000D01*
X49842414Y-44400000D01*
X49533297Y-44461487D01*
X49242116Y-44582098D01*
X48980059Y-44757199D01*
X48757199Y-44980059D01*
X48582098Y-45242116D01*
X48461487Y-45533297D01*
X48400000Y-45842414D01*
X48400000Y-46157586D01*
X48461487Y-46466703D01*
X48582098Y-46757884D01*
X48757199Y-47019941D01*
X48980059Y-47242801D01*
X49175000Y-47373057D01*
X49175001Y-49397097D01*
X49000000Y-49397097D01*
X48882379Y-49408682D01*
X48769279Y-49442990D01*
X48665045Y-49498704D01*
X48573683Y-49573683D01*
X48498704Y-49665045D01*
X48442990Y-49769279D01*
X48408682Y-49882379D01*
X48397097Y-50000000D01*
X46475000Y-50000000D01*
X46475000Y-44300304D01*
X46800305Y-43975000D01*
X57397097Y-43975000D01*
X57397097Y-45750000D01*
X57408682Y-45867621D01*
X57442990Y-45980721D01*
X57498704Y-46084955D01*
X57573683Y-46176317D01*
X57665045Y-46251296D01*
X57769279Y-46307010D01*
X57882379Y-46341318D01*
X57900000Y-46343054D01*
X57900000Y-49397097D01*
X57000000Y-49397097D01*
X56882379Y-49408682D01*
X56769279Y-49442990D01*
X56665045Y-49498704D01*
X56573683Y-49573683D01*
X56498704Y-49665045D01*
X56442990Y-49769279D01*
X56408682Y-49882379D01*
X56397097Y-50000000D01*
X56397097Y-52000000D01*
X56408682Y-52117621D01*
X56442990Y-52230721D01*
X56498704Y-52334955D01*
X56573683Y-52426317D01*
X56665045Y-52501296D01*
X56768843Y-52556777D01*
X56750000Y-52651509D01*
X56750000Y-52848491D01*
X56788429Y-53041689D01*
X56863811Y-53223678D01*
X56973249Y-53387463D01*
X57112537Y-53526751D01*
X57276322Y-53636189D01*
X57458311Y-53711571D01*
X57651509Y-53750000D01*
X57848491Y-53750000D01*
X58041689Y-53711571D01*
X58223678Y-53636189D01*
X58351981Y-53550459D01*
X58323683Y-53573683D01*
X58248704Y-53665045D01*
X58192990Y-53769279D01*
X58158682Y-53882379D01*
X58147097Y-54000000D01*
X58147097Y-55175000D01*
X51373056Y-55175000D01*
X51242801Y-54980059D01*
X51019941Y-54757199D01*
X50757884Y-54582098D01*
X50466703Y-54461487D01*
X50157586Y-54400000D01*
X49842414Y-54400000D01*
X49533297Y-54461487D01*
X49242116Y-54582098D01*
X48980059Y-54757199D01*
X48757199Y-54980059D01*
X48582098Y-55242116D01*
X48461487Y-55533297D01*
X48400000Y-55842414D01*
X48400000Y-56157586D01*
X48461487Y-56466703D01*
X48582098Y-56757884D01*
X48757199Y-57019941D01*
X48980059Y-57242801D01*
X49175001Y-57373057D01*
X49175001Y-57373683D01*
X49175000Y-57373693D01*
X49175001Y-59397097D01*
X49000000Y-59397097D01*
X48882379Y-59408682D01*
X48769279Y-59442990D01*
X48665045Y-59498704D01*
X48573683Y-59573683D01*
X48498704Y-59665045D01*
X48442990Y-59769279D01*
X48408682Y-59882379D01*
X48397097Y-60000000D01*
X48397097Y-62000000D01*
X48408682Y-62117621D01*
X48442990Y-62230721D01*
X48498704Y-62334955D01*
X48573683Y-62426317D01*
X48665045Y-62501296D01*
X48769279Y-62557010D01*
X48882379Y-62591318D01*
X49000000Y-62602903D01*
X51000000Y-62602903D01*
X51117621Y-62591318D01*
X51230721Y-62557010D01*
X51334955Y-62501296D01*
X51426317Y-62426317D01*
X51501296Y-62334955D01*
X51557010Y-62230721D01*
X51591318Y-62117621D01*
X51602903Y-62000000D01*
X51602903Y-60000000D01*
X51591318Y-59882379D01*
X51557010Y-59769279D01*
X51501296Y-59665045D01*
X51426317Y-59573683D01*
X51334955Y-59498704D01*
X51230721Y-59442990D01*
X51117621Y-59408682D01*
X51000000Y-59397097D01*
X50825000Y-59397097D01*
X50825000Y-57373056D01*
X51019941Y-57242801D01*
X51242801Y-57019941D01*
X51373056Y-56825000D01*
X58147097Y-56825000D01*
X58147097Y-58000000D01*
X58158682Y-58117621D01*
X58192990Y-58230721D01*
X58248704Y-58334955D01*
X58323683Y-58426317D01*
X58415045Y-58501296D01*
X58519279Y-58557010D01*
X58632379Y-58591318D01*
X58750000Y-58602903D01*
X60250000Y-58602903D01*
X60367621Y-58591318D01*
X60480721Y-58557010D01*
X60584955Y-58501296D01*
X60676317Y-58426317D01*
X60751296Y-58334955D01*
X60807010Y-58230721D01*
X60841318Y-58117621D01*
X60843054Y-58100000D01*
X62656946Y-58100000D01*
X62658682Y-58117621D01*
X62692990Y-58230721D01*
X62748704Y-58334955D01*
X62823683Y-58426317D01*
X62915045Y-58501296D01*
X63019279Y-58557010D01*
X63132379Y-58591318D01*
X63250000Y-58602903D01*
X64750000Y-58602903D01*
X64867621Y-58591318D01*
X64980721Y-58557010D01*
X65084955Y-58501296D01*
X65176317Y-58426317D01*
X65251296Y-58334955D01*
X65307010Y-58230721D01*
X65341318Y-58117621D01*
X65352903Y-58000000D01*
X65352903Y-56917910D01*
X65458311Y-56961571D01*
X65651509Y-57000000D01*
X65848491Y-57000000D01*
X66041689Y-56961571D01*
X66223678Y-56886189D01*
X66387463Y-56776751D01*
X66526751Y-56637463D01*
X66636189Y-56473678D01*
X66711571Y-56291689D01*
X66750000Y-56098491D01*
X66750000Y-55901509D01*
X66711571Y-55708311D01*
X66636189Y-55526322D01*
X66526751Y-55362537D01*
X66387463Y-55223249D01*
X66223678Y-55113811D01*
X66041689Y-55038429D01*
X65848491Y-55000000D01*
X65651509Y-55000000D01*
X65458311Y-55038429D01*
X65352903Y-55082090D01*
X65352903Y-54000000D01*
X65341318Y-53882379D01*
X65307010Y-53769279D01*
X65251296Y-53665045D01*
X65176317Y-53573683D01*
X65084955Y-53498704D01*
X64980721Y-53442990D01*
X64867621Y-53408682D01*
X64750000Y-53397097D01*
X63250000Y-53397097D01*
X63132379Y-53408682D01*
X63019279Y-53442990D01*
X62916044Y-53498170D01*
X63026751Y-53387463D01*
X63136189Y-53223678D01*
X63211571Y-53041689D01*
X63250000Y-52848491D01*
X63250000Y-52651509D01*
X63231157Y-52556777D01*
X63334955Y-52501296D01*
X63426317Y-52426317D01*
X63501296Y-52334955D01*
X63557010Y-52230721D01*
X63591318Y-52117621D01*
X63602903Y-52000000D01*
X63602903Y-50000000D01*
X63591318Y-49882379D01*
X63557010Y-49769279D01*
X63501296Y-49665045D01*
X63426317Y-49573683D01*
X63334955Y-49498704D01*
X63230721Y-49442990D01*
X63117621Y-49408682D01*
X63000000Y-49397097D01*
X62100000Y-49397097D01*
X62100000Y-46343054D01*
X62117621Y-46341318D01*
X62230721Y-46307010D01*
X62334955Y-46251296D01*
X62426317Y-46176317D01*
X62501296Y-46084955D01*
X62557010Y-45980721D01*
X62591318Y-45867621D01*
X62602903Y-45750000D01*
X62602903Y-43975000D01*
X65881568Y-43975000D01*
X65848704Y-44015045D01*
X65792990Y-44119279D01*
X65758682Y-44232379D01*
X65747097Y-44350000D01*
X65747484Y-44400000D01*
X65500000Y-44400000D01*
X65480491Y-44401921D01*
X65461732Y-44407612D01*
X65444443Y-44416853D01*
X65429289Y-44429289D01*
X65416853Y-44444443D01*
X65407612Y-44461732D01*
X65401921Y-44480491D01*
X65400000Y-44500000D01*
X65400000Y-45947097D01*
X65282379Y-45958682D01*
X65169279Y-45992990D01*
X65065045Y-46048704D01*
X64973683Y-46123683D01*
X64898704Y-46215045D01*
X64842990Y-46319279D01*
X64808682Y-46432379D01*
X64797097Y-46550000D01*
X64797097Y-47650000D01*
X64808682Y-47767621D01*
X64842990Y-47880721D01*
X64898704Y-47984955D01*
X64973683Y-48076317D01*
X65009164Y-48105436D01*
X65000000Y-48151509D01*
X65000000Y-48348491D01*
X65038429Y-48541689D01*
X65097141Y-48683433D01*
X65076947Y-48721213D01*
X65059568Y-48778507D01*
X65035492Y-48857875D01*
X65032119Y-48892124D01*
X65021494Y-49000000D01*
X65025001Y-49035607D01*
X65025001Y-49691254D01*
X65019279Y-49692990D01*
X64915045Y-49748704D01*
X64823683Y-49823683D01*
X64748704Y-49915045D01*
X64692990Y-50019279D01*
X64658682Y-50132379D01*
X64647097Y-50250000D01*
X64647097Y-51250000D01*
X64658682Y-51367621D01*
X64692990Y-51480721D01*
X64703295Y-51500000D01*
X64692990Y-51519279D01*
X64658682Y-51632379D01*
X64647097Y-51750000D01*
X64647097Y-52750000D01*
X64658682Y-52867621D01*
X64692990Y-52980721D01*
X64748704Y-53084955D01*
X64823683Y-53176317D01*
X64915045Y-53251296D01*
X65019279Y-53307010D01*
X65106112Y-53333350D01*
X65144269Y-53404736D01*
X65193324Y-53464509D01*
X65234868Y-53515131D01*
X65262524Y-53537828D01*
X66712172Y-54987477D01*
X66734868Y-55015132D01*
X66762523Y-55037828D01*
X66762525Y-55037830D01*
X66763255Y-55038429D01*
X66845263Y-55105731D01*
X66971212Y-55173053D01*
X67107875Y-55214509D01*
X67214393Y-55225000D01*
X67214402Y-55225000D01*
X67249999Y-55228506D01*
X67285596Y-55225000D01*
X67810786Y-55225000D01*
X67862537Y-55276751D01*
X68026322Y-55386189D01*
X68208311Y-55461571D01*
X68401509Y-55500000D01*
X68598491Y-55500000D01*
X68791689Y-55461571D01*
X68973678Y-55386189D01*
X69137463Y-55276751D01*
X69276751Y-55137463D01*
X69386189Y-54973678D01*
X69461571Y-54791689D01*
X69500000Y-54598491D01*
X69500000Y-54401509D01*
X69461571Y-54208311D01*
X69386189Y-54026322D01*
X69276751Y-53862537D01*
X69137463Y-53723249D01*
X68973678Y-53613811D01*
X68791689Y-53538429D01*
X68598491Y-53500000D01*
X68401509Y-53500000D01*
X68208311Y-53538429D01*
X68026322Y-53613811D01*
X67862537Y-53723249D01*
X67810786Y-53775000D01*
X67550305Y-53775000D01*
X66789251Y-53013946D01*
X66807010Y-52980721D01*
X66841318Y-52867621D01*
X66852903Y-52750000D01*
X66852903Y-51750000D01*
X66841318Y-51632379D01*
X66807010Y-51519279D01*
X66796705Y-51500000D01*
X66807010Y-51480721D01*
X66841318Y-51367621D01*
X66852903Y-51250000D01*
X66852903Y-50250000D01*
X66841318Y-50132379D01*
X66807010Y-50019279D01*
X66751296Y-49915045D01*
X66676317Y-49823683D01*
X66584955Y-49748704D01*
X66480721Y-49692990D01*
X66475000Y-49691255D01*
X66475000Y-49300304D01*
X66487476Y-49287828D01*
X66515131Y-49265132D01*
X66605731Y-49154737D01*
X66657930Y-49057081D01*
X66776322Y-49136189D01*
X66958311Y-49211571D01*
X67151509Y-49250000D01*
X67222449Y-49250000D01*
X67234868Y-49265132D01*
X67262523Y-49287828D01*
X67262525Y-49287830D01*
X67345263Y-49355731D01*
X67471212Y-49423053D01*
X67607875Y-49464509D01*
X67714393Y-49475000D01*
X67714403Y-49475000D01*
X67750000Y-49478506D01*
X67785597Y-49475000D01*
X68464403Y-49475000D01*
X68500000Y-49478506D01*
X68535597Y-49475000D01*
X68535607Y-49475000D01*
X68642125Y-49464509D01*
X68778788Y-49423053D01*
X68904737Y-49355731D01*
X69015132Y-49265132D01*
X69037832Y-49237472D01*
X69487477Y-48787828D01*
X69515132Y-48765132D01*
X69537831Y-48737474D01*
X69605731Y-48654737D01*
X69673053Y-48528788D01*
X69680601Y-48503904D01*
X69714509Y-48392125D01*
X69725000Y-48285607D01*
X69725000Y-48285597D01*
X69728506Y-48250000D01*
X69725000Y-48214403D01*
X69725000Y-43850000D01*
X75059665Y-43850000D01*
X75026322Y-43863811D01*
X75026322Y-43863811D01*
G37*
X75026322Y-43863811D02*
X74862537Y-43973249D01*
X74723249Y-44112537D01*
X74613811Y-44276322D01*
X74538429Y-44458311D01*
X74500000Y-44651509D01*
X74500000Y-44848491D01*
X74538429Y-45041689D01*
X74613811Y-45223678D01*
X74723249Y-45387463D01*
X74862537Y-45526751D01*
X75026322Y-45636189D01*
X75118442Y-45674346D01*
X75431568Y-45987472D01*
X75454268Y-46015132D01*
X75564663Y-46105731D01*
X75624721Y-46137833D01*
X75575263Y-46164269D01*
X75492525Y-46232170D01*
X75492523Y-46232172D01*
X75464868Y-46254868D01*
X75442172Y-46282523D01*
X75224695Y-46500000D01*
X75151509Y-46500000D01*
X74958311Y-46538429D01*
X74776322Y-46613811D01*
X74612537Y-46723249D01*
X74473249Y-46862537D01*
X74363811Y-47026322D01*
X74288429Y-47208311D01*
X74250000Y-47401509D01*
X74250000Y-47474695D01*
X73762523Y-47962173D01*
X73734869Y-47984868D01*
X73712173Y-48012523D01*
X73712170Y-48012526D01*
X73644269Y-48095264D01*
X73576947Y-48221213D01*
X73557449Y-48285491D01*
X73539318Y-48345264D01*
X73535492Y-48357876D01*
X73521494Y-48500000D01*
X73525001Y-48535607D01*
X73525000Y-60699695D01*
X65262523Y-68962173D01*
X65234869Y-68984868D01*
X65212173Y-69012523D01*
X65212170Y-69012526D01*
X65144269Y-69095264D01*
X65076947Y-69221213D01*
X65035492Y-69357876D01*
X65021494Y-69500000D01*
X65025001Y-69535607D01*
X65025001Y-70360787D01*
X64887463Y-70223249D01*
X64723678Y-70113811D01*
X64541689Y-70038429D01*
X64348491Y-70000000D01*
X64151509Y-70000000D01*
X63958311Y-70038429D01*
X63776322Y-70113811D01*
X63612537Y-70223249D01*
X63473249Y-70362537D01*
X63363811Y-70526322D01*
X63288429Y-70708311D01*
X63250000Y-70901509D01*
X63250000Y-71098491D01*
X63288429Y-71291689D01*
X63363811Y-71473678D01*
X63473249Y-71637463D01*
X63612537Y-71776751D01*
X63776322Y-71886189D01*
X63958311Y-71961571D01*
X64151509Y-72000000D01*
X64224696Y-72000000D01*
X64525001Y-72300306D01*
X64525000Y-75285109D01*
X64348491Y-75250000D01*
X64151509Y-75250000D01*
X63958311Y-75288429D01*
X63776322Y-75363811D01*
X63612537Y-75473249D01*
X63560786Y-75525000D01*
X62035596Y-75525000D01*
X61999999Y-75521494D01*
X61964402Y-75525000D01*
X61964393Y-75525000D01*
X61857875Y-75535491D01*
X61731972Y-75573683D01*
X61721212Y-75576947D01*
X61595263Y-75644269D01*
X61512525Y-75712170D01*
X61512523Y-75712172D01*
X61484868Y-75734868D01*
X61462172Y-75762523D01*
X58000000Y-79224696D01*
X58000000Y-79151509D01*
X57961571Y-78958311D01*
X57886189Y-78776322D01*
X57776751Y-78612537D01*
X57637463Y-78473249D01*
X57473678Y-78363811D01*
X57291689Y-78288429D01*
X57098491Y-78250000D01*
X56901509Y-78250000D01*
X56708311Y-78288429D01*
X56526322Y-78363811D01*
X56362537Y-78473249D01*
X56223249Y-78612537D01*
X56113811Y-78776322D01*
X56038429Y-78958311D01*
X56000000Y-79151509D01*
X56000000Y-79224695D01*
X53512523Y-81712173D01*
X53484869Y-81734868D01*
X53462173Y-81762523D01*
X53462170Y-81762526D01*
X53394269Y-81845264D01*
X53326947Y-81971213D01*
X53307414Y-82035606D01*
X53285492Y-82107875D01*
X53279073Y-82173053D01*
X53271494Y-82250000D01*
X53275001Y-82285607D01*
X53275000Y-88787405D01*
X53271494Y-88823002D01*
X53275000Y-88858599D01*
X53275000Y-88858608D01*
X53285491Y-88965126D01*
X53304803Y-89028788D01*
X53326947Y-89101789D01*
X53394269Y-89227738D01*
X53434120Y-89276296D01*
X53484868Y-89338133D01*
X53512524Y-89360830D01*
X53939166Y-89787472D01*
X53961866Y-89815132D01*
X54072261Y-89905731D01*
X54198210Y-89973053D01*
X54334873Y-90014509D01*
X54441391Y-90025000D01*
X54441400Y-90025000D01*
X54476997Y-90028506D01*
X54512594Y-90025000D01*
X58802541Y-90025000D01*
X58865045Y-90076296D01*
X58969279Y-90132010D01*
X59082379Y-90166318D01*
X59200000Y-90177903D01*
X60700000Y-90177903D01*
X60779974Y-90170026D01*
X60772097Y-90250000D01*
X60772097Y-91750000D01*
X60774559Y-91775000D01*
X55714891Y-91775000D01*
X55750000Y-91598491D01*
X55750000Y-91401509D01*
X55711571Y-91208311D01*
X55636189Y-91026322D01*
X55526751Y-90862537D01*
X55387463Y-90723249D01*
X55223678Y-90613811D01*
X55041689Y-90538429D01*
X54848491Y-90500000D01*
X54651509Y-90500000D01*
X54458311Y-90538429D01*
X54276322Y-90613811D01*
X54112537Y-90723249D01*
X54060786Y-90775000D01*
X46550305Y-90775000D01*
X46475000Y-90699696D01*
X46475000Y-80940000D01*
X46547097Y-80940000D01*
X46547097Y-82640000D01*
X46558682Y-82757621D01*
X46592990Y-82870721D01*
X46648704Y-82974955D01*
X46718499Y-83060000D01*
X46648704Y-83145045D01*
X46592990Y-83249279D01*
X46558682Y-83362379D01*
X46547097Y-83480000D01*
X46547097Y-85180000D01*
X46558682Y-85297621D01*
X46592990Y-85410721D01*
X46648704Y-85514955D01*
X46723683Y-85606317D01*
X46815045Y-85681296D01*
X46919279Y-85737010D01*
X47032379Y-85771318D01*
X47150000Y-85782903D01*
X48850000Y-85782903D01*
X48967621Y-85771318D01*
X49080721Y-85737010D01*
X49184955Y-85681296D01*
X49270000Y-85611501D01*
X49355045Y-85681296D01*
X49459279Y-85737010D01*
X49572379Y-85771318D01*
X49690000Y-85782903D01*
X51390000Y-85782903D01*
X51507621Y-85771318D01*
X51620721Y-85737010D01*
X51724955Y-85681296D01*
X51816317Y-85606317D01*
X51891296Y-85514955D01*
X51947010Y-85410721D01*
X51981318Y-85297621D01*
X51992903Y-85180000D01*
X51992903Y-83480000D01*
X51981318Y-83362379D01*
X51947010Y-83249279D01*
X51891296Y-83145045D01*
X51821501Y-83060000D01*
X51891296Y-82974955D01*
X51947010Y-82870721D01*
X51981318Y-82757621D01*
X51992903Y-82640000D01*
X51992903Y-80940000D01*
X51981318Y-80822379D01*
X51947010Y-80709279D01*
X51891296Y-80605045D01*
X51821501Y-80520000D01*
X51891296Y-80434955D01*
X51947010Y-80330721D01*
X51981318Y-80217621D01*
X51992903Y-80100000D01*
X51992903Y-78400000D01*
X51981318Y-78282379D01*
X51947010Y-78169279D01*
X51891296Y-78065045D01*
X51816317Y-77973683D01*
X51724955Y-77898704D01*
X51620721Y-77842990D01*
X51507621Y-77808682D01*
X51390000Y-77797097D01*
X49690000Y-77797097D01*
X49572379Y-77808682D01*
X49459279Y-77842990D01*
X49355045Y-77898704D01*
X49263683Y-77973683D01*
X49188704Y-78065045D01*
X49132990Y-78169279D01*
X49098682Y-78282379D01*
X49097275Y-78296665D01*
X48924321Y-78123711D01*
X48686833Y-77965027D01*
X48422949Y-77855723D01*
X48142813Y-77800000D01*
X47857187Y-77800000D01*
X47577051Y-77855723D01*
X47313167Y-77965027D01*
X47075679Y-78123711D01*
X46873711Y-78325679D01*
X46715027Y-78563167D01*
X46605723Y-78827051D01*
X46550000Y-79107187D01*
X46550000Y-79392813D01*
X46605723Y-79672949D01*
X46715027Y-79936833D01*
X46873711Y-80174321D01*
X47046665Y-80347275D01*
X47032379Y-80348682D01*
X46919279Y-80382990D01*
X46815045Y-80438704D01*
X46723683Y-80513683D01*
X46648704Y-80605045D01*
X46592990Y-80709279D01*
X46558682Y-80822379D01*
X46547097Y-80940000D01*
X46475000Y-80940000D01*
X46475000Y-71000000D01*
X48397097Y-71000000D01*
X48397097Y-73000000D01*
X48408682Y-73117621D01*
X48442990Y-73230721D01*
X48498704Y-73334955D01*
X48573683Y-73426317D01*
X48665045Y-73501296D01*
X48769279Y-73557010D01*
X48882379Y-73591318D01*
X49000000Y-73602903D01*
X51000000Y-73602903D01*
X51117621Y-73591318D01*
X51230721Y-73557010D01*
X51334955Y-73501296D01*
X51426317Y-73426317D01*
X51501296Y-73334955D01*
X51557010Y-73230721D01*
X51591318Y-73117621D01*
X51602903Y-73000000D01*
X51602903Y-71901509D01*
X53250000Y-71901509D01*
X53250000Y-72098491D01*
X53288429Y-72291689D01*
X53363811Y-72473678D01*
X53473249Y-72637463D01*
X53612537Y-72776751D01*
X53776322Y-72886189D01*
X53958311Y-72961571D01*
X54151509Y-73000000D01*
X54348491Y-73000000D01*
X54541689Y-72961571D01*
X54723678Y-72886189D01*
X54815254Y-72825000D01*
X55672602Y-72825000D01*
X55673683Y-72826317D01*
X55765045Y-72901296D01*
X55869279Y-72957010D01*
X55982379Y-72991318D01*
X56100000Y-73002903D01*
X56150000Y-73002903D01*
X56150000Y-73250000D01*
X56151921Y-73269509D01*
X56157612Y-73288268D01*
X56166853Y-73305557D01*
X56179289Y-73320711D01*
X56194443Y-73333147D01*
X56211732Y-73342388D01*
X56230491Y-73348079D01*
X56250000Y-73350000D01*
X57697097Y-73350000D01*
X57708682Y-73467621D01*
X57742990Y-73580721D01*
X57798704Y-73684955D01*
X57873683Y-73776317D01*
X57965045Y-73851296D01*
X58069279Y-73907010D01*
X58182379Y-73941318D01*
X58300000Y-73952903D01*
X59400000Y-73952903D01*
X59517621Y-73941318D01*
X59630721Y-73907010D01*
X59734955Y-73851296D01*
X59826317Y-73776317D01*
X59899459Y-73687194D01*
X59958311Y-73711571D01*
X60151509Y-73750000D01*
X60348491Y-73750000D01*
X60541689Y-73711571D01*
X60723678Y-73636189D01*
X60887463Y-73526751D01*
X61026751Y-73387463D01*
X61136189Y-73223678D01*
X61211571Y-73041689D01*
X61250000Y-72848491D01*
X61250000Y-72651509D01*
X61211571Y-72458311D01*
X61136189Y-72276322D01*
X61026751Y-72112537D01*
X60887463Y-71973249D01*
X60740423Y-71875000D01*
X60887463Y-71776751D01*
X61026751Y-71637463D01*
X61136189Y-71473678D01*
X61211571Y-71291689D01*
X61250000Y-71098491D01*
X61250000Y-70901509D01*
X61211571Y-70708311D01*
X61136189Y-70526322D01*
X61026751Y-70362537D01*
X60887463Y-70223249D01*
X60723678Y-70113811D01*
X60541689Y-70038429D01*
X60348491Y-70000000D01*
X60151509Y-70000000D01*
X59958311Y-70038429D01*
X59776322Y-70113811D01*
X59728925Y-70145481D01*
X59630721Y-70092990D01*
X59517621Y-70058682D01*
X59400000Y-70047097D01*
X58300000Y-70047097D01*
X58182379Y-70058682D01*
X58069279Y-70092990D01*
X57965045Y-70148704D01*
X57873683Y-70223683D01*
X57798704Y-70315045D01*
X57742990Y-70419279D01*
X57708682Y-70532379D01*
X57697097Y-70650000D01*
X56250000Y-70650000D01*
X56230491Y-70651921D01*
X56211732Y-70657612D01*
X56194443Y-70666853D01*
X56179289Y-70679289D01*
X56166853Y-70694443D01*
X56157612Y-70711732D01*
X56151921Y-70730491D01*
X56150000Y-70750000D01*
X56150000Y-70997097D01*
X56100000Y-70997097D01*
X55982379Y-71008682D01*
X55869279Y-71042990D01*
X55765045Y-71098704D01*
X55673683Y-71173683D01*
X55672602Y-71175000D01*
X54815254Y-71175000D01*
X54723678Y-71113811D01*
X54541689Y-71038429D01*
X54348491Y-71000000D01*
X54151509Y-71000000D01*
X53958311Y-71038429D01*
X53776322Y-71113811D01*
X53612537Y-71223249D01*
X53473249Y-71362537D01*
X53363811Y-71526322D01*
X53288429Y-71708311D01*
X53250000Y-71901509D01*
X51602903Y-71901509D01*
X51602903Y-71000000D01*
X51591318Y-70882379D01*
X51557010Y-70769279D01*
X51501296Y-70665045D01*
X51426317Y-70573683D01*
X51334955Y-70498704D01*
X51230721Y-70442990D01*
X51117621Y-70408682D01*
X51000000Y-70397097D01*
X49000000Y-70397097D01*
X48882379Y-70408682D01*
X48769279Y-70442990D01*
X48665045Y-70498704D01*
X48573683Y-70573683D01*
X48498704Y-70665045D01*
X48442990Y-70769279D01*
X48408682Y-70882379D01*
X48397097Y-71000000D01*
X46475000Y-71000000D01*
X46475000Y-66842414D01*
X48400000Y-66842414D01*
X48400000Y-67157586D01*
X48461487Y-67466703D01*
X48582098Y-67757884D01*
X48757199Y-68019941D01*
X48980059Y-68242801D01*
X49242116Y-68417902D01*
X49533297Y-68538513D01*
X49842414Y-68600000D01*
X50157586Y-68600000D01*
X50466703Y-68538513D01*
X50757884Y-68417902D01*
X51019941Y-68242801D01*
X51242801Y-68019941D01*
X51417902Y-67757884D01*
X51538513Y-67466703D01*
X51600000Y-67157586D01*
X51600000Y-66901509D01*
X53250000Y-66901509D01*
X53250000Y-67098491D01*
X53288429Y-67291689D01*
X53363811Y-67473678D01*
X53473249Y-67637463D01*
X53612537Y-67776751D01*
X53776322Y-67886189D01*
X53958311Y-67961571D01*
X54151509Y-68000000D01*
X54348491Y-68000000D01*
X54541689Y-67961571D01*
X54723678Y-67886189D01*
X54815254Y-67825000D01*
X55672602Y-67825000D01*
X55673683Y-67826317D01*
X55765045Y-67901296D01*
X55869279Y-67957010D01*
X55982379Y-67991318D01*
X56100000Y-68002903D01*
X56150000Y-68002903D01*
X56150000Y-68250000D01*
X56151921Y-68269509D01*
X56157612Y-68288268D01*
X56166853Y-68305557D01*
X56179289Y-68320711D01*
X56194443Y-68333147D01*
X56211732Y-68342388D01*
X56230491Y-68348079D01*
X56250000Y-68350000D01*
X57697097Y-68350000D01*
X57708682Y-68467621D01*
X57742990Y-68580721D01*
X57798704Y-68684955D01*
X57873683Y-68776317D01*
X57965045Y-68851296D01*
X58069279Y-68907010D01*
X58182379Y-68941318D01*
X58300000Y-68952903D01*
X59400000Y-68952903D01*
X59517621Y-68941318D01*
X59630721Y-68907010D01*
X59734955Y-68851296D01*
X59826317Y-68776317D01*
X59899459Y-68687194D01*
X59958311Y-68711571D01*
X60151509Y-68750000D01*
X60348491Y-68750000D01*
X60541689Y-68711571D01*
X60723678Y-68636189D01*
X60887463Y-68526751D01*
X61026751Y-68387463D01*
X61136189Y-68223678D01*
X61211571Y-68041689D01*
X61250000Y-67848491D01*
X61250000Y-67651509D01*
X61211571Y-67458311D01*
X61136189Y-67276322D01*
X61026751Y-67112537D01*
X60887463Y-66973249D01*
X60740423Y-66875000D01*
X60887463Y-66776751D01*
X61026751Y-66637463D01*
X61136189Y-66473678D01*
X61211571Y-66291689D01*
X61250000Y-66098491D01*
X61250000Y-65901509D01*
X61211571Y-65708311D01*
X61136189Y-65526322D01*
X61026751Y-65362537D01*
X60887463Y-65223249D01*
X60723678Y-65113811D01*
X60541689Y-65038429D01*
X60348491Y-65000000D01*
X60151509Y-65000000D01*
X59958311Y-65038429D01*
X59776322Y-65113811D01*
X59728925Y-65145481D01*
X59630721Y-65092990D01*
X59517621Y-65058682D01*
X59400000Y-65047097D01*
X58300000Y-65047097D01*
X58182379Y-65058682D01*
X58069279Y-65092990D01*
X57965045Y-65148704D01*
X57873683Y-65223683D01*
X57798704Y-65315045D01*
X57742990Y-65419279D01*
X57708682Y-65532379D01*
X57697097Y-65650000D01*
X56250000Y-65650000D01*
X56230491Y-65651921D01*
X56211732Y-65657612D01*
X56194443Y-65666853D01*
X56179289Y-65679289D01*
X56166853Y-65694443D01*
X56157612Y-65711732D01*
X56151921Y-65730491D01*
X56150000Y-65750000D01*
X56150000Y-65997097D01*
X56100000Y-65997097D01*
X55982379Y-66008682D01*
X55869279Y-66042990D01*
X55765045Y-66098704D01*
X55673683Y-66173683D01*
X55672602Y-66175000D01*
X54815254Y-66175000D01*
X54723678Y-66113811D01*
X54541689Y-66038429D01*
X54348491Y-66000000D01*
X54151509Y-66000000D01*
X53958311Y-66038429D01*
X53776322Y-66113811D01*
X53612537Y-66223249D01*
X53473249Y-66362537D01*
X53363811Y-66526322D01*
X53288429Y-66708311D01*
X53250000Y-66901509D01*
X51600000Y-66901509D01*
X51600000Y-66842414D01*
X51538513Y-66533297D01*
X51417902Y-66242116D01*
X51242801Y-65980059D01*
X51019941Y-65757199D01*
X50757884Y-65582098D01*
X50466703Y-65461487D01*
X50157586Y-65400000D01*
X49842414Y-65400000D01*
X49533297Y-65461487D01*
X49242116Y-65582098D01*
X48980059Y-65757199D01*
X48757199Y-65980059D01*
X48582098Y-66242116D01*
X48461487Y-66533297D01*
X48400000Y-66842414D01*
X46475000Y-66842414D01*
X46475000Y-50000000D01*
X48397097Y-50000000D01*
X48397097Y-52000000D01*
X48408682Y-52117621D01*
X48442990Y-52230721D01*
X48498704Y-52334955D01*
X48573683Y-52426317D01*
X48665045Y-52501296D01*
X48769279Y-52557010D01*
X48882379Y-52591318D01*
X49000000Y-52602903D01*
X51000000Y-52602903D01*
X51117621Y-52591318D01*
X51230721Y-52557010D01*
X51334955Y-52501296D01*
X51426317Y-52426317D01*
X51501296Y-52334955D01*
X51557010Y-52230721D01*
X51591318Y-52117621D01*
X51602903Y-52000000D01*
X51602903Y-50000000D01*
X51591318Y-49882379D01*
X51557010Y-49769279D01*
X51501296Y-49665045D01*
X51426317Y-49573683D01*
X51334955Y-49498704D01*
X51230721Y-49442990D01*
X51117621Y-49408682D01*
X51000000Y-49397097D01*
X50825000Y-49397097D01*
X50825000Y-47373056D01*
X51019941Y-47242801D01*
X51242801Y-47019941D01*
X51417902Y-46757884D01*
X51538513Y-46466703D01*
X51600000Y-46157586D01*
X51600000Y-45842414D01*
X51538513Y-45533297D01*
X51417902Y-45242116D01*
X51242801Y-44980059D01*
X51019941Y-44757199D01*
X50757884Y-44582098D01*
X50466703Y-44461487D01*
X50157586Y-44400000D01*
X49842414Y-44400000D01*
X49533297Y-44461487D01*
X49242116Y-44582098D01*
X48980059Y-44757199D01*
X48757199Y-44980059D01*
X48582098Y-45242116D01*
X48461487Y-45533297D01*
X48400000Y-45842414D01*
X48400000Y-46157586D01*
X48461487Y-46466703D01*
X48582098Y-46757884D01*
X48757199Y-47019941D01*
X48980059Y-47242801D01*
X49175000Y-47373057D01*
X49175001Y-49397097D01*
X49000000Y-49397097D01*
X48882379Y-49408682D01*
X48769279Y-49442990D01*
X48665045Y-49498704D01*
X48573683Y-49573683D01*
X48498704Y-49665045D01*
X48442990Y-49769279D01*
X48408682Y-49882379D01*
X48397097Y-50000000D01*
X46475000Y-50000000D01*
X46475000Y-44300304D01*
X46800305Y-43975000D01*
X57397097Y-43975000D01*
X57397097Y-45750000D01*
X57408682Y-45867621D01*
X57442990Y-45980721D01*
X57498704Y-46084955D01*
X57573683Y-46176317D01*
X57665045Y-46251296D01*
X57769279Y-46307010D01*
X57882379Y-46341318D01*
X57900000Y-46343054D01*
X57900000Y-49397097D01*
X57000000Y-49397097D01*
X56882379Y-49408682D01*
X56769279Y-49442990D01*
X56665045Y-49498704D01*
X56573683Y-49573683D01*
X56498704Y-49665045D01*
X56442990Y-49769279D01*
X56408682Y-49882379D01*
X56397097Y-50000000D01*
X56397097Y-52000000D01*
X56408682Y-52117621D01*
X56442990Y-52230721D01*
X56498704Y-52334955D01*
X56573683Y-52426317D01*
X56665045Y-52501296D01*
X56768843Y-52556777D01*
X56750000Y-52651509D01*
X56750000Y-52848491D01*
X56788429Y-53041689D01*
X56863811Y-53223678D01*
X56973249Y-53387463D01*
X57112537Y-53526751D01*
X57276322Y-53636189D01*
X57458311Y-53711571D01*
X57651509Y-53750000D01*
X57848491Y-53750000D01*
X58041689Y-53711571D01*
X58223678Y-53636189D01*
X58351981Y-53550459D01*
X58323683Y-53573683D01*
X58248704Y-53665045D01*
X58192990Y-53769279D01*
X58158682Y-53882379D01*
X58147097Y-54000000D01*
X58147097Y-55175000D01*
X51373056Y-55175000D01*
X51242801Y-54980059D01*
X51019941Y-54757199D01*
X50757884Y-54582098D01*
X50466703Y-54461487D01*
X50157586Y-54400000D01*
X49842414Y-54400000D01*
X49533297Y-54461487D01*
X49242116Y-54582098D01*
X48980059Y-54757199D01*
X48757199Y-54980059D01*
X48582098Y-55242116D01*
X48461487Y-55533297D01*
X48400000Y-55842414D01*
X48400000Y-56157586D01*
X48461487Y-56466703D01*
X48582098Y-56757884D01*
X48757199Y-57019941D01*
X48980059Y-57242801D01*
X49175001Y-57373057D01*
X49175001Y-57373683D01*
X49175000Y-57373693D01*
X49175001Y-59397097D01*
X49000000Y-59397097D01*
X48882379Y-59408682D01*
X48769279Y-59442990D01*
X48665045Y-59498704D01*
X48573683Y-59573683D01*
X48498704Y-59665045D01*
X48442990Y-59769279D01*
X48408682Y-59882379D01*
X48397097Y-60000000D01*
X48397097Y-62000000D01*
X48408682Y-62117621D01*
X48442990Y-62230721D01*
X48498704Y-62334955D01*
X48573683Y-62426317D01*
X48665045Y-62501296D01*
X48769279Y-62557010D01*
X48882379Y-62591318D01*
X49000000Y-62602903D01*
X51000000Y-62602903D01*
X51117621Y-62591318D01*
X51230721Y-62557010D01*
X51334955Y-62501296D01*
X51426317Y-62426317D01*
X51501296Y-62334955D01*
X51557010Y-62230721D01*
X51591318Y-62117621D01*
X51602903Y-62000000D01*
X51602903Y-60000000D01*
X51591318Y-59882379D01*
X51557010Y-59769279D01*
X51501296Y-59665045D01*
X51426317Y-59573683D01*
X51334955Y-59498704D01*
X51230721Y-59442990D01*
X51117621Y-59408682D01*
X51000000Y-59397097D01*
X50825000Y-59397097D01*
X50825000Y-57373056D01*
X51019941Y-57242801D01*
X51242801Y-57019941D01*
X51373056Y-56825000D01*
X58147097Y-56825000D01*
X58147097Y-58000000D01*
X58158682Y-58117621D01*
X58192990Y-58230721D01*
X58248704Y-58334955D01*
X58323683Y-58426317D01*
X58415045Y-58501296D01*
X58519279Y-58557010D01*
X58632379Y-58591318D01*
X58750000Y-58602903D01*
X60250000Y-58602903D01*
X60367621Y-58591318D01*
X60480721Y-58557010D01*
X60584955Y-58501296D01*
X60676317Y-58426317D01*
X60751296Y-58334955D01*
X60807010Y-58230721D01*
X60841318Y-58117621D01*
X60843054Y-58100000D01*
X62656946Y-58100000D01*
X62658682Y-58117621D01*
X62692990Y-58230721D01*
X62748704Y-58334955D01*
X62823683Y-58426317D01*
X62915045Y-58501296D01*
X63019279Y-58557010D01*
X63132379Y-58591318D01*
X63250000Y-58602903D01*
X64750000Y-58602903D01*
X64867621Y-58591318D01*
X64980721Y-58557010D01*
X65084955Y-58501296D01*
X65176317Y-58426317D01*
X65251296Y-58334955D01*
X65307010Y-58230721D01*
X65341318Y-58117621D01*
X65352903Y-58000000D01*
X65352903Y-56917910D01*
X65458311Y-56961571D01*
X65651509Y-57000000D01*
X65848491Y-57000000D01*
X66041689Y-56961571D01*
X66223678Y-56886189D01*
X66387463Y-56776751D01*
X66526751Y-56637463D01*
X66636189Y-56473678D01*
X66711571Y-56291689D01*
X66750000Y-56098491D01*
X66750000Y-55901509D01*
X66711571Y-55708311D01*
X66636189Y-55526322D01*
X66526751Y-55362537D01*
X66387463Y-55223249D01*
X66223678Y-55113811D01*
X66041689Y-55038429D01*
X65848491Y-55000000D01*
X65651509Y-55000000D01*
X65458311Y-55038429D01*
X65352903Y-55082090D01*
X65352903Y-54000000D01*
X65341318Y-53882379D01*
X65307010Y-53769279D01*
X65251296Y-53665045D01*
X65176317Y-53573683D01*
X65084955Y-53498704D01*
X64980721Y-53442990D01*
X64867621Y-53408682D01*
X64750000Y-53397097D01*
X63250000Y-53397097D01*
X63132379Y-53408682D01*
X63019279Y-53442990D01*
X62916044Y-53498170D01*
X63026751Y-53387463D01*
X63136189Y-53223678D01*
X63211571Y-53041689D01*
X63250000Y-52848491D01*
X63250000Y-52651509D01*
X63231157Y-52556777D01*
X63334955Y-52501296D01*
X63426317Y-52426317D01*
X63501296Y-52334955D01*
X63557010Y-52230721D01*
X63591318Y-52117621D01*
X63602903Y-52000000D01*
X63602903Y-50000000D01*
X63591318Y-49882379D01*
X63557010Y-49769279D01*
X63501296Y-49665045D01*
X63426317Y-49573683D01*
X63334955Y-49498704D01*
X63230721Y-49442990D01*
X63117621Y-49408682D01*
X63000000Y-49397097D01*
X62100000Y-49397097D01*
X62100000Y-46343054D01*
X62117621Y-46341318D01*
X62230721Y-46307010D01*
X62334955Y-46251296D01*
X62426317Y-46176317D01*
X62501296Y-46084955D01*
X62557010Y-45980721D01*
X62591318Y-45867621D01*
X62602903Y-45750000D01*
X62602903Y-43975000D01*
X65881568Y-43975000D01*
X65848704Y-44015045D01*
X65792990Y-44119279D01*
X65758682Y-44232379D01*
X65747097Y-44350000D01*
X65747484Y-44400000D01*
X65500000Y-44400000D01*
X65480491Y-44401921D01*
X65461732Y-44407612D01*
X65444443Y-44416853D01*
X65429289Y-44429289D01*
X65416853Y-44444443D01*
X65407612Y-44461732D01*
X65401921Y-44480491D01*
X65400000Y-44500000D01*
X65400000Y-45947097D01*
X65282379Y-45958682D01*
X65169279Y-45992990D01*
X65065045Y-46048704D01*
X64973683Y-46123683D01*
X64898704Y-46215045D01*
X64842990Y-46319279D01*
X64808682Y-46432379D01*
X64797097Y-46550000D01*
X64797097Y-47650000D01*
X64808682Y-47767621D01*
X64842990Y-47880721D01*
X64898704Y-47984955D01*
X64973683Y-48076317D01*
X65009164Y-48105436D01*
X65000000Y-48151509D01*
X65000000Y-48348491D01*
X65038429Y-48541689D01*
X65097141Y-48683433D01*
X65076947Y-48721213D01*
X65059568Y-48778507D01*
X65035492Y-48857875D01*
X65032119Y-48892124D01*
X65021494Y-49000000D01*
X65025001Y-49035607D01*
X65025001Y-49691254D01*
X65019279Y-49692990D01*
X64915045Y-49748704D01*
X64823683Y-49823683D01*
X64748704Y-49915045D01*
X64692990Y-50019279D01*
X64658682Y-50132379D01*
X64647097Y-50250000D01*
X64647097Y-51250000D01*
X64658682Y-51367621D01*
X64692990Y-51480721D01*
X64703295Y-51500000D01*
X64692990Y-51519279D01*
X64658682Y-51632379D01*
X64647097Y-51750000D01*
X64647097Y-52750000D01*
X64658682Y-52867621D01*
X64692990Y-52980721D01*
X64748704Y-53084955D01*
X64823683Y-53176317D01*
X64915045Y-53251296D01*
X65019279Y-53307010D01*
X65106112Y-53333350D01*
X65144269Y-53404736D01*
X65193324Y-53464509D01*
X65234868Y-53515131D01*
X65262524Y-53537828D01*
X66712172Y-54987477D01*
X66734868Y-55015132D01*
X66762523Y-55037828D01*
X66762525Y-55037830D01*
X66763255Y-55038429D01*
X66845263Y-55105731D01*
X66971212Y-55173053D01*
X67107875Y-55214509D01*
X67214393Y-55225000D01*
X67214402Y-55225000D01*
X67249999Y-55228506D01*
X67285596Y-55225000D01*
X67810786Y-55225000D01*
X67862537Y-55276751D01*
X68026322Y-55386189D01*
X68208311Y-55461571D01*
X68401509Y-55500000D01*
X68598491Y-55500000D01*
X68791689Y-55461571D01*
X68973678Y-55386189D01*
X69137463Y-55276751D01*
X69276751Y-55137463D01*
X69386189Y-54973678D01*
X69461571Y-54791689D01*
X69500000Y-54598491D01*
X69500000Y-54401509D01*
X69461571Y-54208311D01*
X69386189Y-54026322D01*
X69276751Y-53862537D01*
X69137463Y-53723249D01*
X68973678Y-53613811D01*
X68791689Y-53538429D01*
X68598491Y-53500000D01*
X68401509Y-53500000D01*
X68208311Y-53538429D01*
X68026322Y-53613811D01*
X67862537Y-53723249D01*
X67810786Y-53775000D01*
X67550305Y-53775000D01*
X66789251Y-53013946D01*
X66807010Y-52980721D01*
X66841318Y-52867621D01*
X66852903Y-52750000D01*
X66852903Y-51750000D01*
X66841318Y-51632379D01*
X66807010Y-51519279D01*
X66796705Y-51500000D01*
X66807010Y-51480721D01*
X66841318Y-51367621D01*
X66852903Y-51250000D01*
X66852903Y-50250000D01*
X66841318Y-50132379D01*
X66807010Y-50019279D01*
X66751296Y-49915045D01*
X66676317Y-49823683D01*
X66584955Y-49748704D01*
X66480721Y-49692990D01*
X66475000Y-49691255D01*
X66475000Y-49300304D01*
X66487476Y-49287828D01*
X66515131Y-49265132D01*
X66605731Y-49154737D01*
X66657930Y-49057081D01*
X66776322Y-49136189D01*
X66958311Y-49211571D01*
X67151509Y-49250000D01*
X67222449Y-49250000D01*
X67234868Y-49265132D01*
X67262523Y-49287828D01*
X67262525Y-49287830D01*
X67345263Y-49355731D01*
X67471212Y-49423053D01*
X67607875Y-49464509D01*
X67714393Y-49475000D01*
X67714403Y-49475000D01*
X67750000Y-49478506D01*
X67785597Y-49475000D01*
X68464403Y-49475000D01*
X68500000Y-49478506D01*
X68535597Y-49475000D01*
X68535607Y-49475000D01*
X68642125Y-49464509D01*
X68778788Y-49423053D01*
X68904737Y-49355731D01*
X69015132Y-49265132D01*
X69037832Y-49237472D01*
X69487477Y-48787828D01*
X69515132Y-48765132D01*
X69537831Y-48737474D01*
X69605731Y-48654737D01*
X69673053Y-48528788D01*
X69680601Y-48503904D01*
X69714509Y-48392125D01*
X69725000Y-48285607D01*
X69725000Y-48285597D01*
X69728506Y-48250000D01*
X69725000Y-48214403D01*
X69725000Y-43850000D01*
X75059665Y-43850000D01*
X75026322Y-43863811D01*
G36*
X64925001Y-80315255D02*
G01*
X64925001Y-80749999D01*
X64875000Y-80800000D01*
X64875000Y-80913466D01*
X64873704Y-80915045D01*
X64850000Y-80959392D01*
X64826296Y-80915045D01*
X64825000Y-80913466D01*
X64825000Y-80800000D01*
X64725000Y-80700000D01*
X64725000Y-80439214D01*
X64776751Y-80387463D01*
X64875000Y-80240423D01*
X64925001Y-80315255D01*
X64925001Y-80315255D01*
G37*
X64925001Y-80315255D02*
X64925001Y-80749999D01*
X64875000Y-80800000D01*
X64875000Y-80913466D01*
X64873704Y-80915045D01*
X64850000Y-80959392D01*
X64826296Y-80915045D01*
X64825000Y-80913466D01*
X64825000Y-80800000D01*
X64725000Y-80700000D01*
X64725000Y-80439214D01*
X64776751Y-80387463D01*
X64875000Y-80240423D01*
X64925001Y-80315255D01*
G36*
X60025000Y-50975000D02*
G01*
X60045000Y-50975000D01*
X60045000Y-51025000D01*
X60025000Y-51025000D01*
X60025000Y-52450000D01*
X60175000Y-52600000D01*
X60750000Y-52602903D01*
X60867621Y-52591318D01*
X60980721Y-52557010D01*
X61084955Y-52501296D01*
X61125000Y-52468432D01*
X61165045Y-52501296D01*
X61268843Y-52556777D01*
X61250000Y-52651509D01*
X61250000Y-52848491D01*
X61288429Y-53041689D01*
X61363811Y-53223678D01*
X61473249Y-53387463D01*
X61612537Y-53526751D01*
X61776322Y-53636189D01*
X61958311Y-53711571D01*
X62151509Y-53750000D01*
X62348491Y-53750000D01*
X62541689Y-53711571D01*
X62723678Y-53636189D01*
X62851981Y-53550459D01*
X62823683Y-53573683D01*
X62748704Y-53665045D01*
X62692990Y-53769279D01*
X62658682Y-53882379D01*
X62656946Y-53900000D01*
X60843054Y-53900000D01*
X60841318Y-53882379D01*
X60807010Y-53769279D01*
X60751296Y-53665045D01*
X60676317Y-53573683D01*
X60584955Y-53498704D01*
X60480721Y-53442990D01*
X60367621Y-53408682D01*
X60250000Y-53397097D01*
X58750000Y-53397097D01*
X58632379Y-53408682D01*
X58519279Y-53442990D01*
X58416044Y-53498170D01*
X58526751Y-53387463D01*
X58636189Y-53223678D01*
X58711571Y-53041689D01*
X58750000Y-52848491D01*
X58750000Y-52651509D01*
X58731157Y-52556777D01*
X58834955Y-52501296D01*
X58875000Y-52468432D01*
X58915045Y-52501296D01*
X59019279Y-52557010D01*
X59132379Y-52591318D01*
X59250000Y-52602903D01*
X59825000Y-52600000D01*
X59975000Y-52450000D01*
X59975000Y-51025000D01*
X59955000Y-51025000D01*
X59955000Y-50975000D01*
X59975000Y-50975000D01*
X59975000Y-50955000D01*
X60025000Y-50955000D01*
X60025000Y-50975000D01*
X60025000Y-50975000D01*
G37*
X60025000Y-50975000D02*
X60045000Y-50975000D01*
X60045000Y-51025000D01*
X60025000Y-51025000D01*
X60025000Y-52450000D01*
X60175000Y-52600000D01*
X60750000Y-52602903D01*
X60867621Y-52591318D01*
X60980721Y-52557010D01*
X61084955Y-52501296D01*
X61125000Y-52468432D01*
X61165045Y-52501296D01*
X61268843Y-52556777D01*
X61250000Y-52651509D01*
X61250000Y-52848491D01*
X61288429Y-53041689D01*
X61363811Y-53223678D01*
X61473249Y-53387463D01*
X61612537Y-53526751D01*
X61776322Y-53636189D01*
X61958311Y-53711571D01*
X62151509Y-53750000D01*
X62348491Y-53750000D01*
X62541689Y-53711571D01*
X62723678Y-53636189D01*
X62851981Y-53550459D01*
X62823683Y-53573683D01*
X62748704Y-53665045D01*
X62692990Y-53769279D01*
X62658682Y-53882379D01*
X62656946Y-53900000D01*
X60843054Y-53900000D01*
X60841318Y-53882379D01*
X60807010Y-53769279D01*
X60751296Y-53665045D01*
X60676317Y-53573683D01*
X60584955Y-53498704D01*
X60480721Y-53442990D01*
X60367621Y-53408682D01*
X60250000Y-53397097D01*
X58750000Y-53397097D01*
X58632379Y-53408682D01*
X58519279Y-53442990D01*
X58416044Y-53498170D01*
X58526751Y-53387463D01*
X58636189Y-53223678D01*
X58711571Y-53041689D01*
X58750000Y-52848491D01*
X58750000Y-52651509D01*
X58731157Y-52556777D01*
X58834955Y-52501296D01*
X58875000Y-52468432D01*
X58915045Y-52501296D01*
X59019279Y-52557010D01*
X59132379Y-52591318D01*
X59250000Y-52602903D01*
X59825000Y-52600000D01*
X59975000Y-52450000D01*
X59975000Y-51025000D01*
X59955000Y-51025000D01*
X59955000Y-50975000D01*
X59975000Y-50975000D01*
X59975000Y-50955000D01*
X60025000Y-50955000D01*
X60025000Y-50975000D01*
M02*
