M48
; DRILL file {KiCad (5.1.2-1)-1} date понедельник, 21 октября 2019 г., 00:17:53
; FORMAT={3:3/ absolute / metric / keep zeros}
; #@! TF.CreationDate,2019-10-21T00:17:53+03:00
; #@! TF.GenerationSoftware,Kicad,Pcbnew,(5.1.2-1)-1
; #@! TF.FileFunction,Plated,1,2,PTH
FMAT,2
METRIC
T1C0.400
T2C1.000
T3C1.200
%
G90
G05
T1
X050500Y-090750
X054250Y-067000
X054250Y-072000
X054750Y-088500
X054750Y-091500
X054750Y-092500
X057000Y-079250
X057750Y-052750
X059750Y-081763
X060000Y-052750
X060250Y-066000
X060250Y-067750
X060250Y-071000
X060250Y-072750
X062250Y-052750
X063250Y-080500
X064000Y-079750
X064000Y-092500
X064250Y-071000
X064250Y-076250
X064500Y-051000
X064750Y-080500
X064750Y-093250
X065750Y-056000
X065750Y-079750
X066000Y-048250
X067250Y-048250
X068500Y-054500
X070250Y-088500
X071000Y-086175
X071500Y-089750
X073250Y-080250
X073250Y-083000
X074500Y-080250
X074500Y-083000
X075000Y-091500
X075000Y-092750
X075250Y-047500
X075250Y-049500
X075500Y-044750
X075750Y-088500
X079000Y-078750
X079000Y-082250
X083500Y-056000
X083500Y-061000
X083750Y-045500
X083750Y-049500
X083750Y-075000
X083750Y-078750
X083750Y-080000
X083750Y-083500
X087987Y-086487
X088000Y-083250
X088000Y-084250
X088013Y-085263
X094250Y-056000
X094250Y-062250
T2
X048000Y-079250
X048000Y-081790
X048000Y-084330
X050540Y-079250
X050540Y-081790
X050540Y-084330
T3
X090000Y-067000
X090000Y-072000
X090000Y-077000
X090000Y-082000
X090000Y-056000
X090000Y-061000
X090000Y-046000
X090000Y-051000
X090000Y-087000
X090000Y-092000
X050000Y-046000
X050000Y-051000
X050000Y-067000
X050000Y-072000
X050000Y-056000
X050000Y-061000
T0
M30
