G04 #@! TF.GenerationSoftware,KiCad,Pcbnew,(5.1.2-1)-1*
G04 #@! TF.CreationDate,2019-10-21T00:17:46+03:00*
G04 #@! TF.ProjectId,uaf0,75616630-2e6b-4696-9361-645f70636258,rev?*
G04 #@! TF.SameCoordinates,Original*
G04 #@! TF.FileFunction,Copper,L2,Bot*
G04 #@! TF.FilePolarity,Positive*
%FSLAX46Y46*%
G04 Gerber Fmt 4.6, Leading zero omitted, Abs format (unit mm)*
G04 Created by KiCad (PCBNEW (5.1.2-1)-1) date 2019-10-21 00:17:46*
%MOMM*%
%LPD*%
G04 APERTURE LIST*
%ADD10R,1.250000X0.500000*%
%ADD11R,1.700000X1.700000*%
%ADD12C,1.700000*%
%ADD13R,2.000000X2.000000*%
%ADD14C,2.000000*%
%ADD15R,0.800000X1.200000*%
%ADD16R,0.500000X1.250000*%
%ADD17C,0.800000*%
%ADD18C,0.250000*%
%ADD19C,0.450000*%
%ADD20C,0.200000*%
G04 APERTURE END LIST*
D10*
X64000000Y-89500000D03*
X64000000Y-91250000D03*
D11*
X50540000Y-84330000D03*
X50540000Y-81790000D03*
X50540000Y-79250000D03*
X48000000Y-84330000D03*
X48000000Y-81790000D03*
D12*
X48000000Y-79250000D03*
D13*
X90000000Y-67000000D03*
D14*
X90000000Y-72000000D03*
D13*
X90000000Y-46000000D03*
D14*
X90000000Y-51000000D03*
D13*
X90000000Y-56000000D03*
D14*
X90000000Y-61000000D03*
D13*
X90000000Y-87000000D03*
D14*
X90000000Y-92000000D03*
D13*
X90000000Y-77000000D03*
D14*
X90000000Y-82000000D03*
D13*
X50000000Y-72000000D03*
D14*
X50000000Y-67000000D03*
D13*
X50000000Y-61000000D03*
D14*
X50000000Y-56000000D03*
D13*
X50000000Y-51000000D03*
D14*
X50000000Y-46000000D03*
D15*
X57250000Y-81750000D03*
X53750000Y-81750000D03*
D10*
X61750000Y-73500000D03*
X61750000Y-75250000D03*
X61750000Y-68500000D03*
X61750000Y-70250000D03*
X61750000Y-63500000D03*
X61750000Y-65250000D03*
X64250000Y-73500000D03*
X64250000Y-75250000D03*
X64250000Y-68500000D03*
X64250000Y-70250000D03*
D16*
X87000000Y-87500000D03*
X85250000Y-87500000D03*
X87000000Y-90750000D03*
X85250000Y-90750000D03*
X80500000Y-87500000D03*
X82250000Y-87500000D03*
X80500000Y-90750000D03*
X82250000Y-90750000D03*
X87000000Y-77000000D03*
X85250000Y-77000000D03*
X87000000Y-82000000D03*
X85250000Y-82000000D03*
X82250000Y-77000000D03*
X80500000Y-77000000D03*
X82250000Y-82000000D03*
X80500000Y-82000000D03*
X77500000Y-79250000D03*
X75750000Y-79250000D03*
X77500000Y-84000000D03*
X75750000Y-84000000D03*
X77500000Y-77000000D03*
X75750000Y-77000000D03*
X77500000Y-81750000D03*
X75750000Y-81750000D03*
X55750000Y-84500000D03*
X54000000Y-84500000D03*
D10*
X50500000Y-88000000D03*
X50500000Y-89750000D03*
X48000000Y-88000000D03*
X48000000Y-89750000D03*
D16*
X54000000Y-79250000D03*
X55750000Y-79250000D03*
X72500000Y-47500000D03*
X74250000Y-47500000D03*
X72500000Y-49750000D03*
X74250000Y-49750000D03*
X74250000Y-88500000D03*
X72500000Y-88500000D03*
D10*
X68500000Y-53500000D03*
X68500000Y-51750000D03*
D16*
X72500000Y-45250000D03*
X74250000Y-45250000D03*
X87000000Y-56000000D03*
X85250000Y-56000000D03*
X87000000Y-61000000D03*
X85250000Y-61000000D03*
D10*
X52750000Y-74750000D03*
X52750000Y-73000000D03*
X52750000Y-69750000D03*
X52750000Y-68000000D03*
D16*
X80500000Y-85250000D03*
X82250000Y-85250000D03*
X80500000Y-93000000D03*
X82250000Y-93000000D03*
D10*
X61750000Y-91250000D03*
X61750000Y-89500000D03*
X68500000Y-47250000D03*
X68500000Y-49000000D03*
X64500000Y-47250000D03*
X64500000Y-49000000D03*
X60000000Y-47250000D03*
X60000000Y-49000000D03*
X62250000Y-47250000D03*
X62250000Y-49000000D03*
X84750000Y-46750000D03*
X84750000Y-48500000D03*
X65250000Y-84750000D03*
X65250000Y-83000000D03*
X63000000Y-84750000D03*
X63000000Y-83000000D03*
D17*
X57750000Y-52750000D03*
X65750000Y-56000000D03*
X83750000Y-49500000D03*
X66000000Y-48250000D03*
X83750000Y-80000000D03*
X83750000Y-75000000D03*
X64750000Y-93250000D03*
X64000000Y-79750000D03*
X65750000Y-79750000D03*
X71500000Y-89750000D03*
X62250000Y-52750000D03*
X54250000Y-72000000D03*
X54250000Y-67000000D03*
X60000000Y-52750000D03*
X83750000Y-45500000D03*
X64500000Y-51000000D03*
X74500000Y-80250000D03*
X74500000Y-83000000D03*
X83500000Y-56000000D03*
X83500000Y-61000000D03*
X50500000Y-90750000D03*
X63250000Y-80500000D03*
X64750000Y-80500000D03*
X59750000Y-81762653D03*
X67250000Y-48250000D03*
X54750000Y-91500000D03*
X75000000Y-92750000D03*
X75000000Y-91500000D03*
X60250000Y-71000000D03*
X60250000Y-66000000D03*
X73250000Y-83000000D03*
X88000000Y-83250000D03*
X88000000Y-84250000D03*
X71000000Y-86175000D03*
X88012733Y-85262572D03*
X94250000Y-56000000D03*
X87987347Y-86487347D03*
X94250000Y-62250000D03*
X54750000Y-92500000D03*
X57000000Y-79250000D03*
X54750000Y-88500000D03*
X64250000Y-76250000D03*
X64250000Y-71000000D03*
X75250000Y-47500000D03*
X73250000Y-80250000D03*
X75250000Y-49500000D03*
X75500000Y-44750000D03*
X68500000Y-54500000D03*
X75750000Y-88500000D03*
X79000000Y-82250000D03*
X79000000Y-78750000D03*
X83750000Y-83500000D03*
X83750000Y-78750000D03*
X60250000Y-67750000D03*
X60250000Y-72750000D03*
X70250000Y-88500000D03*
X64000000Y-92500000D03*
D18*
X76000000Y-89500000D02*
X76750000Y-88750000D01*
X51640000Y-84330000D02*
X52250000Y-84940000D01*
X50540000Y-84330000D02*
X51640000Y-84330000D01*
X76750000Y-88750000D02*
X77750000Y-87750000D01*
X76000000Y-89500000D02*
X75250000Y-90250000D01*
X75250000Y-90250000D02*
X75000000Y-90500000D01*
X75000000Y-90500000D02*
X74750000Y-90500000D01*
D19*
X62250000Y-49000000D02*
X62250000Y-52750000D01*
X61224999Y-53775001D02*
X62250000Y-52750000D01*
X56525001Y-53775001D02*
X61224999Y-53775001D01*
X53750000Y-51000000D02*
X56525001Y-53775001D01*
X50000000Y-51000000D02*
X53750000Y-51000000D01*
X50000000Y-72000000D02*
X52500000Y-72000000D01*
X52500000Y-72000000D02*
X52750000Y-72250000D01*
X52750000Y-72250000D02*
X52750000Y-73000000D01*
X53000000Y-72000000D02*
X52750000Y-72250000D01*
X54250000Y-72000000D02*
X53000000Y-72000000D01*
X50000000Y-67000000D02*
X51414213Y-67000000D01*
X51414213Y-67000000D02*
X52500000Y-67000000D01*
X52500000Y-67000000D02*
X52750000Y-67250000D01*
X52750000Y-67250000D02*
X52750000Y-68000000D01*
X52750000Y-67250000D02*
X53000000Y-67000000D01*
X53000000Y-67000000D02*
X54250000Y-67000000D01*
D18*
X87000000Y-77000000D02*
X90000000Y-77000000D01*
X87000000Y-82000000D02*
X90000000Y-82000000D01*
X88000000Y-87500000D02*
X88500000Y-87000000D01*
X87000000Y-87500000D02*
X88000000Y-87500000D01*
X88500000Y-87000000D02*
X90000000Y-87000000D01*
X87000000Y-90750000D02*
X88750000Y-90750000D01*
X88750000Y-90750000D02*
X90000000Y-92000000D01*
X60000000Y-49000000D02*
X60000000Y-52750000D01*
X83750000Y-45500000D02*
X84250000Y-45500000D01*
X84250000Y-45500000D02*
X84500000Y-45500000D01*
X84500000Y-45500000D02*
X84750000Y-45750000D01*
X84750000Y-45750000D02*
X84750000Y-46750000D01*
X64500000Y-51000000D02*
X64500000Y-50250000D01*
X64500000Y-51000000D02*
X68250000Y-51000000D01*
X68250000Y-51000000D02*
X68500000Y-51250000D01*
X68500000Y-51250000D02*
X68500000Y-51750000D01*
X64500000Y-50250000D02*
X64500000Y-49000000D01*
X75750000Y-79250000D02*
X75250000Y-79250000D01*
X75250000Y-79250000D02*
X74750000Y-79250000D01*
X74500000Y-79500000D02*
X74500000Y-80250000D01*
X74750000Y-79250000D02*
X74500000Y-79500000D01*
X75750000Y-84000000D02*
X75000000Y-84000000D01*
X75000000Y-84000000D02*
X74750000Y-84000000D01*
X74750000Y-84000000D02*
X74500000Y-83750000D01*
X74500000Y-83750000D02*
X74500000Y-83000000D01*
X85250000Y-56000000D02*
X83500000Y-56000000D01*
X85250000Y-61000000D02*
X83500000Y-61000000D01*
X50500000Y-89750000D02*
X50500000Y-90750000D01*
X63000000Y-80750000D02*
X63250000Y-80500000D01*
X63000000Y-83000000D02*
X63000000Y-80750000D01*
X65250000Y-81000000D02*
X64750000Y-80500000D01*
X65250000Y-83000000D02*
X65250000Y-81000000D01*
X57250000Y-81750000D02*
X59000000Y-81750000D01*
X59012653Y-81762653D02*
X59750000Y-81762653D01*
X59000000Y-81750000D02*
X59012653Y-81762653D01*
X67250000Y-48250000D02*
X67250000Y-49750000D01*
X67250000Y-49750000D02*
X67500000Y-50000000D01*
X67500000Y-50000000D02*
X68250000Y-50000000D01*
X68250000Y-50000000D02*
X68500000Y-49750000D01*
X68500000Y-49750000D02*
X68500000Y-49000000D01*
X61750000Y-89500000D02*
X61750000Y-89000000D01*
X61750000Y-89000000D02*
X62000000Y-88750000D01*
X62000000Y-88750000D02*
X63750000Y-88750000D01*
X63750000Y-88750000D02*
X64000000Y-89000000D01*
X64000000Y-89000000D02*
X64000000Y-89500000D01*
X54750000Y-91500000D02*
X57750000Y-91500000D01*
X57750000Y-91500000D02*
X60500000Y-88750000D01*
X61500000Y-88750000D02*
X61750000Y-89000000D01*
X60500000Y-88750000D02*
X61500000Y-88750000D01*
X82250000Y-93000000D02*
X82750000Y-93000000D01*
X82750000Y-93000000D02*
X83000000Y-92750000D01*
X83000000Y-92750000D02*
X83000000Y-91000000D01*
X83000000Y-91000000D02*
X82750000Y-90750000D01*
X82750000Y-90750000D02*
X82250000Y-90750000D01*
X83250000Y-90750000D02*
X83000000Y-91000000D01*
X85250000Y-90750000D02*
X83250000Y-90750000D01*
X83000000Y-90500000D02*
X83250000Y-90750000D01*
X82750000Y-89250000D02*
X83000000Y-89500000D01*
X83000000Y-89500000D02*
X83000000Y-90500000D01*
X78500000Y-89250000D02*
X82750000Y-89250000D01*
X75000000Y-92750000D02*
X78500000Y-89250000D01*
X82750000Y-90750000D02*
X83000000Y-90500000D01*
X82250000Y-87500000D02*
X82750000Y-87500000D01*
X82750000Y-87500000D02*
X83000000Y-87250000D01*
X83000000Y-87250000D02*
X83000000Y-85500000D01*
X83000000Y-85500000D02*
X82750000Y-85250000D01*
X82750000Y-85250000D02*
X82250000Y-85250000D01*
X83250000Y-87500000D02*
X83000000Y-87250000D01*
X85250000Y-87500000D02*
X83250000Y-87500000D01*
X75000000Y-91500000D02*
X77750000Y-88750000D01*
X77750000Y-88750000D02*
X82750000Y-88750000D01*
X82750000Y-88750000D02*
X83000000Y-88500000D01*
X83000000Y-87750000D02*
X83250000Y-87500000D01*
X83000000Y-88500000D02*
X83000000Y-87750000D01*
X82750000Y-87500000D02*
X83000000Y-87750000D01*
D19*
X52750000Y-75450000D02*
X52450000Y-75750000D01*
X52750000Y-74750000D02*
X52750000Y-75450000D01*
X52450000Y-75750000D02*
X50750000Y-75750000D01*
X50750000Y-75750000D02*
X48500000Y-75750000D01*
X48500000Y-75750000D02*
X48000000Y-75250000D01*
X48000000Y-75250000D02*
X48000000Y-70500000D01*
X48000000Y-70500000D02*
X48500000Y-70000000D01*
X51125002Y-70000000D02*
X51875002Y-70750000D01*
X48500000Y-70000000D02*
X51125002Y-70000000D01*
X51875002Y-70750000D02*
X52500000Y-70750000D01*
X52500000Y-70750000D02*
X52750000Y-70500000D01*
X52750000Y-70500000D02*
X52750000Y-69750000D01*
X48500000Y-70000000D02*
X48000000Y-69500000D01*
X48000000Y-69500000D02*
X48000000Y-68250000D01*
X48000000Y-61500000D02*
X48500000Y-61000000D01*
X48500000Y-61000000D02*
X50000000Y-61000000D01*
X53000000Y-70750000D02*
X52750000Y-70500000D01*
X59750000Y-70750000D02*
X53000000Y-70750000D01*
X60000000Y-71000000D02*
X59750000Y-70750000D01*
X60250000Y-71000000D02*
X60000000Y-71000000D01*
X59250000Y-65000000D02*
X48500000Y-65000000D01*
X60250000Y-66000000D02*
X59250000Y-65000000D01*
X48500000Y-65000000D02*
X48000000Y-65500000D01*
X48000000Y-68250000D02*
X48000000Y-65500000D01*
X48000000Y-63750000D02*
X48000000Y-64500000D01*
X48000000Y-64500000D02*
X48500000Y-65000000D01*
X48000000Y-63750000D02*
X48000000Y-61500000D01*
X61750000Y-70750000D02*
X61750000Y-70250000D01*
X61500000Y-71000000D02*
X61750000Y-70750000D01*
X60250000Y-71000000D02*
X61500000Y-71000000D01*
X53000000Y-75750000D02*
X52750000Y-75500000D01*
X52750000Y-75500000D02*
X52750000Y-75450000D01*
X60250000Y-75750000D02*
X53000000Y-75750000D01*
X60500000Y-76000000D02*
X60250000Y-75750000D01*
X61500000Y-76000000D02*
X60500000Y-76000000D01*
X61750000Y-75750000D02*
X61500000Y-76000000D01*
X61750000Y-75250000D02*
X61750000Y-75750000D01*
X60250000Y-66000000D02*
X60750000Y-66500000D01*
X60750000Y-66500000D02*
X61250000Y-66500000D01*
X61250000Y-66500000D02*
X61750000Y-66000000D01*
X61750000Y-66000000D02*
X61750000Y-65250000D01*
D18*
X73250000Y-83000000D02*
X74500000Y-81750000D01*
X74500000Y-81750000D02*
X75750000Y-81750000D01*
X88565685Y-83250000D02*
X89065685Y-83750000D01*
X88000000Y-83250000D02*
X88565685Y-83250000D01*
X89065685Y-83750000D02*
X90500000Y-83750000D01*
X90500000Y-83750000D02*
X90750000Y-83750000D01*
X71750000Y-49750000D02*
X72500000Y-49750000D01*
X71500000Y-50000000D02*
X71750000Y-49750000D01*
X71500000Y-50750000D02*
X71500000Y-50000000D01*
X76500000Y-50500000D02*
X76000000Y-51000000D01*
X77250000Y-43750000D02*
X76500000Y-44500000D01*
X93500000Y-43750000D02*
X77250000Y-43750000D01*
X93750000Y-54500000D02*
X93750000Y-44000000D01*
X76500000Y-44500000D02*
X76500000Y-50500000D01*
X76000000Y-51000000D02*
X71750000Y-51000000D01*
X71750000Y-51000000D02*
X71500000Y-50750000D01*
X93750000Y-44000000D02*
X93500000Y-43750000D01*
X90500000Y-83750000D02*
X92000000Y-83750000D01*
X92500000Y-55750000D02*
X93750000Y-54500000D01*
X92500000Y-83250000D02*
X92500000Y-55750000D01*
X92000000Y-83750000D02*
X92500000Y-83250000D01*
X90500000Y-84250000D02*
X92250000Y-84250000D01*
X88000000Y-84250000D02*
X90500000Y-84250000D01*
X90500000Y-84250000D02*
X90750000Y-84250000D01*
X93000000Y-83500000D02*
X93000000Y-80000000D01*
X92250000Y-84250000D02*
X93000000Y-83500000D01*
X93000000Y-80000000D02*
X93000000Y-77500000D01*
X93000000Y-77500000D02*
X93000000Y-56000000D01*
X93000000Y-56000000D02*
X94250000Y-54750000D01*
X94250000Y-54750000D02*
X94250000Y-53000000D01*
X94250000Y-53000000D02*
X94250000Y-52750000D01*
X94250000Y-43750000D02*
X93750000Y-43250000D01*
X94250000Y-44500000D02*
X94250000Y-44250000D01*
X94250000Y-52750000D02*
X94250000Y-44500000D01*
X94250000Y-44500000D02*
X94250000Y-43750000D01*
X93750000Y-43250000D02*
X88250000Y-43250000D01*
X88250000Y-43250000D02*
X75000000Y-43250000D01*
X75000000Y-43250000D02*
X71750000Y-43250000D01*
X71750000Y-43250000D02*
X71500000Y-43500000D01*
X71500000Y-43500000D02*
X71500000Y-45000000D01*
X71500000Y-45000000D02*
X71750000Y-45250000D01*
X71750000Y-45250000D02*
X72500000Y-45250000D01*
X71000000Y-86175000D02*
X70175000Y-87000000D01*
X70175000Y-87000000D02*
X60250000Y-87000000D01*
X60250000Y-87000000D02*
X57250000Y-90000000D01*
X57250000Y-90000000D02*
X55000000Y-90000000D01*
X48000000Y-84330000D02*
X48000000Y-85500000D01*
X48000000Y-85500000D02*
X49500000Y-87000000D01*
X49500000Y-87000000D02*
X50000000Y-87000000D01*
X50500000Y-87500000D02*
X50500000Y-88000000D01*
X50000000Y-87000000D02*
X50500000Y-87500000D01*
X50500000Y-87500000D02*
X51000000Y-87000000D01*
X51000000Y-87000000D02*
X52000000Y-87000000D01*
X55000000Y-90000000D02*
X52000000Y-87000000D01*
X87000000Y-56000000D02*
X90000000Y-56000000D01*
X88412732Y-84862573D02*
X88012733Y-85262572D01*
X88525305Y-84750000D02*
X88412732Y-84862573D01*
X90750000Y-84750000D02*
X88525305Y-84750000D01*
X90750000Y-84750000D02*
X92500000Y-84750000D01*
X92500000Y-84750000D02*
X93750000Y-83500000D01*
X93750000Y-83500000D02*
X93750000Y-81500000D01*
X93750000Y-81500000D02*
X93750000Y-67250000D01*
X93750000Y-67250000D02*
X93750000Y-63000000D01*
X93750000Y-63000000D02*
X93500000Y-62750000D01*
X93500000Y-62000000D02*
X93500000Y-61750000D01*
X93500000Y-62750000D02*
X93500000Y-62000000D01*
X94250000Y-61000000D02*
X94250000Y-56000000D01*
X93500000Y-61750000D02*
X94250000Y-61000000D01*
X87000000Y-61000000D02*
X90000000Y-61000000D01*
X94250000Y-72500000D02*
X94250000Y-62250000D01*
X94250000Y-83636410D02*
X94250000Y-72500000D01*
X92636410Y-85250000D02*
X94250000Y-83636410D01*
X89098307Y-85250000D02*
X92636410Y-85250000D01*
X87987347Y-86360960D02*
X89098307Y-85250000D01*
X87987347Y-86487347D02*
X87987347Y-86360960D01*
X54750000Y-92500000D02*
X49500000Y-92500000D01*
X49500000Y-92500000D02*
X48000000Y-91000000D01*
X48000000Y-91000000D02*
X48000000Y-89750000D01*
X57000000Y-79250000D02*
X55750000Y-79250000D01*
X54750000Y-88500000D02*
X54750000Y-87500000D01*
X54750000Y-87500000D02*
X56750000Y-85500000D01*
X56750000Y-85500000D02*
X56750000Y-84750000D01*
X56750000Y-84750000D02*
X56500000Y-84500000D01*
X56500000Y-84500000D02*
X55750000Y-84500000D01*
X64250000Y-76250000D02*
X64250000Y-75250000D01*
X64250000Y-71000000D02*
X64250000Y-70250000D01*
X75250000Y-47500000D02*
X74250000Y-47500000D01*
X73250000Y-80250000D02*
X73250000Y-78500000D01*
X74750000Y-77000000D02*
X73250000Y-78500000D01*
X75750000Y-77000000D02*
X74750000Y-77000000D01*
X75000000Y-49750000D02*
X75250000Y-49500000D01*
X74250000Y-49750000D02*
X75000000Y-49750000D01*
X75000000Y-45250000D02*
X75500000Y-44750000D01*
X74250000Y-45250000D02*
X75000000Y-45250000D01*
X68500000Y-53500000D02*
X68500000Y-54000000D01*
X68500000Y-54000000D02*
X68500000Y-54500000D01*
X74250000Y-88500000D02*
X75750000Y-88500000D01*
X48000000Y-79250000D02*
X48849999Y-78400001D01*
X48849999Y-78400001D02*
X49500000Y-77750000D01*
X49500000Y-77750000D02*
X51500000Y-77750000D01*
X51500000Y-77750000D02*
X53000000Y-79250000D01*
X53000000Y-79250000D02*
X54000000Y-79250000D01*
X46900000Y-81790000D02*
X46250000Y-82440000D01*
X48000000Y-81790000D02*
X46900000Y-81790000D01*
X46250000Y-82440000D02*
X46250000Y-85250000D01*
X46250000Y-85250000D02*
X48000000Y-87000000D01*
X48000000Y-87000000D02*
X48000000Y-87750000D01*
X51640000Y-81790000D02*
X52500000Y-82650000D01*
X50540000Y-81790000D02*
X51640000Y-81790000D01*
X52500000Y-82650000D02*
X52500000Y-84000000D01*
X52500000Y-84000000D02*
X53000000Y-84500000D01*
X53000000Y-84500000D02*
X54000000Y-84500000D01*
X77500000Y-81750000D02*
X78500000Y-81750000D01*
X78500000Y-81750000D02*
X79000000Y-82250000D01*
X79000000Y-82250000D02*
X79000000Y-83500000D01*
X79000000Y-83500000D02*
X78500000Y-84000000D01*
X78500000Y-84000000D02*
X77500000Y-84000000D01*
X77500000Y-79250000D02*
X78500000Y-79250000D01*
X78500000Y-79250000D02*
X79000000Y-78750000D01*
X79000000Y-77500000D02*
X79000000Y-78750000D01*
X78500000Y-77000000D02*
X79000000Y-77500000D01*
X77500000Y-77000000D02*
X78500000Y-77000000D01*
X83750000Y-82250000D02*
X83500000Y-82000000D01*
X83750000Y-83500000D02*
X83750000Y-82250000D01*
X82250000Y-82000000D02*
X83500000Y-82000000D01*
X84000000Y-82000000D02*
X83750000Y-82250000D01*
X84250000Y-82000000D02*
X84000000Y-82000000D01*
X84250000Y-82000000D02*
X85250000Y-82000000D01*
X83750000Y-77250000D02*
X83500000Y-77000000D01*
X83750000Y-78750000D02*
X83750000Y-77250000D01*
X82250000Y-77000000D02*
X83500000Y-77000000D01*
X84250000Y-77000000D02*
X84000000Y-77000000D01*
X84000000Y-77000000D02*
X83750000Y-77250000D01*
X84250000Y-77000000D02*
X85250000Y-77000000D01*
X51640000Y-79250000D02*
X52500000Y-80110000D01*
X50540000Y-79250000D02*
X51640000Y-79250000D01*
X52500000Y-80110000D02*
X52500000Y-81250000D01*
X52500000Y-81250000D02*
X53000000Y-81750000D01*
X53000000Y-81750000D02*
X53750000Y-81750000D01*
X61750000Y-68500000D02*
X61750000Y-68000000D01*
X61750000Y-68000000D02*
X62000000Y-67750000D01*
X61500000Y-67750000D02*
X61750000Y-68000000D01*
X60250000Y-67750000D02*
X61500000Y-67750000D01*
X63250000Y-67750000D02*
X64000000Y-67750000D01*
X62000000Y-67750000D02*
X63250000Y-67750000D01*
X64000000Y-67750000D02*
X64250000Y-68000000D01*
X64250000Y-68000000D02*
X64250000Y-68500000D01*
X61750000Y-73500000D02*
X61750000Y-73000000D01*
X61750000Y-73000000D02*
X62000000Y-72750000D01*
X61500000Y-72750000D02*
X61750000Y-73000000D01*
X60250000Y-72750000D02*
X61500000Y-72750000D01*
X62000000Y-72750000D02*
X63000000Y-72750000D01*
X63000000Y-72750000D02*
X64000000Y-72750000D01*
X64000000Y-72750000D02*
X64250000Y-73000000D01*
X64250000Y-73000000D02*
X64250000Y-73500000D01*
X70250000Y-88500000D02*
X72500000Y-88500000D01*
X64000000Y-91250000D02*
X64000000Y-92500000D01*
D20*
G36*
X47162238Y-87187542D02*
G01*
X47144279Y-87192990D01*
X47040045Y-87248704D01*
X46948683Y-87323683D01*
X46873704Y-87415045D01*
X46817990Y-87519279D01*
X46783682Y-87632379D01*
X46772097Y-87750000D01*
X46772097Y-88250000D01*
X46783682Y-88367621D01*
X46817990Y-88480721D01*
X46873704Y-88584955D01*
X46948683Y-88676317D01*
X47040045Y-88751296D01*
X47144279Y-88807010D01*
X47257379Y-88841318D01*
X47375000Y-88852903D01*
X48625000Y-88852903D01*
X48742621Y-88841318D01*
X48855721Y-88807010D01*
X48959955Y-88751296D01*
X49051317Y-88676317D01*
X49126296Y-88584955D01*
X49182010Y-88480721D01*
X49216318Y-88367621D01*
X49227903Y-88250000D01*
X49227903Y-87750000D01*
X49220275Y-87672552D01*
X49221212Y-87673053D01*
X49277980Y-87690273D01*
X49272097Y-87750000D01*
X49272097Y-88250000D01*
X49283682Y-88367621D01*
X49317990Y-88480721D01*
X49373704Y-88584955D01*
X49448683Y-88676317D01*
X49540045Y-88751296D01*
X49644279Y-88807010D01*
X49757379Y-88841318D01*
X49875000Y-88852903D01*
X51125000Y-88852903D01*
X51242621Y-88841318D01*
X51355721Y-88807010D01*
X51459955Y-88751296D01*
X51551317Y-88676317D01*
X51626296Y-88584955D01*
X51682010Y-88480721D01*
X51716318Y-88367621D01*
X51727903Y-88250000D01*
X51727903Y-87753207D01*
X54462172Y-90487477D01*
X54484868Y-90515132D01*
X54502536Y-90529632D01*
X54458311Y-90538429D01*
X54276322Y-90613811D01*
X54112537Y-90723249D01*
X53973249Y-90862537D01*
X53863811Y-91026322D01*
X53788429Y-91208311D01*
X53750000Y-91401509D01*
X53750000Y-91598491D01*
X53785109Y-91775000D01*
X49800305Y-91775000D01*
X48725000Y-90699696D01*
X48725000Y-90593054D01*
X48742621Y-90591318D01*
X48855721Y-90557010D01*
X48959955Y-90501296D01*
X49051317Y-90426317D01*
X49126296Y-90334955D01*
X49182010Y-90230721D01*
X49216318Y-90117621D01*
X49227903Y-90000000D01*
X49227903Y-89500000D01*
X49272097Y-89500000D01*
X49272097Y-90000000D01*
X49283682Y-90117621D01*
X49317990Y-90230721D01*
X49373704Y-90334955D01*
X49448683Y-90426317D01*
X49531306Y-90494124D01*
X49500000Y-90651509D01*
X49500000Y-90848491D01*
X49538429Y-91041689D01*
X49613811Y-91223678D01*
X49723249Y-91387463D01*
X49862537Y-91526751D01*
X50026322Y-91636189D01*
X50208311Y-91711571D01*
X50401509Y-91750000D01*
X50598491Y-91750000D01*
X50791689Y-91711571D01*
X50973678Y-91636189D01*
X51137463Y-91526751D01*
X51276751Y-91387463D01*
X51386189Y-91223678D01*
X51461571Y-91041689D01*
X51500000Y-90848491D01*
X51500000Y-90651509D01*
X51468694Y-90494124D01*
X51551317Y-90426317D01*
X51626296Y-90334955D01*
X51682010Y-90230721D01*
X51716318Y-90117621D01*
X51727903Y-90000000D01*
X51727903Y-89500000D01*
X51716318Y-89382379D01*
X51682010Y-89269279D01*
X51626296Y-89165045D01*
X51551317Y-89073683D01*
X51459955Y-88998704D01*
X51355721Y-88942990D01*
X51242621Y-88908682D01*
X51125000Y-88897097D01*
X49875000Y-88897097D01*
X49757379Y-88908682D01*
X49644279Y-88942990D01*
X49540045Y-88998704D01*
X49448683Y-89073683D01*
X49373704Y-89165045D01*
X49317990Y-89269279D01*
X49283682Y-89382379D01*
X49272097Y-89500000D01*
X49227903Y-89500000D01*
X49216318Y-89382379D01*
X49182010Y-89269279D01*
X49126296Y-89165045D01*
X49051317Y-89073683D01*
X48959955Y-88998704D01*
X48855721Y-88942990D01*
X48742621Y-88908682D01*
X48625000Y-88897097D01*
X47375000Y-88897097D01*
X47257379Y-88908682D01*
X47144279Y-88942990D01*
X47040045Y-88998704D01*
X46948683Y-89073683D01*
X46873704Y-89165045D01*
X46817990Y-89269279D01*
X46783682Y-89382379D01*
X46772097Y-89500000D01*
X46772097Y-90000000D01*
X46783682Y-90117621D01*
X46817990Y-90230721D01*
X46873704Y-90334955D01*
X46948683Y-90426317D01*
X47040045Y-90501296D01*
X47144279Y-90557010D01*
X47257379Y-90591318D01*
X47275000Y-90593054D01*
X47275000Y-90964402D01*
X47271494Y-91000000D01*
X47275000Y-91035597D01*
X47275000Y-91035606D01*
X47285491Y-91142124D01*
X47310230Y-91223678D01*
X47326947Y-91278787D01*
X47394269Y-91404736D01*
X47454811Y-91478506D01*
X47484868Y-91515131D01*
X47512524Y-91537828D01*
X48962172Y-92987477D01*
X48984868Y-93015132D01*
X49012523Y-93037828D01*
X49012525Y-93037830D01*
X49095263Y-93105731D01*
X49221212Y-93173053D01*
X49357875Y-93214509D01*
X49464393Y-93225000D01*
X49464402Y-93225000D01*
X49499999Y-93228506D01*
X49535596Y-93225000D01*
X54060786Y-93225000D01*
X54112537Y-93276751D01*
X54276322Y-93386189D01*
X54458311Y-93461571D01*
X54651509Y-93500000D01*
X54848491Y-93500000D01*
X55041689Y-93461571D01*
X55223678Y-93386189D01*
X55387463Y-93276751D01*
X55526751Y-93137463D01*
X55636189Y-92973678D01*
X55711571Y-92791689D01*
X55750000Y-92598491D01*
X55750000Y-92401509D01*
X55714891Y-92225000D01*
X57714403Y-92225000D01*
X57750000Y-92228506D01*
X57785597Y-92225000D01*
X57785607Y-92225000D01*
X57892125Y-92214509D01*
X58028788Y-92173053D01*
X58154737Y-92105731D01*
X58265132Y-92015132D01*
X58287832Y-91987472D01*
X58775304Y-91500000D01*
X60522097Y-91500000D01*
X60533682Y-91617621D01*
X60567990Y-91730721D01*
X60623704Y-91834955D01*
X60698683Y-91926317D01*
X60790045Y-92001296D01*
X60894279Y-92057010D01*
X61007379Y-92091318D01*
X61125000Y-92102903D01*
X61575000Y-92100000D01*
X61725000Y-91950000D01*
X61725000Y-91275000D01*
X60675000Y-91275000D01*
X60525000Y-91425000D01*
X60522097Y-91500000D01*
X58775304Y-91500000D01*
X60522385Y-89752920D01*
X60533682Y-89867621D01*
X60567990Y-89980721D01*
X60623704Y-90084955D01*
X60650000Y-90116997D01*
X60650000Y-90633003D01*
X60623704Y-90665045D01*
X60567990Y-90769279D01*
X60533682Y-90882379D01*
X60522097Y-91000000D01*
X60525000Y-91075000D01*
X60675000Y-91225000D01*
X61725000Y-91225000D01*
X61725000Y-91205000D01*
X61775000Y-91205000D01*
X61775000Y-91225000D01*
X61795000Y-91225000D01*
X61795000Y-91275000D01*
X61775000Y-91275000D01*
X61775000Y-91950000D01*
X61925000Y-92100000D01*
X62375000Y-92102903D01*
X62492621Y-92091318D01*
X62605721Y-92057010D01*
X62709955Y-92001296D01*
X62801317Y-91926317D01*
X62875000Y-91836534D01*
X62948683Y-91926317D01*
X63040045Y-92001296D01*
X63108927Y-92038114D01*
X63038429Y-92208311D01*
X63000000Y-92401509D01*
X63000000Y-92598491D01*
X63038429Y-92791689D01*
X63113811Y-92973678D01*
X63223249Y-93137463D01*
X63362537Y-93276751D01*
X63526322Y-93386189D01*
X63708311Y-93461571D01*
X63901509Y-93500000D01*
X64098491Y-93500000D01*
X64291689Y-93461571D01*
X64473678Y-93386189D01*
X64637463Y-93276751D01*
X64776751Y-93137463D01*
X64886189Y-92973678D01*
X64961571Y-92791689D01*
X65000000Y-92598491D01*
X65000000Y-92401509D01*
X64961571Y-92208311D01*
X64891073Y-92038114D01*
X64959955Y-92001296D01*
X65051317Y-91926317D01*
X65126296Y-91834955D01*
X65182010Y-91730721D01*
X65216318Y-91617621D01*
X65227903Y-91500000D01*
X65227903Y-91000000D01*
X65216318Y-90882379D01*
X65182010Y-90769279D01*
X65126296Y-90665045D01*
X65100000Y-90633003D01*
X65100000Y-90116997D01*
X65126296Y-90084955D01*
X65182010Y-89980721D01*
X65216318Y-89867621D01*
X65227903Y-89750000D01*
X65227903Y-89250000D01*
X65216318Y-89132379D01*
X65182010Y-89019279D01*
X65126296Y-88915045D01*
X65051317Y-88823683D01*
X64959955Y-88748704D01*
X64855721Y-88692990D01*
X64742621Y-88658682D01*
X64633906Y-88647974D01*
X64605731Y-88595263D01*
X64545190Y-88521494D01*
X64537830Y-88512526D01*
X64537828Y-88512524D01*
X64515131Y-88484868D01*
X64487476Y-88462172D01*
X64287830Y-88262526D01*
X64265132Y-88234868D01*
X64154737Y-88144269D01*
X64028788Y-88076947D01*
X63892125Y-88035491D01*
X63785607Y-88025000D01*
X63785597Y-88025000D01*
X63750000Y-88021494D01*
X63714403Y-88025000D01*
X62035596Y-88025000D01*
X61999999Y-88021494D01*
X61964402Y-88025000D01*
X61964393Y-88025000D01*
X61857875Y-88035491D01*
X61750000Y-88068214D01*
X61642125Y-88035491D01*
X61535607Y-88025000D01*
X61535597Y-88025000D01*
X61500000Y-88021494D01*
X61464403Y-88025000D01*
X60535596Y-88025000D01*
X60499999Y-88021494D01*
X60464402Y-88025000D01*
X60464393Y-88025000D01*
X60357875Y-88035491D01*
X60221212Y-88076947D01*
X60172114Y-88103191D01*
X60550305Y-87725000D01*
X69610786Y-87725000D01*
X69473249Y-87862537D01*
X69363811Y-88026322D01*
X69288429Y-88208311D01*
X69250000Y-88401509D01*
X69250000Y-88598491D01*
X69288429Y-88791689D01*
X69363811Y-88973678D01*
X69473249Y-89137463D01*
X69612537Y-89276751D01*
X69776322Y-89386189D01*
X69958311Y-89461571D01*
X70151509Y-89500000D01*
X70348491Y-89500000D01*
X70541689Y-89461571D01*
X70723678Y-89386189D01*
X70887463Y-89276751D01*
X70939214Y-89225000D01*
X71656946Y-89225000D01*
X71658682Y-89242621D01*
X71692990Y-89355721D01*
X71748704Y-89459955D01*
X71823683Y-89551317D01*
X71915045Y-89626296D01*
X72019279Y-89682010D01*
X72132379Y-89716318D01*
X72250000Y-89727903D01*
X72750000Y-89727903D01*
X72867621Y-89716318D01*
X72980721Y-89682010D01*
X73084955Y-89626296D01*
X73116997Y-89600000D01*
X73633003Y-89600000D01*
X73665045Y-89626296D01*
X73769279Y-89682010D01*
X73882379Y-89716318D01*
X74000000Y-89727903D01*
X74500000Y-89727903D01*
X74617621Y-89716318D01*
X74730721Y-89682010D01*
X74834955Y-89626296D01*
X74926317Y-89551317D01*
X75001296Y-89459955D01*
X75057010Y-89355721D01*
X75088313Y-89252527D01*
X75112537Y-89276751D01*
X75276322Y-89386189D01*
X75458311Y-89461571D01*
X75651509Y-89500000D01*
X75848491Y-89500000D01*
X76006032Y-89468664D01*
X74974696Y-90500000D01*
X74901509Y-90500000D01*
X74708311Y-90538429D01*
X74526322Y-90613811D01*
X74362537Y-90723249D01*
X74223249Y-90862537D01*
X74113811Y-91026322D01*
X74038429Y-91208311D01*
X74000000Y-91401509D01*
X74000000Y-91598491D01*
X74038429Y-91791689D01*
X74113811Y-91973678D01*
X74214921Y-92125000D01*
X74113811Y-92276322D01*
X74038429Y-92458311D01*
X74000000Y-92651509D01*
X74000000Y-92848491D01*
X74038429Y-93041689D01*
X74113811Y-93223678D01*
X74223249Y-93387463D01*
X74362537Y-93526751D01*
X74526322Y-93636189D01*
X74708311Y-93711571D01*
X74901509Y-93750000D01*
X75098491Y-93750000D01*
X75291689Y-93711571D01*
X75473678Y-93636189D01*
X75637463Y-93526751D01*
X75776751Y-93387463D01*
X75886189Y-93223678D01*
X75961571Y-93041689D01*
X76000000Y-92848491D01*
X76000000Y-92775304D01*
X77400304Y-91375000D01*
X79647097Y-91375000D01*
X79658682Y-91492621D01*
X79692990Y-91605721D01*
X79748704Y-91709955D01*
X79823683Y-91801317D01*
X79913466Y-91875000D01*
X79823683Y-91948683D01*
X79748704Y-92040045D01*
X79692990Y-92144279D01*
X79658682Y-92257379D01*
X79647097Y-92375000D01*
X79650000Y-92825000D01*
X79800000Y-92975000D01*
X80475000Y-92975000D01*
X80475000Y-91925000D01*
X80425000Y-91875000D01*
X80475000Y-91825000D01*
X80475000Y-90775000D01*
X79800000Y-90775000D01*
X79650000Y-90925000D01*
X79647097Y-91375000D01*
X77400304Y-91375000D01*
X78800305Y-89975000D01*
X79668504Y-89975000D01*
X79658682Y-90007379D01*
X79647097Y-90125000D01*
X79650000Y-90575000D01*
X79800000Y-90725000D01*
X80475000Y-90725000D01*
X80475000Y-90705000D01*
X80525000Y-90705000D01*
X80525000Y-90725000D01*
X80545000Y-90725000D01*
X80545000Y-90775000D01*
X80525000Y-90775000D01*
X80525000Y-91825000D01*
X80575000Y-91875000D01*
X80525000Y-91925000D01*
X80525000Y-92975000D01*
X80545000Y-92975000D01*
X80545000Y-93025000D01*
X80525000Y-93025000D01*
X80525000Y-93045000D01*
X80475000Y-93045000D01*
X80475000Y-93025000D01*
X79800000Y-93025000D01*
X79650000Y-93175000D01*
X79647097Y-93625000D01*
X79658682Y-93742621D01*
X79692990Y-93855721D01*
X79748704Y-93959955D01*
X79823683Y-94051317D01*
X79915045Y-94126296D01*
X79959392Y-94150000D01*
X46100000Y-94150000D01*
X46100000Y-86125304D01*
X47162238Y-87187542D01*
X47162238Y-87187542D01*
G37*
X47162238Y-87187542D02*
X47144279Y-87192990D01*
X47040045Y-87248704D01*
X46948683Y-87323683D01*
X46873704Y-87415045D01*
X46817990Y-87519279D01*
X46783682Y-87632379D01*
X46772097Y-87750000D01*
X46772097Y-88250000D01*
X46783682Y-88367621D01*
X46817990Y-88480721D01*
X46873704Y-88584955D01*
X46948683Y-88676317D01*
X47040045Y-88751296D01*
X47144279Y-88807010D01*
X47257379Y-88841318D01*
X47375000Y-88852903D01*
X48625000Y-88852903D01*
X48742621Y-88841318D01*
X48855721Y-88807010D01*
X48959955Y-88751296D01*
X49051317Y-88676317D01*
X49126296Y-88584955D01*
X49182010Y-88480721D01*
X49216318Y-88367621D01*
X49227903Y-88250000D01*
X49227903Y-87750000D01*
X49220275Y-87672552D01*
X49221212Y-87673053D01*
X49277980Y-87690273D01*
X49272097Y-87750000D01*
X49272097Y-88250000D01*
X49283682Y-88367621D01*
X49317990Y-88480721D01*
X49373704Y-88584955D01*
X49448683Y-88676317D01*
X49540045Y-88751296D01*
X49644279Y-88807010D01*
X49757379Y-88841318D01*
X49875000Y-88852903D01*
X51125000Y-88852903D01*
X51242621Y-88841318D01*
X51355721Y-88807010D01*
X51459955Y-88751296D01*
X51551317Y-88676317D01*
X51626296Y-88584955D01*
X51682010Y-88480721D01*
X51716318Y-88367621D01*
X51727903Y-88250000D01*
X51727903Y-87753207D01*
X54462172Y-90487477D01*
X54484868Y-90515132D01*
X54502536Y-90529632D01*
X54458311Y-90538429D01*
X54276322Y-90613811D01*
X54112537Y-90723249D01*
X53973249Y-90862537D01*
X53863811Y-91026322D01*
X53788429Y-91208311D01*
X53750000Y-91401509D01*
X53750000Y-91598491D01*
X53785109Y-91775000D01*
X49800305Y-91775000D01*
X48725000Y-90699696D01*
X48725000Y-90593054D01*
X48742621Y-90591318D01*
X48855721Y-90557010D01*
X48959955Y-90501296D01*
X49051317Y-90426317D01*
X49126296Y-90334955D01*
X49182010Y-90230721D01*
X49216318Y-90117621D01*
X49227903Y-90000000D01*
X49227903Y-89500000D01*
X49272097Y-89500000D01*
X49272097Y-90000000D01*
X49283682Y-90117621D01*
X49317990Y-90230721D01*
X49373704Y-90334955D01*
X49448683Y-90426317D01*
X49531306Y-90494124D01*
X49500000Y-90651509D01*
X49500000Y-90848491D01*
X49538429Y-91041689D01*
X49613811Y-91223678D01*
X49723249Y-91387463D01*
X49862537Y-91526751D01*
X50026322Y-91636189D01*
X50208311Y-91711571D01*
X50401509Y-91750000D01*
X50598491Y-91750000D01*
X50791689Y-91711571D01*
X50973678Y-91636189D01*
X51137463Y-91526751D01*
X51276751Y-91387463D01*
X51386189Y-91223678D01*
X51461571Y-91041689D01*
X51500000Y-90848491D01*
X51500000Y-90651509D01*
X51468694Y-90494124D01*
X51551317Y-90426317D01*
X51626296Y-90334955D01*
X51682010Y-90230721D01*
X51716318Y-90117621D01*
X51727903Y-90000000D01*
X51727903Y-89500000D01*
X51716318Y-89382379D01*
X51682010Y-89269279D01*
X51626296Y-89165045D01*
X51551317Y-89073683D01*
X51459955Y-88998704D01*
X51355721Y-88942990D01*
X51242621Y-88908682D01*
X51125000Y-88897097D01*
X49875000Y-88897097D01*
X49757379Y-88908682D01*
X49644279Y-88942990D01*
X49540045Y-88998704D01*
X49448683Y-89073683D01*
X49373704Y-89165045D01*
X49317990Y-89269279D01*
X49283682Y-89382379D01*
X49272097Y-89500000D01*
X49227903Y-89500000D01*
X49216318Y-89382379D01*
X49182010Y-89269279D01*
X49126296Y-89165045D01*
X49051317Y-89073683D01*
X48959955Y-88998704D01*
X48855721Y-88942990D01*
X48742621Y-88908682D01*
X48625000Y-88897097D01*
X47375000Y-88897097D01*
X47257379Y-88908682D01*
X47144279Y-88942990D01*
X47040045Y-88998704D01*
X46948683Y-89073683D01*
X46873704Y-89165045D01*
X46817990Y-89269279D01*
X46783682Y-89382379D01*
X46772097Y-89500000D01*
X46772097Y-90000000D01*
X46783682Y-90117621D01*
X46817990Y-90230721D01*
X46873704Y-90334955D01*
X46948683Y-90426317D01*
X47040045Y-90501296D01*
X47144279Y-90557010D01*
X47257379Y-90591318D01*
X47275000Y-90593054D01*
X47275000Y-90964402D01*
X47271494Y-91000000D01*
X47275000Y-91035597D01*
X47275000Y-91035606D01*
X47285491Y-91142124D01*
X47310230Y-91223678D01*
X47326947Y-91278787D01*
X47394269Y-91404736D01*
X47454811Y-91478506D01*
X47484868Y-91515131D01*
X47512524Y-91537828D01*
X48962172Y-92987477D01*
X48984868Y-93015132D01*
X49012523Y-93037828D01*
X49012525Y-93037830D01*
X49095263Y-93105731D01*
X49221212Y-93173053D01*
X49357875Y-93214509D01*
X49464393Y-93225000D01*
X49464402Y-93225000D01*
X49499999Y-93228506D01*
X49535596Y-93225000D01*
X54060786Y-93225000D01*
X54112537Y-93276751D01*
X54276322Y-93386189D01*
X54458311Y-93461571D01*
X54651509Y-93500000D01*
X54848491Y-93500000D01*
X55041689Y-93461571D01*
X55223678Y-93386189D01*
X55387463Y-93276751D01*
X55526751Y-93137463D01*
X55636189Y-92973678D01*
X55711571Y-92791689D01*
X55750000Y-92598491D01*
X55750000Y-92401509D01*
X55714891Y-92225000D01*
X57714403Y-92225000D01*
X57750000Y-92228506D01*
X57785597Y-92225000D01*
X57785607Y-92225000D01*
X57892125Y-92214509D01*
X58028788Y-92173053D01*
X58154737Y-92105731D01*
X58265132Y-92015132D01*
X58287832Y-91987472D01*
X58775304Y-91500000D01*
X60522097Y-91500000D01*
X60533682Y-91617621D01*
X60567990Y-91730721D01*
X60623704Y-91834955D01*
X60698683Y-91926317D01*
X60790045Y-92001296D01*
X60894279Y-92057010D01*
X61007379Y-92091318D01*
X61125000Y-92102903D01*
X61575000Y-92100000D01*
X61725000Y-91950000D01*
X61725000Y-91275000D01*
X60675000Y-91275000D01*
X60525000Y-91425000D01*
X60522097Y-91500000D01*
X58775304Y-91500000D01*
X60522385Y-89752920D01*
X60533682Y-89867621D01*
X60567990Y-89980721D01*
X60623704Y-90084955D01*
X60650000Y-90116997D01*
X60650000Y-90633003D01*
X60623704Y-90665045D01*
X60567990Y-90769279D01*
X60533682Y-90882379D01*
X60522097Y-91000000D01*
X60525000Y-91075000D01*
X60675000Y-91225000D01*
X61725000Y-91225000D01*
X61725000Y-91205000D01*
X61775000Y-91205000D01*
X61775000Y-91225000D01*
X61795000Y-91225000D01*
X61795000Y-91275000D01*
X61775000Y-91275000D01*
X61775000Y-91950000D01*
X61925000Y-92100000D01*
X62375000Y-92102903D01*
X62492621Y-92091318D01*
X62605721Y-92057010D01*
X62709955Y-92001296D01*
X62801317Y-91926317D01*
X62875000Y-91836534D01*
X62948683Y-91926317D01*
X63040045Y-92001296D01*
X63108927Y-92038114D01*
X63038429Y-92208311D01*
X63000000Y-92401509D01*
X63000000Y-92598491D01*
X63038429Y-92791689D01*
X63113811Y-92973678D01*
X63223249Y-93137463D01*
X63362537Y-93276751D01*
X63526322Y-93386189D01*
X63708311Y-93461571D01*
X63901509Y-93500000D01*
X64098491Y-93500000D01*
X64291689Y-93461571D01*
X64473678Y-93386189D01*
X64637463Y-93276751D01*
X64776751Y-93137463D01*
X64886189Y-92973678D01*
X64961571Y-92791689D01*
X65000000Y-92598491D01*
X65000000Y-92401509D01*
X64961571Y-92208311D01*
X64891073Y-92038114D01*
X64959955Y-92001296D01*
X65051317Y-91926317D01*
X65126296Y-91834955D01*
X65182010Y-91730721D01*
X65216318Y-91617621D01*
X65227903Y-91500000D01*
X65227903Y-91000000D01*
X65216318Y-90882379D01*
X65182010Y-90769279D01*
X65126296Y-90665045D01*
X65100000Y-90633003D01*
X65100000Y-90116997D01*
X65126296Y-90084955D01*
X65182010Y-89980721D01*
X65216318Y-89867621D01*
X65227903Y-89750000D01*
X65227903Y-89250000D01*
X65216318Y-89132379D01*
X65182010Y-89019279D01*
X65126296Y-88915045D01*
X65051317Y-88823683D01*
X64959955Y-88748704D01*
X64855721Y-88692990D01*
X64742621Y-88658682D01*
X64633906Y-88647974D01*
X64605731Y-88595263D01*
X64545190Y-88521494D01*
X64537830Y-88512526D01*
X64537828Y-88512524D01*
X64515131Y-88484868D01*
X64487476Y-88462172D01*
X64287830Y-88262526D01*
X64265132Y-88234868D01*
X64154737Y-88144269D01*
X64028788Y-88076947D01*
X63892125Y-88035491D01*
X63785607Y-88025000D01*
X63785597Y-88025000D01*
X63750000Y-88021494D01*
X63714403Y-88025000D01*
X62035596Y-88025000D01*
X61999999Y-88021494D01*
X61964402Y-88025000D01*
X61964393Y-88025000D01*
X61857875Y-88035491D01*
X61750000Y-88068214D01*
X61642125Y-88035491D01*
X61535607Y-88025000D01*
X61535597Y-88025000D01*
X61500000Y-88021494D01*
X61464403Y-88025000D01*
X60535596Y-88025000D01*
X60499999Y-88021494D01*
X60464402Y-88025000D01*
X60464393Y-88025000D01*
X60357875Y-88035491D01*
X60221212Y-88076947D01*
X60172114Y-88103191D01*
X60550305Y-87725000D01*
X69610786Y-87725000D01*
X69473249Y-87862537D01*
X69363811Y-88026322D01*
X69288429Y-88208311D01*
X69250000Y-88401509D01*
X69250000Y-88598491D01*
X69288429Y-88791689D01*
X69363811Y-88973678D01*
X69473249Y-89137463D01*
X69612537Y-89276751D01*
X69776322Y-89386189D01*
X69958311Y-89461571D01*
X70151509Y-89500000D01*
X70348491Y-89500000D01*
X70541689Y-89461571D01*
X70723678Y-89386189D01*
X70887463Y-89276751D01*
X70939214Y-89225000D01*
X71656946Y-89225000D01*
X71658682Y-89242621D01*
X71692990Y-89355721D01*
X71748704Y-89459955D01*
X71823683Y-89551317D01*
X71915045Y-89626296D01*
X72019279Y-89682010D01*
X72132379Y-89716318D01*
X72250000Y-89727903D01*
X72750000Y-89727903D01*
X72867621Y-89716318D01*
X72980721Y-89682010D01*
X73084955Y-89626296D01*
X73116997Y-89600000D01*
X73633003Y-89600000D01*
X73665045Y-89626296D01*
X73769279Y-89682010D01*
X73882379Y-89716318D01*
X74000000Y-89727903D01*
X74500000Y-89727903D01*
X74617621Y-89716318D01*
X74730721Y-89682010D01*
X74834955Y-89626296D01*
X74926317Y-89551317D01*
X75001296Y-89459955D01*
X75057010Y-89355721D01*
X75088313Y-89252527D01*
X75112537Y-89276751D01*
X75276322Y-89386189D01*
X75458311Y-89461571D01*
X75651509Y-89500000D01*
X75848491Y-89500000D01*
X76006032Y-89468664D01*
X74974696Y-90500000D01*
X74901509Y-90500000D01*
X74708311Y-90538429D01*
X74526322Y-90613811D01*
X74362537Y-90723249D01*
X74223249Y-90862537D01*
X74113811Y-91026322D01*
X74038429Y-91208311D01*
X74000000Y-91401509D01*
X74000000Y-91598491D01*
X74038429Y-91791689D01*
X74113811Y-91973678D01*
X74214921Y-92125000D01*
X74113811Y-92276322D01*
X74038429Y-92458311D01*
X74000000Y-92651509D01*
X74000000Y-92848491D01*
X74038429Y-93041689D01*
X74113811Y-93223678D01*
X74223249Y-93387463D01*
X74362537Y-93526751D01*
X74526322Y-93636189D01*
X74708311Y-93711571D01*
X74901509Y-93750000D01*
X75098491Y-93750000D01*
X75291689Y-93711571D01*
X75473678Y-93636189D01*
X75637463Y-93526751D01*
X75776751Y-93387463D01*
X75886189Y-93223678D01*
X75961571Y-93041689D01*
X76000000Y-92848491D01*
X76000000Y-92775304D01*
X77400304Y-91375000D01*
X79647097Y-91375000D01*
X79658682Y-91492621D01*
X79692990Y-91605721D01*
X79748704Y-91709955D01*
X79823683Y-91801317D01*
X79913466Y-91875000D01*
X79823683Y-91948683D01*
X79748704Y-92040045D01*
X79692990Y-92144279D01*
X79658682Y-92257379D01*
X79647097Y-92375000D01*
X79650000Y-92825000D01*
X79800000Y-92975000D01*
X80475000Y-92975000D01*
X80475000Y-91925000D01*
X80425000Y-91875000D01*
X80475000Y-91825000D01*
X80475000Y-90775000D01*
X79800000Y-90775000D01*
X79650000Y-90925000D01*
X79647097Y-91375000D01*
X77400304Y-91375000D01*
X78800305Y-89975000D01*
X79668504Y-89975000D01*
X79658682Y-90007379D01*
X79647097Y-90125000D01*
X79650000Y-90575000D01*
X79800000Y-90725000D01*
X80475000Y-90725000D01*
X80475000Y-90705000D01*
X80525000Y-90705000D01*
X80525000Y-90725000D01*
X80545000Y-90725000D01*
X80545000Y-90775000D01*
X80525000Y-90775000D01*
X80525000Y-91825000D01*
X80575000Y-91875000D01*
X80525000Y-91925000D01*
X80525000Y-92975000D01*
X80545000Y-92975000D01*
X80545000Y-93025000D01*
X80525000Y-93025000D01*
X80525000Y-93045000D01*
X80475000Y-93045000D01*
X80475000Y-93025000D01*
X79800000Y-93025000D01*
X79650000Y-93175000D01*
X79647097Y-93625000D01*
X79658682Y-93742621D01*
X79692990Y-93855721D01*
X79748704Y-93959955D01*
X79823683Y-94051317D01*
X79915045Y-94126296D01*
X79959392Y-94150000D01*
X46100000Y-94150000D01*
X46100000Y-86125304D01*
X47162238Y-87187542D01*
G36*
X70775001Y-44964393D02*
G01*
X70771494Y-45000000D01*
X70775001Y-45035607D01*
X70785492Y-45142125D01*
X70789318Y-45154737D01*
X70826947Y-45278787D01*
X70894269Y-45404736D01*
X70962170Y-45487474D01*
X70962173Y-45487477D01*
X70984869Y-45515132D01*
X71012524Y-45537828D01*
X71212168Y-45737472D01*
X71234868Y-45765132D01*
X71345263Y-45855731D01*
X71471212Y-45923053D01*
X71607875Y-45964509D01*
X71656384Y-45969287D01*
X71658682Y-45992621D01*
X71692990Y-46105721D01*
X71748704Y-46209955D01*
X71823683Y-46301317D01*
X71913466Y-46375000D01*
X71823683Y-46448683D01*
X71748704Y-46540045D01*
X71692990Y-46644279D01*
X71658682Y-46757379D01*
X71647097Y-46875000D01*
X71650000Y-47325000D01*
X71800000Y-47475000D01*
X72475000Y-47475000D01*
X72475000Y-47455000D01*
X72525000Y-47455000D01*
X72525000Y-47475000D01*
X72545000Y-47475000D01*
X72545000Y-47525000D01*
X72525000Y-47525000D01*
X72525000Y-47545000D01*
X72475000Y-47545000D01*
X72475000Y-47525000D01*
X71800000Y-47525000D01*
X71650000Y-47675000D01*
X71647097Y-48125000D01*
X71658682Y-48242621D01*
X71692990Y-48355721D01*
X71748704Y-48459955D01*
X71823683Y-48551317D01*
X71913466Y-48625000D01*
X71823683Y-48698683D01*
X71748704Y-48790045D01*
X71692990Y-48894279D01*
X71658682Y-49007379D01*
X71656384Y-49030713D01*
X71607875Y-49035491D01*
X71471212Y-49076947D01*
X71345263Y-49144269D01*
X71234868Y-49234868D01*
X71212170Y-49262526D01*
X71012524Y-49462172D01*
X70984869Y-49484868D01*
X70962173Y-49512523D01*
X70962170Y-49512526D01*
X70894269Y-49595264D01*
X70826947Y-49721213D01*
X70822805Y-49734868D01*
X70785491Y-49857875D01*
X70775000Y-49964393D01*
X70775000Y-49964403D01*
X70771494Y-50000000D01*
X70775000Y-50035597D01*
X70775000Y-50714403D01*
X70771494Y-50750000D01*
X70775000Y-50785597D01*
X70775000Y-50785606D01*
X70785491Y-50892124D01*
X70818215Y-51000000D01*
X70826947Y-51028787D01*
X70894269Y-51154736D01*
X70943324Y-51214509D01*
X70984868Y-51265131D01*
X71012524Y-51287828D01*
X71212168Y-51487472D01*
X71234868Y-51515132D01*
X71345263Y-51605731D01*
X71471212Y-51673053D01*
X71607875Y-51714509D01*
X71714393Y-51725000D01*
X71714402Y-51725000D01*
X71749999Y-51728506D01*
X71785596Y-51725000D01*
X75964403Y-51725000D01*
X76000000Y-51728506D01*
X76035597Y-51725000D01*
X76035607Y-51725000D01*
X76142125Y-51714509D01*
X76278788Y-51673053D01*
X76404737Y-51605731D01*
X76515132Y-51515132D01*
X76537832Y-51487472D01*
X76987477Y-51037828D01*
X77015132Y-51015132D01*
X77045190Y-50978507D01*
X77105731Y-50904737D01*
X77139043Y-50842414D01*
X88400000Y-50842414D01*
X88400000Y-51157586D01*
X88461487Y-51466703D01*
X88582098Y-51757884D01*
X88757199Y-52019941D01*
X88980059Y-52242801D01*
X89242116Y-52417902D01*
X89533297Y-52538513D01*
X89842414Y-52600000D01*
X90157586Y-52600000D01*
X90466703Y-52538513D01*
X90757884Y-52417902D01*
X91019941Y-52242801D01*
X91242801Y-52019941D01*
X91417902Y-51757884D01*
X91538513Y-51466703D01*
X91600000Y-51157586D01*
X91600000Y-50842414D01*
X91538513Y-50533297D01*
X91417902Y-50242116D01*
X91242801Y-49980059D01*
X91019941Y-49757199D01*
X90757884Y-49582098D01*
X90466703Y-49461487D01*
X90157586Y-49400000D01*
X89842414Y-49400000D01*
X89533297Y-49461487D01*
X89242116Y-49582098D01*
X88980059Y-49757199D01*
X88757199Y-49980059D01*
X88582098Y-50242116D01*
X88461487Y-50533297D01*
X88400000Y-50842414D01*
X77139043Y-50842414D01*
X77173053Y-50778788D01*
X77177986Y-50762526D01*
X77214509Y-50642125D01*
X77225000Y-50535607D01*
X77225000Y-50535597D01*
X77228506Y-50500000D01*
X77225000Y-50464403D01*
X77225000Y-48750000D01*
X83522097Y-48750000D01*
X83533682Y-48867621D01*
X83567990Y-48980721D01*
X83623704Y-49084955D01*
X83698683Y-49176317D01*
X83790045Y-49251296D01*
X83894279Y-49307010D01*
X84007379Y-49341318D01*
X84125000Y-49352903D01*
X84575000Y-49350000D01*
X84725000Y-49200000D01*
X84725000Y-48525000D01*
X84775000Y-48525000D01*
X84775000Y-49200000D01*
X84925000Y-49350000D01*
X85375000Y-49352903D01*
X85492621Y-49341318D01*
X85605721Y-49307010D01*
X85709955Y-49251296D01*
X85801317Y-49176317D01*
X85876296Y-49084955D01*
X85932010Y-48980721D01*
X85966318Y-48867621D01*
X85977903Y-48750000D01*
X85975000Y-48675000D01*
X85825000Y-48525000D01*
X84775000Y-48525000D01*
X84725000Y-48525000D01*
X83675000Y-48525000D01*
X83525000Y-48675000D01*
X83522097Y-48750000D01*
X77225000Y-48750000D01*
X77225000Y-45401509D01*
X82750000Y-45401509D01*
X82750000Y-45598491D01*
X82788429Y-45791689D01*
X82863811Y-45973678D01*
X82973249Y-46137463D01*
X83112537Y-46276751D01*
X83276322Y-46386189D01*
X83458311Y-46461571D01*
X83524584Y-46474753D01*
X83522097Y-46500000D01*
X83522097Y-47000000D01*
X83533682Y-47117621D01*
X83567990Y-47230721D01*
X83623704Y-47334955D01*
X83650000Y-47366997D01*
X83650000Y-47883003D01*
X83623704Y-47915045D01*
X83567990Y-48019279D01*
X83533682Y-48132379D01*
X83522097Y-48250000D01*
X83525000Y-48325000D01*
X83675000Y-48475000D01*
X84725000Y-48475000D01*
X84725000Y-48455000D01*
X84775000Y-48455000D01*
X84775000Y-48475000D01*
X85825000Y-48475000D01*
X85975000Y-48325000D01*
X85977903Y-48250000D01*
X85966318Y-48132379D01*
X85932010Y-48019279D01*
X85876296Y-47915045D01*
X85850000Y-47883003D01*
X85850000Y-47366997D01*
X85876296Y-47334955D01*
X85932010Y-47230721D01*
X85966318Y-47117621D01*
X85977903Y-47000000D01*
X85977903Y-46500000D01*
X85966318Y-46382379D01*
X85932010Y-46269279D01*
X85876296Y-46165045D01*
X85801317Y-46073683D01*
X85709955Y-45998704D01*
X85605721Y-45942990D01*
X85492621Y-45908682D01*
X85475000Y-45906946D01*
X85475000Y-45785596D01*
X85478506Y-45749999D01*
X85475000Y-45714402D01*
X85475000Y-45714393D01*
X85464509Y-45607875D01*
X85423053Y-45471212D01*
X85355731Y-45345263D01*
X85265131Y-45234868D01*
X85237476Y-45212172D01*
X85037832Y-45012528D01*
X85015132Y-44984868D01*
X84904737Y-44894269D01*
X84778788Y-44826947D01*
X84642125Y-44785491D01*
X84535607Y-44775000D01*
X84535597Y-44775000D01*
X84500000Y-44771494D01*
X84464403Y-44775000D01*
X84439214Y-44775000D01*
X84387463Y-44723249D01*
X84223678Y-44613811D01*
X84041689Y-44538429D01*
X83848491Y-44500000D01*
X83651509Y-44500000D01*
X83458311Y-44538429D01*
X83276322Y-44613811D01*
X83112537Y-44723249D01*
X82973249Y-44862537D01*
X82863811Y-45026322D01*
X82788429Y-45208311D01*
X82750000Y-45401509D01*
X77225000Y-45401509D01*
X77225000Y-44800304D01*
X77550305Y-44475000D01*
X88709392Y-44475000D01*
X88665045Y-44498704D01*
X88573683Y-44573683D01*
X88498704Y-44665045D01*
X88442990Y-44769279D01*
X88408682Y-44882379D01*
X88397097Y-45000000D01*
X88397097Y-47000000D01*
X88408682Y-47117621D01*
X88442990Y-47230721D01*
X88498704Y-47334955D01*
X88573683Y-47426317D01*
X88665045Y-47501296D01*
X88769279Y-47557010D01*
X88882379Y-47591318D01*
X89000000Y-47602903D01*
X91000000Y-47602903D01*
X91117621Y-47591318D01*
X91230721Y-47557010D01*
X91334955Y-47501296D01*
X91426317Y-47426317D01*
X91501296Y-47334955D01*
X91557010Y-47230721D01*
X91591318Y-47117621D01*
X91602903Y-47000000D01*
X91602903Y-45000000D01*
X91591318Y-44882379D01*
X91557010Y-44769279D01*
X91501296Y-44665045D01*
X91426317Y-44573683D01*
X91334955Y-44498704D01*
X91290608Y-44475000D01*
X93025001Y-44475000D01*
X93025000Y-54199695D01*
X92012523Y-55212173D01*
X91984869Y-55234868D01*
X91962173Y-55262523D01*
X91962170Y-55262526D01*
X91894269Y-55345264D01*
X91826947Y-55471213D01*
X91808115Y-55533297D01*
X91789318Y-55595264D01*
X91785492Y-55607876D01*
X91771494Y-55750000D01*
X91775001Y-55785607D01*
X91775000Y-82949695D01*
X91699696Y-83025000D01*
X91237742Y-83025000D01*
X91242801Y-83019941D01*
X91417902Y-82757884D01*
X91538513Y-82466703D01*
X91600000Y-82157586D01*
X91600000Y-81842414D01*
X91538513Y-81533297D01*
X91417902Y-81242116D01*
X91242801Y-80980059D01*
X91019941Y-80757199D01*
X90757884Y-80582098D01*
X90466703Y-80461487D01*
X90157586Y-80400000D01*
X89842414Y-80400000D01*
X89533297Y-80461487D01*
X89242116Y-80582098D01*
X88980059Y-80757199D01*
X88757199Y-80980059D01*
X88582098Y-81242116D01*
X88568477Y-81275000D01*
X87843054Y-81275000D01*
X87841318Y-81257379D01*
X87807010Y-81144279D01*
X87751296Y-81040045D01*
X87676317Y-80948683D01*
X87584955Y-80873704D01*
X87480721Y-80817990D01*
X87367621Y-80783682D01*
X87250000Y-80772097D01*
X86750000Y-80772097D01*
X86632379Y-80783682D01*
X86519279Y-80817990D01*
X86415045Y-80873704D01*
X86383003Y-80900000D01*
X85866997Y-80900000D01*
X85834955Y-80873704D01*
X85730721Y-80817990D01*
X85617621Y-80783682D01*
X85500000Y-80772097D01*
X85000000Y-80772097D01*
X84882379Y-80783682D01*
X84769279Y-80817990D01*
X84665045Y-80873704D01*
X84573683Y-80948683D01*
X84498704Y-81040045D01*
X84442990Y-81144279D01*
X84408682Y-81257379D01*
X84406946Y-81275000D01*
X84035596Y-81275000D01*
X83999999Y-81271494D01*
X83964402Y-81275000D01*
X83964393Y-81275000D01*
X83857875Y-81285491D01*
X83750000Y-81318214D01*
X83642125Y-81285491D01*
X83535607Y-81275000D01*
X83535597Y-81275000D01*
X83500000Y-81271494D01*
X83464403Y-81275000D01*
X83093054Y-81275000D01*
X83091318Y-81257379D01*
X83057010Y-81144279D01*
X83001296Y-81040045D01*
X82926317Y-80948683D01*
X82834955Y-80873704D01*
X82730721Y-80817990D01*
X82617621Y-80783682D01*
X82500000Y-80772097D01*
X82000000Y-80772097D01*
X81882379Y-80783682D01*
X81769279Y-80817990D01*
X81665045Y-80873704D01*
X81633003Y-80900000D01*
X81116997Y-80900000D01*
X81084955Y-80873704D01*
X80980721Y-80817990D01*
X80867621Y-80783682D01*
X80750000Y-80772097D01*
X80675000Y-80775000D01*
X80525000Y-80925000D01*
X80525000Y-81975000D01*
X80545000Y-81975000D01*
X80545000Y-82025000D01*
X80525000Y-82025000D01*
X80525000Y-83075000D01*
X80675000Y-83225000D01*
X80750000Y-83227903D01*
X80867621Y-83216318D01*
X80980721Y-83182010D01*
X81084955Y-83126296D01*
X81116997Y-83100000D01*
X81633003Y-83100000D01*
X81665045Y-83126296D01*
X81769279Y-83182010D01*
X81882379Y-83216318D01*
X82000000Y-83227903D01*
X82500000Y-83227903D01*
X82617621Y-83216318D01*
X82730721Y-83182010D01*
X82818831Y-83134915D01*
X82788429Y-83208311D01*
X82750000Y-83401509D01*
X82750000Y-83598491D01*
X82788429Y-83791689D01*
X82863811Y-83973678D01*
X82973249Y-84137463D01*
X83112537Y-84276751D01*
X83276322Y-84386189D01*
X83458311Y-84461571D01*
X83651509Y-84500000D01*
X83848491Y-84500000D01*
X84041689Y-84461571D01*
X84223678Y-84386189D01*
X84387463Y-84276751D01*
X84526751Y-84137463D01*
X84636189Y-83973678D01*
X84711571Y-83791689D01*
X84750000Y-83598491D01*
X84750000Y-83401509D01*
X84711571Y-83208311D01*
X84681169Y-83134915D01*
X84769279Y-83182010D01*
X84882379Y-83216318D01*
X85000000Y-83227903D01*
X85500000Y-83227903D01*
X85617621Y-83216318D01*
X85730721Y-83182010D01*
X85834955Y-83126296D01*
X85866997Y-83100000D01*
X86383003Y-83100000D01*
X86415045Y-83126296D01*
X86519279Y-83182010D01*
X86632379Y-83216318D01*
X86750000Y-83227903D01*
X87000000Y-83227903D01*
X87000000Y-83348491D01*
X87038429Y-83541689D01*
X87113811Y-83723678D01*
X87131399Y-83750000D01*
X87113811Y-83776322D01*
X87038429Y-83958311D01*
X87000000Y-84151509D01*
X87000000Y-84348491D01*
X87038429Y-84541689D01*
X87113811Y-84723678D01*
X87141966Y-84765814D01*
X87126544Y-84788894D01*
X87051162Y-84970883D01*
X87012733Y-85164081D01*
X87012733Y-85361063D01*
X87051162Y-85554261D01*
X87126544Y-85736250D01*
X87206534Y-85855963D01*
X87101158Y-86013669D01*
X87025776Y-86195658D01*
X87010572Y-86272097D01*
X86750000Y-86272097D01*
X86632379Y-86283682D01*
X86519279Y-86317990D01*
X86415045Y-86373704D01*
X86383003Y-86400000D01*
X85866997Y-86400000D01*
X85834955Y-86373704D01*
X85730721Y-86317990D01*
X85617621Y-86283682D01*
X85500000Y-86272097D01*
X85000000Y-86272097D01*
X84882379Y-86283682D01*
X84769279Y-86317990D01*
X84665045Y-86373704D01*
X84573683Y-86448683D01*
X84498704Y-86540045D01*
X84442990Y-86644279D01*
X84408682Y-86757379D01*
X84406946Y-86775000D01*
X83725000Y-86775000D01*
X83725000Y-85535596D01*
X83728506Y-85499999D01*
X83725000Y-85464402D01*
X83725000Y-85464393D01*
X83714509Y-85357875D01*
X83673053Y-85221212D01*
X83605731Y-85095263D01*
X83515132Y-84984868D01*
X83487472Y-84962168D01*
X83287830Y-84762526D01*
X83265132Y-84734868D01*
X83154737Y-84644269D01*
X83102026Y-84616094D01*
X83091318Y-84507379D01*
X83057010Y-84394279D01*
X83001296Y-84290045D01*
X82926317Y-84198683D01*
X82834955Y-84123704D01*
X82730721Y-84067990D01*
X82617621Y-84033682D01*
X82500000Y-84022097D01*
X82000000Y-84022097D01*
X81882379Y-84033682D01*
X81769279Y-84067990D01*
X81665045Y-84123704D01*
X81633003Y-84150000D01*
X81116997Y-84150000D01*
X81084955Y-84123704D01*
X80980721Y-84067990D01*
X80867621Y-84033682D01*
X80750000Y-84022097D01*
X80675000Y-84025000D01*
X80525000Y-84175000D01*
X80525000Y-85225000D01*
X80545000Y-85225000D01*
X80545000Y-85275000D01*
X80525000Y-85275000D01*
X80525000Y-86325000D01*
X80575000Y-86375000D01*
X80525000Y-86425000D01*
X80525000Y-87475000D01*
X80545000Y-87475000D01*
X80545000Y-87525000D01*
X80525000Y-87525000D01*
X80525000Y-87545000D01*
X80475000Y-87545000D01*
X80475000Y-87525000D01*
X79800000Y-87525000D01*
X79650000Y-87675000D01*
X79647742Y-88025000D01*
X77785596Y-88025000D01*
X77749999Y-88021494D01*
X77714402Y-88025000D01*
X77714393Y-88025000D01*
X77607875Y-88035491D01*
X77471212Y-88076947D01*
X77345263Y-88144269D01*
X77262525Y-88212170D01*
X77262523Y-88212172D01*
X77234868Y-88234868D01*
X77212172Y-88262523D01*
X76718664Y-88756032D01*
X76750000Y-88598491D01*
X76750000Y-88401509D01*
X76711571Y-88208311D01*
X76636189Y-88026322D01*
X76526751Y-87862537D01*
X76387463Y-87723249D01*
X76223678Y-87613811D01*
X76041689Y-87538429D01*
X75848491Y-87500000D01*
X75651509Y-87500000D01*
X75458311Y-87538429D01*
X75276322Y-87613811D01*
X75112537Y-87723249D01*
X75088313Y-87747473D01*
X75057010Y-87644279D01*
X75001296Y-87540045D01*
X74926317Y-87448683D01*
X74834955Y-87373704D01*
X74730721Y-87317990D01*
X74617621Y-87283682D01*
X74500000Y-87272097D01*
X74000000Y-87272097D01*
X73882379Y-87283682D01*
X73769279Y-87317990D01*
X73665045Y-87373704D01*
X73633003Y-87400000D01*
X73116997Y-87400000D01*
X73084955Y-87373704D01*
X72980721Y-87317990D01*
X72867621Y-87283682D01*
X72750000Y-87272097D01*
X72250000Y-87272097D01*
X72132379Y-87283682D01*
X72019279Y-87317990D01*
X71915045Y-87373704D01*
X71823683Y-87448683D01*
X71748704Y-87540045D01*
X71692990Y-87644279D01*
X71658682Y-87757379D01*
X71656946Y-87775000D01*
X70939214Y-87775000D01*
X70887463Y-87723249D01*
X70723678Y-87613811D01*
X70621475Y-87571477D01*
X70690132Y-87515132D01*
X70712832Y-87487472D01*
X71025304Y-87175000D01*
X71098491Y-87175000D01*
X71291689Y-87136571D01*
X71473678Y-87061189D01*
X71637463Y-86951751D01*
X71776751Y-86812463D01*
X71886189Y-86648678D01*
X71961571Y-86466689D01*
X72000000Y-86273491D01*
X72000000Y-86076509D01*
X71961571Y-85883311D01*
X71958129Y-85875000D01*
X79647097Y-85875000D01*
X79658682Y-85992621D01*
X79692990Y-86105721D01*
X79748704Y-86209955D01*
X79823683Y-86301317D01*
X79913466Y-86375000D01*
X79823683Y-86448683D01*
X79748704Y-86540045D01*
X79692990Y-86644279D01*
X79658682Y-86757379D01*
X79647097Y-86875000D01*
X79650000Y-87325000D01*
X79800000Y-87475000D01*
X80475000Y-87475000D01*
X80475000Y-86425000D01*
X80425000Y-86375000D01*
X80475000Y-86325000D01*
X80475000Y-85275000D01*
X79800000Y-85275000D01*
X79650000Y-85425000D01*
X79647097Y-85875000D01*
X71958129Y-85875000D01*
X71886189Y-85701322D01*
X71776751Y-85537537D01*
X71637463Y-85398249D01*
X71473678Y-85288811D01*
X71291689Y-85213429D01*
X71098491Y-85175000D01*
X70901509Y-85175000D01*
X70708311Y-85213429D01*
X70526322Y-85288811D01*
X70362537Y-85398249D01*
X70223249Y-85537537D01*
X70113811Y-85701322D01*
X70038429Y-85883311D01*
X70000000Y-86076509D01*
X70000000Y-86149696D01*
X69874696Y-86275000D01*
X60285597Y-86275000D01*
X60250000Y-86271494D01*
X60214403Y-86275000D01*
X60214393Y-86275000D01*
X60107875Y-86285491D01*
X59971212Y-86326947D01*
X59845263Y-86394269D01*
X59762525Y-86462170D01*
X59762523Y-86462172D01*
X59734868Y-86484868D01*
X59712172Y-86512523D01*
X56949696Y-89275000D01*
X55389214Y-89275000D01*
X55526751Y-89137463D01*
X55636189Y-88973678D01*
X55711571Y-88791689D01*
X55750000Y-88598491D01*
X55750000Y-88401509D01*
X55711571Y-88208311D01*
X55636189Y-88026322D01*
X55526751Y-87862537D01*
X55475000Y-87810786D01*
X55475000Y-87800304D01*
X57237482Y-86037823D01*
X57265131Y-86015132D01*
X57287823Y-85987482D01*
X57287830Y-85987475D01*
X57355731Y-85904737D01*
X57423053Y-85778788D01*
X57425639Y-85770264D01*
X57464509Y-85642125D01*
X57475000Y-85535607D01*
X57475000Y-85535598D01*
X57478506Y-85500001D01*
X57475000Y-85464404D01*
X57475000Y-85000000D01*
X61772097Y-85000000D01*
X61783682Y-85117621D01*
X61817990Y-85230721D01*
X61873704Y-85334955D01*
X61948683Y-85426317D01*
X62040045Y-85501296D01*
X62144279Y-85557010D01*
X62257379Y-85591318D01*
X62375000Y-85602903D01*
X62825000Y-85600000D01*
X62975000Y-85450000D01*
X62975000Y-84775000D01*
X63025000Y-84775000D01*
X63025000Y-85450000D01*
X63175000Y-85600000D01*
X63625000Y-85602903D01*
X63742621Y-85591318D01*
X63855721Y-85557010D01*
X63959955Y-85501296D01*
X64051317Y-85426317D01*
X64125000Y-85336534D01*
X64198683Y-85426317D01*
X64290045Y-85501296D01*
X64394279Y-85557010D01*
X64507379Y-85591318D01*
X64625000Y-85602903D01*
X65075000Y-85600000D01*
X65225000Y-85450000D01*
X65225000Y-84775000D01*
X65275000Y-84775000D01*
X65275000Y-85450000D01*
X65425000Y-85600000D01*
X65875000Y-85602903D01*
X65992621Y-85591318D01*
X66105721Y-85557010D01*
X66209955Y-85501296D01*
X66301317Y-85426317D01*
X66376296Y-85334955D01*
X66432010Y-85230721D01*
X66466318Y-85117621D01*
X66477903Y-85000000D01*
X66475000Y-84925000D01*
X66325000Y-84775000D01*
X65275000Y-84775000D01*
X65225000Y-84775000D01*
X64175000Y-84775000D01*
X64125000Y-84825000D01*
X64075000Y-84775000D01*
X63025000Y-84775000D01*
X62975000Y-84775000D01*
X61925000Y-84775000D01*
X61775000Y-84925000D01*
X61772097Y-85000000D01*
X57475000Y-85000000D01*
X57475000Y-84785596D01*
X57478506Y-84749999D01*
X57475000Y-84714402D01*
X57475000Y-84714393D01*
X57464509Y-84607875D01*
X57431786Y-84500000D01*
X61772097Y-84500000D01*
X61775000Y-84575000D01*
X61925000Y-84725000D01*
X62975000Y-84725000D01*
X62975000Y-84050000D01*
X63025000Y-84050000D01*
X63025000Y-84725000D01*
X64075000Y-84725000D01*
X64125000Y-84675000D01*
X64175000Y-84725000D01*
X65225000Y-84725000D01*
X65225000Y-84050000D01*
X65275000Y-84050000D01*
X65275000Y-84725000D01*
X66325000Y-84725000D01*
X66475000Y-84575000D01*
X66477903Y-84500000D01*
X66466318Y-84382379D01*
X66432010Y-84269279D01*
X66376296Y-84165045D01*
X66301317Y-84073683D01*
X66209955Y-83998704D01*
X66105721Y-83942990D01*
X65992621Y-83908682D01*
X65875000Y-83897097D01*
X65425000Y-83900000D01*
X65275000Y-84050000D01*
X65225000Y-84050000D01*
X65075000Y-83900000D01*
X64625000Y-83897097D01*
X64507379Y-83908682D01*
X64394279Y-83942990D01*
X64290045Y-83998704D01*
X64198683Y-84073683D01*
X64125000Y-84163466D01*
X64051317Y-84073683D01*
X63959955Y-83998704D01*
X63855721Y-83942990D01*
X63742621Y-83908682D01*
X63625000Y-83897097D01*
X63175000Y-83900000D01*
X63025000Y-84050000D01*
X62975000Y-84050000D01*
X62825000Y-83900000D01*
X62375000Y-83897097D01*
X62257379Y-83908682D01*
X62144279Y-83942990D01*
X62040045Y-83998704D01*
X61948683Y-84073683D01*
X61873704Y-84165045D01*
X61817990Y-84269279D01*
X61783682Y-84382379D01*
X61772097Y-84500000D01*
X57431786Y-84500000D01*
X57423053Y-84471212D01*
X57355731Y-84345263D01*
X57265132Y-84234868D01*
X57237472Y-84212168D01*
X57037832Y-84012528D01*
X57015132Y-83984868D01*
X56904737Y-83894269D01*
X56778788Y-83826947D01*
X56642125Y-83785491D01*
X56593616Y-83780713D01*
X56591318Y-83757379D01*
X56557010Y-83644279D01*
X56501296Y-83540045D01*
X56426317Y-83448683D01*
X56334955Y-83373704D01*
X56230721Y-83317990D01*
X56117621Y-83283682D01*
X56000000Y-83272097D01*
X55500000Y-83272097D01*
X55382379Y-83283682D01*
X55269279Y-83317990D01*
X55165045Y-83373704D01*
X55073683Y-83448683D01*
X54998704Y-83540045D01*
X54942990Y-83644279D01*
X54908682Y-83757379D01*
X54897097Y-83875000D01*
X54897097Y-85125000D01*
X54908682Y-85242621D01*
X54942990Y-85355721D01*
X54998704Y-85459955D01*
X55073683Y-85551317D01*
X55165045Y-85626296D01*
X55269279Y-85682010D01*
X55382379Y-85716318D01*
X55497080Y-85727615D01*
X54262523Y-86962173D01*
X54234869Y-86984868D01*
X54212173Y-87012523D01*
X54212170Y-87012526D01*
X54144269Y-87095264D01*
X54076947Y-87221213D01*
X54057998Y-87283682D01*
X54039318Y-87345264D01*
X54035492Y-87357876D01*
X54021494Y-87500000D01*
X54025001Y-87535606D01*
X54025001Y-87810785D01*
X53973249Y-87862537D01*
X53939039Y-87913735D01*
X52537830Y-86512526D01*
X52515132Y-86484868D01*
X52404737Y-86394269D01*
X52278788Y-86326947D01*
X52142125Y-86285491D01*
X52035607Y-86275000D01*
X52035597Y-86275000D01*
X52000000Y-86271494D01*
X51964403Y-86275000D01*
X51035597Y-86275000D01*
X51000000Y-86271494D01*
X50964403Y-86275000D01*
X50964393Y-86275000D01*
X50857875Y-86285491D01*
X50721212Y-86326947D01*
X50595263Y-86394269D01*
X50512525Y-86462170D01*
X50512523Y-86462172D01*
X50500000Y-86472449D01*
X50404737Y-86394269D01*
X50278788Y-86326947D01*
X50142125Y-86285491D01*
X50035607Y-86275000D01*
X50035597Y-86275000D01*
X50000000Y-86271494D01*
X49964403Y-86275000D01*
X49800305Y-86275000D01*
X49196844Y-85671539D01*
X49270000Y-85611501D01*
X49355045Y-85681296D01*
X49459279Y-85737010D01*
X49572379Y-85771318D01*
X49690000Y-85782903D01*
X50365000Y-85780000D01*
X50515000Y-85630000D01*
X50515000Y-84355000D01*
X50495000Y-84355000D01*
X50495000Y-84305000D01*
X50515000Y-84305000D01*
X50515000Y-84285000D01*
X50565000Y-84285000D01*
X50565000Y-84305000D01*
X50585000Y-84305000D01*
X50585000Y-84355000D01*
X50565000Y-84355000D01*
X50565000Y-85630000D01*
X50715000Y-85780000D01*
X51390000Y-85782903D01*
X51507621Y-85771318D01*
X51620721Y-85737010D01*
X51724955Y-85681296D01*
X51816317Y-85606317D01*
X51891296Y-85514955D01*
X51947010Y-85410721D01*
X51981318Y-85297621D01*
X51992903Y-85180000D01*
X51990062Y-84519394D01*
X52012523Y-84537827D01*
X52462172Y-84987477D01*
X52484868Y-85015132D01*
X52512523Y-85037828D01*
X52512525Y-85037830D01*
X52582508Y-85095263D01*
X52595263Y-85105731D01*
X52721212Y-85173053D01*
X52857875Y-85214509D01*
X52964393Y-85225000D01*
X52964403Y-85225000D01*
X53000000Y-85228506D01*
X53035597Y-85225000D01*
X53156946Y-85225000D01*
X53158682Y-85242621D01*
X53192990Y-85355721D01*
X53248704Y-85459955D01*
X53323683Y-85551317D01*
X53415045Y-85626296D01*
X53519279Y-85682010D01*
X53632379Y-85716318D01*
X53750000Y-85727903D01*
X54250000Y-85727903D01*
X54367621Y-85716318D01*
X54480721Y-85682010D01*
X54584955Y-85626296D01*
X54676317Y-85551317D01*
X54751296Y-85459955D01*
X54807010Y-85355721D01*
X54841318Y-85242621D01*
X54852903Y-85125000D01*
X54852903Y-83875000D01*
X54841318Y-83757379D01*
X54807010Y-83644279D01*
X54751296Y-83540045D01*
X54676317Y-83448683D01*
X54584955Y-83373704D01*
X54480721Y-83317990D01*
X54367621Y-83283682D01*
X54250000Y-83272097D01*
X53750000Y-83272097D01*
X53632379Y-83283682D01*
X53519279Y-83317990D01*
X53415045Y-83373704D01*
X53323683Y-83448683D01*
X53248704Y-83540045D01*
X53225000Y-83584392D01*
X53225000Y-82939080D01*
X53232379Y-82941318D01*
X53350000Y-82952903D01*
X54150000Y-82952903D01*
X54267621Y-82941318D01*
X54380721Y-82907010D01*
X54484955Y-82851296D01*
X54576317Y-82776317D01*
X54651296Y-82684955D01*
X54707010Y-82580721D01*
X54741318Y-82467621D01*
X54752903Y-82350000D01*
X54752903Y-81150000D01*
X56247097Y-81150000D01*
X56247097Y-82350000D01*
X56258682Y-82467621D01*
X56292990Y-82580721D01*
X56348704Y-82684955D01*
X56423683Y-82776317D01*
X56515045Y-82851296D01*
X56619279Y-82907010D01*
X56732379Y-82941318D01*
X56850000Y-82952903D01*
X57650000Y-82952903D01*
X57767621Y-82941318D01*
X57880721Y-82907010D01*
X57984955Y-82851296D01*
X58076317Y-82776317D01*
X58151296Y-82684955D01*
X58207010Y-82580721D01*
X58239080Y-82475000D01*
X58863401Y-82475000D01*
X58870528Y-82477162D01*
X58977046Y-82487653D01*
X58977055Y-82487653D01*
X59012652Y-82491159D01*
X59048249Y-82487653D01*
X59060786Y-82487653D01*
X59112537Y-82539404D01*
X59276322Y-82648842D01*
X59458311Y-82724224D01*
X59651509Y-82762653D01*
X59848491Y-82762653D01*
X59912102Y-82750000D01*
X61772097Y-82750000D01*
X61772097Y-83250000D01*
X61783682Y-83367621D01*
X61817990Y-83480721D01*
X61873704Y-83584955D01*
X61948683Y-83676317D01*
X62040045Y-83751296D01*
X62144279Y-83807010D01*
X62257379Y-83841318D01*
X62375000Y-83852903D01*
X63625000Y-83852903D01*
X63742621Y-83841318D01*
X63855721Y-83807010D01*
X63959955Y-83751296D01*
X64051317Y-83676317D01*
X64125000Y-83586534D01*
X64198683Y-83676317D01*
X64290045Y-83751296D01*
X64394279Y-83807010D01*
X64507379Y-83841318D01*
X64625000Y-83852903D01*
X65875000Y-83852903D01*
X65992621Y-83841318D01*
X66105721Y-83807010D01*
X66209955Y-83751296D01*
X66301317Y-83676317D01*
X66376296Y-83584955D01*
X66432010Y-83480721D01*
X66466318Y-83367621D01*
X66477903Y-83250000D01*
X66477903Y-82750000D01*
X66466318Y-82632379D01*
X66432010Y-82519279D01*
X66376296Y-82415045D01*
X66301317Y-82323683D01*
X66209955Y-82248704D01*
X66105721Y-82192990D01*
X65992621Y-82158682D01*
X65975000Y-82156946D01*
X65975000Y-81035597D01*
X65978506Y-81000000D01*
X65975000Y-80964403D01*
X65975000Y-80964393D01*
X65964509Y-80857875D01*
X65923053Y-80721212D01*
X65855731Y-80595263D01*
X65844927Y-80582098D01*
X65787830Y-80512525D01*
X65787828Y-80512523D01*
X65765132Y-80484868D01*
X65750000Y-80472449D01*
X65750000Y-80401509D01*
X65711571Y-80208311D01*
X65688043Y-80151509D01*
X72250000Y-80151509D01*
X72250000Y-80348491D01*
X72288429Y-80541689D01*
X72363811Y-80723678D01*
X72473249Y-80887463D01*
X72612537Y-81026751D01*
X72776322Y-81136189D01*
X72958311Y-81211571D01*
X73151509Y-81250000D01*
X73348491Y-81250000D01*
X73541689Y-81211571D01*
X73723678Y-81136189D01*
X73875000Y-81035079D01*
X74026322Y-81136189D01*
X74078682Y-81157877D01*
X74012525Y-81212170D01*
X74012523Y-81212172D01*
X73984868Y-81234868D01*
X73962172Y-81262523D01*
X73224696Y-82000000D01*
X73151509Y-82000000D01*
X72958311Y-82038429D01*
X72776322Y-82113811D01*
X72612537Y-82223249D01*
X72473249Y-82362537D01*
X72363811Y-82526322D01*
X72288429Y-82708311D01*
X72250000Y-82901509D01*
X72250000Y-83098491D01*
X72288429Y-83291689D01*
X72363811Y-83473678D01*
X72473249Y-83637463D01*
X72612537Y-83776751D01*
X72776322Y-83886189D01*
X72958311Y-83961571D01*
X73151509Y-84000000D01*
X73348491Y-84000000D01*
X73541689Y-83961571D01*
X73723678Y-83886189D01*
X73781126Y-83847803D01*
X73785491Y-83892124D01*
X73818215Y-84000000D01*
X73826947Y-84028787D01*
X73894269Y-84154736D01*
X73960032Y-84234868D01*
X73984868Y-84265131D01*
X74012524Y-84287828D01*
X74212168Y-84487472D01*
X74234868Y-84515132D01*
X74345263Y-84605731D01*
X74471212Y-84673053D01*
X74607875Y-84714509D01*
X74714393Y-84725000D01*
X74714402Y-84725000D01*
X74749999Y-84728506D01*
X74785596Y-84725000D01*
X74906946Y-84725000D01*
X74908682Y-84742621D01*
X74942990Y-84855721D01*
X74998704Y-84959955D01*
X75073683Y-85051317D01*
X75165045Y-85126296D01*
X75269279Y-85182010D01*
X75382379Y-85216318D01*
X75500000Y-85227903D01*
X76000000Y-85227903D01*
X76117621Y-85216318D01*
X76230721Y-85182010D01*
X76334955Y-85126296D01*
X76366997Y-85100000D01*
X76883003Y-85100000D01*
X76915045Y-85126296D01*
X77019279Y-85182010D01*
X77132379Y-85216318D01*
X77250000Y-85227903D01*
X77750000Y-85227903D01*
X77867621Y-85216318D01*
X77980721Y-85182010D01*
X78084955Y-85126296D01*
X78176317Y-85051317D01*
X78251296Y-84959955D01*
X78307010Y-84855721D01*
X78341318Y-84742621D01*
X78343054Y-84725000D01*
X78464403Y-84725000D01*
X78500000Y-84728506D01*
X78535597Y-84725000D01*
X78535607Y-84725000D01*
X78642125Y-84714509D01*
X78778788Y-84673053D01*
X78868687Y-84625000D01*
X79647097Y-84625000D01*
X79650000Y-85075000D01*
X79800000Y-85225000D01*
X80475000Y-85225000D01*
X80475000Y-84175000D01*
X80325000Y-84025000D01*
X80250000Y-84022097D01*
X80132379Y-84033682D01*
X80019279Y-84067990D01*
X79915045Y-84123704D01*
X79823683Y-84198683D01*
X79748704Y-84290045D01*
X79692990Y-84394279D01*
X79658682Y-84507379D01*
X79647097Y-84625000D01*
X78868687Y-84625000D01*
X78904737Y-84605731D01*
X79015132Y-84515132D01*
X79037832Y-84487472D01*
X79487477Y-84037828D01*
X79515132Y-84015132D01*
X79545190Y-83978507D01*
X79605731Y-83904737D01*
X79673053Y-83778788D01*
X79679547Y-83757379D01*
X79714509Y-83642125D01*
X79725000Y-83535607D01*
X79725000Y-83535597D01*
X79728506Y-83500000D01*
X79725000Y-83464403D01*
X79725000Y-82939214D01*
X79733223Y-82930991D01*
X79748704Y-82959955D01*
X79823683Y-83051317D01*
X79915045Y-83126296D01*
X80019279Y-83182010D01*
X80132379Y-83216318D01*
X80250000Y-83227903D01*
X80325000Y-83225000D01*
X80475000Y-83075000D01*
X80475000Y-82025000D01*
X80455000Y-82025000D01*
X80455000Y-81975000D01*
X80475000Y-81975000D01*
X80475000Y-80925000D01*
X80325000Y-80775000D01*
X80250000Y-80772097D01*
X80132379Y-80783682D01*
X80019279Y-80817990D01*
X79915045Y-80873704D01*
X79823683Y-80948683D01*
X79748704Y-81040045D01*
X79692990Y-81144279D01*
X79658682Y-81257379D01*
X79647097Y-81375000D01*
X79647797Y-81483583D01*
X79637463Y-81473249D01*
X79473678Y-81363811D01*
X79291689Y-81288429D01*
X79098491Y-81250000D01*
X79027551Y-81250000D01*
X79015132Y-81234868D01*
X78904737Y-81144269D01*
X78778788Y-81076947D01*
X78642125Y-81035491D01*
X78535607Y-81025000D01*
X78535597Y-81025000D01*
X78500000Y-81021494D01*
X78464403Y-81025000D01*
X78343054Y-81025000D01*
X78341318Y-81007379D01*
X78307010Y-80894279D01*
X78251296Y-80790045D01*
X78176317Y-80698683D01*
X78084955Y-80623704D01*
X77980721Y-80567990D01*
X77867621Y-80533682D01*
X77750000Y-80522097D01*
X77250000Y-80522097D01*
X77132379Y-80533682D01*
X77019279Y-80567990D01*
X76915045Y-80623704D01*
X76883003Y-80650000D01*
X76366997Y-80650000D01*
X76334955Y-80623704D01*
X76230721Y-80567990D01*
X76117621Y-80533682D01*
X76000000Y-80522097D01*
X75500000Y-80522097D01*
X75464778Y-80525566D01*
X75474753Y-80475416D01*
X75500000Y-80477903D01*
X76000000Y-80477903D01*
X76117621Y-80466318D01*
X76230721Y-80432010D01*
X76334955Y-80376296D01*
X76366997Y-80350000D01*
X76883003Y-80350000D01*
X76915045Y-80376296D01*
X77019279Y-80432010D01*
X77132379Y-80466318D01*
X77250000Y-80477903D01*
X77750000Y-80477903D01*
X77867621Y-80466318D01*
X77980721Y-80432010D01*
X78084955Y-80376296D01*
X78176317Y-80301317D01*
X78251296Y-80209955D01*
X78307010Y-80105721D01*
X78341318Y-79992621D01*
X78343054Y-79975000D01*
X78464403Y-79975000D01*
X78500000Y-79978506D01*
X78535597Y-79975000D01*
X78535607Y-79975000D01*
X78642125Y-79964509D01*
X78778788Y-79923053D01*
X78904737Y-79855731D01*
X79015132Y-79765132D01*
X79027551Y-79750000D01*
X79098491Y-79750000D01*
X79291689Y-79711571D01*
X79473678Y-79636189D01*
X79637463Y-79526751D01*
X79776751Y-79387463D01*
X79886189Y-79223678D01*
X79961571Y-79041689D01*
X80000000Y-78848491D01*
X80000000Y-78651509D01*
X79961571Y-78458311D01*
X79886189Y-78276322D01*
X79776751Y-78112537D01*
X79725000Y-78060786D01*
X79725000Y-77915608D01*
X79748704Y-77959955D01*
X79823683Y-78051317D01*
X79915045Y-78126296D01*
X80019279Y-78182010D01*
X80132379Y-78216318D01*
X80250000Y-78227903D01*
X80325000Y-78225000D01*
X80475000Y-78075000D01*
X80475000Y-77025000D01*
X79800000Y-77025000D01*
X79650000Y-77175000D01*
X79649980Y-77178047D01*
X79605731Y-77095263D01*
X79537830Y-77012525D01*
X79537823Y-77012518D01*
X79515131Y-76984868D01*
X79487482Y-76962177D01*
X79037832Y-76512528D01*
X79015132Y-76484868D01*
X78904737Y-76394269D01*
X78868688Y-76375000D01*
X79647097Y-76375000D01*
X79650000Y-76825000D01*
X79800000Y-76975000D01*
X80475000Y-76975000D01*
X80475000Y-75925000D01*
X80525000Y-75925000D01*
X80525000Y-76975000D01*
X80545000Y-76975000D01*
X80545000Y-77025000D01*
X80525000Y-77025000D01*
X80525000Y-78075000D01*
X80675000Y-78225000D01*
X80750000Y-78227903D01*
X80867621Y-78216318D01*
X80980721Y-78182010D01*
X81084955Y-78126296D01*
X81116997Y-78100000D01*
X81633003Y-78100000D01*
X81665045Y-78126296D01*
X81769279Y-78182010D01*
X81882379Y-78216318D01*
X82000000Y-78227903D01*
X82500000Y-78227903D01*
X82617621Y-78216318D01*
X82730721Y-78182010D01*
X82834955Y-78126296D01*
X82926317Y-78051317D01*
X83001296Y-77959955D01*
X83025001Y-77915607D01*
X83025000Y-78060786D01*
X82973249Y-78112537D01*
X82863811Y-78276322D01*
X82788429Y-78458311D01*
X82750000Y-78651509D01*
X82750000Y-78848491D01*
X82788429Y-79041689D01*
X82863811Y-79223678D01*
X82973249Y-79387463D01*
X83112537Y-79526751D01*
X83276322Y-79636189D01*
X83458311Y-79711571D01*
X83651509Y-79750000D01*
X83848491Y-79750000D01*
X84041689Y-79711571D01*
X84223678Y-79636189D01*
X84387463Y-79526751D01*
X84526751Y-79387463D01*
X84636189Y-79223678D01*
X84711571Y-79041689D01*
X84750000Y-78848491D01*
X84750000Y-78651509D01*
X84711571Y-78458311D01*
X84636189Y-78276322D01*
X84526751Y-78112537D01*
X84475000Y-78060786D01*
X84475000Y-77915608D01*
X84498704Y-77959955D01*
X84573683Y-78051317D01*
X84665045Y-78126296D01*
X84769279Y-78182010D01*
X84882379Y-78216318D01*
X85000000Y-78227903D01*
X85500000Y-78227903D01*
X85617621Y-78216318D01*
X85730721Y-78182010D01*
X85834955Y-78126296D01*
X85866997Y-78100000D01*
X86383003Y-78100000D01*
X86415045Y-78126296D01*
X86519279Y-78182010D01*
X86632379Y-78216318D01*
X86750000Y-78227903D01*
X87250000Y-78227903D01*
X87367621Y-78216318D01*
X87480721Y-78182010D01*
X87584955Y-78126296D01*
X87676317Y-78051317D01*
X87751296Y-77959955D01*
X87807010Y-77855721D01*
X87841318Y-77742621D01*
X87843054Y-77725000D01*
X88397097Y-77725000D01*
X88397097Y-78000000D01*
X88408682Y-78117621D01*
X88442990Y-78230721D01*
X88498704Y-78334955D01*
X88573683Y-78426317D01*
X88665045Y-78501296D01*
X88769279Y-78557010D01*
X88882379Y-78591318D01*
X89000000Y-78602903D01*
X91000000Y-78602903D01*
X91117621Y-78591318D01*
X91230721Y-78557010D01*
X91334955Y-78501296D01*
X91426317Y-78426317D01*
X91501296Y-78334955D01*
X91557010Y-78230721D01*
X91591318Y-78117621D01*
X91602903Y-78000000D01*
X91602903Y-76000000D01*
X91591318Y-75882379D01*
X91557010Y-75769279D01*
X91501296Y-75665045D01*
X91426317Y-75573683D01*
X91334955Y-75498704D01*
X91230721Y-75442990D01*
X91117621Y-75408682D01*
X91000000Y-75397097D01*
X89000000Y-75397097D01*
X88882379Y-75408682D01*
X88769279Y-75442990D01*
X88665045Y-75498704D01*
X88573683Y-75573683D01*
X88498704Y-75665045D01*
X88442990Y-75769279D01*
X88408682Y-75882379D01*
X88397097Y-76000000D01*
X88397097Y-76275000D01*
X87843054Y-76275000D01*
X87841318Y-76257379D01*
X87807010Y-76144279D01*
X87751296Y-76040045D01*
X87676317Y-75948683D01*
X87584955Y-75873704D01*
X87480721Y-75817990D01*
X87367621Y-75783682D01*
X87250000Y-75772097D01*
X86750000Y-75772097D01*
X86632379Y-75783682D01*
X86519279Y-75817990D01*
X86415045Y-75873704D01*
X86383003Y-75900000D01*
X85866997Y-75900000D01*
X85834955Y-75873704D01*
X85730721Y-75817990D01*
X85617621Y-75783682D01*
X85500000Y-75772097D01*
X85000000Y-75772097D01*
X84882379Y-75783682D01*
X84769279Y-75817990D01*
X84665045Y-75873704D01*
X84573683Y-75948683D01*
X84498704Y-76040045D01*
X84442990Y-76144279D01*
X84408682Y-76257379D01*
X84406946Y-76275000D01*
X84035596Y-76275000D01*
X83999999Y-76271494D01*
X83964402Y-76275000D01*
X83964393Y-76275000D01*
X83857875Y-76285491D01*
X83750000Y-76318214D01*
X83642125Y-76285491D01*
X83535607Y-76275000D01*
X83535597Y-76275000D01*
X83500000Y-76271494D01*
X83464403Y-76275000D01*
X83093054Y-76275000D01*
X83091318Y-76257379D01*
X83057010Y-76144279D01*
X83001296Y-76040045D01*
X82926317Y-75948683D01*
X82834955Y-75873704D01*
X82730721Y-75817990D01*
X82617621Y-75783682D01*
X82500000Y-75772097D01*
X82000000Y-75772097D01*
X81882379Y-75783682D01*
X81769279Y-75817990D01*
X81665045Y-75873704D01*
X81633003Y-75900000D01*
X81116997Y-75900000D01*
X81084955Y-75873704D01*
X80980721Y-75817990D01*
X80867621Y-75783682D01*
X80750000Y-75772097D01*
X80675000Y-75775000D01*
X80525000Y-75925000D01*
X80475000Y-75925000D01*
X80325000Y-75775000D01*
X80250000Y-75772097D01*
X80132379Y-75783682D01*
X80019279Y-75817990D01*
X79915045Y-75873704D01*
X79823683Y-75948683D01*
X79748704Y-76040045D01*
X79692990Y-76144279D01*
X79658682Y-76257379D01*
X79647097Y-76375000D01*
X78868688Y-76375000D01*
X78778788Y-76326947D01*
X78642125Y-76285491D01*
X78535607Y-76275000D01*
X78535597Y-76275000D01*
X78500000Y-76271494D01*
X78464403Y-76275000D01*
X78343054Y-76275000D01*
X78341318Y-76257379D01*
X78307010Y-76144279D01*
X78251296Y-76040045D01*
X78176317Y-75948683D01*
X78084955Y-75873704D01*
X77980721Y-75817990D01*
X77867621Y-75783682D01*
X77750000Y-75772097D01*
X77250000Y-75772097D01*
X77132379Y-75783682D01*
X77019279Y-75817990D01*
X76915045Y-75873704D01*
X76883003Y-75900000D01*
X76366997Y-75900000D01*
X76334955Y-75873704D01*
X76230721Y-75817990D01*
X76117621Y-75783682D01*
X76000000Y-75772097D01*
X75500000Y-75772097D01*
X75382379Y-75783682D01*
X75269279Y-75817990D01*
X75165045Y-75873704D01*
X75073683Y-75948683D01*
X74998704Y-76040045D01*
X74942990Y-76144279D01*
X74908682Y-76257379D01*
X74906946Y-76275000D01*
X74785596Y-76275000D01*
X74749999Y-76271494D01*
X74714402Y-76275000D01*
X74714393Y-76275000D01*
X74607875Y-76285491D01*
X74471212Y-76326947D01*
X74349276Y-76392124D01*
X74345263Y-76394269D01*
X74262525Y-76462170D01*
X74262523Y-76462172D01*
X74234868Y-76484868D01*
X74212172Y-76512523D01*
X72762523Y-77962173D01*
X72734869Y-77984868D01*
X72712173Y-78012523D01*
X72712170Y-78012526D01*
X72644269Y-78095264D01*
X72576947Y-78221213D01*
X72558393Y-78282379D01*
X72536143Y-78355731D01*
X72535492Y-78357876D01*
X72521494Y-78500000D01*
X72525001Y-78535607D01*
X72525000Y-79560786D01*
X72473249Y-79612537D01*
X72363811Y-79776322D01*
X72288429Y-79958311D01*
X72250000Y-80151509D01*
X65688043Y-80151509D01*
X65636189Y-80026322D01*
X65526751Y-79862537D01*
X65387463Y-79723249D01*
X65223678Y-79613811D01*
X65041689Y-79538429D01*
X64848491Y-79500000D01*
X64651509Y-79500000D01*
X64458311Y-79538429D01*
X64276322Y-79613811D01*
X64112537Y-79723249D01*
X64000000Y-79835786D01*
X63887463Y-79723249D01*
X63723678Y-79613811D01*
X63541689Y-79538429D01*
X63348491Y-79500000D01*
X63151509Y-79500000D01*
X62958311Y-79538429D01*
X62776322Y-79613811D01*
X62612537Y-79723249D01*
X62473249Y-79862537D01*
X62363811Y-80026322D01*
X62288429Y-80208311D01*
X62250000Y-80401509D01*
X62250000Y-80598491D01*
X62274356Y-80720939D01*
X62271494Y-80750000D01*
X62275001Y-80785607D01*
X62275000Y-82156946D01*
X62257379Y-82158682D01*
X62144279Y-82192990D01*
X62040045Y-82248704D01*
X61948683Y-82323683D01*
X61873704Y-82415045D01*
X61817990Y-82519279D01*
X61783682Y-82632379D01*
X61772097Y-82750000D01*
X59912102Y-82750000D01*
X60041689Y-82724224D01*
X60223678Y-82648842D01*
X60387463Y-82539404D01*
X60526751Y-82400116D01*
X60636189Y-82236331D01*
X60711571Y-82054342D01*
X60750000Y-81861144D01*
X60750000Y-81664162D01*
X60711571Y-81470964D01*
X60636189Y-81288975D01*
X60526751Y-81125190D01*
X60387463Y-80985902D01*
X60223678Y-80876464D01*
X60041689Y-80801082D01*
X59848491Y-80762653D01*
X59651509Y-80762653D01*
X59458311Y-80801082D01*
X59276322Y-80876464D01*
X59112537Y-80985902D01*
X59070047Y-81028392D01*
X59035607Y-81025000D01*
X59035597Y-81025000D01*
X59000000Y-81021494D01*
X58964403Y-81025000D01*
X58239080Y-81025000D01*
X58207010Y-80919279D01*
X58151296Y-80815045D01*
X58076317Y-80723683D01*
X57984955Y-80648704D01*
X57880721Y-80592990D01*
X57767621Y-80558682D01*
X57650000Y-80547097D01*
X56850000Y-80547097D01*
X56732379Y-80558682D01*
X56619279Y-80592990D01*
X56515045Y-80648704D01*
X56423683Y-80723683D01*
X56348704Y-80815045D01*
X56292990Y-80919279D01*
X56258682Y-81032379D01*
X56247097Y-81150000D01*
X54752903Y-81150000D01*
X54741318Y-81032379D01*
X54707010Y-80919279D01*
X54651296Y-80815045D01*
X54576317Y-80723683D01*
X54484955Y-80648704D01*
X54380721Y-80592990D01*
X54267621Y-80558682D01*
X54150000Y-80547097D01*
X53350000Y-80547097D01*
X53232379Y-80558682D01*
X53225000Y-80560920D01*
X53225000Y-80165608D01*
X53248704Y-80209955D01*
X53323683Y-80301317D01*
X53415045Y-80376296D01*
X53519279Y-80432010D01*
X53632379Y-80466318D01*
X53750000Y-80477903D01*
X54250000Y-80477903D01*
X54367621Y-80466318D01*
X54480721Y-80432010D01*
X54584955Y-80376296D01*
X54676317Y-80301317D01*
X54751296Y-80209955D01*
X54807010Y-80105721D01*
X54841318Y-79992621D01*
X54852903Y-79875000D01*
X54852903Y-78625000D01*
X54897097Y-78625000D01*
X54897097Y-79875000D01*
X54908682Y-79992621D01*
X54942990Y-80105721D01*
X54998704Y-80209955D01*
X55073683Y-80301317D01*
X55165045Y-80376296D01*
X55269279Y-80432010D01*
X55382379Y-80466318D01*
X55500000Y-80477903D01*
X56000000Y-80477903D01*
X56117621Y-80466318D01*
X56230721Y-80432010D01*
X56334955Y-80376296D01*
X56426317Y-80301317D01*
X56501296Y-80209955D01*
X56538114Y-80141073D01*
X56708311Y-80211571D01*
X56901509Y-80250000D01*
X57098491Y-80250000D01*
X57291689Y-80211571D01*
X57473678Y-80136189D01*
X57637463Y-80026751D01*
X57776751Y-79887463D01*
X57886189Y-79723678D01*
X57961571Y-79541689D01*
X58000000Y-79348491D01*
X58000000Y-79151509D01*
X57961571Y-78958311D01*
X57886189Y-78776322D01*
X57776751Y-78612537D01*
X57637463Y-78473249D01*
X57473678Y-78363811D01*
X57291689Y-78288429D01*
X57098491Y-78250000D01*
X56901509Y-78250000D01*
X56708311Y-78288429D01*
X56538114Y-78358927D01*
X56501296Y-78290045D01*
X56426317Y-78198683D01*
X56334955Y-78123704D01*
X56230721Y-78067990D01*
X56117621Y-78033682D01*
X56000000Y-78022097D01*
X55500000Y-78022097D01*
X55382379Y-78033682D01*
X55269279Y-78067990D01*
X55165045Y-78123704D01*
X55073683Y-78198683D01*
X54998704Y-78290045D01*
X54942990Y-78394279D01*
X54908682Y-78507379D01*
X54897097Y-78625000D01*
X54852903Y-78625000D01*
X54841318Y-78507379D01*
X54807010Y-78394279D01*
X54751296Y-78290045D01*
X54676317Y-78198683D01*
X54584955Y-78123704D01*
X54480721Y-78067990D01*
X54367621Y-78033682D01*
X54250000Y-78022097D01*
X53750000Y-78022097D01*
X53632379Y-78033682D01*
X53519279Y-78067990D01*
X53415045Y-78123704D01*
X53323683Y-78198683D01*
X53248704Y-78290045D01*
X53192990Y-78394279D01*
X53187542Y-78412238D01*
X52037832Y-77262528D01*
X52015132Y-77234868D01*
X51904737Y-77144269D01*
X51778788Y-77076947D01*
X51642125Y-77035491D01*
X51535607Y-77025000D01*
X51535597Y-77025000D01*
X51500000Y-77021494D01*
X51464403Y-77025000D01*
X49535596Y-77025000D01*
X49499999Y-77021494D01*
X49464402Y-77025000D01*
X49464393Y-77025000D01*
X49357875Y-77035491D01*
X49221212Y-77076947D01*
X49095263Y-77144269D01*
X49012525Y-77212170D01*
X49012523Y-77212172D01*
X48984868Y-77234868D01*
X48962172Y-77262523D01*
X48377928Y-77846768D01*
X48142813Y-77800000D01*
X47857187Y-77800000D01*
X47577051Y-77855723D01*
X47313167Y-77965027D01*
X47075679Y-78123711D01*
X46873711Y-78325679D01*
X46715027Y-78563167D01*
X46605723Y-78827051D01*
X46550000Y-79107187D01*
X46550000Y-79392813D01*
X46605723Y-79672949D01*
X46715027Y-79936833D01*
X46873711Y-80174321D01*
X47046665Y-80347275D01*
X47032379Y-80348682D01*
X46919279Y-80382990D01*
X46815045Y-80438704D01*
X46723683Y-80513683D01*
X46648704Y-80605045D01*
X46592990Y-80709279D01*
X46558682Y-80822379D01*
X46547097Y-80940000D01*
X46547097Y-81156563D01*
X46495263Y-81184269D01*
X46412525Y-81252170D01*
X46412523Y-81252172D01*
X46384868Y-81274868D01*
X46362172Y-81302523D01*
X46100000Y-81564695D01*
X46100000Y-61500000D01*
X47171010Y-61500000D01*
X47175001Y-61540523D01*
X47175000Y-63709479D01*
X47175000Y-64459487D01*
X47171010Y-64500000D01*
X47175000Y-64540513D01*
X47175000Y-64540521D01*
X47186938Y-64661728D01*
X47234113Y-64817241D01*
X47310720Y-64960563D01*
X47343085Y-65000000D01*
X47310720Y-65039437D01*
X47245354Y-65161728D01*
X47234113Y-65182759D01*
X47186938Y-65338272D01*
X47171010Y-65500000D01*
X47175001Y-65540523D01*
X47175000Y-68290520D01*
X47175001Y-68290530D01*
X47175000Y-69459486D01*
X47171010Y-69500000D01*
X47175000Y-69540513D01*
X47175000Y-69540520D01*
X47185219Y-69644269D01*
X47186938Y-69661728D01*
X47201248Y-69708902D01*
X47234112Y-69817240D01*
X47310719Y-69960562D01*
X47343085Y-70000000D01*
X47310720Y-70039437D01*
X47268930Y-70117621D01*
X47234113Y-70182759D01*
X47186938Y-70338272D01*
X47171010Y-70500000D01*
X47175001Y-70540520D01*
X47175000Y-75209487D01*
X47171010Y-75250000D01*
X47175000Y-75290513D01*
X47175000Y-75290520D01*
X47182219Y-75363811D01*
X47186938Y-75411728D01*
X47193318Y-75432759D01*
X47234112Y-75567240D01*
X47310719Y-75710562D01*
X47413815Y-75836185D01*
X47445296Y-75862021D01*
X47887979Y-76304704D01*
X47913815Y-76336185D01*
X48039437Y-76439281D01*
X48132836Y-76489203D01*
X48182758Y-76515888D01*
X48267814Y-76541689D01*
X48338272Y-76563062D01*
X48459479Y-76575000D01*
X48459487Y-76575000D01*
X48500000Y-76578990D01*
X48540513Y-76575000D01*
X52409487Y-76575000D01*
X52450000Y-76578990D01*
X52490513Y-76575000D01*
X52490521Y-76575000D01*
X52611728Y-76563062D01*
X52725000Y-76528702D01*
X52802077Y-76552082D01*
X52838271Y-76563062D01*
X52853870Y-76564598D01*
X52959479Y-76575000D01*
X52959486Y-76575000D01*
X52999999Y-76578990D01*
X53040512Y-76575000D01*
X59904636Y-76575000D01*
X59913815Y-76586185D01*
X60039437Y-76689281D01*
X60182759Y-76765888D01*
X60302077Y-76802082D01*
X60338271Y-76813062D01*
X60353870Y-76814598D01*
X60459479Y-76825000D01*
X60459486Y-76825000D01*
X60499999Y-76828990D01*
X60540512Y-76825000D01*
X61459487Y-76825000D01*
X61500000Y-76828990D01*
X61540513Y-76825000D01*
X61540521Y-76825000D01*
X61661728Y-76813062D01*
X61817241Y-76765888D01*
X61960563Y-76689281D01*
X62086185Y-76586185D01*
X62112021Y-76554704D01*
X62304704Y-76362021D01*
X62336185Y-76336185D01*
X62439281Y-76210563D01*
X62505031Y-76087554D01*
X62605721Y-76057010D01*
X62709955Y-76001296D01*
X62801317Y-75926317D01*
X62876296Y-75834955D01*
X62932010Y-75730721D01*
X62966318Y-75617621D01*
X62977903Y-75500000D01*
X62977903Y-75000000D01*
X62966318Y-74882379D01*
X62932010Y-74769279D01*
X62876296Y-74665045D01*
X62850000Y-74633003D01*
X62850000Y-74116997D01*
X62876296Y-74084955D01*
X62932010Y-73980721D01*
X62966318Y-73867621D01*
X62977903Y-73750000D01*
X62977903Y-73475000D01*
X63022097Y-73475000D01*
X63022097Y-73750000D01*
X63033682Y-73867621D01*
X63067990Y-73980721D01*
X63123704Y-74084955D01*
X63150000Y-74116997D01*
X63150000Y-74633003D01*
X63123704Y-74665045D01*
X63067990Y-74769279D01*
X63033682Y-74882379D01*
X63022097Y-75000000D01*
X63022097Y-75500000D01*
X63033682Y-75617621D01*
X63067990Y-75730721D01*
X63123704Y-75834955D01*
X63198683Y-75926317D01*
X63281306Y-75994124D01*
X63250000Y-76151509D01*
X63250000Y-76348491D01*
X63288429Y-76541689D01*
X63363811Y-76723678D01*
X63473249Y-76887463D01*
X63612537Y-77026751D01*
X63776322Y-77136189D01*
X63958311Y-77211571D01*
X64151509Y-77250000D01*
X64348491Y-77250000D01*
X64541689Y-77211571D01*
X64723678Y-77136189D01*
X64887463Y-77026751D01*
X65026751Y-76887463D01*
X65136189Y-76723678D01*
X65211571Y-76541689D01*
X65250000Y-76348491D01*
X65250000Y-76151509D01*
X65218694Y-75994124D01*
X65301317Y-75926317D01*
X65376296Y-75834955D01*
X65432010Y-75730721D01*
X65466318Y-75617621D01*
X65477903Y-75500000D01*
X65477903Y-75000000D01*
X65466318Y-74882379D01*
X65432010Y-74769279D01*
X65376296Y-74665045D01*
X65350000Y-74633003D01*
X65350000Y-74116997D01*
X65376296Y-74084955D01*
X65432010Y-73980721D01*
X65466318Y-73867621D01*
X65477903Y-73750000D01*
X65477903Y-73250000D01*
X65466318Y-73132379D01*
X65440816Y-73048306D01*
X88987050Y-73048306D01*
X89075332Y-73315229D01*
X89349688Y-73470351D01*
X89649035Y-73568968D01*
X89961869Y-73607290D01*
X90276168Y-73583846D01*
X90579855Y-73499535D01*
X90861258Y-73357598D01*
X90924668Y-73315229D01*
X91012950Y-73048306D01*
X90000000Y-72035355D01*
X88987050Y-73048306D01*
X65440816Y-73048306D01*
X65432010Y-73019279D01*
X65376296Y-72915045D01*
X65301317Y-72823683D01*
X65209955Y-72748704D01*
X65105721Y-72692990D01*
X64992621Y-72658682D01*
X64883906Y-72647974D01*
X64855731Y-72595263D01*
X64765131Y-72484868D01*
X64737476Y-72462172D01*
X64537832Y-72262528D01*
X64515132Y-72234868D01*
X64404737Y-72144269D01*
X64278788Y-72076947D01*
X64142125Y-72035491D01*
X64035607Y-72025000D01*
X64035597Y-72025000D01*
X64000000Y-72021494D01*
X63964403Y-72025000D01*
X62035596Y-72025000D01*
X61999999Y-72021494D01*
X61964402Y-72025000D01*
X61964393Y-72025000D01*
X61857875Y-72035491D01*
X61750000Y-72068214D01*
X61642125Y-72035491D01*
X61535607Y-72025000D01*
X61535597Y-72025000D01*
X61500000Y-72021494D01*
X61464403Y-72025000D01*
X60939214Y-72025000D01*
X60887463Y-71973249D01*
X60740423Y-71875000D01*
X60815254Y-71825000D01*
X61459487Y-71825000D01*
X61500000Y-71828990D01*
X61540513Y-71825000D01*
X61540521Y-71825000D01*
X61661728Y-71813062D01*
X61817241Y-71765888D01*
X61960563Y-71689281D01*
X62086185Y-71586185D01*
X62112021Y-71554704D01*
X62304705Y-71362020D01*
X62336185Y-71336185D01*
X62439281Y-71210563D01*
X62505031Y-71087554D01*
X62605721Y-71057010D01*
X62709955Y-71001296D01*
X62801317Y-70926317D01*
X62876296Y-70834955D01*
X62932010Y-70730721D01*
X62966318Y-70617621D01*
X62977903Y-70500000D01*
X62977903Y-70000000D01*
X62966318Y-69882379D01*
X62932010Y-69769279D01*
X62876296Y-69665045D01*
X62850000Y-69633003D01*
X62850000Y-69116997D01*
X62876296Y-69084955D01*
X62932010Y-68980721D01*
X62966318Y-68867621D01*
X62977903Y-68750000D01*
X62977903Y-68475000D01*
X63022097Y-68475000D01*
X63022097Y-68750000D01*
X63033682Y-68867621D01*
X63067990Y-68980721D01*
X63123704Y-69084955D01*
X63150000Y-69116997D01*
X63150000Y-69633003D01*
X63123704Y-69665045D01*
X63067990Y-69769279D01*
X63033682Y-69882379D01*
X63022097Y-70000000D01*
X63022097Y-70500000D01*
X63033682Y-70617621D01*
X63067990Y-70730721D01*
X63123704Y-70834955D01*
X63198683Y-70926317D01*
X63250000Y-70968432D01*
X63250000Y-71098491D01*
X63288429Y-71291689D01*
X63363811Y-71473678D01*
X63473249Y-71637463D01*
X63612537Y-71776751D01*
X63776322Y-71886189D01*
X63958311Y-71961571D01*
X64151509Y-72000000D01*
X64348491Y-72000000D01*
X64540190Y-71961869D01*
X88392710Y-71961869D01*
X88416154Y-72276168D01*
X88500465Y-72579855D01*
X88642402Y-72861258D01*
X88684771Y-72924668D01*
X88951694Y-73012950D01*
X89964645Y-72000000D01*
X90035355Y-72000000D01*
X91048306Y-73012950D01*
X91315229Y-72924668D01*
X91470351Y-72650312D01*
X91568968Y-72350965D01*
X91607290Y-72038131D01*
X91583846Y-71723832D01*
X91499535Y-71420145D01*
X91357598Y-71138742D01*
X91315229Y-71075332D01*
X91048306Y-70987050D01*
X90035355Y-72000000D01*
X89964645Y-72000000D01*
X88951694Y-70987050D01*
X88684771Y-71075332D01*
X88529649Y-71349688D01*
X88431032Y-71649035D01*
X88392710Y-71961869D01*
X64540190Y-71961869D01*
X64541689Y-71961571D01*
X64723678Y-71886189D01*
X64887463Y-71776751D01*
X65026751Y-71637463D01*
X65136189Y-71473678D01*
X65211571Y-71291689D01*
X65250000Y-71098491D01*
X65250000Y-70968432D01*
X65270395Y-70951694D01*
X88987050Y-70951694D01*
X90000000Y-71964645D01*
X91012950Y-70951694D01*
X90924668Y-70684771D01*
X90650312Y-70529649D01*
X90350965Y-70431032D01*
X90038131Y-70392710D01*
X89723832Y-70416154D01*
X89420145Y-70500465D01*
X89138742Y-70642402D01*
X89075332Y-70684771D01*
X88987050Y-70951694D01*
X65270395Y-70951694D01*
X65301317Y-70926317D01*
X65376296Y-70834955D01*
X65432010Y-70730721D01*
X65466318Y-70617621D01*
X65477903Y-70500000D01*
X65477903Y-70000000D01*
X65466318Y-69882379D01*
X65432010Y-69769279D01*
X65376296Y-69665045D01*
X65350000Y-69633003D01*
X65350000Y-69116997D01*
X65376296Y-69084955D01*
X65432010Y-68980721D01*
X65466318Y-68867621D01*
X65477903Y-68750000D01*
X65477903Y-68250000D01*
X65466318Y-68132379D01*
X65432010Y-68019279D01*
X65421706Y-68000000D01*
X88397097Y-68000000D01*
X88408682Y-68117621D01*
X88442990Y-68230721D01*
X88498704Y-68334955D01*
X88573683Y-68426317D01*
X88665045Y-68501296D01*
X88769279Y-68557010D01*
X88882379Y-68591318D01*
X89000000Y-68602903D01*
X89825000Y-68600000D01*
X89975000Y-68450000D01*
X89975000Y-67025000D01*
X90025000Y-67025000D01*
X90025000Y-68450000D01*
X90175000Y-68600000D01*
X91000000Y-68602903D01*
X91117621Y-68591318D01*
X91230721Y-68557010D01*
X91334955Y-68501296D01*
X91426317Y-68426317D01*
X91501296Y-68334955D01*
X91557010Y-68230721D01*
X91591318Y-68117621D01*
X91602903Y-68000000D01*
X91600000Y-67175000D01*
X91450000Y-67025000D01*
X90025000Y-67025000D01*
X89975000Y-67025000D01*
X88550000Y-67025000D01*
X88400000Y-67175000D01*
X88397097Y-68000000D01*
X65421706Y-68000000D01*
X65376296Y-67915045D01*
X65301317Y-67823683D01*
X65209955Y-67748704D01*
X65105721Y-67692990D01*
X64992621Y-67658682D01*
X64883906Y-67647974D01*
X64855731Y-67595263D01*
X64765131Y-67484868D01*
X64737476Y-67462172D01*
X64537832Y-67262528D01*
X64515132Y-67234868D01*
X64404737Y-67144269D01*
X64278788Y-67076947D01*
X64142125Y-67035491D01*
X64035607Y-67025000D01*
X64035597Y-67025000D01*
X64000000Y-67021494D01*
X63964403Y-67025000D01*
X62035596Y-67025000D01*
X61999999Y-67021494D01*
X61964402Y-67025000D01*
X61964393Y-67025000D01*
X61883786Y-67032939D01*
X62304705Y-66612020D01*
X62336185Y-66586185D01*
X62439281Y-66460563D01*
X62509608Y-66328990D01*
X62515888Y-66317242D01*
X62563062Y-66161728D01*
X62567958Y-66112015D01*
X62572380Y-66067124D01*
X62605721Y-66057010D01*
X62709955Y-66001296D01*
X62711534Y-66000000D01*
X88397097Y-66000000D01*
X88400000Y-66825000D01*
X88550000Y-66975000D01*
X89975000Y-66975000D01*
X89975000Y-65550000D01*
X90025000Y-65550000D01*
X90025000Y-66975000D01*
X91450000Y-66975000D01*
X91600000Y-66825000D01*
X91602903Y-66000000D01*
X91591318Y-65882379D01*
X91557010Y-65769279D01*
X91501296Y-65665045D01*
X91426317Y-65573683D01*
X91334955Y-65498704D01*
X91230721Y-65442990D01*
X91117621Y-65408682D01*
X91000000Y-65397097D01*
X90175000Y-65400000D01*
X90025000Y-65550000D01*
X89975000Y-65550000D01*
X89825000Y-65400000D01*
X89000000Y-65397097D01*
X88882379Y-65408682D01*
X88769279Y-65442990D01*
X88665045Y-65498704D01*
X88573683Y-65573683D01*
X88498704Y-65665045D01*
X88442990Y-65769279D01*
X88408682Y-65882379D01*
X88397097Y-66000000D01*
X62711534Y-66000000D01*
X62801317Y-65926317D01*
X62876296Y-65834955D01*
X62932010Y-65730721D01*
X62966318Y-65617621D01*
X62977903Y-65500000D01*
X62977903Y-65000000D01*
X62966318Y-64882379D01*
X62932010Y-64769279D01*
X62876296Y-64665045D01*
X62850000Y-64633003D01*
X62850000Y-64116997D01*
X62876296Y-64084955D01*
X62932010Y-63980721D01*
X62966318Y-63867621D01*
X62977903Y-63750000D01*
X62975000Y-63675000D01*
X62825000Y-63525000D01*
X61775000Y-63525000D01*
X61775000Y-63545000D01*
X61725000Y-63545000D01*
X61725000Y-63525000D01*
X60675000Y-63525000D01*
X60525000Y-63675000D01*
X60522097Y-63750000D01*
X60533682Y-63867621D01*
X60567990Y-63980721D01*
X60623704Y-64084955D01*
X60650000Y-64116997D01*
X60650000Y-64633003D01*
X60623704Y-64665045D01*
X60567990Y-64769279D01*
X60533682Y-64882379D01*
X60522097Y-65000000D01*
X60522097Y-65034532D01*
X60433669Y-65016943D01*
X59862020Y-64445295D01*
X59836185Y-64413815D01*
X59710563Y-64310719D01*
X59567241Y-64234112D01*
X59411728Y-64186938D01*
X59290521Y-64175000D01*
X59290513Y-64175000D01*
X59250000Y-64171010D01*
X59209487Y-64175000D01*
X48841725Y-64175000D01*
X48825000Y-64158275D01*
X48825000Y-63250000D01*
X60522097Y-63250000D01*
X60525000Y-63325000D01*
X60675000Y-63475000D01*
X61725000Y-63475000D01*
X61725000Y-62800000D01*
X61775000Y-62800000D01*
X61775000Y-63475000D01*
X62825000Y-63475000D01*
X62975000Y-63325000D01*
X62977903Y-63250000D01*
X62966318Y-63132379D01*
X62932010Y-63019279D01*
X62876296Y-62915045D01*
X62801317Y-62823683D01*
X62709955Y-62748704D01*
X62605721Y-62692990D01*
X62492621Y-62658682D01*
X62375000Y-62647097D01*
X61925000Y-62650000D01*
X61775000Y-62800000D01*
X61725000Y-62800000D01*
X61575000Y-62650000D01*
X61125000Y-62647097D01*
X61007379Y-62658682D01*
X60894279Y-62692990D01*
X60790045Y-62748704D01*
X60698683Y-62823683D01*
X60623704Y-62915045D01*
X60567990Y-63019279D01*
X60533682Y-63132379D01*
X60522097Y-63250000D01*
X48825000Y-63250000D01*
X48825000Y-62573913D01*
X48882379Y-62591318D01*
X49000000Y-62602903D01*
X51000000Y-62602903D01*
X51117621Y-62591318D01*
X51230721Y-62557010D01*
X51334955Y-62501296D01*
X51426317Y-62426317D01*
X51501296Y-62334955D01*
X51557010Y-62230721D01*
X51591318Y-62117621D01*
X51602903Y-62000000D01*
X51602903Y-60901509D01*
X82500000Y-60901509D01*
X82500000Y-61098491D01*
X82538429Y-61291689D01*
X82613811Y-61473678D01*
X82723249Y-61637463D01*
X82862537Y-61776751D01*
X83026322Y-61886189D01*
X83208311Y-61961571D01*
X83401509Y-62000000D01*
X83598491Y-62000000D01*
X83791689Y-61961571D01*
X83973678Y-61886189D01*
X84137463Y-61776751D01*
X84189214Y-61725000D01*
X84406946Y-61725000D01*
X84408682Y-61742621D01*
X84442990Y-61855721D01*
X84498704Y-61959955D01*
X84573683Y-62051317D01*
X84665045Y-62126296D01*
X84769279Y-62182010D01*
X84882379Y-62216318D01*
X85000000Y-62227903D01*
X85500000Y-62227903D01*
X85617621Y-62216318D01*
X85730721Y-62182010D01*
X85834955Y-62126296D01*
X85866997Y-62100000D01*
X86383003Y-62100000D01*
X86415045Y-62126296D01*
X86519279Y-62182010D01*
X86632379Y-62216318D01*
X86750000Y-62227903D01*
X87250000Y-62227903D01*
X87367621Y-62216318D01*
X87480721Y-62182010D01*
X87584955Y-62126296D01*
X87676317Y-62051317D01*
X87751296Y-61959955D01*
X87807010Y-61855721D01*
X87841318Y-61742621D01*
X87843054Y-61725000D01*
X88568477Y-61725000D01*
X88582098Y-61757884D01*
X88757199Y-62019941D01*
X88980059Y-62242801D01*
X89242116Y-62417902D01*
X89533297Y-62538513D01*
X89842414Y-62600000D01*
X90157586Y-62600000D01*
X90466703Y-62538513D01*
X90757884Y-62417902D01*
X91019941Y-62242801D01*
X91242801Y-62019941D01*
X91417902Y-61757884D01*
X91538513Y-61466703D01*
X91600000Y-61157586D01*
X91600000Y-60842414D01*
X91538513Y-60533297D01*
X91417902Y-60242116D01*
X91242801Y-59980059D01*
X91019941Y-59757199D01*
X90757884Y-59582098D01*
X90466703Y-59461487D01*
X90157586Y-59400000D01*
X89842414Y-59400000D01*
X89533297Y-59461487D01*
X89242116Y-59582098D01*
X88980059Y-59757199D01*
X88757199Y-59980059D01*
X88582098Y-60242116D01*
X88568477Y-60275000D01*
X87843054Y-60275000D01*
X87841318Y-60257379D01*
X87807010Y-60144279D01*
X87751296Y-60040045D01*
X87676317Y-59948683D01*
X87584955Y-59873704D01*
X87480721Y-59817990D01*
X87367621Y-59783682D01*
X87250000Y-59772097D01*
X86750000Y-59772097D01*
X86632379Y-59783682D01*
X86519279Y-59817990D01*
X86415045Y-59873704D01*
X86383003Y-59900000D01*
X85866997Y-59900000D01*
X85834955Y-59873704D01*
X85730721Y-59817990D01*
X85617621Y-59783682D01*
X85500000Y-59772097D01*
X85000000Y-59772097D01*
X84882379Y-59783682D01*
X84769279Y-59817990D01*
X84665045Y-59873704D01*
X84573683Y-59948683D01*
X84498704Y-60040045D01*
X84442990Y-60144279D01*
X84408682Y-60257379D01*
X84406946Y-60275000D01*
X84189214Y-60275000D01*
X84137463Y-60223249D01*
X83973678Y-60113811D01*
X83791689Y-60038429D01*
X83598491Y-60000000D01*
X83401509Y-60000000D01*
X83208311Y-60038429D01*
X83026322Y-60113811D01*
X82862537Y-60223249D01*
X82723249Y-60362537D01*
X82613811Y-60526322D01*
X82538429Y-60708311D01*
X82500000Y-60901509D01*
X51602903Y-60901509D01*
X51602903Y-60000000D01*
X51591318Y-59882379D01*
X51557010Y-59769279D01*
X51501296Y-59665045D01*
X51426317Y-59573683D01*
X51334955Y-59498704D01*
X51230721Y-59442990D01*
X51117621Y-59408682D01*
X51000000Y-59397097D01*
X49000000Y-59397097D01*
X48882379Y-59408682D01*
X48769279Y-59442990D01*
X48665045Y-59498704D01*
X48573683Y-59573683D01*
X48498704Y-59665045D01*
X48442990Y-59769279D01*
X48408682Y-59882379D01*
X48397097Y-60000000D01*
X48397097Y-60181144D01*
X48338272Y-60186938D01*
X48182758Y-60234112D01*
X48139229Y-60257379D01*
X48039437Y-60310719D01*
X47913815Y-60413815D01*
X47887979Y-60445296D01*
X47445291Y-60887984D01*
X47413816Y-60913815D01*
X47310720Y-61039437D01*
X47290671Y-61076947D01*
X47234113Y-61182759D01*
X47186938Y-61338272D01*
X47171010Y-61500000D01*
X46100000Y-61500000D01*
X46100000Y-55842414D01*
X48400000Y-55842414D01*
X48400000Y-56157586D01*
X48461487Y-56466703D01*
X48582098Y-56757884D01*
X48757199Y-57019941D01*
X48980059Y-57242801D01*
X49242116Y-57417902D01*
X49533297Y-57538513D01*
X49842414Y-57600000D01*
X50157586Y-57600000D01*
X50466703Y-57538513D01*
X50757884Y-57417902D01*
X51019941Y-57242801D01*
X51242801Y-57019941D01*
X51417902Y-56757884D01*
X51538513Y-56466703D01*
X51600000Y-56157586D01*
X51600000Y-55901509D01*
X82500000Y-55901509D01*
X82500000Y-56098491D01*
X82538429Y-56291689D01*
X82613811Y-56473678D01*
X82723249Y-56637463D01*
X82862537Y-56776751D01*
X83026322Y-56886189D01*
X83208311Y-56961571D01*
X83401509Y-57000000D01*
X83598491Y-57000000D01*
X83791689Y-56961571D01*
X83973678Y-56886189D01*
X84137463Y-56776751D01*
X84189214Y-56725000D01*
X84406946Y-56725000D01*
X84408682Y-56742621D01*
X84442990Y-56855721D01*
X84498704Y-56959955D01*
X84573683Y-57051317D01*
X84665045Y-57126296D01*
X84769279Y-57182010D01*
X84882379Y-57216318D01*
X85000000Y-57227903D01*
X85500000Y-57227903D01*
X85617621Y-57216318D01*
X85730721Y-57182010D01*
X85834955Y-57126296D01*
X85866997Y-57100000D01*
X86383003Y-57100000D01*
X86415045Y-57126296D01*
X86519279Y-57182010D01*
X86632379Y-57216318D01*
X86750000Y-57227903D01*
X87250000Y-57227903D01*
X87367621Y-57216318D01*
X87480721Y-57182010D01*
X87584955Y-57126296D01*
X87676317Y-57051317D01*
X87751296Y-56959955D01*
X87807010Y-56855721D01*
X87841318Y-56742621D01*
X87843054Y-56725000D01*
X88397097Y-56725000D01*
X88397097Y-57000000D01*
X88408682Y-57117621D01*
X88442990Y-57230721D01*
X88498704Y-57334955D01*
X88573683Y-57426317D01*
X88665045Y-57501296D01*
X88769279Y-57557010D01*
X88882379Y-57591318D01*
X89000000Y-57602903D01*
X91000000Y-57602903D01*
X91117621Y-57591318D01*
X91230721Y-57557010D01*
X91334955Y-57501296D01*
X91426317Y-57426317D01*
X91501296Y-57334955D01*
X91557010Y-57230721D01*
X91591318Y-57117621D01*
X91602903Y-57000000D01*
X91602903Y-55000000D01*
X91591318Y-54882379D01*
X91557010Y-54769279D01*
X91501296Y-54665045D01*
X91426317Y-54573683D01*
X91334955Y-54498704D01*
X91230721Y-54442990D01*
X91117621Y-54408682D01*
X91000000Y-54397097D01*
X89000000Y-54397097D01*
X88882379Y-54408682D01*
X88769279Y-54442990D01*
X88665045Y-54498704D01*
X88573683Y-54573683D01*
X88498704Y-54665045D01*
X88442990Y-54769279D01*
X88408682Y-54882379D01*
X88397097Y-55000000D01*
X88397097Y-55275000D01*
X87843054Y-55275000D01*
X87841318Y-55257379D01*
X87807010Y-55144279D01*
X87751296Y-55040045D01*
X87676317Y-54948683D01*
X87584955Y-54873704D01*
X87480721Y-54817990D01*
X87367621Y-54783682D01*
X87250000Y-54772097D01*
X86750000Y-54772097D01*
X86632379Y-54783682D01*
X86519279Y-54817990D01*
X86415045Y-54873704D01*
X86383003Y-54900000D01*
X85866997Y-54900000D01*
X85834955Y-54873704D01*
X85730721Y-54817990D01*
X85617621Y-54783682D01*
X85500000Y-54772097D01*
X85000000Y-54772097D01*
X84882379Y-54783682D01*
X84769279Y-54817990D01*
X84665045Y-54873704D01*
X84573683Y-54948683D01*
X84498704Y-55040045D01*
X84442990Y-55144279D01*
X84408682Y-55257379D01*
X84406946Y-55275000D01*
X84189214Y-55275000D01*
X84137463Y-55223249D01*
X83973678Y-55113811D01*
X83791689Y-55038429D01*
X83598491Y-55000000D01*
X83401509Y-55000000D01*
X83208311Y-55038429D01*
X83026322Y-55113811D01*
X82862537Y-55223249D01*
X82723249Y-55362537D01*
X82613811Y-55526322D01*
X82538429Y-55708311D01*
X82500000Y-55901509D01*
X51600000Y-55901509D01*
X51600000Y-55842414D01*
X51538513Y-55533297D01*
X51417902Y-55242116D01*
X51242801Y-54980059D01*
X51019941Y-54757199D01*
X50757884Y-54582098D01*
X50466703Y-54461487D01*
X50157586Y-54400000D01*
X49842414Y-54400000D01*
X49533297Y-54461487D01*
X49242116Y-54582098D01*
X48980059Y-54757199D01*
X48757199Y-54980059D01*
X48582098Y-55242116D01*
X48461487Y-55533297D01*
X48400000Y-55842414D01*
X46100000Y-55842414D01*
X46100000Y-50000000D01*
X48397097Y-50000000D01*
X48397097Y-52000000D01*
X48408682Y-52117621D01*
X48442990Y-52230721D01*
X48498704Y-52334955D01*
X48573683Y-52426317D01*
X48665045Y-52501296D01*
X48769279Y-52557010D01*
X48882379Y-52591318D01*
X49000000Y-52602903D01*
X51000000Y-52602903D01*
X51117621Y-52591318D01*
X51230721Y-52557010D01*
X51334955Y-52501296D01*
X51426317Y-52426317D01*
X51501296Y-52334955D01*
X51557010Y-52230721D01*
X51591318Y-52117621D01*
X51602903Y-52000000D01*
X51602903Y-51825000D01*
X53408275Y-51825000D01*
X55912985Y-54329711D01*
X55938816Y-54361186D01*
X56064438Y-54464282D01*
X56207760Y-54540889D01*
X56315868Y-54573683D01*
X56363272Y-54588063D01*
X56378871Y-54589599D01*
X56484480Y-54600001D01*
X56484487Y-54600001D01*
X56525000Y-54603991D01*
X56565513Y-54600001D01*
X61184486Y-54600001D01*
X61224999Y-54603991D01*
X61265512Y-54600001D01*
X61265520Y-54600001D01*
X61386727Y-54588063D01*
X61542240Y-54540889D01*
X61685562Y-54464282D01*
X61811184Y-54361186D01*
X61837020Y-54329706D01*
X62433668Y-53733057D01*
X62541689Y-53711571D01*
X62723678Y-53636189D01*
X62887463Y-53526751D01*
X63026751Y-53387463D01*
X63136189Y-53223678D01*
X63211571Y-53041689D01*
X63250000Y-52848491D01*
X63250000Y-52651509D01*
X63211571Y-52458311D01*
X63136189Y-52276322D01*
X63075000Y-52184746D01*
X63075000Y-49816329D01*
X63105721Y-49807010D01*
X63209955Y-49751296D01*
X63301317Y-49676317D01*
X63375000Y-49586534D01*
X63448683Y-49676317D01*
X63540045Y-49751296D01*
X63644279Y-49807010D01*
X63757379Y-49841318D01*
X63775000Y-49843054D01*
X63775000Y-50310786D01*
X63723249Y-50362537D01*
X63613811Y-50526322D01*
X63538429Y-50708311D01*
X63500000Y-50901509D01*
X63500000Y-51098491D01*
X63538429Y-51291689D01*
X63613811Y-51473678D01*
X63723249Y-51637463D01*
X63862537Y-51776751D01*
X64026322Y-51886189D01*
X64208311Y-51961571D01*
X64401509Y-52000000D01*
X64598491Y-52000000D01*
X64791689Y-51961571D01*
X64973678Y-51886189D01*
X65137463Y-51776751D01*
X65189214Y-51725000D01*
X67272097Y-51725000D01*
X67272097Y-52000000D01*
X67283682Y-52117621D01*
X67317990Y-52230721D01*
X67373704Y-52334955D01*
X67400000Y-52366997D01*
X67400000Y-52883003D01*
X67373704Y-52915045D01*
X67317990Y-53019279D01*
X67283682Y-53132379D01*
X67272097Y-53250000D01*
X67272097Y-53750000D01*
X67283682Y-53867621D01*
X67317990Y-53980721D01*
X67373704Y-54084955D01*
X67448683Y-54176317D01*
X67531306Y-54244124D01*
X67500000Y-54401509D01*
X67500000Y-54598491D01*
X67538429Y-54791689D01*
X67613811Y-54973678D01*
X67723249Y-55137463D01*
X67862537Y-55276751D01*
X68026322Y-55386189D01*
X68208311Y-55461571D01*
X68401509Y-55500000D01*
X68598491Y-55500000D01*
X68791689Y-55461571D01*
X68973678Y-55386189D01*
X69137463Y-55276751D01*
X69276751Y-55137463D01*
X69386189Y-54973678D01*
X69461571Y-54791689D01*
X69500000Y-54598491D01*
X69500000Y-54401509D01*
X69468694Y-54244124D01*
X69551317Y-54176317D01*
X69626296Y-54084955D01*
X69682010Y-53980721D01*
X69716318Y-53867621D01*
X69727903Y-53750000D01*
X69727903Y-53250000D01*
X69716318Y-53132379D01*
X69682010Y-53019279D01*
X69626296Y-52915045D01*
X69600000Y-52883003D01*
X69600000Y-52366997D01*
X69626296Y-52334955D01*
X69682010Y-52230721D01*
X69716318Y-52117621D01*
X69727903Y-52000000D01*
X69727903Y-51500000D01*
X69716318Y-51382379D01*
X69682010Y-51269279D01*
X69626296Y-51165045D01*
X69551317Y-51073683D01*
X69459955Y-50998704D01*
X69355721Y-50942990D01*
X69242621Y-50908682D01*
X69133906Y-50897974D01*
X69105731Y-50845263D01*
X69051176Y-50778788D01*
X69037830Y-50762526D01*
X69037828Y-50762524D01*
X69015131Y-50734868D01*
X68987476Y-50712172D01*
X68787830Y-50512526D01*
X68777551Y-50500000D01*
X68787832Y-50487472D01*
X68987476Y-50287828D01*
X69015131Y-50265132D01*
X69039969Y-50234868D01*
X69089101Y-50175000D01*
X69105731Y-50154737D01*
X69173053Y-50028788D01*
X69214509Y-49892125D01*
X69219287Y-49843616D01*
X69242621Y-49841318D01*
X69355721Y-49807010D01*
X69459955Y-49751296D01*
X69551317Y-49676317D01*
X69626296Y-49584955D01*
X69682010Y-49480721D01*
X69716318Y-49367621D01*
X69727903Y-49250000D01*
X69727903Y-48750000D01*
X69716318Y-48632379D01*
X69682010Y-48519279D01*
X69626296Y-48415045D01*
X69600000Y-48383003D01*
X69600000Y-47866997D01*
X69626296Y-47834955D01*
X69682010Y-47730721D01*
X69716318Y-47617621D01*
X69727903Y-47500000D01*
X69725000Y-47425000D01*
X69575000Y-47275000D01*
X68525000Y-47275000D01*
X68525000Y-47295000D01*
X68475000Y-47295000D01*
X68475000Y-47275000D01*
X67474176Y-47275000D01*
X67348491Y-47250000D01*
X67151509Y-47250000D01*
X66958311Y-47288429D01*
X66776322Y-47363811D01*
X66612537Y-47473249D01*
X66473249Y-47612537D01*
X66363811Y-47776322D01*
X66288429Y-47958311D01*
X66250000Y-48151509D01*
X66250000Y-48348491D01*
X66288429Y-48541689D01*
X66363811Y-48723678D01*
X66473249Y-48887463D01*
X66525000Y-48939214D01*
X66525001Y-49714393D01*
X66521494Y-49750000D01*
X66525001Y-49785606D01*
X66525001Y-49785607D01*
X66535492Y-49892125D01*
X66548067Y-49933580D01*
X66576947Y-50028787D01*
X66644269Y-50154736D01*
X66712170Y-50237474D01*
X66712173Y-50237477D01*
X66734869Y-50265132D01*
X66746893Y-50275000D01*
X65225000Y-50275000D01*
X65225000Y-49843054D01*
X65242621Y-49841318D01*
X65355721Y-49807010D01*
X65459955Y-49751296D01*
X65551317Y-49676317D01*
X65626296Y-49584955D01*
X65682010Y-49480721D01*
X65716318Y-49367621D01*
X65727903Y-49250000D01*
X65727903Y-48750000D01*
X65716318Y-48632379D01*
X65682010Y-48519279D01*
X65626296Y-48415045D01*
X65600000Y-48383003D01*
X65600000Y-47866997D01*
X65626296Y-47834955D01*
X65682010Y-47730721D01*
X65716318Y-47617621D01*
X65727903Y-47500000D01*
X65725000Y-47425000D01*
X65575000Y-47275000D01*
X64525000Y-47275000D01*
X64525000Y-47295000D01*
X64475000Y-47295000D01*
X64475000Y-47275000D01*
X63425000Y-47275000D01*
X63375000Y-47325000D01*
X63325000Y-47275000D01*
X62275000Y-47275000D01*
X62275000Y-47295000D01*
X62225000Y-47295000D01*
X62225000Y-47275000D01*
X61175000Y-47275000D01*
X61125000Y-47325000D01*
X61075000Y-47275000D01*
X60025000Y-47275000D01*
X60025000Y-47295000D01*
X59975000Y-47295000D01*
X59975000Y-47275000D01*
X58925000Y-47275000D01*
X58775000Y-47425000D01*
X58772097Y-47500000D01*
X58783682Y-47617621D01*
X58817990Y-47730721D01*
X58873704Y-47834955D01*
X58900000Y-47866997D01*
X58900000Y-48383003D01*
X58873704Y-48415045D01*
X58817990Y-48519279D01*
X58783682Y-48632379D01*
X58772097Y-48750000D01*
X58772097Y-49250000D01*
X58783682Y-49367621D01*
X58817990Y-49480721D01*
X58873704Y-49584955D01*
X58948683Y-49676317D01*
X59040045Y-49751296D01*
X59144279Y-49807010D01*
X59257379Y-49841318D01*
X59275000Y-49843054D01*
X59275001Y-52060785D01*
X59223249Y-52112537D01*
X59113811Y-52276322D01*
X59038429Y-52458311D01*
X59000000Y-52651509D01*
X59000000Y-52848491D01*
X59020191Y-52950001D01*
X56866727Y-52950001D01*
X54362021Y-50445296D01*
X54336185Y-50413815D01*
X54210563Y-50310719D01*
X54067241Y-50234112D01*
X53911728Y-50186938D01*
X53790521Y-50175000D01*
X53790513Y-50175000D01*
X53750000Y-50171010D01*
X53709487Y-50175000D01*
X51602903Y-50175000D01*
X51602903Y-50000000D01*
X51591318Y-49882379D01*
X51557010Y-49769279D01*
X51501296Y-49665045D01*
X51426317Y-49573683D01*
X51334955Y-49498704D01*
X51230721Y-49442990D01*
X51117621Y-49408682D01*
X51000000Y-49397097D01*
X49000000Y-49397097D01*
X48882379Y-49408682D01*
X48769279Y-49442990D01*
X48665045Y-49498704D01*
X48573683Y-49573683D01*
X48498704Y-49665045D01*
X48442990Y-49769279D01*
X48408682Y-49882379D01*
X48397097Y-50000000D01*
X46100000Y-50000000D01*
X46100000Y-45842414D01*
X48400000Y-45842414D01*
X48400000Y-46157586D01*
X48461487Y-46466703D01*
X48582098Y-46757884D01*
X48757199Y-47019941D01*
X48980059Y-47242801D01*
X49242116Y-47417902D01*
X49533297Y-47538513D01*
X49842414Y-47600000D01*
X50157586Y-47600000D01*
X50466703Y-47538513D01*
X50757884Y-47417902D01*
X51019941Y-47242801D01*
X51242801Y-47019941D01*
X51256125Y-47000000D01*
X58772097Y-47000000D01*
X58775000Y-47075000D01*
X58925000Y-47225000D01*
X59975000Y-47225000D01*
X59975000Y-46550000D01*
X60025000Y-46550000D01*
X60025000Y-47225000D01*
X61075000Y-47225000D01*
X61125000Y-47175000D01*
X61175000Y-47225000D01*
X62225000Y-47225000D01*
X62225000Y-46550000D01*
X62275000Y-46550000D01*
X62275000Y-47225000D01*
X63325000Y-47225000D01*
X63375000Y-47175000D01*
X63425000Y-47225000D01*
X64475000Y-47225000D01*
X64475000Y-46550000D01*
X64525000Y-46550000D01*
X64525000Y-47225000D01*
X65575000Y-47225000D01*
X65725000Y-47075000D01*
X65727903Y-47000000D01*
X67272097Y-47000000D01*
X67275000Y-47075000D01*
X67425000Y-47225000D01*
X68475000Y-47225000D01*
X68475000Y-46550000D01*
X68525000Y-46550000D01*
X68525000Y-47225000D01*
X69575000Y-47225000D01*
X69725000Y-47075000D01*
X69727903Y-47000000D01*
X69716318Y-46882379D01*
X69682010Y-46769279D01*
X69626296Y-46665045D01*
X69551317Y-46573683D01*
X69459955Y-46498704D01*
X69355721Y-46442990D01*
X69242621Y-46408682D01*
X69125000Y-46397097D01*
X68675000Y-46400000D01*
X68525000Y-46550000D01*
X68475000Y-46550000D01*
X68325000Y-46400000D01*
X67875000Y-46397097D01*
X67757379Y-46408682D01*
X67644279Y-46442990D01*
X67540045Y-46498704D01*
X67448683Y-46573683D01*
X67373704Y-46665045D01*
X67317990Y-46769279D01*
X67283682Y-46882379D01*
X67272097Y-47000000D01*
X65727903Y-47000000D01*
X65716318Y-46882379D01*
X65682010Y-46769279D01*
X65626296Y-46665045D01*
X65551317Y-46573683D01*
X65459955Y-46498704D01*
X65355721Y-46442990D01*
X65242621Y-46408682D01*
X65125000Y-46397097D01*
X64675000Y-46400000D01*
X64525000Y-46550000D01*
X64475000Y-46550000D01*
X64325000Y-46400000D01*
X63875000Y-46397097D01*
X63757379Y-46408682D01*
X63644279Y-46442990D01*
X63540045Y-46498704D01*
X63448683Y-46573683D01*
X63375000Y-46663466D01*
X63301317Y-46573683D01*
X63209955Y-46498704D01*
X63105721Y-46442990D01*
X62992621Y-46408682D01*
X62875000Y-46397097D01*
X62425000Y-46400000D01*
X62275000Y-46550000D01*
X62225000Y-46550000D01*
X62075000Y-46400000D01*
X61625000Y-46397097D01*
X61507379Y-46408682D01*
X61394279Y-46442990D01*
X61290045Y-46498704D01*
X61198683Y-46573683D01*
X61125000Y-46663466D01*
X61051317Y-46573683D01*
X60959955Y-46498704D01*
X60855721Y-46442990D01*
X60742621Y-46408682D01*
X60625000Y-46397097D01*
X60175000Y-46400000D01*
X60025000Y-46550000D01*
X59975000Y-46550000D01*
X59825000Y-46400000D01*
X59375000Y-46397097D01*
X59257379Y-46408682D01*
X59144279Y-46442990D01*
X59040045Y-46498704D01*
X58948683Y-46573683D01*
X58873704Y-46665045D01*
X58817990Y-46769279D01*
X58783682Y-46882379D01*
X58772097Y-47000000D01*
X51256125Y-47000000D01*
X51417902Y-46757884D01*
X51538513Y-46466703D01*
X51600000Y-46157586D01*
X51600000Y-45842414D01*
X51538513Y-45533297D01*
X51417902Y-45242116D01*
X51242801Y-44980059D01*
X51019941Y-44757199D01*
X50757884Y-44582098D01*
X50466703Y-44461487D01*
X50157586Y-44400000D01*
X49842414Y-44400000D01*
X49533297Y-44461487D01*
X49242116Y-44582098D01*
X48980059Y-44757199D01*
X48757199Y-44980059D01*
X48582098Y-45242116D01*
X48461487Y-45533297D01*
X48400000Y-45842414D01*
X46100000Y-45842414D01*
X46100000Y-43850000D01*
X70775000Y-43850000D01*
X70775001Y-44964393D01*
X70775001Y-44964393D01*
G37*
X70775001Y-44964393D02*
X70771494Y-45000000D01*
X70775001Y-45035607D01*
X70785492Y-45142125D01*
X70789318Y-45154737D01*
X70826947Y-45278787D01*
X70894269Y-45404736D01*
X70962170Y-45487474D01*
X70962173Y-45487477D01*
X70984869Y-45515132D01*
X71012524Y-45537828D01*
X71212168Y-45737472D01*
X71234868Y-45765132D01*
X71345263Y-45855731D01*
X71471212Y-45923053D01*
X71607875Y-45964509D01*
X71656384Y-45969287D01*
X71658682Y-45992621D01*
X71692990Y-46105721D01*
X71748704Y-46209955D01*
X71823683Y-46301317D01*
X71913466Y-46375000D01*
X71823683Y-46448683D01*
X71748704Y-46540045D01*
X71692990Y-46644279D01*
X71658682Y-46757379D01*
X71647097Y-46875000D01*
X71650000Y-47325000D01*
X71800000Y-47475000D01*
X72475000Y-47475000D01*
X72475000Y-47455000D01*
X72525000Y-47455000D01*
X72525000Y-47475000D01*
X72545000Y-47475000D01*
X72545000Y-47525000D01*
X72525000Y-47525000D01*
X72525000Y-47545000D01*
X72475000Y-47545000D01*
X72475000Y-47525000D01*
X71800000Y-47525000D01*
X71650000Y-47675000D01*
X71647097Y-48125000D01*
X71658682Y-48242621D01*
X71692990Y-48355721D01*
X71748704Y-48459955D01*
X71823683Y-48551317D01*
X71913466Y-48625000D01*
X71823683Y-48698683D01*
X71748704Y-48790045D01*
X71692990Y-48894279D01*
X71658682Y-49007379D01*
X71656384Y-49030713D01*
X71607875Y-49035491D01*
X71471212Y-49076947D01*
X71345263Y-49144269D01*
X71234868Y-49234868D01*
X71212170Y-49262526D01*
X71012524Y-49462172D01*
X70984869Y-49484868D01*
X70962173Y-49512523D01*
X70962170Y-49512526D01*
X70894269Y-49595264D01*
X70826947Y-49721213D01*
X70822805Y-49734868D01*
X70785491Y-49857875D01*
X70775000Y-49964393D01*
X70775000Y-49964403D01*
X70771494Y-50000000D01*
X70775000Y-50035597D01*
X70775000Y-50714403D01*
X70771494Y-50750000D01*
X70775000Y-50785597D01*
X70775000Y-50785606D01*
X70785491Y-50892124D01*
X70818215Y-51000000D01*
X70826947Y-51028787D01*
X70894269Y-51154736D01*
X70943324Y-51214509D01*
X70984868Y-51265131D01*
X71012524Y-51287828D01*
X71212168Y-51487472D01*
X71234868Y-51515132D01*
X71345263Y-51605731D01*
X71471212Y-51673053D01*
X71607875Y-51714509D01*
X71714393Y-51725000D01*
X71714402Y-51725000D01*
X71749999Y-51728506D01*
X71785596Y-51725000D01*
X75964403Y-51725000D01*
X76000000Y-51728506D01*
X76035597Y-51725000D01*
X76035607Y-51725000D01*
X76142125Y-51714509D01*
X76278788Y-51673053D01*
X76404737Y-51605731D01*
X76515132Y-51515132D01*
X76537832Y-51487472D01*
X76987477Y-51037828D01*
X77015132Y-51015132D01*
X77045190Y-50978507D01*
X77105731Y-50904737D01*
X77139043Y-50842414D01*
X88400000Y-50842414D01*
X88400000Y-51157586D01*
X88461487Y-51466703D01*
X88582098Y-51757884D01*
X88757199Y-52019941D01*
X88980059Y-52242801D01*
X89242116Y-52417902D01*
X89533297Y-52538513D01*
X89842414Y-52600000D01*
X90157586Y-52600000D01*
X90466703Y-52538513D01*
X90757884Y-52417902D01*
X91019941Y-52242801D01*
X91242801Y-52019941D01*
X91417902Y-51757884D01*
X91538513Y-51466703D01*
X91600000Y-51157586D01*
X91600000Y-50842414D01*
X91538513Y-50533297D01*
X91417902Y-50242116D01*
X91242801Y-49980059D01*
X91019941Y-49757199D01*
X90757884Y-49582098D01*
X90466703Y-49461487D01*
X90157586Y-49400000D01*
X89842414Y-49400000D01*
X89533297Y-49461487D01*
X89242116Y-49582098D01*
X88980059Y-49757199D01*
X88757199Y-49980059D01*
X88582098Y-50242116D01*
X88461487Y-50533297D01*
X88400000Y-50842414D01*
X77139043Y-50842414D01*
X77173053Y-50778788D01*
X77177986Y-50762526D01*
X77214509Y-50642125D01*
X77225000Y-50535607D01*
X77225000Y-50535597D01*
X77228506Y-50500000D01*
X77225000Y-50464403D01*
X77225000Y-48750000D01*
X83522097Y-48750000D01*
X83533682Y-48867621D01*
X83567990Y-48980721D01*
X83623704Y-49084955D01*
X83698683Y-49176317D01*
X83790045Y-49251296D01*
X83894279Y-49307010D01*
X84007379Y-49341318D01*
X84125000Y-49352903D01*
X84575000Y-49350000D01*
X84725000Y-49200000D01*
X84725000Y-48525000D01*
X84775000Y-48525000D01*
X84775000Y-49200000D01*
X84925000Y-49350000D01*
X85375000Y-49352903D01*
X85492621Y-49341318D01*
X85605721Y-49307010D01*
X85709955Y-49251296D01*
X85801317Y-49176317D01*
X85876296Y-49084955D01*
X85932010Y-48980721D01*
X85966318Y-48867621D01*
X85977903Y-48750000D01*
X85975000Y-48675000D01*
X85825000Y-48525000D01*
X84775000Y-48525000D01*
X84725000Y-48525000D01*
X83675000Y-48525000D01*
X83525000Y-48675000D01*
X83522097Y-48750000D01*
X77225000Y-48750000D01*
X77225000Y-45401509D01*
X82750000Y-45401509D01*
X82750000Y-45598491D01*
X82788429Y-45791689D01*
X82863811Y-45973678D01*
X82973249Y-46137463D01*
X83112537Y-46276751D01*
X83276322Y-46386189D01*
X83458311Y-46461571D01*
X83524584Y-46474753D01*
X83522097Y-46500000D01*
X83522097Y-47000000D01*
X83533682Y-47117621D01*
X83567990Y-47230721D01*
X83623704Y-47334955D01*
X83650000Y-47366997D01*
X83650000Y-47883003D01*
X83623704Y-47915045D01*
X83567990Y-48019279D01*
X83533682Y-48132379D01*
X83522097Y-48250000D01*
X83525000Y-48325000D01*
X83675000Y-48475000D01*
X84725000Y-48475000D01*
X84725000Y-48455000D01*
X84775000Y-48455000D01*
X84775000Y-48475000D01*
X85825000Y-48475000D01*
X85975000Y-48325000D01*
X85977903Y-48250000D01*
X85966318Y-48132379D01*
X85932010Y-48019279D01*
X85876296Y-47915045D01*
X85850000Y-47883003D01*
X85850000Y-47366997D01*
X85876296Y-47334955D01*
X85932010Y-47230721D01*
X85966318Y-47117621D01*
X85977903Y-47000000D01*
X85977903Y-46500000D01*
X85966318Y-46382379D01*
X85932010Y-46269279D01*
X85876296Y-46165045D01*
X85801317Y-46073683D01*
X85709955Y-45998704D01*
X85605721Y-45942990D01*
X85492621Y-45908682D01*
X85475000Y-45906946D01*
X85475000Y-45785596D01*
X85478506Y-45749999D01*
X85475000Y-45714402D01*
X85475000Y-45714393D01*
X85464509Y-45607875D01*
X85423053Y-45471212D01*
X85355731Y-45345263D01*
X85265131Y-45234868D01*
X85237476Y-45212172D01*
X85037832Y-45012528D01*
X85015132Y-44984868D01*
X84904737Y-44894269D01*
X84778788Y-44826947D01*
X84642125Y-44785491D01*
X84535607Y-44775000D01*
X84535597Y-44775000D01*
X84500000Y-44771494D01*
X84464403Y-44775000D01*
X84439214Y-44775000D01*
X84387463Y-44723249D01*
X84223678Y-44613811D01*
X84041689Y-44538429D01*
X83848491Y-44500000D01*
X83651509Y-44500000D01*
X83458311Y-44538429D01*
X83276322Y-44613811D01*
X83112537Y-44723249D01*
X82973249Y-44862537D01*
X82863811Y-45026322D01*
X82788429Y-45208311D01*
X82750000Y-45401509D01*
X77225000Y-45401509D01*
X77225000Y-44800304D01*
X77550305Y-44475000D01*
X88709392Y-44475000D01*
X88665045Y-44498704D01*
X88573683Y-44573683D01*
X88498704Y-44665045D01*
X88442990Y-44769279D01*
X88408682Y-44882379D01*
X88397097Y-45000000D01*
X88397097Y-47000000D01*
X88408682Y-47117621D01*
X88442990Y-47230721D01*
X88498704Y-47334955D01*
X88573683Y-47426317D01*
X88665045Y-47501296D01*
X88769279Y-47557010D01*
X88882379Y-47591318D01*
X89000000Y-47602903D01*
X91000000Y-47602903D01*
X91117621Y-47591318D01*
X91230721Y-47557010D01*
X91334955Y-47501296D01*
X91426317Y-47426317D01*
X91501296Y-47334955D01*
X91557010Y-47230721D01*
X91591318Y-47117621D01*
X91602903Y-47000000D01*
X91602903Y-45000000D01*
X91591318Y-44882379D01*
X91557010Y-44769279D01*
X91501296Y-44665045D01*
X91426317Y-44573683D01*
X91334955Y-44498704D01*
X91290608Y-44475000D01*
X93025001Y-44475000D01*
X93025000Y-54199695D01*
X92012523Y-55212173D01*
X91984869Y-55234868D01*
X91962173Y-55262523D01*
X91962170Y-55262526D01*
X91894269Y-55345264D01*
X91826947Y-55471213D01*
X91808115Y-55533297D01*
X91789318Y-55595264D01*
X91785492Y-55607876D01*
X91771494Y-55750000D01*
X91775001Y-55785607D01*
X91775000Y-82949695D01*
X91699696Y-83025000D01*
X91237742Y-83025000D01*
X91242801Y-83019941D01*
X91417902Y-82757884D01*
X91538513Y-82466703D01*
X91600000Y-82157586D01*
X91600000Y-81842414D01*
X91538513Y-81533297D01*
X91417902Y-81242116D01*
X91242801Y-80980059D01*
X91019941Y-80757199D01*
X90757884Y-80582098D01*
X90466703Y-80461487D01*
X90157586Y-80400000D01*
X89842414Y-80400000D01*
X89533297Y-80461487D01*
X89242116Y-80582098D01*
X88980059Y-80757199D01*
X88757199Y-80980059D01*
X88582098Y-81242116D01*
X88568477Y-81275000D01*
X87843054Y-81275000D01*
X87841318Y-81257379D01*
X87807010Y-81144279D01*
X87751296Y-81040045D01*
X87676317Y-80948683D01*
X87584955Y-80873704D01*
X87480721Y-80817990D01*
X87367621Y-80783682D01*
X87250000Y-80772097D01*
X86750000Y-80772097D01*
X86632379Y-80783682D01*
X86519279Y-80817990D01*
X86415045Y-80873704D01*
X86383003Y-80900000D01*
X85866997Y-80900000D01*
X85834955Y-80873704D01*
X85730721Y-80817990D01*
X85617621Y-80783682D01*
X85500000Y-80772097D01*
X85000000Y-80772097D01*
X84882379Y-80783682D01*
X84769279Y-80817990D01*
X84665045Y-80873704D01*
X84573683Y-80948683D01*
X84498704Y-81040045D01*
X84442990Y-81144279D01*
X84408682Y-81257379D01*
X84406946Y-81275000D01*
X84035596Y-81275000D01*
X83999999Y-81271494D01*
X83964402Y-81275000D01*
X83964393Y-81275000D01*
X83857875Y-81285491D01*
X83750000Y-81318214D01*
X83642125Y-81285491D01*
X83535607Y-81275000D01*
X83535597Y-81275000D01*
X83500000Y-81271494D01*
X83464403Y-81275000D01*
X83093054Y-81275000D01*
X83091318Y-81257379D01*
X83057010Y-81144279D01*
X83001296Y-81040045D01*
X82926317Y-80948683D01*
X82834955Y-80873704D01*
X82730721Y-80817990D01*
X82617621Y-80783682D01*
X82500000Y-80772097D01*
X82000000Y-80772097D01*
X81882379Y-80783682D01*
X81769279Y-80817990D01*
X81665045Y-80873704D01*
X81633003Y-80900000D01*
X81116997Y-80900000D01*
X81084955Y-80873704D01*
X80980721Y-80817990D01*
X80867621Y-80783682D01*
X80750000Y-80772097D01*
X80675000Y-80775000D01*
X80525000Y-80925000D01*
X80525000Y-81975000D01*
X80545000Y-81975000D01*
X80545000Y-82025000D01*
X80525000Y-82025000D01*
X80525000Y-83075000D01*
X80675000Y-83225000D01*
X80750000Y-83227903D01*
X80867621Y-83216318D01*
X80980721Y-83182010D01*
X81084955Y-83126296D01*
X81116997Y-83100000D01*
X81633003Y-83100000D01*
X81665045Y-83126296D01*
X81769279Y-83182010D01*
X81882379Y-83216318D01*
X82000000Y-83227903D01*
X82500000Y-83227903D01*
X82617621Y-83216318D01*
X82730721Y-83182010D01*
X82818831Y-83134915D01*
X82788429Y-83208311D01*
X82750000Y-83401509D01*
X82750000Y-83598491D01*
X82788429Y-83791689D01*
X82863811Y-83973678D01*
X82973249Y-84137463D01*
X83112537Y-84276751D01*
X83276322Y-84386189D01*
X83458311Y-84461571D01*
X83651509Y-84500000D01*
X83848491Y-84500000D01*
X84041689Y-84461571D01*
X84223678Y-84386189D01*
X84387463Y-84276751D01*
X84526751Y-84137463D01*
X84636189Y-83973678D01*
X84711571Y-83791689D01*
X84750000Y-83598491D01*
X84750000Y-83401509D01*
X84711571Y-83208311D01*
X84681169Y-83134915D01*
X84769279Y-83182010D01*
X84882379Y-83216318D01*
X85000000Y-83227903D01*
X85500000Y-83227903D01*
X85617621Y-83216318D01*
X85730721Y-83182010D01*
X85834955Y-83126296D01*
X85866997Y-83100000D01*
X86383003Y-83100000D01*
X86415045Y-83126296D01*
X86519279Y-83182010D01*
X86632379Y-83216318D01*
X86750000Y-83227903D01*
X87000000Y-83227903D01*
X87000000Y-83348491D01*
X87038429Y-83541689D01*
X87113811Y-83723678D01*
X87131399Y-83750000D01*
X87113811Y-83776322D01*
X87038429Y-83958311D01*
X87000000Y-84151509D01*
X87000000Y-84348491D01*
X87038429Y-84541689D01*
X87113811Y-84723678D01*
X87141966Y-84765814D01*
X87126544Y-84788894D01*
X87051162Y-84970883D01*
X87012733Y-85164081D01*
X87012733Y-85361063D01*
X87051162Y-85554261D01*
X87126544Y-85736250D01*
X87206534Y-85855963D01*
X87101158Y-86013669D01*
X87025776Y-86195658D01*
X87010572Y-86272097D01*
X86750000Y-86272097D01*
X86632379Y-86283682D01*
X86519279Y-86317990D01*
X86415045Y-86373704D01*
X86383003Y-86400000D01*
X85866997Y-86400000D01*
X85834955Y-86373704D01*
X85730721Y-86317990D01*
X85617621Y-86283682D01*
X85500000Y-86272097D01*
X85000000Y-86272097D01*
X84882379Y-86283682D01*
X84769279Y-86317990D01*
X84665045Y-86373704D01*
X84573683Y-86448683D01*
X84498704Y-86540045D01*
X84442990Y-86644279D01*
X84408682Y-86757379D01*
X84406946Y-86775000D01*
X83725000Y-86775000D01*
X83725000Y-85535596D01*
X83728506Y-85499999D01*
X83725000Y-85464402D01*
X83725000Y-85464393D01*
X83714509Y-85357875D01*
X83673053Y-85221212D01*
X83605731Y-85095263D01*
X83515132Y-84984868D01*
X83487472Y-84962168D01*
X83287830Y-84762526D01*
X83265132Y-84734868D01*
X83154737Y-84644269D01*
X83102026Y-84616094D01*
X83091318Y-84507379D01*
X83057010Y-84394279D01*
X83001296Y-84290045D01*
X82926317Y-84198683D01*
X82834955Y-84123704D01*
X82730721Y-84067990D01*
X82617621Y-84033682D01*
X82500000Y-84022097D01*
X82000000Y-84022097D01*
X81882379Y-84033682D01*
X81769279Y-84067990D01*
X81665045Y-84123704D01*
X81633003Y-84150000D01*
X81116997Y-84150000D01*
X81084955Y-84123704D01*
X80980721Y-84067990D01*
X80867621Y-84033682D01*
X80750000Y-84022097D01*
X80675000Y-84025000D01*
X80525000Y-84175000D01*
X80525000Y-85225000D01*
X80545000Y-85225000D01*
X80545000Y-85275000D01*
X80525000Y-85275000D01*
X80525000Y-86325000D01*
X80575000Y-86375000D01*
X80525000Y-86425000D01*
X80525000Y-87475000D01*
X80545000Y-87475000D01*
X80545000Y-87525000D01*
X80525000Y-87525000D01*
X80525000Y-87545000D01*
X80475000Y-87545000D01*
X80475000Y-87525000D01*
X79800000Y-87525000D01*
X79650000Y-87675000D01*
X79647742Y-88025000D01*
X77785596Y-88025000D01*
X77749999Y-88021494D01*
X77714402Y-88025000D01*
X77714393Y-88025000D01*
X77607875Y-88035491D01*
X77471212Y-88076947D01*
X77345263Y-88144269D01*
X77262525Y-88212170D01*
X77262523Y-88212172D01*
X77234868Y-88234868D01*
X77212172Y-88262523D01*
X76718664Y-88756032D01*
X76750000Y-88598491D01*
X76750000Y-88401509D01*
X76711571Y-88208311D01*
X76636189Y-88026322D01*
X76526751Y-87862537D01*
X76387463Y-87723249D01*
X76223678Y-87613811D01*
X76041689Y-87538429D01*
X75848491Y-87500000D01*
X75651509Y-87500000D01*
X75458311Y-87538429D01*
X75276322Y-87613811D01*
X75112537Y-87723249D01*
X75088313Y-87747473D01*
X75057010Y-87644279D01*
X75001296Y-87540045D01*
X74926317Y-87448683D01*
X74834955Y-87373704D01*
X74730721Y-87317990D01*
X74617621Y-87283682D01*
X74500000Y-87272097D01*
X74000000Y-87272097D01*
X73882379Y-87283682D01*
X73769279Y-87317990D01*
X73665045Y-87373704D01*
X73633003Y-87400000D01*
X73116997Y-87400000D01*
X73084955Y-87373704D01*
X72980721Y-87317990D01*
X72867621Y-87283682D01*
X72750000Y-87272097D01*
X72250000Y-87272097D01*
X72132379Y-87283682D01*
X72019279Y-87317990D01*
X71915045Y-87373704D01*
X71823683Y-87448683D01*
X71748704Y-87540045D01*
X71692990Y-87644279D01*
X71658682Y-87757379D01*
X71656946Y-87775000D01*
X70939214Y-87775000D01*
X70887463Y-87723249D01*
X70723678Y-87613811D01*
X70621475Y-87571477D01*
X70690132Y-87515132D01*
X70712832Y-87487472D01*
X71025304Y-87175000D01*
X71098491Y-87175000D01*
X71291689Y-87136571D01*
X71473678Y-87061189D01*
X71637463Y-86951751D01*
X71776751Y-86812463D01*
X71886189Y-86648678D01*
X71961571Y-86466689D01*
X72000000Y-86273491D01*
X72000000Y-86076509D01*
X71961571Y-85883311D01*
X71958129Y-85875000D01*
X79647097Y-85875000D01*
X79658682Y-85992621D01*
X79692990Y-86105721D01*
X79748704Y-86209955D01*
X79823683Y-86301317D01*
X79913466Y-86375000D01*
X79823683Y-86448683D01*
X79748704Y-86540045D01*
X79692990Y-86644279D01*
X79658682Y-86757379D01*
X79647097Y-86875000D01*
X79650000Y-87325000D01*
X79800000Y-87475000D01*
X80475000Y-87475000D01*
X80475000Y-86425000D01*
X80425000Y-86375000D01*
X80475000Y-86325000D01*
X80475000Y-85275000D01*
X79800000Y-85275000D01*
X79650000Y-85425000D01*
X79647097Y-85875000D01*
X71958129Y-85875000D01*
X71886189Y-85701322D01*
X71776751Y-85537537D01*
X71637463Y-85398249D01*
X71473678Y-85288811D01*
X71291689Y-85213429D01*
X71098491Y-85175000D01*
X70901509Y-85175000D01*
X70708311Y-85213429D01*
X70526322Y-85288811D01*
X70362537Y-85398249D01*
X70223249Y-85537537D01*
X70113811Y-85701322D01*
X70038429Y-85883311D01*
X70000000Y-86076509D01*
X70000000Y-86149696D01*
X69874696Y-86275000D01*
X60285597Y-86275000D01*
X60250000Y-86271494D01*
X60214403Y-86275000D01*
X60214393Y-86275000D01*
X60107875Y-86285491D01*
X59971212Y-86326947D01*
X59845263Y-86394269D01*
X59762525Y-86462170D01*
X59762523Y-86462172D01*
X59734868Y-86484868D01*
X59712172Y-86512523D01*
X56949696Y-89275000D01*
X55389214Y-89275000D01*
X55526751Y-89137463D01*
X55636189Y-88973678D01*
X55711571Y-88791689D01*
X55750000Y-88598491D01*
X55750000Y-88401509D01*
X55711571Y-88208311D01*
X55636189Y-88026322D01*
X55526751Y-87862537D01*
X55475000Y-87810786D01*
X55475000Y-87800304D01*
X57237482Y-86037823D01*
X57265131Y-86015132D01*
X57287823Y-85987482D01*
X57287830Y-85987475D01*
X57355731Y-85904737D01*
X57423053Y-85778788D01*
X57425639Y-85770264D01*
X57464509Y-85642125D01*
X57475000Y-85535607D01*
X57475000Y-85535598D01*
X57478506Y-85500001D01*
X57475000Y-85464404D01*
X57475000Y-85000000D01*
X61772097Y-85000000D01*
X61783682Y-85117621D01*
X61817990Y-85230721D01*
X61873704Y-85334955D01*
X61948683Y-85426317D01*
X62040045Y-85501296D01*
X62144279Y-85557010D01*
X62257379Y-85591318D01*
X62375000Y-85602903D01*
X62825000Y-85600000D01*
X62975000Y-85450000D01*
X62975000Y-84775000D01*
X63025000Y-84775000D01*
X63025000Y-85450000D01*
X63175000Y-85600000D01*
X63625000Y-85602903D01*
X63742621Y-85591318D01*
X63855721Y-85557010D01*
X63959955Y-85501296D01*
X64051317Y-85426317D01*
X64125000Y-85336534D01*
X64198683Y-85426317D01*
X64290045Y-85501296D01*
X64394279Y-85557010D01*
X64507379Y-85591318D01*
X64625000Y-85602903D01*
X65075000Y-85600000D01*
X65225000Y-85450000D01*
X65225000Y-84775000D01*
X65275000Y-84775000D01*
X65275000Y-85450000D01*
X65425000Y-85600000D01*
X65875000Y-85602903D01*
X65992621Y-85591318D01*
X66105721Y-85557010D01*
X66209955Y-85501296D01*
X66301317Y-85426317D01*
X66376296Y-85334955D01*
X66432010Y-85230721D01*
X66466318Y-85117621D01*
X66477903Y-85000000D01*
X66475000Y-84925000D01*
X66325000Y-84775000D01*
X65275000Y-84775000D01*
X65225000Y-84775000D01*
X64175000Y-84775000D01*
X64125000Y-84825000D01*
X64075000Y-84775000D01*
X63025000Y-84775000D01*
X62975000Y-84775000D01*
X61925000Y-84775000D01*
X61775000Y-84925000D01*
X61772097Y-85000000D01*
X57475000Y-85000000D01*
X57475000Y-84785596D01*
X57478506Y-84749999D01*
X57475000Y-84714402D01*
X57475000Y-84714393D01*
X57464509Y-84607875D01*
X57431786Y-84500000D01*
X61772097Y-84500000D01*
X61775000Y-84575000D01*
X61925000Y-84725000D01*
X62975000Y-84725000D01*
X62975000Y-84050000D01*
X63025000Y-84050000D01*
X63025000Y-84725000D01*
X64075000Y-84725000D01*
X64125000Y-84675000D01*
X64175000Y-84725000D01*
X65225000Y-84725000D01*
X65225000Y-84050000D01*
X65275000Y-84050000D01*
X65275000Y-84725000D01*
X66325000Y-84725000D01*
X66475000Y-84575000D01*
X66477903Y-84500000D01*
X66466318Y-84382379D01*
X66432010Y-84269279D01*
X66376296Y-84165045D01*
X66301317Y-84073683D01*
X66209955Y-83998704D01*
X66105721Y-83942990D01*
X65992621Y-83908682D01*
X65875000Y-83897097D01*
X65425000Y-83900000D01*
X65275000Y-84050000D01*
X65225000Y-84050000D01*
X65075000Y-83900000D01*
X64625000Y-83897097D01*
X64507379Y-83908682D01*
X64394279Y-83942990D01*
X64290045Y-83998704D01*
X64198683Y-84073683D01*
X64125000Y-84163466D01*
X64051317Y-84073683D01*
X63959955Y-83998704D01*
X63855721Y-83942990D01*
X63742621Y-83908682D01*
X63625000Y-83897097D01*
X63175000Y-83900000D01*
X63025000Y-84050000D01*
X62975000Y-84050000D01*
X62825000Y-83900000D01*
X62375000Y-83897097D01*
X62257379Y-83908682D01*
X62144279Y-83942990D01*
X62040045Y-83998704D01*
X61948683Y-84073683D01*
X61873704Y-84165045D01*
X61817990Y-84269279D01*
X61783682Y-84382379D01*
X61772097Y-84500000D01*
X57431786Y-84500000D01*
X57423053Y-84471212D01*
X57355731Y-84345263D01*
X57265132Y-84234868D01*
X57237472Y-84212168D01*
X57037832Y-84012528D01*
X57015132Y-83984868D01*
X56904737Y-83894269D01*
X56778788Y-83826947D01*
X56642125Y-83785491D01*
X56593616Y-83780713D01*
X56591318Y-83757379D01*
X56557010Y-83644279D01*
X56501296Y-83540045D01*
X56426317Y-83448683D01*
X56334955Y-83373704D01*
X56230721Y-83317990D01*
X56117621Y-83283682D01*
X56000000Y-83272097D01*
X55500000Y-83272097D01*
X55382379Y-83283682D01*
X55269279Y-83317990D01*
X55165045Y-83373704D01*
X55073683Y-83448683D01*
X54998704Y-83540045D01*
X54942990Y-83644279D01*
X54908682Y-83757379D01*
X54897097Y-83875000D01*
X54897097Y-85125000D01*
X54908682Y-85242621D01*
X54942990Y-85355721D01*
X54998704Y-85459955D01*
X55073683Y-85551317D01*
X55165045Y-85626296D01*
X55269279Y-85682010D01*
X55382379Y-85716318D01*
X55497080Y-85727615D01*
X54262523Y-86962173D01*
X54234869Y-86984868D01*
X54212173Y-87012523D01*
X54212170Y-87012526D01*
X54144269Y-87095264D01*
X54076947Y-87221213D01*
X54057998Y-87283682D01*
X54039318Y-87345264D01*
X54035492Y-87357876D01*
X54021494Y-87500000D01*
X54025001Y-87535606D01*
X54025001Y-87810785D01*
X53973249Y-87862537D01*
X53939039Y-87913735D01*
X52537830Y-86512526D01*
X52515132Y-86484868D01*
X52404737Y-86394269D01*
X52278788Y-86326947D01*
X52142125Y-86285491D01*
X52035607Y-86275000D01*
X52035597Y-86275000D01*
X52000000Y-86271494D01*
X51964403Y-86275000D01*
X51035597Y-86275000D01*
X51000000Y-86271494D01*
X50964403Y-86275000D01*
X50964393Y-86275000D01*
X50857875Y-86285491D01*
X50721212Y-86326947D01*
X50595263Y-86394269D01*
X50512525Y-86462170D01*
X50512523Y-86462172D01*
X50500000Y-86472449D01*
X50404737Y-86394269D01*
X50278788Y-86326947D01*
X50142125Y-86285491D01*
X50035607Y-86275000D01*
X50035597Y-86275000D01*
X50000000Y-86271494D01*
X49964403Y-86275000D01*
X49800305Y-86275000D01*
X49196844Y-85671539D01*
X49270000Y-85611501D01*
X49355045Y-85681296D01*
X49459279Y-85737010D01*
X49572379Y-85771318D01*
X49690000Y-85782903D01*
X50365000Y-85780000D01*
X50515000Y-85630000D01*
X50515000Y-84355000D01*
X50495000Y-84355000D01*
X50495000Y-84305000D01*
X50515000Y-84305000D01*
X50515000Y-84285000D01*
X50565000Y-84285000D01*
X50565000Y-84305000D01*
X50585000Y-84305000D01*
X50585000Y-84355000D01*
X50565000Y-84355000D01*
X50565000Y-85630000D01*
X50715000Y-85780000D01*
X51390000Y-85782903D01*
X51507621Y-85771318D01*
X51620721Y-85737010D01*
X51724955Y-85681296D01*
X51816317Y-85606317D01*
X51891296Y-85514955D01*
X51947010Y-85410721D01*
X51981318Y-85297621D01*
X51992903Y-85180000D01*
X51990062Y-84519394D01*
X52012523Y-84537827D01*
X52462172Y-84987477D01*
X52484868Y-85015132D01*
X52512523Y-85037828D01*
X52512525Y-85037830D01*
X52582508Y-85095263D01*
X52595263Y-85105731D01*
X52721212Y-85173053D01*
X52857875Y-85214509D01*
X52964393Y-85225000D01*
X52964403Y-85225000D01*
X53000000Y-85228506D01*
X53035597Y-85225000D01*
X53156946Y-85225000D01*
X53158682Y-85242621D01*
X53192990Y-85355721D01*
X53248704Y-85459955D01*
X53323683Y-85551317D01*
X53415045Y-85626296D01*
X53519279Y-85682010D01*
X53632379Y-85716318D01*
X53750000Y-85727903D01*
X54250000Y-85727903D01*
X54367621Y-85716318D01*
X54480721Y-85682010D01*
X54584955Y-85626296D01*
X54676317Y-85551317D01*
X54751296Y-85459955D01*
X54807010Y-85355721D01*
X54841318Y-85242621D01*
X54852903Y-85125000D01*
X54852903Y-83875000D01*
X54841318Y-83757379D01*
X54807010Y-83644279D01*
X54751296Y-83540045D01*
X54676317Y-83448683D01*
X54584955Y-83373704D01*
X54480721Y-83317990D01*
X54367621Y-83283682D01*
X54250000Y-83272097D01*
X53750000Y-83272097D01*
X53632379Y-83283682D01*
X53519279Y-83317990D01*
X53415045Y-83373704D01*
X53323683Y-83448683D01*
X53248704Y-83540045D01*
X53225000Y-83584392D01*
X53225000Y-82939080D01*
X53232379Y-82941318D01*
X53350000Y-82952903D01*
X54150000Y-82952903D01*
X54267621Y-82941318D01*
X54380721Y-82907010D01*
X54484955Y-82851296D01*
X54576317Y-82776317D01*
X54651296Y-82684955D01*
X54707010Y-82580721D01*
X54741318Y-82467621D01*
X54752903Y-82350000D01*
X54752903Y-81150000D01*
X56247097Y-81150000D01*
X56247097Y-82350000D01*
X56258682Y-82467621D01*
X56292990Y-82580721D01*
X56348704Y-82684955D01*
X56423683Y-82776317D01*
X56515045Y-82851296D01*
X56619279Y-82907010D01*
X56732379Y-82941318D01*
X56850000Y-82952903D01*
X57650000Y-82952903D01*
X57767621Y-82941318D01*
X57880721Y-82907010D01*
X57984955Y-82851296D01*
X58076317Y-82776317D01*
X58151296Y-82684955D01*
X58207010Y-82580721D01*
X58239080Y-82475000D01*
X58863401Y-82475000D01*
X58870528Y-82477162D01*
X58977046Y-82487653D01*
X58977055Y-82487653D01*
X59012652Y-82491159D01*
X59048249Y-82487653D01*
X59060786Y-82487653D01*
X59112537Y-82539404D01*
X59276322Y-82648842D01*
X59458311Y-82724224D01*
X59651509Y-82762653D01*
X59848491Y-82762653D01*
X59912102Y-82750000D01*
X61772097Y-82750000D01*
X61772097Y-83250000D01*
X61783682Y-83367621D01*
X61817990Y-83480721D01*
X61873704Y-83584955D01*
X61948683Y-83676317D01*
X62040045Y-83751296D01*
X62144279Y-83807010D01*
X62257379Y-83841318D01*
X62375000Y-83852903D01*
X63625000Y-83852903D01*
X63742621Y-83841318D01*
X63855721Y-83807010D01*
X63959955Y-83751296D01*
X64051317Y-83676317D01*
X64125000Y-83586534D01*
X64198683Y-83676317D01*
X64290045Y-83751296D01*
X64394279Y-83807010D01*
X64507379Y-83841318D01*
X64625000Y-83852903D01*
X65875000Y-83852903D01*
X65992621Y-83841318D01*
X66105721Y-83807010D01*
X66209955Y-83751296D01*
X66301317Y-83676317D01*
X66376296Y-83584955D01*
X66432010Y-83480721D01*
X66466318Y-83367621D01*
X66477903Y-83250000D01*
X66477903Y-82750000D01*
X66466318Y-82632379D01*
X66432010Y-82519279D01*
X66376296Y-82415045D01*
X66301317Y-82323683D01*
X66209955Y-82248704D01*
X66105721Y-82192990D01*
X65992621Y-82158682D01*
X65975000Y-82156946D01*
X65975000Y-81035597D01*
X65978506Y-81000000D01*
X65975000Y-80964403D01*
X65975000Y-80964393D01*
X65964509Y-80857875D01*
X65923053Y-80721212D01*
X65855731Y-80595263D01*
X65844927Y-80582098D01*
X65787830Y-80512525D01*
X65787828Y-80512523D01*
X65765132Y-80484868D01*
X65750000Y-80472449D01*
X65750000Y-80401509D01*
X65711571Y-80208311D01*
X65688043Y-80151509D01*
X72250000Y-80151509D01*
X72250000Y-80348491D01*
X72288429Y-80541689D01*
X72363811Y-80723678D01*
X72473249Y-80887463D01*
X72612537Y-81026751D01*
X72776322Y-81136189D01*
X72958311Y-81211571D01*
X73151509Y-81250000D01*
X73348491Y-81250000D01*
X73541689Y-81211571D01*
X73723678Y-81136189D01*
X73875000Y-81035079D01*
X74026322Y-81136189D01*
X74078682Y-81157877D01*
X74012525Y-81212170D01*
X74012523Y-81212172D01*
X73984868Y-81234868D01*
X73962172Y-81262523D01*
X73224696Y-82000000D01*
X73151509Y-82000000D01*
X72958311Y-82038429D01*
X72776322Y-82113811D01*
X72612537Y-82223249D01*
X72473249Y-82362537D01*
X72363811Y-82526322D01*
X72288429Y-82708311D01*
X72250000Y-82901509D01*
X72250000Y-83098491D01*
X72288429Y-83291689D01*
X72363811Y-83473678D01*
X72473249Y-83637463D01*
X72612537Y-83776751D01*
X72776322Y-83886189D01*
X72958311Y-83961571D01*
X73151509Y-84000000D01*
X73348491Y-84000000D01*
X73541689Y-83961571D01*
X73723678Y-83886189D01*
X73781126Y-83847803D01*
X73785491Y-83892124D01*
X73818215Y-84000000D01*
X73826947Y-84028787D01*
X73894269Y-84154736D01*
X73960032Y-84234868D01*
X73984868Y-84265131D01*
X74012524Y-84287828D01*
X74212168Y-84487472D01*
X74234868Y-84515132D01*
X74345263Y-84605731D01*
X74471212Y-84673053D01*
X74607875Y-84714509D01*
X74714393Y-84725000D01*
X74714402Y-84725000D01*
X74749999Y-84728506D01*
X74785596Y-84725000D01*
X74906946Y-84725000D01*
X74908682Y-84742621D01*
X74942990Y-84855721D01*
X74998704Y-84959955D01*
X75073683Y-85051317D01*
X75165045Y-85126296D01*
X75269279Y-85182010D01*
X75382379Y-85216318D01*
X75500000Y-85227903D01*
X76000000Y-85227903D01*
X76117621Y-85216318D01*
X76230721Y-85182010D01*
X76334955Y-85126296D01*
X76366997Y-85100000D01*
X76883003Y-85100000D01*
X76915045Y-85126296D01*
X77019279Y-85182010D01*
X77132379Y-85216318D01*
X77250000Y-85227903D01*
X77750000Y-85227903D01*
X77867621Y-85216318D01*
X77980721Y-85182010D01*
X78084955Y-85126296D01*
X78176317Y-85051317D01*
X78251296Y-84959955D01*
X78307010Y-84855721D01*
X78341318Y-84742621D01*
X78343054Y-84725000D01*
X78464403Y-84725000D01*
X78500000Y-84728506D01*
X78535597Y-84725000D01*
X78535607Y-84725000D01*
X78642125Y-84714509D01*
X78778788Y-84673053D01*
X78868687Y-84625000D01*
X79647097Y-84625000D01*
X79650000Y-85075000D01*
X79800000Y-85225000D01*
X80475000Y-85225000D01*
X80475000Y-84175000D01*
X80325000Y-84025000D01*
X80250000Y-84022097D01*
X80132379Y-84033682D01*
X80019279Y-84067990D01*
X79915045Y-84123704D01*
X79823683Y-84198683D01*
X79748704Y-84290045D01*
X79692990Y-84394279D01*
X79658682Y-84507379D01*
X79647097Y-84625000D01*
X78868687Y-84625000D01*
X78904737Y-84605731D01*
X79015132Y-84515132D01*
X79037832Y-84487472D01*
X79487477Y-84037828D01*
X79515132Y-84015132D01*
X79545190Y-83978507D01*
X79605731Y-83904737D01*
X79673053Y-83778788D01*
X79679547Y-83757379D01*
X79714509Y-83642125D01*
X79725000Y-83535607D01*
X79725000Y-83535597D01*
X79728506Y-83500000D01*
X79725000Y-83464403D01*
X79725000Y-82939214D01*
X79733223Y-82930991D01*
X79748704Y-82959955D01*
X79823683Y-83051317D01*
X79915045Y-83126296D01*
X80019279Y-83182010D01*
X80132379Y-83216318D01*
X80250000Y-83227903D01*
X80325000Y-83225000D01*
X80475000Y-83075000D01*
X80475000Y-82025000D01*
X80455000Y-82025000D01*
X80455000Y-81975000D01*
X80475000Y-81975000D01*
X80475000Y-80925000D01*
X80325000Y-80775000D01*
X80250000Y-80772097D01*
X80132379Y-80783682D01*
X80019279Y-80817990D01*
X79915045Y-80873704D01*
X79823683Y-80948683D01*
X79748704Y-81040045D01*
X79692990Y-81144279D01*
X79658682Y-81257379D01*
X79647097Y-81375000D01*
X79647797Y-81483583D01*
X79637463Y-81473249D01*
X79473678Y-81363811D01*
X79291689Y-81288429D01*
X79098491Y-81250000D01*
X79027551Y-81250000D01*
X79015132Y-81234868D01*
X78904737Y-81144269D01*
X78778788Y-81076947D01*
X78642125Y-81035491D01*
X78535607Y-81025000D01*
X78535597Y-81025000D01*
X78500000Y-81021494D01*
X78464403Y-81025000D01*
X78343054Y-81025000D01*
X78341318Y-81007379D01*
X78307010Y-80894279D01*
X78251296Y-80790045D01*
X78176317Y-80698683D01*
X78084955Y-80623704D01*
X77980721Y-80567990D01*
X77867621Y-80533682D01*
X77750000Y-80522097D01*
X77250000Y-80522097D01*
X77132379Y-80533682D01*
X77019279Y-80567990D01*
X76915045Y-80623704D01*
X76883003Y-80650000D01*
X76366997Y-80650000D01*
X76334955Y-80623704D01*
X76230721Y-80567990D01*
X76117621Y-80533682D01*
X76000000Y-80522097D01*
X75500000Y-80522097D01*
X75464778Y-80525566D01*
X75474753Y-80475416D01*
X75500000Y-80477903D01*
X76000000Y-80477903D01*
X76117621Y-80466318D01*
X76230721Y-80432010D01*
X76334955Y-80376296D01*
X76366997Y-80350000D01*
X76883003Y-80350000D01*
X76915045Y-80376296D01*
X77019279Y-80432010D01*
X77132379Y-80466318D01*
X77250000Y-80477903D01*
X77750000Y-80477903D01*
X77867621Y-80466318D01*
X77980721Y-80432010D01*
X78084955Y-80376296D01*
X78176317Y-80301317D01*
X78251296Y-80209955D01*
X78307010Y-80105721D01*
X78341318Y-79992621D01*
X78343054Y-79975000D01*
X78464403Y-79975000D01*
X78500000Y-79978506D01*
X78535597Y-79975000D01*
X78535607Y-79975000D01*
X78642125Y-79964509D01*
X78778788Y-79923053D01*
X78904737Y-79855731D01*
X79015132Y-79765132D01*
X79027551Y-79750000D01*
X79098491Y-79750000D01*
X79291689Y-79711571D01*
X79473678Y-79636189D01*
X79637463Y-79526751D01*
X79776751Y-79387463D01*
X79886189Y-79223678D01*
X79961571Y-79041689D01*
X80000000Y-78848491D01*
X80000000Y-78651509D01*
X79961571Y-78458311D01*
X79886189Y-78276322D01*
X79776751Y-78112537D01*
X79725000Y-78060786D01*
X79725000Y-77915608D01*
X79748704Y-77959955D01*
X79823683Y-78051317D01*
X79915045Y-78126296D01*
X80019279Y-78182010D01*
X80132379Y-78216318D01*
X80250000Y-78227903D01*
X80325000Y-78225000D01*
X80475000Y-78075000D01*
X80475000Y-77025000D01*
X79800000Y-77025000D01*
X79650000Y-77175000D01*
X79649980Y-77178047D01*
X79605731Y-77095263D01*
X79537830Y-77012525D01*
X79537823Y-77012518D01*
X79515131Y-76984868D01*
X79487482Y-76962177D01*
X79037832Y-76512528D01*
X79015132Y-76484868D01*
X78904737Y-76394269D01*
X78868688Y-76375000D01*
X79647097Y-76375000D01*
X79650000Y-76825000D01*
X79800000Y-76975000D01*
X80475000Y-76975000D01*
X80475000Y-75925000D01*
X80525000Y-75925000D01*
X80525000Y-76975000D01*
X80545000Y-76975000D01*
X80545000Y-77025000D01*
X80525000Y-77025000D01*
X80525000Y-78075000D01*
X80675000Y-78225000D01*
X80750000Y-78227903D01*
X80867621Y-78216318D01*
X80980721Y-78182010D01*
X81084955Y-78126296D01*
X81116997Y-78100000D01*
X81633003Y-78100000D01*
X81665045Y-78126296D01*
X81769279Y-78182010D01*
X81882379Y-78216318D01*
X82000000Y-78227903D01*
X82500000Y-78227903D01*
X82617621Y-78216318D01*
X82730721Y-78182010D01*
X82834955Y-78126296D01*
X82926317Y-78051317D01*
X83001296Y-77959955D01*
X83025001Y-77915607D01*
X83025000Y-78060786D01*
X82973249Y-78112537D01*
X82863811Y-78276322D01*
X82788429Y-78458311D01*
X82750000Y-78651509D01*
X82750000Y-78848491D01*
X82788429Y-79041689D01*
X82863811Y-79223678D01*
X82973249Y-79387463D01*
X83112537Y-79526751D01*
X83276322Y-79636189D01*
X83458311Y-79711571D01*
X83651509Y-79750000D01*
X83848491Y-79750000D01*
X84041689Y-79711571D01*
X84223678Y-79636189D01*
X84387463Y-79526751D01*
X84526751Y-79387463D01*
X84636189Y-79223678D01*
X84711571Y-79041689D01*
X84750000Y-78848491D01*
X84750000Y-78651509D01*
X84711571Y-78458311D01*
X84636189Y-78276322D01*
X84526751Y-78112537D01*
X84475000Y-78060786D01*
X84475000Y-77915608D01*
X84498704Y-77959955D01*
X84573683Y-78051317D01*
X84665045Y-78126296D01*
X84769279Y-78182010D01*
X84882379Y-78216318D01*
X85000000Y-78227903D01*
X85500000Y-78227903D01*
X85617621Y-78216318D01*
X85730721Y-78182010D01*
X85834955Y-78126296D01*
X85866997Y-78100000D01*
X86383003Y-78100000D01*
X86415045Y-78126296D01*
X86519279Y-78182010D01*
X86632379Y-78216318D01*
X86750000Y-78227903D01*
X87250000Y-78227903D01*
X87367621Y-78216318D01*
X87480721Y-78182010D01*
X87584955Y-78126296D01*
X87676317Y-78051317D01*
X87751296Y-77959955D01*
X87807010Y-77855721D01*
X87841318Y-77742621D01*
X87843054Y-77725000D01*
X88397097Y-77725000D01*
X88397097Y-78000000D01*
X88408682Y-78117621D01*
X88442990Y-78230721D01*
X88498704Y-78334955D01*
X88573683Y-78426317D01*
X88665045Y-78501296D01*
X88769279Y-78557010D01*
X88882379Y-78591318D01*
X89000000Y-78602903D01*
X91000000Y-78602903D01*
X91117621Y-78591318D01*
X91230721Y-78557010D01*
X91334955Y-78501296D01*
X91426317Y-78426317D01*
X91501296Y-78334955D01*
X91557010Y-78230721D01*
X91591318Y-78117621D01*
X91602903Y-78000000D01*
X91602903Y-76000000D01*
X91591318Y-75882379D01*
X91557010Y-75769279D01*
X91501296Y-75665045D01*
X91426317Y-75573683D01*
X91334955Y-75498704D01*
X91230721Y-75442990D01*
X91117621Y-75408682D01*
X91000000Y-75397097D01*
X89000000Y-75397097D01*
X88882379Y-75408682D01*
X88769279Y-75442990D01*
X88665045Y-75498704D01*
X88573683Y-75573683D01*
X88498704Y-75665045D01*
X88442990Y-75769279D01*
X88408682Y-75882379D01*
X88397097Y-76000000D01*
X88397097Y-76275000D01*
X87843054Y-76275000D01*
X87841318Y-76257379D01*
X87807010Y-76144279D01*
X87751296Y-76040045D01*
X87676317Y-75948683D01*
X87584955Y-75873704D01*
X87480721Y-75817990D01*
X87367621Y-75783682D01*
X87250000Y-75772097D01*
X86750000Y-75772097D01*
X86632379Y-75783682D01*
X86519279Y-75817990D01*
X86415045Y-75873704D01*
X86383003Y-75900000D01*
X85866997Y-75900000D01*
X85834955Y-75873704D01*
X85730721Y-75817990D01*
X85617621Y-75783682D01*
X85500000Y-75772097D01*
X85000000Y-75772097D01*
X84882379Y-75783682D01*
X84769279Y-75817990D01*
X84665045Y-75873704D01*
X84573683Y-75948683D01*
X84498704Y-76040045D01*
X84442990Y-76144279D01*
X84408682Y-76257379D01*
X84406946Y-76275000D01*
X84035596Y-76275000D01*
X83999999Y-76271494D01*
X83964402Y-76275000D01*
X83964393Y-76275000D01*
X83857875Y-76285491D01*
X83750000Y-76318214D01*
X83642125Y-76285491D01*
X83535607Y-76275000D01*
X83535597Y-76275000D01*
X83500000Y-76271494D01*
X83464403Y-76275000D01*
X83093054Y-76275000D01*
X83091318Y-76257379D01*
X83057010Y-76144279D01*
X83001296Y-76040045D01*
X82926317Y-75948683D01*
X82834955Y-75873704D01*
X82730721Y-75817990D01*
X82617621Y-75783682D01*
X82500000Y-75772097D01*
X82000000Y-75772097D01*
X81882379Y-75783682D01*
X81769279Y-75817990D01*
X81665045Y-75873704D01*
X81633003Y-75900000D01*
X81116997Y-75900000D01*
X81084955Y-75873704D01*
X80980721Y-75817990D01*
X80867621Y-75783682D01*
X80750000Y-75772097D01*
X80675000Y-75775000D01*
X80525000Y-75925000D01*
X80475000Y-75925000D01*
X80325000Y-75775000D01*
X80250000Y-75772097D01*
X80132379Y-75783682D01*
X80019279Y-75817990D01*
X79915045Y-75873704D01*
X79823683Y-75948683D01*
X79748704Y-76040045D01*
X79692990Y-76144279D01*
X79658682Y-76257379D01*
X79647097Y-76375000D01*
X78868688Y-76375000D01*
X78778788Y-76326947D01*
X78642125Y-76285491D01*
X78535607Y-76275000D01*
X78535597Y-76275000D01*
X78500000Y-76271494D01*
X78464403Y-76275000D01*
X78343054Y-76275000D01*
X78341318Y-76257379D01*
X78307010Y-76144279D01*
X78251296Y-76040045D01*
X78176317Y-75948683D01*
X78084955Y-75873704D01*
X77980721Y-75817990D01*
X77867621Y-75783682D01*
X77750000Y-75772097D01*
X77250000Y-75772097D01*
X77132379Y-75783682D01*
X77019279Y-75817990D01*
X76915045Y-75873704D01*
X76883003Y-75900000D01*
X76366997Y-75900000D01*
X76334955Y-75873704D01*
X76230721Y-75817990D01*
X76117621Y-75783682D01*
X76000000Y-75772097D01*
X75500000Y-75772097D01*
X75382379Y-75783682D01*
X75269279Y-75817990D01*
X75165045Y-75873704D01*
X75073683Y-75948683D01*
X74998704Y-76040045D01*
X74942990Y-76144279D01*
X74908682Y-76257379D01*
X74906946Y-76275000D01*
X74785596Y-76275000D01*
X74749999Y-76271494D01*
X74714402Y-76275000D01*
X74714393Y-76275000D01*
X74607875Y-76285491D01*
X74471212Y-76326947D01*
X74349276Y-76392124D01*
X74345263Y-76394269D01*
X74262525Y-76462170D01*
X74262523Y-76462172D01*
X74234868Y-76484868D01*
X74212172Y-76512523D01*
X72762523Y-77962173D01*
X72734869Y-77984868D01*
X72712173Y-78012523D01*
X72712170Y-78012526D01*
X72644269Y-78095264D01*
X72576947Y-78221213D01*
X72558393Y-78282379D01*
X72536143Y-78355731D01*
X72535492Y-78357876D01*
X72521494Y-78500000D01*
X72525001Y-78535607D01*
X72525000Y-79560786D01*
X72473249Y-79612537D01*
X72363811Y-79776322D01*
X72288429Y-79958311D01*
X72250000Y-80151509D01*
X65688043Y-80151509D01*
X65636189Y-80026322D01*
X65526751Y-79862537D01*
X65387463Y-79723249D01*
X65223678Y-79613811D01*
X65041689Y-79538429D01*
X64848491Y-79500000D01*
X64651509Y-79500000D01*
X64458311Y-79538429D01*
X64276322Y-79613811D01*
X64112537Y-79723249D01*
X64000000Y-79835786D01*
X63887463Y-79723249D01*
X63723678Y-79613811D01*
X63541689Y-79538429D01*
X63348491Y-79500000D01*
X63151509Y-79500000D01*
X62958311Y-79538429D01*
X62776322Y-79613811D01*
X62612537Y-79723249D01*
X62473249Y-79862537D01*
X62363811Y-80026322D01*
X62288429Y-80208311D01*
X62250000Y-80401509D01*
X62250000Y-80598491D01*
X62274356Y-80720939D01*
X62271494Y-80750000D01*
X62275001Y-80785607D01*
X62275000Y-82156946D01*
X62257379Y-82158682D01*
X62144279Y-82192990D01*
X62040045Y-82248704D01*
X61948683Y-82323683D01*
X61873704Y-82415045D01*
X61817990Y-82519279D01*
X61783682Y-82632379D01*
X61772097Y-82750000D01*
X59912102Y-82750000D01*
X60041689Y-82724224D01*
X60223678Y-82648842D01*
X60387463Y-82539404D01*
X60526751Y-82400116D01*
X60636189Y-82236331D01*
X60711571Y-82054342D01*
X60750000Y-81861144D01*
X60750000Y-81664162D01*
X60711571Y-81470964D01*
X60636189Y-81288975D01*
X60526751Y-81125190D01*
X60387463Y-80985902D01*
X60223678Y-80876464D01*
X60041689Y-80801082D01*
X59848491Y-80762653D01*
X59651509Y-80762653D01*
X59458311Y-80801082D01*
X59276322Y-80876464D01*
X59112537Y-80985902D01*
X59070047Y-81028392D01*
X59035607Y-81025000D01*
X59035597Y-81025000D01*
X59000000Y-81021494D01*
X58964403Y-81025000D01*
X58239080Y-81025000D01*
X58207010Y-80919279D01*
X58151296Y-80815045D01*
X58076317Y-80723683D01*
X57984955Y-80648704D01*
X57880721Y-80592990D01*
X57767621Y-80558682D01*
X57650000Y-80547097D01*
X56850000Y-80547097D01*
X56732379Y-80558682D01*
X56619279Y-80592990D01*
X56515045Y-80648704D01*
X56423683Y-80723683D01*
X56348704Y-80815045D01*
X56292990Y-80919279D01*
X56258682Y-81032379D01*
X56247097Y-81150000D01*
X54752903Y-81150000D01*
X54741318Y-81032379D01*
X54707010Y-80919279D01*
X54651296Y-80815045D01*
X54576317Y-80723683D01*
X54484955Y-80648704D01*
X54380721Y-80592990D01*
X54267621Y-80558682D01*
X54150000Y-80547097D01*
X53350000Y-80547097D01*
X53232379Y-80558682D01*
X53225000Y-80560920D01*
X53225000Y-80165608D01*
X53248704Y-80209955D01*
X53323683Y-80301317D01*
X53415045Y-80376296D01*
X53519279Y-80432010D01*
X53632379Y-80466318D01*
X53750000Y-80477903D01*
X54250000Y-80477903D01*
X54367621Y-80466318D01*
X54480721Y-80432010D01*
X54584955Y-80376296D01*
X54676317Y-80301317D01*
X54751296Y-80209955D01*
X54807010Y-80105721D01*
X54841318Y-79992621D01*
X54852903Y-79875000D01*
X54852903Y-78625000D01*
X54897097Y-78625000D01*
X54897097Y-79875000D01*
X54908682Y-79992621D01*
X54942990Y-80105721D01*
X54998704Y-80209955D01*
X55073683Y-80301317D01*
X55165045Y-80376296D01*
X55269279Y-80432010D01*
X55382379Y-80466318D01*
X55500000Y-80477903D01*
X56000000Y-80477903D01*
X56117621Y-80466318D01*
X56230721Y-80432010D01*
X56334955Y-80376296D01*
X56426317Y-80301317D01*
X56501296Y-80209955D01*
X56538114Y-80141073D01*
X56708311Y-80211571D01*
X56901509Y-80250000D01*
X57098491Y-80250000D01*
X57291689Y-80211571D01*
X57473678Y-80136189D01*
X57637463Y-80026751D01*
X57776751Y-79887463D01*
X57886189Y-79723678D01*
X57961571Y-79541689D01*
X58000000Y-79348491D01*
X58000000Y-79151509D01*
X57961571Y-78958311D01*
X57886189Y-78776322D01*
X57776751Y-78612537D01*
X57637463Y-78473249D01*
X57473678Y-78363811D01*
X57291689Y-78288429D01*
X57098491Y-78250000D01*
X56901509Y-78250000D01*
X56708311Y-78288429D01*
X56538114Y-78358927D01*
X56501296Y-78290045D01*
X56426317Y-78198683D01*
X56334955Y-78123704D01*
X56230721Y-78067990D01*
X56117621Y-78033682D01*
X56000000Y-78022097D01*
X55500000Y-78022097D01*
X55382379Y-78033682D01*
X55269279Y-78067990D01*
X55165045Y-78123704D01*
X55073683Y-78198683D01*
X54998704Y-78290045D01*
X54942990Y-78394279D01*
X54908682Y-78507379D01*
X54897097Y-78625000D01*
X54852903Y-78625000D01*
X54841318Y-78507379D01*
X54807010Y-78394279D01*
X54751296Y-78290045D01*
X54676317Y-78198683D01*
X54584955Y-78123704D01*
X54480721Y-78067990D01*
X54367621Y-78033682D01*
X54250000Y-78022097D01*
X53750000Y-78022097D01*
X53632379Y-78033682D01*
X53519279Y-78067990D01*
X53415045Y-78123704D01*
X53323683Y-78198683D01*
X53248704Y-78290045D01*
X53192990Y-78394279D01*
X53187542Y-78412238D01*
X52037832Y-77262528D01*
X52015132Y-77234868D01*
X51904737Y-77144269D01*
X51778788Y-77076947D01*
X51642125Y-77035491D01*
X51535607Y-77025000D01*
X51535597Y-77025000D01*
X51500000Y-77021494D01*
X51464403Y-77025000D01*
X49535596Y-77025000D01*
X49499999Y-77021494D01*
X49464402Y-77025000D01*
X49464393Y-77025000D01*
X49357875Y-77035491D01*
X49221212Y-77076947D01*
X49095263Y-77144269D01*
X49012525Y-77212170D01*
X49012523Y-77212172D01*
X48984868Y-77234868D01*
X48962172Y-77262523D01*
X48377928Y-77846768D01*
X48142813Y-77800000D01*
X47857187Y-77800000D01*
X47577051Y-77855723D01*
X47313167Y-77965027D01*
X47075679Y-78123711D01*
X46873711Y-78325679D01*
X46715027Y-78563167D01*
X46605723Y-78827051D01*
X46550000Y-79107187D01*
X46550000Y-79392813D01*
X46605723Y-79672949D01*
X46715027Y-79936833D01*
X46873711Y-80174321D01*
X47046665Y-80347275D01*
X47032379Y-80348682D01*
X46919279Y-80382990D01*
X46815045Y-80438704D01*
X46723683Y-80513683D01*
X46648704Y-80605045D01*
X46592990Y-80709279D01*
X46558682Y-80822379D01*
X46547097Y-80940000D01*
X46547097Y-81156563D01*
X46495263Y-81184269D01*
X46412525Y-81252170D01*
X46412523Y-81252172D01*
X46384868Y-81274868D01*
X46362172Y-81302523D01*
X46100000Y-81564695D01*
X46100000Y-61500000D01*
X47171010Y-61500000D01*
X47175001Y-61540523D01*
X47175000Y-63709479D01*
X47175000Y-64459487D01*
X47171010Y-64500000D01*
X47175000Y-64540513D01*
X47175000Y-64540521D01*
X47186938Y-64661728D01*
X47234113Y-64817241D01*
X47310720Y-64960563D01*
X47343085Y-65000000D01*
X47310720Y-65039437D01*
X47245354Y-65161728D01*
X47234113Y-65182759D01*
X47186938Y-65338272D01*
X47171010Y-65500000D01*
X47175001Y-65540523D01*
X47175000Y-68290520D01*
X47175001Y-68290530D01*
X47175000Y-69459486D01*
X47171010Y-69500000D01*
X47175000Y-69540513D01*
X47175000Y-69540520D01*
X47185219Y-69644269D01*
X47186938Y-69661728D01*
X47201248Y-69708902D01*
X47234112Y-69817240D01*
X47310719Y-69960562D01*
X47343085Y-70000000D01*
X47310720Y-70039437D01*
X47268930Y-70117621D01*
X47234113Y-70182759D01*
X47186938Y-70338272D01*
X47171010Y-70500000D01*
X47175001Y-70540520D01*
X47175000Y-75209487D01*
X47171010Y-75250000D01*
X47175000Y-75290513D01*
X47175000Y-75290520D01*
X47182219Y-75363811D01*
X47186938Y-75411728D01*
X47193318Y-75432759D01*
X47234112Y-75567240D01*
X47310719Y-75710562D01*
X47413815Y-75836185D01*
X47445296Y-75862021D01*
X47887979Y-76304704D01*
X47913815Y-76336185D01*
X48039437Y-76439281D01*
X48132836Y-76489203D01*
X48182758Y-76515888D01*
X48267814Y-76541689D01*
X48338272Y-76563062D01*
X48459479Y-76575000D01*
X48459487Y-76575000D01*
X48500000Y-76578990D01*
X48540513Y-76575000D01*
X52409487Y-76575000D01*
X52450000Y-76578990D01*
X52490513Y-76575000D01*
X52490521Y-76575000D01*
X52611728Y-76563062D01*
X52725000Y-76528702D01*
X52802077Y-76552082D01*
X52838271Y-76563062D01*
X52853870Y-76564598D01*
X52959479Y-76575000D01*
X52959486Y-76575000D01*
X52999999Y-76578990D01*
X53040512Y-76575000D01*
X59904636Y-76575000D01*
X59913815Y-76586185D01*
X60039437Y-76689281D01*
X60182759Y-76765888D01*
X60302077Y-76802082D01*
X60338271Y-76813062D01*
X60353870Y-76814598D01*
X60459479Y-76825000D01*
X60459486Y-76825000D01*
X60499999Y-76828990D01*
X60540512Y-76825000D01*
X61459487Y-76825000D01*
X61500000Y-76828990D01*
X61540513Y-76825000D01*
X61540521Y-76825000D01*
X61661728Y-76813062D01*
X61817241Y-76765888D01*
X61960563Y-76689281D01*
X62086185Y-76586185D01*
X62112021Y-76554704D01*
X62304704Y-76362021D01*
X62336185Y-76336185D01*
X62439281Y-76210563D01*
X62505031Y-76087554D01*
X62605721Y-76057010D01*
X62709955Y-76001296D01*
X62801317Y-75926317D01*
X62876296Y-75834955D01*
X62932010Y-75730721D01*
X62966318Y-75617621D01*
X62977903Y-75500000D01*
X62977903Y-75000000D01*
X62966318Y-74882379D01*
X62932010Y-74769279D01*
X62876296Y-74665045D01*
X62850000Y-74633003D01*
X62850000Y-74116997D01*
X62876296Y-74084955D01*
X62932010Y-73980721D01*
X62966318Y-73867621D01*
X62977903Y-73750000D01*
X62977903Y-73475000D01*
X63022097Y-73475000D01*
X63022097Y-73750000D01*
X63033682Y-73867621D01*
X63067990Y-73980721D01*
X63123704Y-74084955D01*
X63150000Y-74116997D01*
X63150000Y-74633003D01*
X63123704Y-74665045D01*
X63067990Y-74769279D01*
X63033682Y-74882379D01*
X63022097Y-75000000D01*
X63022097Y-75500000D01*
X63033682Y-75617621D01*
X63067990Y-75730721D01*
X63123704Y-75834955D01*
X63198683Y-75926317D01*
X63281306Y-75994124D01*
X63250000Y-76151509D01*
X63250000Y-76348491D01*
X63288429Y-76541689D01*
X63363811Y-76723678D01*
X63473249Y-76887463D01*
X63612537Y-77026751D01*
X63776322Y-77136189D01*
X63958311Y-77211571D01*
X64151509Y-77250000D01*
X64348491Y-77250000D01*
X64541689Y-77211571D01*
X64723678Y-77136189D01*
X64887463Y-77026751D01*
X65026751Y-76887463D01*
X65136189Y-76723678D01*
X65211571Y-76541689D01*
X65250000Y-76348491D01*
X65250000Y-76151509D01*
X65218694Y-75994124D01*
X65301317Y-75926317D01*
X65376296Y-75834955D01*
X65432010Y-75730721D01*
X65466318Y-75617621D01*
X65477903Y-75500000D01*
X65477903Y-75000000D01*
X65466318Y-74882379D01*
X65432010Y-74769279D01*
X65376296Y-74665045D01*
X65350000Y-74633003D01*
X65350000Y-74116997D01*
X65376296Y-74084955D01*
X65432010Y-73980721D01*
X65466318Y-73867621D01*
X65477903Y-73750000D01*
X65477903Y-73250000D01*
X65466318Y-73132379D01*
X65440816Y-73048306D01*
X88987050Y-73048306D01*
X89075332Y-73315229D01*
X89349688Y-73470351D01*
X89649035Y-73568968D01*
X89961869Y-73607290D01*
X90276168Y-73583846D01*
X90579855Y-73499535D01*
X90861258Y-73357598D01*
X90924668Y-73315229D01*
X91012950Y-73048306D01*
X90000000Y-72035355D01*
X88987050Y-73048306D01*
X65440816Y-73048306D01*
X65432010Y-73019279D01*
X65376296Y-72915045D01*
X65301317Y-72823683D01*
X65209955Y-72748704D01*
X65105721Y-72692990D01*
X64992621Y-72658682D01*
X64883906Y-72647974D01*
X64855731Y-72595263D01*
X64765131Y-72484868D01*
X64737476Y-72462172D01*
X64537832Y-72262528D01*
X64515132Y-72234868D01*
X64404737Y-72144269D01*
X64278788Y-72076947D01*
X64142125Y-72035491D01*
X64035607Y-72025000D01*
X64035597Y-72025000D01*
X64000000Y-72021494D01*
X63964403Y-72025000D01*
X62035596Y-72025000D01*
X61999999Y-72021494D01*
X61964402Y-72025000D01*
X61964393Y-72025000D01*
X61857875Y-72035491D01*
X61750000Y-72068214D01*
X61642125Y-72035491D01*
X61535607Y-72025000D01*
X61535597Y-72025000D01*
X61500000Y-72021494D01*
X61464403Y-72025000D01*
X60939214Y-72025000D01*
X60887463Y-71973249D01*
X60740423Y-71875000D01*
X60815254Y-71825000D01*
X61459487Y-71825000D01*
X61500000Y-71828990D01*
X61540513Y-71825000D01*
X61540521Y-71825000D01*
X61661728Y-71813062D01*
X61817241Y-71765888D01*
X61960563Y-71689281D01*
X62086185Y-71586185D01*
X62112021Y-71554704D01*
X62304705Y-71362020D01*
X62336185Y-71336185D01*
X62439281Y-71210563D01*
X62505031Y-71087554D01*
X62605721Y-71057010D01*
X62709955Y-71001296D01*
X62801317Y-70926317D01*
X62876296Y-70834955D01*
X62932010Y-70730721D01*
X62966318Y-70617621D01*
X62977903Y-70500000D01*
X62977903Y-70000000D01*
X62966318Y-69882379D01*
X62932010Y-69769279D01*
X62876296Y-69665045D01*
X62850000Y-69633003D01*
X62850000Y-69116997D01*
X62876296Y-69084955D01*
X62932010Y-68980721D01*
X62966318Y-68867621D01*
X62977903Y-68750000D01*
X62977903Y-68475000D01*
X63022097Y-68475000D01*
X63022097Y-68750000D01*
X63033682Y-68867621D01*
X63067990Y-68980721D01*
X63123704Y-69084955D01*
X63150000Y-69116997D01*
X63150000Y-69633003D01*
X63123704Y-69665045D01*
X63067990Y-69769279D01*
X63033682Y-69882379D01*
X63022097Y-70000000D01*
X63022097Y-70500000D01*
X63033682Y-70617621D01*
X63067990Y-70730721D01*
X63123704Y-70834955D01*
X63198683Y-70926317D01*
X63250000Y-70968432D01*
X63250000Y-71098491D01*
X63288429Y-71291689D01*
X63363811Y-71473678D01*
X63473249Y-71637463D01*
X63612537Y-71776751D01*
X63776322Y-71886189D01*
X63958311Y-71961571D01*
X64151509Y-72000000D01*
X64348491Y-72000000D01*
X64540190Y-71961869D01*
X88392710Y-71961869D01*
X88416154Y-72276168D01*
X88500465Y-72579855D01*
X88642402Y-72861258D01*
X88684771Y-72924668D01*
X88951694Y-73012950D01*
X89964645Y-72000000D01*
X90035355Y-72000000D01*
X91048306Y-73012950D01*
X91315229Y-72924668D01*
X91470351Y-72650312D01*
X91568968Y-72350965D01*
X91607290Y-72038131D01*
X91583846Y-71723832D01*
X91499535Y-71420145D01*
X91357598Y-71138742D01*
X91315229Y-71075332D01*
X91048306Y-70987050D01*
X90035355Y-72000000D01*
X89964645Y-72000000D01*
X88951694Y-70987050D01*
X88684771Y-71075332D01*
X88529649Y-71349688D01*
X88431032Y-71649035D01*
X88392710Y-71961869D01*
X64540190Y-71961869D01*
X64541689Y-71961571D01*
X64723678Y-71886189D01*
X64887463Y-71776751D01*
X65026751Y-71637463D01*
X65136189Y-71473678D01*
X65211571Y-71291689D01*
X65250000Y-71098491D01*
X65250000Y-70968432D01*
X65270395Y-70951694D01*
X88987050Y-70951694D01*
X90000000Y-71964645D01*
X91012950Y-70951694D01*
X90924668Y-70684771D01*
X90650312Y-70529649D01*
X90350965Y-70431032D01*
X90038131Y-70392710D01*
X89723832Y-70416154D01*
X89420145Y-70500465D01*
X89138742Y-70642402D01*
X89075332Y-70684771D01*
X88987050Y-70951694D01*
X65270395Y-70951694D01*
X65301317Y-70926317D01*
X65376296Y-70834955D01*
X65432010Y-70730721D01*
X65466318Y-70617621D01*
X65477903Y-70500000D01*
X65477903Y-70000000D01*
X65466318Y-69882379D01*
X65432010Y-69769279D01*
X65376296Y-69665045D01*
X65350000Y-69633003D01*
X65350000Y-69116997D01*
X65376296Y-69084955D01*
X65432010Y-68980721D01*
X65466318Y-68867621D01*
X65477903Y-68750000D01*
X65477903Y-68250000D01*
X65466318Y-68132379D01*
X65432010Y-68019279D01*
X65421706Y-68000000D01*
X88397097Y-68000000D01*
X88408682Y-68117621D01*
X88442990Y-68230721D01*
X88498704Y-68334955D01*
X88573683Y-68426317D01*
X88665045Y-68501296D01*
X88769279Y-68557010D01*
X88882379Y-68591318D01*
X89000000Y-68602903D01*
X89825000Y-68600000D01*
X89975000Y-68450000D01*
X89975000Y-67025000D01*
X90025000Y-67025000D01*
X90025000Y-68450000D01*
X90175000Y-68600000D01*
X91000000Y-68602903D01*
X91117621Y-68591318D01*
X91230721Y-68557010D01*
X91334955Y-68501296D01*
X91426317Y-68426317D01*
X91501296Y-68334955D01*
X91557010Y-68230721D01*
X91591318Y-68117621D01*
X91602903Y-68000000D01*
X91600000Y-67175000D01*
X91450000Y-67025000D01*
X90025000Y-67025000D01*
X89975000Y-67025000D01*
X88550000Y-67025000D01*
X88400000Y-67175000D01*
X88397097Y-68000000D01*
X65421706Y-68000000D01*
X65376296Y-67915045D01*
X65301317Y-67823683D01*
X65209955Y-67748704D01*
X65105721Y-67692990D01*
X64992621Y-67658682D01*
X64883906Y-67647974D01*
X64855731Y-67595263D01*
X64765131Y-67484868D01*
X64737476Y-67462172D01*
X64537832Y-67262528D01*
X64515132Y-67234868D01*
X64404737Y-67144269D01*
X64278788Y-67076947D01*
X64142125Y-67035491D01*
X64035607Y-67025000D01*
X64035597Y-67025000D01*
X64000000Y-67021494D01*
X63964403Y-67025000D01*
X62035596Y-67025000D01*
X61999999Y-67021494D01*
X61964402Y-67025000D01*
X61964393Y-67025000D01*
X61883786Y-67032939D01*
X62304705Y-66612020D01*
X62336185Y-66586185D01*
X62439281Y-66460563D01*
X62509608Y-66328990D01*
X62515888Y-66317242D01*
X62563062Y-66161728D01*
X62567958Y-66112015D01*
X62572380Y-66067124D01*
X62605721Y-66057010D01*
X62709955Y-66001296D01*
X62711534Y-66000000D01*
X88397097Y-66000000D01*
X88400000Y-66825000D01*
X88550000Y-66975000D01*
X89975000Y-66975000D01*
X89975000Y-65550000D01*
X90025000Y-65550000D01*
X90025000Y-66975000D01*
X91450000Y-66975000D01*
X91600000Y-66825000D01*
X91602903Y-66000000D01*
X91591318Y-65882379D01*
X91557010Y-65769279D01*
X91501296Y-65665045D01*
X91426317Y-65573683D01*
X91334955Y-65498704D01*
X91230721Y-65442990D01*
X91117621Y-65408682D01*
X91000000Y-65397097D01*
X90175000Y-65400000D01*
X90025000Y-65550000D01*
X89975000Y-65550000D01*
X89825000Y-65400000D01*
X89000000Y-65397097D01*
X88882379Y-65408682D01*
X88769279Y-65442990D01*
X88665045Y-65498704D01*
X88573683Y-65573683D01*
X88498704Y-65665045D01*
X88442990Y-65769279D01*
X88408682Y-65882379D01*
X88397097Y-66000000D01*
X62711534Y-66000000D01*
X62801317Y-65926317D01*
X62876296Y-65834955D01*
X62932010Y-65730721D01*
X62966318Y-65617621D01*
X62977903Y-65500000D01*
X62977903Y-65000000D01*
X62966318Y-64882379D01*
X62932010Y-64769279D01*
X62876296Y-64665045D01*
X62850000Y-64633003D01*
X62850000Y-64116997D01*
X62876296Y-64084955D01*
X62932010Y-63980721D01*
X62966318Y-63867621D01*
X62977903Y-63750000D01*
X62975000Y-63675000D01*
X62825000Y-63525000D01*
X61775000Y-63525000D01*
X61775000Y-63545000D01*
X61725000Y-63545000D01*
X61725000Y-63525000D01*
X60675000Y-63525000D01*
X60525000Y-63675000D01*
X60522097Y-63750000D01*
X60533682Y-63867621D01*
X60567990Y-63980721D01*
X60623704Y-64084955D01*
X60650000Y-64116997D01*
X60650000Y-64633003D01*
X60623704Y-64665045D01*
X60567990Y-64769279D01*
X60533682Y-64882379D01*
X60522097Y-65000000D01*
X60522097Y-65034532D01*
X60433669Y-65016943D01*
X59862020Y-64445295D01*
X59836185Y-64413815D01*
X59710563Y-64310719D01*
X59567241Y-64234112D01*
X59411728Y-64186938D01*
X59290521Y-64175000D01*
X59290513Y-64175000D01*
X59250000Y-64171010D01*
X59209487Y-64175000D01*
X48841725Y-64175000D01*
X48825000Y-64158275D01*
X48825000Y-63250000D01*
X60522097Y-63250000D01*
X60525000Y-63325000D01*
X60675000Y-63475000D01*
X61725000Y-63475000D01*
X61725000Y-62800000D01*
X61775000Y-62800000D01*
X61775000Y-63475000D01*
X62825000Y-63475000D01*
X62975000Y-63325000D01*
X62977903Y-63250000D01*
X62966318Y-63132379D01*
X62932010Y-63019279D01*
X62876296Y-62915045D01*
X62801317Y-62823683D01*
X62709955Y-62748704D01*
X62605721Y-62692990D01*
X62492621Y-62658682D01*
X62375000Y-62647097D01*
X61925000Y-62650000D01*
X61775000Y-62800000D01*
X61725000Y-62800000D01*
X61575000Y-62650000D01*
X61125000Y-62647097D01*
X61007379Y-62658682D01*
X60894279Y-62692990D01*
X60790045Y-62748704D01*
X60698683Y-62823683D01*
X60623704Y-62915045D01*
X60567990Y-63019279D01*
X60533682Y-63132379D01*
X60522097Y-63250000D01*
X48825000Y-63250000D01*
X48825000Y-62573913D01*
X48882379Y-62591318D01*
X49000000Y-62602903D01*
X51000000Y-62602903D01*
X51117621Y-62591318D01*
X51230721Y-62557010D01*
X51334955Y-62501296D01*
X51426317Y-62426317D01*
X51501296Y-62334955D01*
X51557010Y-62230721D01*
X51591318Y-62117621D01*
X51602903Y-62000000D01*
X51602903Y-60901509D01*
X82500000Y-60901509D01*
X82500000Y-61098491D01*
X82538429Y-61291689D01*
X82613811Y-61473678D01*
X82723249Y-61637463D01*
X82862537Y-61776751D01*
X83026322Y-61886189D01*
X83208311Y-61961571D01*
X83401509Y-62000000D01*
X83598491Y-62000000D01*
X83791689Y-61961571D01*
X83973678Y-61886189D01*
X84137463Y-61776751D01*
X84189214Y-61725000D01*
X84406946Y-61725000D01*
X84408682Y-61742621D01*
X84442990Y-61855721D01*
X84498704Y-61959955D01*
X84573683Y-62051317D01*
X84665045Y-62126296D01*
X84769279Y-62182010D01*
X84882379Y-62216318D01*
X85000000Y-62227903D01*
X85500000Y-62227903D01*
X85617621Y-62216318D01*
X85730721Y-62182010D01*
X85834955Y-62126296D01*
X85866997Y-62100000D01*
X86383003Y-62100000D01*
X86415045Y-62126296D01*
X86519279Y-62182010D01*
X86632379Y-62216318D01*
X86750000Y-62227903D01*
X87250000Y-62227903D01*
X87367621Y-62216318D01*
X87480721Y-62182010D01*
X87584955Y-62126296D01*
X87676317Y-62051317D01*
X87751296Y-61959955D01*
X87807010Y-61855721D01*
X87841318Y-61742621D01*
X87843054Y-61725000D01*
X88568477Y-61725000D01*
X88582098Y-61757884D01*
X88757199Y-62019941D01*
X88980059Y-62242801D01*
X89242116Y-62417902D01*
X89533297Y-62538513D01*
X89842414Y-62600000D01*
X90157586Y-62600000D01*
X90466703Y-62538513D01*
X90757884Y-62417902D01*
X91019941Y-62242801D01*
X91242801Y-62019941D01*
X91417902Y-61757884D01*
X91538513Y-61466703D01*
X91600000Y-61157586D01*
X91600000Y-60842414D01*
X91538513Y-60533297D01*
X91417902Y-60242116D01*
X91242801Y-59980059D01*
X91019941Y-59757199D01*
X90757884Y-59582098D01*
X90466703Y-59461487D01*
X90157586Y-59400000D01*
X89842414Y-59400000D01*
X89533297Y-59461487D01*
X89242116Y-59582098D01*
X88980059Y-59757199D01*
X88757199Y-59980059D01*
X88582098Y-60242116D01*
X88568477Y-60275000D01*
X87843054Y-60275000D01*
X87841318Y-60257379D01*
X87807010Y-60144279D01*
X87751296Y-60040045D01*
X87676317Y-59948683D01*
X87584955Y-59873704D01*
X87480721Y-59817990D01*
X87367621Y-59783682D01*
X87250000Y-59772097D01*
X86750000Y-59772097D01*
X86632379Y-59783682D01*
X86519279Y-59817990D01*
X86415045Y-59873704D01*
X86383003Y-59900000D01*
X85866997Y-59900000D01*
X85834955Y-59873704D01*
X85730721Y-59817990D01*
X85617621Y-59783682D01*
X85500000Y-59772097D01*
X85000000Y-59772097D01*
X84882379Y-59783682D01*
X84769279Y-59817990D01*
X84665045Y-59873704D01*
X84573683Y-59948683D01*
X84498704Y-60040045D01*
X84442990Y-60144279D01*
X84408682Y-60257379D01*
X84406946Y-60275000D01*
X84189214Y-60275000D01*
X84137463Y-60223249D01*
X83973678Y-60113811D01*
X83791689Y-60038429D01*
X83598491Y-60000000D01*
X83401509Y-60000000D01*
X83208311Y-60038429D01*
X83026322Y-60113811D01*
X82862537Y-60223249D01*
X82723249Y-60362537D01*
X82613811Y-60526322D01*
X82538429Y-60708311D01*
X82500000Y-60901509D01*
X51602903Y-60901509D01*
X51602903Y-60000000D01*
X51591318Y-59882379D01*
X51557010Y-59769279D01*
X51501296Y-59665045D01*
X51426317Y-59573683D01*
X51334955Y-59498704D01*
X51230721Y-59442990D01*
X51117621Y-59408682D01*
X51000000Y-59397097D01*
X49000000Y-59397097D01*
X48882379Y-59408682D01*
X48769279Y-59442990D01*
X48665045Y-59498704D01*
X48573683Y-59573683D01*
X48498704Y-59665045D01*
X48442990Y-59769279D01*
X48408682Y-59882379D01*
X48397097Y-60000000D01*
X48397097Y-60181144D01*
X48338272Y-60186938D01*
X48182758Y-60234112D01*
X48139229Y-60257379D01*
X48039437Y-60310719D01*
X47913815Y-60413815D01*
X47887979Y-60445296D01*
X47445291Y-60887984D01*
X47413816Y-60913815D01*
X47310720Y-61039437D01*
X47290671Y-61076947D01*
X47234113Y-61182759D01*
X47186938Y-61338272D01*
X47171010Y-61500000D01*
X46100000Y-61500000D01*
X46100000Y-55842414D01*
X48400000Y-55842414D01*
X48400000Y-56157586D01*
X48461487Y-56466703D01*
X48582098Y-56757884D01*
X48757199Y-57019941D01*
X48980059Y-57242801D01*
X49242116Y-57417902D01*
X49533297Y-57538513D01*
X49842414Y-57600000D01*
X50157586Y-57600000D01*
X50466703Y-57538513D01*
X50757884Y-57417902D01*
X51019941Y-57242801D01*
X51242801Y-57019941D01*
X51417902Y-56757884D01*
X51538513Y-56466703D01*
X51600000Y-56157586D01*
X51600000Y-55901509D01*
X82500000Y-55901509D01*
X82500000Y-56098491D01*
X82538429Y-56291689D01*
X82613811Y-56473678D01*
X82723249Y-56637463D01*
X82862537Y-56776751D01*
X83026322Y-56886189D01*
X83208311Y-56961571D01*
X83401509Y-57000000D01*
X83598491Y-57000000D01*
X83791689Y-56961571D01*
X83973678Y-56886189D01*
X84137463Y-56776751D01*
X84189214Y-56725000D01*
X84406946Y-56725000D01*
X84408682Y-56742621D01*
X84442990Y-56855721D01*
X84498704Y-56959955D01*
X84573683Y-57051317D01*
X84665045Y-57126296D01*
X84769279Y-57182010D01*
X84882379Y-57216318D01*
X85000000Y-57227903D01*
X85500000Y-57227903D01*
X85617621Y-57216318D01*
X85730721Y-57182010D01*
X85834955Y-57126296D01*
X85866997Y-57100000D01*
X86383003Y-57100000D01*
X86415045Y-57126296D01*
X86519279Y-57182010D01*
X86632379Y-57216318D01*
X86750000Y-57227903D01*
X87250000Y-57227903D01*
X87367621Y-57216318D01*
X87480721Y-57182010D01*
X87584955Y-57126296D01*
X87676317Y-57051317D01*
X87751296Y-56959955D01*
X87807010Y-56855721D01*
X87841318Y-56742621D01*
X87843054Y-56725000D01*
X88397097Y-56725000D01*
X88397097Y-57000000D01*
X88408682Y-57117621D01*
X88442990Y-57230721D01*
X88498704Y-57334955D01*
X88573683Y-57426317D01*
X88665045Y-57501296D01*
X88769279Y-57557010D01*
X88882379Y-57591318D01*
X89000000Y-57602903D01*
X91000000Y-57602903D01*
X91117621Y-57591318D01*
X91230721Y-57557010D01*
X91334955Y-57501296D01*
X91426317Y-57426317D01*
X91501296Y-57334955D01*
X91557010Y-57230721D01*
X91591318Y-57117621D01*
X91602903Y-57000000D01*
X91602903Y-55000000D01*
X91591318Y-54882379D01*
X91557010Y-54769279D01*
X91501296Y-54665045D01*
X91426317Y-54573683D01*
X91334955Y-54498704D01*
X91230721Y-54442990D01*
X91117621Y-54408682D01*
X91000000Y-54397097D01*
X89000000Y-54397097D01*
X88882379Y-54408682D01*
X88769279Y-54442990D01*
X88665045Y-54498704D01*
X88573683Y-54573683D01*
X88498704Y-54665045D01*
X88442990Y-54769279D01*
X88408682Y-54882379D01*
X88397097Y-55000000D01*
X88397097Y-55275000D01*
X87843054Y-55275000D01*
X87841318Y-55257379D01*
X87807010Y-55144279D01*
X87751296Y-55040045D01*
X87676317Y-54948683D01*
X87584955Y-54873704D01*
X87480721Y-54817990D01*
X87367621Y-54783682D01*
X87250000Y-54772097D01*
X86750000Y-54772097D01*
X86632379Y-54783682D01*
X86519279Y-54817990D01*
X86415045Y-54873704D01*
X86383003Y-54900000D01*
X85866997Y-54900000D01*
X85834955Y-54873704D01*
X85730721Y-54817990D01*
X85617621Y-54783682D01*
X85500000Y-54772097D01*
X85000000Y-54772097D01*
X84882379Y-54783682D01*
X84769279Y-54817990D01*
X84665045Y-54873704D01*
X84573683Y-54948683D01*
X84498704Y-55040045D01*
X84442990Y-55144279D01*
X84408682Y-55257379D01*
X84406946Y-55275000D01*
X84189214Y-55275000D01*
X84137463Y-55223249D01*
X83973678Y-55113811D01*
X83791689Y-55038429D01*
X83598491Y-55000000D01*
X83401509Y-55000000D01*
X83208311Y-55038429D01*
X83026322Y-55113811D01*
X82862537Y-55223249D01*
X82723249Y-55362537D01*
X82613811Y-55526322D01*
X82538429Y-55708311D01*
X82500000Y-55901509D01*
X51600000Y-55901509D01*
X51600000Y-55842414D01*
X51538513Y-55533297D01*
X51417902Y-55242116D01*
X51242801Y-54980059D01*
X51019941Y-54757199D01*
X50757884Y-54582098D01*
X50466703Y-54461487D01*
X50157586Y-54400000D01*
X49842414Y-54400000D01*
X49533297Y-54461487D01*
X49242116Y-54582098D01*
X48980059Y-54757199D01*
X48757199Y-54980059D01*
X48582098Y-55242116D01*
X48461487Y-55533297D01*
X48400000Y-55842414D01*
X46100000Y-55842414D01*
X46100000Y-50000000D01*
X48397097Y-50000000D01*
X48397097Y-52000000D01*
X48408682Y-52117621D01*
X48442990Y-52230721D01*
X48498704Y-52334955D01*
X48573683Y-52426317D01*
X48665045Y-52501296D01*
X48769279Y-52557010D01*
X48882379Y-52591318D01*
X49000000Y-52602903D01*
X51000000Y-52602903D01*
X51117621Y-52591318D01*
X51230721Y-52557010D01*
X51334955Y-52501296D01*
X51426317Y-52426317D01*
X51501296Y-52334955D01*
X51557010Y-52230721D01*
X51591318Y-52117621D01*
X51602903Y-52000000D01*
X51602903Y-51825000D01*
X53408275Y-51825000D01*
X55912985Y-54329711D01*
X55938816Y-54361186D01*
X56064438Y-54464282D01*
X56207760Y-54540889D01*
X56315868Y-54573683D01*
X56363272Y-54588063D01*
X56378871Y-54589599D01*
X56484480Y-54600001D01*
X56484487Y-54600001D01*
X56525000Y-54603991D01*
X56565513Y-54600001D01*
X61184486Y-54600001D01*
X61224999Y-54603991D01*
X61265512Y-54600001D01*
X61265520Y-54600001D01*
X61386727Y-54588063D01*
X61542240Y-54540889D01*
X61685562Y-54464282D01*
X61811184Y-54361186D01*
X61837020Y-54329706D01*
X62433668Y-53733057D01*
X62541689Y-53711571D01*
X62723678Y-53636189D01*
X62887463Y-53526751D01*
X63026751Y-53387463D01*
X63136189Y-53223678D01*
X63211571Y-53041689D01*
X63250000Y-52848491D01*
X63250000Y-52651509D01*
X63211571Y-52458311D01*
X63136189Y-52276322D01*
X63075000Y-52184746D01*
X63075000Y-49816329D01*
X63105721Y-49807010D01*
X63209955Y-49751296D01*
X63301317Y-49676317D01*
X63375000Y-49586534D01*
X63448683Y-49676317D01*
X63540045Y-49751296D01*
X63644279Y-49807010D01*
X63757379Y-49841318D01*
X63775000Y-49843054D01*
X63775000Y-50310786D01*
X63723249Y-50362537D01*
X63613811Y-50526322D01*
X63538429Y-50708311D01*
X63500000Y-50901509D01*
X63500000Y-51098491D01*
X63538429Y-51291689D01*
X63613811Y-51473678D01*
X63723249Y-51637463D01*
X63862537Y-51776751D01*
X64026322Y-51886189D01*
X64208311Y-51961571D01*
X64401509Y-52000000D01*
X64598491Y-52000000D01*
X64791689Y-51961571D01*
X64973678Y-51886189D01*
X65137463Y-51776751D01*
X65189214Y-51725000D01*
X67272097Y-51725000D01*
X67272097Y-52000000D01*
X67283682Y-52117621D01*
X67317990Y-52230721D01*
X67373704Y-52334955D01*
X67400000Y-52366997D01*
X67400000Y-52883003D01*
X67373704Y-52915045D01*
X67317990Y-53019279D01*
X67283682Y-53132379D01*
X67272097Y-53250000D01*
X67272097Y-53750000D01*
X67283682Y-53867621D01*
X67317990Y-53980721D01*
X67373704Y-54084955D01*
X67448683Y-54176317D01*
X67531306Y-54244124D01*
X67500000Y-54401509D01*
X67500000Y-54598491D01*
X67538429Y-54791689D01*
X67613811Y-54973678D01*
X67723249Y-55137463D01*
X67862537Y-55276751D01*
X68026322Y-55386189D01*
X68208311Y-55461571D01*
X68401509Y-55500000D01*
X68598491Y-55500000D01*
X68791689Y-55461571D01*
X68973678Y-55386189D01*
X69137463Y-55276751D01*
X69276751Y-55137463D01*
X69386189Y-54973678D01*
X69461571Y-54791689D01*
X69500000Y-54598491D01*
X69500000Y-54401509D01*
X69468694Y-54244124D01*
X69551317Y-54176317D01*
X69626296Y-54084955D01*
X69682010Y-53980721D01*
X69716318Y-53867621D01*
X69727903Y-53750000D01*
X69727903Y-53250000D01*
X69716318Y-53132379D01*
X69682010Y-53019279D01*
X69626296Y-52915045D01*
X69600000Y-52883003D01*
X69600000Y-52366997D01*
X69626296Y-52334955D01*
X69682010Y-52230721D01*
X69716318Y-52117621D01*
X69727903Y-52000000D01*
X69727903Y-51500000D01*
X69716318Y-51382379D01*
X69682010Y-51269279D01*
X69626296Y-51165045D01*
X69551317Y-51073683D01*
X69459955Y-50998704D01*
X69355721Y-50942990D01*
X69242621Y-50908682D01*
X69133906Y-50897974D01*
X69105731Y-50845263D01*
X69051176Y-50778788D01*
X69037830Y-50762526D01*
X69037828Y-50762524D01*
X69015131Y-50734868D01*
X68987476Y-50712172D01*
X68787830Y-50512526D01*
X68777551Y-50500000D01*
X68787832Y-50487472D01*
X68987476Y-50287828D01*
X69015131Y-50265132D01*
X69039969Y-50234868D01*
X69089101Y-50175000D01*
X69105731Y-50154737D01*
X69173053Y-50028788D01*
X69214509Y-49892125D01*
X69219287Y-49843616D01*
X69242621Y-49841318D01*
X69355721Y-49807010D01*
X69459955Y-49751296D01*
X69551317Y-49676317D01*
X69626296Y-49584955D01*
X69682010Y-49480721D01*
X69716318Y-49367621D01*
X69727903Y-49250000D01*
X69727903Y-48750000D01*
X69716318Y-48632379D01*
X69682010Y-48519279D01*
X69626296Y-48415045D01*
X69600000Y-48383003D01*
X69600000Y-47866997D01*
X69626296Y-47834955D01*
X69682010Y-47730721D01*
X69716318Y-47617621D01*
X69727903Y-47500000D01*
X69725000Y-47425000D01*
X69575000Y-47275000D01*
X68525000Y-47275000D01*
X68525000Y-47295000D01*
X68475000Y-47295000D01*
X68475000Y-47275000D01*
X67474176Y-47275000D01*
X67348491Y-47250000D01*
X67151509Y-47250000D01*
X66958311Y-47288429D01*
X66776322Y-47363811D01*
X66612537Y-47473249D01*
X66473249Y-47612537D01*
X66363811Y-47776322D01*
X66288429Y-47958311D01*
X66250000Y-48151509D01*
X66250000Y-48348491D01*
X66288429Y-48541689D01*
X66363811Y-48723678D01*
X66473249Y-48887463D01*
X66525000Y-48939214D01*
X66525001Y-49714393D01*
X66521494Y-49750000D01*
X66525001Y-49785606D01*
X66525001Y-49785607D01*
X66535492Y-49892125D01*
X66548067Y-49933580D01*
X66576947Y-50028787D01*
X66644269Y-50154736D01*
X66712170Y-50237474D01*
X66712173Y-50237477D01*
X66734869Y-50265132D01*
X66746893Y-50275000D01*
X65225000Y-50275000D01*
X65225000Y-49843054D01*
X65242621Y-49841318D01*
X65355721Y-49807010D01*
X65459955Y-49751296D01*
X65551317Y-49676317D01*
X65626296Y-49584955D01*
X65682010Y-49480721D01*
X65716318Y-49367621D01*
X65727903Y-49250000D01*
X65727903Y-48750000D01*
X65716318Y-48632379D01*
X65682010Y-48519279D01*
X65626296Y-48415045D01*
X65600000Y-48383003D01*
X65600000Y-47866997D01*
X65626296Y-47834955D01*
X65682010Y-47730721D01*
X65716318Y-47617621D01*
X65727903Y-47500000D01*
X65725000Y-47425000D01*
X65575000Y-47275000D01*
X64525000Y-47275000D01*
X64525000Y-47295000D01*
X64475000Y-47295000D01*
X64475000Y-47275000D01*
X63425000Y-47275000D01*
X63375000Y-47325000D01*
X63325000Y-47275000D01*
X62275000Y-47275000D01*
X62275000Y-47295000D01*
X62225000Y-47295000D01*
X62225000Y-47275000D01*
X61175000Y-47275000D01*
X61125000Y-47325000D01*
X61075000Y-47275000D01*
X60025000Y-47275000D01*
X60025000Y-47295000D01*
X59975000Y-47295000D01*
X59975000Y-47275000D01*
X58925000Y-47275000D01*
X58775000Y-47425000D01*
X58772097Y-47500000D01*
X58783682Y-47617621D01*
X58817990Y-47730721D01*
X58873704Y-47834955D01*
X58900000Y-47866997D01*
X58900000Y-48383003D01*
X58873704Y-48415045D01*
X58817990Y-48519279D01*
X58783682Y-48632379D01*
X58772097Y-48750000D01*
X58772097Y-49250000D01*
X58783682Y-49367621D01*
X58817990Y-49480721D01*
X58873704Y-49584955D01*
X58948683Y-49676317D01*
X59040045Y-49751296D01*
X59144279Y-49807010D01*
X59257379Y-49841318D01*
X59275000Y-49843054D01*
X59275001Y-52060785D01*
X59223249Y-52112537D01*
X59113811Y-52276322D01*
X59038429Y-52458311D01*
X59000000Y-52651509D01*
X59000000Y-52848491D01*
X59020191Y-52950001D01*
X56866727Y-52950001D01*
X54362021Y-50445296D01*
X54336185Y-50413815D01*
X54210563Y-50310719D01*
X54067241Y-50234112D01*
X53911728Y-50186938D01*
X53790521Y-50175000D01*
X53790513Y-50175000D01*
X53750000Y-50171010D01*
X53709487Y-50175000D01*
X51602903Y-50175000D01*
X51602903Y-50000000D01*
X51591318Y-49882379D01*
X51557010Y-49769279D01*
X51501296Y-49665045D01*
X51426317Y-49573683D01*
X51334955Y-49498704D01*
X51230721Y-49442990D01*
X51117621Y-49408682D01*
X51000000Y-49397097D01*
X49000000Y-49397097D01*
X48882379Y-49408682D01*
X48769279Y-49442990D01*
X48665045Y-49498704D01*
X48573683Y-49573683D01*
X48498704Y-49665045D01*
X48442990Y-49769279D01*
X48408682Y-49882379D01*
X48397097Y-50000000D01*
X46100000Y-50000000D01*
X46100000Y-45842414D01*
X48400000Y-45842414D01*
X48400000Y-46157586D01*
X48461487Y-46466703D01*
X48582098Y-46757884D01*
X48757199Y-47019941D01*
X48980059Y-47242801D01*
X49242116Y-47417902D01*
X49533297Y-47538513D01*
X49842414Y-47600000D01*
X50157586Y-47600000D01*
X50466703Y-47538513D01*
X50757884Y-47417902D01*
X51019941Y-47242801D01*
X51242801Y-47019941D01*
X51256125Y-47000000D01*
X58772097Y-47000000D01*
X58775000Y-47075000D01*
X58925000Y-47225000D01*
X59975000Y-47225000D01*
X59975000Y-46550000D01*
X60025000Y-46550000D01*
X60025000Y-47225000D01*
X61075000Y-47225000D01*
X61125000Y-47175000D01*
X61175000Y-47225000D01*
X62225000Y-47225000D01*
X62225000Y-46550000D01*
X62275000Y-46550000D01*
X62275000Y-47225000D01*
X63325000Y-47225000D01*
X63375000Y-47175000D01*
X63425000Y-47225000D01*
X64475000Y-47225000D01*
X64475000Y-46550000D01*
X64525000Y-46550000D01*
X64525000Y-47225000D01*
X65575000Y-47225000D01*
X65725000Y-47075000D01*
X65727903Y-47000000D01*
X67272097Y-47000000D01*
X67275000Y-47075000D01*
X67425000Y-47225000D01*
X68475000Y-47225000D01*
X68475000Y-46550000D01*
X68525000Y-46550000D01*
X68525000Y-47225000D01*
X69575000Y-47225000D01*
X69725000Y-47075000D01*
X69727903Y-47000000D01*
X69716318Y-46882379D01*
X69682010Y-46769279D01*
X69626296Y-46665045D01*
X69551317Y-46573683D01*
X69459955Y-46498704D01*
X69355721Y-46442990D01*
X69242621Y-46408682D01*
X69125000Y-46397097D01*
X68675000Y-46400000D01*
X68525000Y-46550000D01*
X68475000Y-46550000D01*
X68325000Y-46400000D01*
X67875000Y-46397097D01*
X67757379Y-46408682D01*
X67644279Y-46442990D01*
X67540045Y-46498704D01*
X67448683Y-46573683D01*
X67373704Y-46665045D01*
X67317990Y-46769279D01*
X67283682Y-46882379D01*
X67272097Y-47000000D01*
X65727903Y-47000000D01*
X65716318Y-46882379D01*
X65682010Y-46769279D01*
X65626296Y-46665045D01*
X65551317Y-46573683D01*
X65459955Y-46498704D01*
X65355721Y-46442990D01*
X65242621Y-46408682D01*
X65125000Y-46397097D01*
X64675000Y-46400000D01*
X64525000Y-46550000D01*
X64475000Y-46550000D01*
X64325000Y-46400000D01*
X63875000Y-46397097D01*
X63757379Y-46408682D01*
X63644279Y-46442990D01*
X63540045Y-46498704D01*
X63448683Y-46573683D01*
X63375000Y-46663466D01*
X63301317Y-46573683D01*
X63209955Y-46498704D01*
X63105721Y-46442990D01*
X62992621Y-46408682D01*
X62875000Y-46397097D01*
X62425000Y-46400000D01*
X62275000Y-46550000D01*
X62225000Y-46550000D01*
X62075000Y-46400000D01*
X61625000Y-46397097D01*
X61507379Y-46408682D01*
X61394279Y-46442990D01*
X61290045Y-46498704D01*
X61198683Y-46573683D01*
X61125000Y-46663466D01*
X61051317Y-46573683D01*
X60959955Y-46498704D01*
X60855721Y-46442990D01*
X60742621Y-46408682D01*
X60625000Y-46397097D01*
X60175000Y-46400000D01*
X60025000Y-46550000D01*
X59975000Y-46550000D01*
X59825000Y-46400000D01*
X59375000Y-46397097D01*
X59257379Y-46408682D01*
X59144279Y-46442990D01*
X59040045Y-46498704D01*
X58948683Y-46573683D01*
X58873704Y-46665045D01*
X58817990Y-46769279D01*
X58783682Y-46882379D01*
X58772097Y-47000000D01*
X51256125Y-47000000D01*
X51417902Y-46757884D01*
X51538513Y-46466703D01*
X51600000Y-46157586D01*
X51600000Y-45842414D01*
X51538513Y-45533297D01*
X51417902Y-45242116D01*
X51242801Y-44980059D01*
X51019941Y-44757199D01*
X50757884Y-44582098D01*
X50466703Y-44461487D01*
X50157586Y-44400000D01*
X49842414Y-44400000D01*
X49533297Y-44461487D01*
X49242116Y-44582098D01*
X48980059Y-44757199D01*
X48757199Y-44980059D01*
X48582098Y-45242116D01*
X48461487Y-45533297D01*
X48400000Y-45842414D01*
X46100000Y-45842414D01*
X46100000Y-43850000D01*
X70775000Y-43850000D01*
X70775001Y-44964393D01*
M02*
