G04 #@! TF.GenerationSoftware,KiCad,Pcbnew,(5.1.2-1)-1*
G04 #@! TF.CreationDate,2019-10-21T00:17:46+03:00*
G04 #@! TF.ProjectId,uaf0,75616630-2e6b-4696-9361-645f70636258,rev?*
G04 #@! TF.SameCoordinates,Original*
G04 #@! TF.FileFunction,Soldermask,Top*
G04 #@! TF.FilePolarity,Negative*
%FSLAX46Y46*%
G04 Gerber Fmt 4.6, Leading zero omitted, Abs format (unit mm)*
G04 Created by KiCad (PCBNEW (5.1.2-1)-1) date 2019-10-21 00:17:46*
%MOMM*%
%LPD*%
G04 APERTURE LIST*
%ADD10C,0.100000*%
G04 APERTURE END LIST*
D10*
G36*
X95000000Y-96500000D02*
G01*
X45000000Y-96500000D01*
X45000000Y-95500000D01*
X95000000Y-95500000D01*
X95000000Y-96500000D01*
G37*
X95000000Y-96500000D02*
X45000000Y-96500000D01*
X45000000Y-95500000D01*
X95000000Y-95500000D01*
X95000000Y-96500000D01*
G36*
X95000000Y-42500000D02*
G01*
X45000000Y-42500000D01*
X45000000Y-41500000D01*
X95000000Y-41500000D01*
X95000000Y-42500000D01*
G37*
X95000000Y-42500000D02*
X45000000Y-42500000D01*
X45000000Y-41500000D01*
X95000000Y-41500000D01*
X95000000Y-42500000D01*
G36*
X90306564Y-90989389D02*
G01*
X90497833Y-91068615D01*
X90497835Y-91068616D01*
X90669973Y-91183635D01*
X90816365Y-91330027D01*
X90931385Y-91502167D01*
X91010611Y-91693436D01*
X91051000Y-91896484D01*
X91051000Y-92103516D01*
X91010611Y-92306564D01*
X90931385Y-92497833D01*
X90931384Y-92497835D01*
X90816365Y-92669973D01*
X90669973Y-92816365D01*
X90497835Y-92931384D01*
X90497834Y-92931385D01*
X90497833Y-92931385D01*
X90306564Y-93010611D01*
X90103516Y-93051000D01*
X89896484Y-93051000D01*
X89693436Y-93010611D01*
X89502167Y-92931385D01*
X89502166Y-92931385D01*
X89502165Y-92931384D01*
X89330027Y-92816365D01*
X89183635Y-92669973D01*
X89068616Y-92497835D01*
X89068615Y-92497833D01*
X88989389Y-92306564D01*
X88949000Y-92103516D01*
X88949000Y-91896484D01*
X88989389Y-91693436D01*
X89068615Y-91502167D01*
X89183635Y-91330027D01*
X89330027Y-91183635D01*
X89502165Y-91068616D01*
X89502167Y-91068615D01*
X89693436Y-90989389D01*
X89896484Y-90949000D01*
X90103516Y-90949000D01*
X90306564Y-90989389D01*
X90306564Y-90989389D01*
G37*
G36*
X67576000Y-91801000D02*
G01*
X61324000Y-91801000D01*
X61324000Y-90199000D01*
X67576000Y-90199000D01*
X67576000Y-91801000D01*
X67576000Y-91801000D01*
G37*
G36*
X60751000Y-89626000D02*
G01*
X59149000Y-89626000D01*
X59149000Y-83374000D01*
X60751000Y-83374000D01*
X60751000Y-89626000D01*
X60751000Y-89626000D01*
G37*
G36*
X69801000Y-89626000D02*
G01*
X68199000Y-89626000D01*
X68199000Y-83374000D01*
X69801000Y-83374000D01*
X69801000Y-89626000D01*
X69801000Y-89626000D01*
G37*
G36*
X74801000Y-89301000D02*
G01*
X73699000Y-89301000D01*
X73699000Y-88199000D01*
X74801000Y-88199000D01*
X74801000Y-89301000D01*
X74801000Y-89301000D01*
G37*
G36*
X73301000Y-89301000D02*
G01*
X72199000Y-89301000D01*
X72199000Y-88199000D01*
X73301000Y-88199000D01*
X73301000Y-89301000D01*
X73301000Y-89301000D01*
G37*
G36*
X91051000Y-88051000D02*
G01*
X88949000Y-88051000D01*
X88949000Y-85949000D01*
X91051000Y-85949000D01*
X91051000Y-88051000D01*
X91051000Y-88051000D01*
G37*
G36*
X51441000Y-85231000D02*
G01*
X49639000Y-85231000D01*
X49639000Y-83429000D01*
X51441000Y-83429000D01*
X51441000Y-85231000D01*
X51441000Y-85231000D01*
G37*
G36*
X48901000Y-85231000D02*
G01*
X47099000Y-85231000D01*
X47099000Y-83429000D01*
X48901000Y-83429000D01*
X48901000Y-85231000D01*
X48901000Y-85231000D01*
G37*
G36*
X83201000Y-83151000D02*
G01*
X81999000Y-83151000D01*
X81999000Y-82249000D01*
X83201000Y-82249000D01*
X83201000Y-83151000D01*
X83201000Y-83151000D01*
G37*
G36*
X90306564Y-80989389D02*
G01*
X90497833Y-81068615D01*
X90497835Y-81068616D01*
X90669973Y-81183635D01*
X90816365Y-81330027D01*
X90931385Y-81502167D01*
X91010611Y-81693436D01*
X91051000Y-81896484D01*
X91051000Y-82103516D01*
X91010611Y-82306564D01*
X90931385Y-82497833D01*
X90931384Y-82497835D01*
X90816365Y-82669973D01*
X90669973Y-82816365D01*
X90497835Y-82931384D01*
X90497834Y-82931385D01*
X90497833Y-82931385D01*
X90306564Y-83010611D01*
X90103516Y-83051000D01*
X89896484Y-83051000D01*
X89693436Y-83010611D01*
X89502167Y-82931385D01*
X89502166Y-82931385D01*
X89502165Y-82931384D01*
X89330027Y-82816365D01*
X89183635Y-82669973D01*
X89068616Y-82497835D01*
X89068615Y-82497833D01*
X88989389Y-82306564D01*
X88949000Y-82103516D01*
X88949000Y-81896484D01*
X88989389Y-81693436D01*
X89068615Y-81502167D01*
X89183635Y-81330027D01*
X89330027Y-81183635D01*
X89502165Y-81068616D01*
X89502167Y-81068615D01*
X89693436Y-80989389D01*
X89896484Y-80949000D01*
X90103516Y-80949000D01*
X90306564Y-80989389D01*
X90306564Y-80989389D01*
G37*
G36*
X67576000Y-82801000D02*
G01*
X61324000Y-82801000D01*
X61324000Y-81199000D01*
X67576000Y-81199000D01*
X67576000Y-82801000D01*
X67576000Y-82801000D01*
G37*
G36*
X51441000Y-82691000D02*
G01*
X49639000Y-82691000D01*
X49639000Y-80889000D01*
X51441000Y-80889000D01*
X51441000Y-82691000D01*
X51441000Y-82691000D01*
G37*
G36*
X48901000Y-82691000D02*
G01*
X47099000Y-82691000D01*
X47099000Y-80889000D01*
X48901000Y-80889000D01*
X48901000Y-82691000D01*
X48901000Y-82691000D01*
G37*
G36*
X81001000Y-82201000D02*
G01*
X79799000Y-82201000D01*
X79799000Y-81299000D01*
X81001000Y-81299000D01*
X81001000Y-82201000D01*
X81001000Y-82201000D01*
G37*
G36*
X83201000Y-81251000D02*
G01*
X81999000Y-81251000D01*
X81999000Y-80349000D01*
X83201000Y-80349000D01*
X83201000Y-81251000D01*
X83201000Y-81251000D01*
G37*
G36*
X51441000Y-80151000D02*
G01*
X49639000Y-80151000D01*
X49639000Y-78349000D01*
X51441000Y-78349000D01*
X51441000Y-80151000D01*
X51441000Y-80151000D01*
G37*
G36*
X48113512Y-78353927D02*
G01*
X48262812Y-78383624D01*
X48426784Y-78451544D01*
X48574354Y-78550147D01*
X48699853Y-78675646D01*
X48798456Y-78823216D01*
X48866376Y-78987188D01*
X48901000Y-79161259D01*
X48901000Y-79338741D01*
X48866376Y-79512812D01*
X48798456Y-79676784D01*
X48699853Y-79824354D01*
X48574354Y-79949853D01*
X48426784Y-80048456D01*
X48262812Y-80116376D01*
X48113512Y-80146073D01*
X48088742Y-80151000D01*
X47911258Y-80151000D01*
X47886488Y-80146073D01*
X47737188Y-80116376D01*
X47573216Y-80048456D01*
X47425646Y-79949853D01*
X47300147Y-79824354D01*
X47201544Y-79676784D01*
X47133624Y-79512812D01*
X47099000Y-79338741D01*
X47099000Y-79161259D01*
X47133624Y-78987188D01*
X47201544Y-78823216D01*
X47300147Y-78675646D01*
X47425646Y-78550147D01*
X47573216Y-78451544D01*
X47737188Y-78383624D01*
X47886488Y-78353927D01*
X47911258Y-78349000D01*
X48088742Y-78349000D01*
X48113512Y-78353927D01*
X48113512Y-78353927D01*
G37*
G36*
X83201000Y-78151000D02*
G01*
X81999000Y-78151000D01*
X81999000Y-77249000D01*
X83201000Y-77249000D01*
X83201000Y-78151000D01*
X83201000Y-78151000D01*
G37*
G36*
X91051000Y-78051000D02*
G01*
X88949000Y-78051000D01*
X88949000Y-75949000D01*
X91051000Y-75949000D01*
X91051000Y-78051000D01*
X91051000Y-78051000D01*
G37*
G36*
X81001000Y-77201000D02*
G01*
X79799000Y-77201000D01*
X79799000Y-76299000D01*
X81001000Y-76299000D01*
X81001000Y-77201000D01*
X81001000Y-77201000D01*
G37*
G36*
X83201000Y-76251000D02*
G01*
X81999000Y-76251000D01*
X81999000Y-75349000D01*
X83201000Y-75349000D01*
X83201000Y-76251000D01*
X83201000Y-76251000D01*
G37*
G36*
X59451000Y-73401000D02*
G01*
X58249000Y-73401000D01*
X58249000Y-72499000D01*
X59451000Y-72499000D01*
X59451000Y-73401000D01*
X59451000Y-73401000D01*
G37*
G36*
X90306564Y-70989389D02*
G01*
X90497833Y-71068615D01*
X90497835Y-71068616D01*
X90669973Y-71183635D01*
X90816365Y-71330027D01*
X90930606Y-71501000D01*
X90931385Y-71502167D01*
X91010611Y-71693436D01*
X91051000Y-71896484D01*
X91051000Y-72103516D01*
X91010611Y-72306564D01*
X90950784Y-72451000D01*
X90931384Y-72497835D01*
X90816365Y-72669973D01*
X90669973Y-72816365D01*
X90497835Y-72931384D01*
X90497834Y-72931385D01*
X90497833Y-72931385D01*
X90306564Y-73010611D01*
X90103516Y-73051000D01*
X89896484Y-73051000D01*
X89693436Y-73010611D01*
X89502167Y-72931385D01*
X89502166Y-72931385D01*
X89502165Y-72931384D01*
X89330027Y-72816365D01*
X89183635Y-72669973D01*
X89068616Y-72497835D01*
X89049216Y-72451000D01*
X88989389Y-72306564D01*
X88949000Y-72103516D01*
X88949000Y-71896484D01*
X88989389Y-71693436D01*
X89068615Y-71502167D01*
X89069395Y-71501000D01*
X89183635Y-71330027D01*
X89330027Y-71183635D01*
X89502165Y-71068616D01*
X89502167Y-71068615D01*
X89693436Y-70989389D01*
X89896484Y-70949000D01*
X90103516Y-70949000D01*
X90306564Y-70989389D01*
X90306564Y-70989389D01*
G37*
G36*
X51051000Y-73051000D02*
G01*
X48949000Y-73051000D01*
X48949000Y-70949000D01*
X51051000Y-70949000D01*
X51051000Y-73051000D01*
X51051000Y-73051000D01*
G37*
G36*
X57251000Y-72451000D02*
G01*
X56049000Y-72451000D01*
X56049000Y-71549000D01*
X57251000Y-71549000D01*
X57251000Y-72451000D01*
X57251000Y-72451000D01*
G37*
G36*
X59451000Y-71501000D02*
G01*
X58249000Y-71501000D01*
X58249000Y-70599000D01*
X59451000Y-70599000D01*
X59451000Y-71501000D01*
X59451000Y-71501000D01*
G37*
G36*
X59451000Y-68401000D02*
G01*
X58249000Y-68401000D01*
X58249000Y-67499000D01*
X59451000Y-67499000D01*
X59451000Y-68401000D01*
X59451000Y-68401000D01*
G37*
G36*
X50306564Y-65989389D02*
G01*
X50497833Y-66068615D01*
X50497835Y-66068616D01*
X50669973Y-66183635D01*
X50816365Y-66330027D01*
X50930606Y-66501000D01*
X50931385Y-66502167D01*
X51010611Y-66693436D01*
X51051000Y-66896484D01*
X51051000Y-67103516D01*
X51010611Y-67306564D01*
X50950784Y-67451000D01*
X50931384Y-67497835D01*
X50816365Y-67669973D01*
X50669973Y-67816365D01*
X50497835Y-67931384D01*
X50497834Y-67931385D01*
X50497833Y-67931385D01*
X50306564Y-68010611D01*
X50103516Y-68051000D01*
X49896484Y-68051000D01*
X49693436Y-68010611D01*
X49502167Y-67931385D01*
X49502166Y-67931385D01*
X49502165Y-67931384D01*
X49330027Y-67816365D01*
X49183635Y-67669973D01*
X49068616Y-67497835D01*
X49049216Y-67451000D01*
X48989389Y-67306564D01*
X48949000Y-67103516D01*
X48949000Y-66896484D01*
X48989389Y-66693436D01*
X49068615Y-66502167D01*
X49069395Y-66501000D01*
X49183635Y-66330027D01*
X49330027Y-66183635D01*
X49502165Y-66068616D01*
X49502167Y-66068615D01*
X49693436Y-65989389D01*
X49896484Y-65949000D01*
X50103516Y-65949000D01*
X50306564Y-65989389D01*
X50306564Y-65989389D01*
G37*
G36*
X91051000Y-68051000D02*
G01*
X88949000Y-68051000D01*
X88949000Y-65949000D01*
X91051000Y-65949000D01*
X91051000Y-68051000D01*
X91051000Y-68051000D01*
G37*
G36*
X57251000Y-67451000D02*
G01*
X56049000Y-67451000D01*
X56049000Y-66549000D01*
X57251000Y-66549000D01*
X57251000Y-67451000D01*
X57251000Y-67451000D01*
G37*
G36*
X59451000Y-66501000D02*
G01*
X58249000Y-66501000D01*
X58249000Y-65599000D01*
X59451000Y-65599000D01*
X59451000Y-66501000D01*
X59451000Y-66501000D01*
G37*
G36*
X90306564Y-59989389D02*
G01*
X90497833Y-60068615D01*
X90497835Y-60068616D01*
X90669973Y-60183635D01*
X90816365Y-60330027D01*
X90931385Y-60502167D01*
X91010611Y-60693436D01*
X91051000Y-60896484D01*
X91051000Y-61103516D01*
X91010611Y-61306564D01*
X90931385Y-61497833D01*
X90931384Y-61497835D01*
X90816365Y-61669973D01*
X90669973Y-61816365D01*
X90497835Y-61931384D01*
X90497834Y-61931385D01*
X90497833Y-61931385D01*
X90306564Y-62010611D01*
X90103516Y-62051000D01*
X89896484Y-62051000D01*
X89693436Y-62010611D01*
X89502167Y-61931385D01*
X89502166Y-61931385D01*
X89502165Y-61931384D01*
X89330027Y-61816365D01*
X89183635Y-61669973D01*
X89068616Y-61497835D01*
X89068615Y-61497833D01*
X88989389Y-61306564D01*
X88949000Y-61103516D01*
X88949000Y-60896484D01*
X88989389Y-60693436D01*
X89068615Y-60502167D01*
X89183635Y-60330027D01*
X89330027Y-60183635D01*
X89502165Y-60068616D01*
X89502167Y-60068615D01*
X89693436Y-59989389D01*
X89896484Y-59949000D01*
X90103516Y-59949000D01*
X90306564Y-59989389D01*
X90306564Y-59989389D01*
G37*
G36*
X51051000Y-62051000D02*
G01*
X48949000Y-62051000D01*
X48949000Y-59949000D01*
X51051000Y-59949000D01*
X51051000Y-62051000D01*
X51051000Y-62051000D01*
G37*
G36*
X64801000Y-58051000D02*
G01*
X63199000Y-58051000D01*
X63199000Y-53949000D01*
X64801000Y-53949000D01*
X64801000Y-58051000D01*
X64801000Y-58051000D01*
G37*
G36*
X60301000Y-58051000D02*
G01*
X58699000Y-58051000D01*
X58699000Y-53949000D01*
X60301000Y-53949000D01*
X60301000Y-58051000D01*
X60301000Y-58051000D01*
G37*
G36*
X91051000Y-57051000D02*
G01*
X88949000Y-57051000D01*
X88949000Y-54949000D01*
X91051000Y-54949000D01*
X91051000Y-57051000D01*
X91051000Y-57051000D01*
G37*
G36*
X50306564Y-54989389D02*
G01*
X50497833Y-55068615D01*
X50497835Y-55068616D01*
X50669973Y-55183635D01*
X50816365Y-55330027D01*
X50931385Y-55502167D01*
X51010611Y-55693436D01*
X51051000Y-55896484D01*
X51051000Y-56103516D01*
X51010611Y-56306564D01*
X50931385Y-56497833D01*
X50931384Y-56497835D01*
X50816365Y-56669973D01*
X50669973Y-56816365D01*
X50497835Y-56931384D01*
X50497834Y-56931385D01*
X50497833Y-56931385D01*
X50306564Y-57010611D01*
X50103516Y-57051000D01*
X49896484Y-57051000D01*
X49693436Y-57010611D01*
X49502167Y-56931385D01*
X49502166Y-56931385D01*
X49502165Y-56931384D01*
X49330027Y-56816365D01*
X49183635Y-56669973D01*
X49068616Y-56497835D01*
X49068615Y-56497833D01*
X48989389Y-56306564D01*
X48949000Y-56103516D01*
X48949000Y-55896484D01*
X48989389Y-55693436D01*
X49068615Y-55502167D01*
X49183635Y-55330027D01*
X49330027Y-55183635D01*
X49502165Y-55068616D01*
X49502167Y-55068615D01*
X49693436Y-54989389D01*
X49896484Y-54949000D01*
X50103516Y-54949000D01*
X50306564Y-54989389D01*
X50306564Y-54989389D01*
G37*
G36*
X66301000Y-52801000D02*
G01*
X65199000Y-52801000D01*
X65199000Y-51699000D01*
X66301000Y-51699000D01*
X66301000Y-52801000D01*
X66301000Y-52801000D01*
G37*
G36*
X90306564Y-49989389D02*
G01*
X90497833Y-50068615D01*
X90497835Y-50068616D01*
X90669973Y-50183635D01*
X90816365Y-50330027D01*
X90931385Y-50502167D01*
X91010611Y-50693436D01*
X91051000Y-50896484D01*
X91051000Y-51103516D01*
X91010611Y-51306564D01*
X90931385Y-51497833D01*
X90931384Y-51497835D01*
X90816365Y-51669973D01*
X90669973Y-51816365D01*
X90497835Y-51931384D01*
X90497834Y-51931385D01*
X90497833Y-51931385D01*
X90306564Y-52010611D01*
X90103516Y-52051000D01*
X89896484Y-52051000D01*
X89693436Y-52010611D01*
X89502167Y-51931385D01*
X89502166Y-51931385D01*
X89502165Y-51931384D01*
X89330027Y-51816365D01*
X89183635Y-51669973D01*
X89068616Y-51497835D01*
X89068615Y-51497833D01*
X88989389Y-51306564D01*
X88949000Y-51103516D01*
X88949000Y-50896484D01*
X88989389Y-50693436D01*
X89068615Y-50502167D01*
X89183635Y-50330027D01*
X89330027Y-50183635D01*
X89502165Y-50068616D01*
X89502167Y-50068615D01*
X89693436Y-49989389D01*
X89896484Y-49949000D01*
X90103516Y-49949000D01*
X90306564Y-49989389D01*
X90306564Y-49989389D01*
G37*
G36*
X60801000Y-52051000D02*
G01*
X59199000Y-52051000D01*
X59199000Y-49949000D01*
X60801000Y-49949000D01*
X60801000Y-52051000D01*
X60801000Y-52051000D01*
G37*
G36*
X63051000Y-52051000D02*
G01*
X61449000Y-52051000D01*
X61449000Y-49949000D01*
X63051000Y-49949000D01*
X63051000Y-52051000D01*
X63051000Y-52051000D01*
G37*
G36*
X51051000Y-52051000D02*
G01*
X48949000Y-52051000D01*
X48949000Y-49949000D01*
X51051000Y-49949000D01*
X51051000Y-52051000D01*
X51051000Y-52051000D01*
G37*
G36*
X58551000Y-52051000D02*
G01*
X56949000Y-52051000D01*
X56949000Y-49949000D01*
X58551000Y-49949000D01*
X58551000Y-52051000D01*
X58551000Y-52051000D01*
G37*
G36*
X66301000Y-51301000D02*
G01*
X65199000Y-51301000D01*
X65199000Y-50199000D01*
X66301000Y-50199000D01*
X66301000Y-51301000D01*
X66301000Y-51301000D01*
G37*
G36*
X83331600Y-49665800D02*
G01*
X81756400Y-49665800D01*
X81756400Y-48954200D01*
X83331600Y-48954200D01*
X83331600Y-49665800D01*
X83331600Y-49665800D01*
G37*
G36*
X77743600Y-49665800D02*
G01*
X76168400Y-49665800D01*
X76168400Y-48954200D01*
X77743600Y-48954200D01*
X77743600Y-49665800D01*
X77743600Y-49665800D01*
G37*
G36*
X83331600Y-48395800D02*
G01*
X81756400Y-48395800D01*
X81756400Y-47684200D01*
X83331600Y-47684200D01*
X83331600Y-48395800D01*
X83331600Y-48395800D01*
G37*
G36*
X77743600Y-48395800D02*
G01*
X76168400Y-48395800D01*
X76168400Y-47684200D01*
X77743600Y-47684200D01*
X77743600Y-48395800D01*
X77743600Y-48395800D01*
G37*
G36*
X68151000Y-47701000D02*
G01*
X67249000Y-47701000D01*
X67249000Y-46499000D01*
X68151000Y-46499000D01*
X68151000Y-47701000D01*
X68151000Y-47701000D01*
G37*
G36*
X66251000Y-47701000D02*
G01*
X65349000Y-47701000D01*
X65349000Y-46499000D01*
X66251000Y-46499000D01*
X66251000Y-47701000D01*
X66251000Y-47701000D01*
G37*
G36*
X77743600Y-47125800D02*
G01*
X76168400Y-47125800D01*
X76168400Y-46414200D01*
X77743600Y-46414200D01*
X77743600Y-47125800D01*
X77743600Y-47125800D01*
G37*
G36*
X83331600Y-47125800D02*
G01*
X81756400Y-47125800D01*
X81756400Y-46414200D01*
X83331600Y-46414200D01*
X83331600Y-47125800D01*
X83331600Y-47125800D01*
G37*
G36*
X91051000Y-47051000D02*
G01*
X88949000Y-47051000D01*
X88949000Y-44949000D01*
X91051000Y-44949000D01*
X91051000Y-47051000D01*
X91051000Y-47051000D01*
G37*
G36*
X50306564Y-44989389D02*
G01*
X50497833Y-45068615D01*
X50497835Y-45068616D01*
X50669973Y-45183635D01*
X50816365Y-45330027D01*
X50930606Y-45501000D01*
X50931385Y-45502167D01*
X51010611Y-45693436D01*
X51051000Y-45896484D01*
X51051000Y-46103516D01*
X51010611Y-46306564D01*
X50931385Y-46497833D01*
X50931384Y-46497835D01*
X50816365Y-46669973D01*
X50669973Y-46816365D01*
X50497835Y-46931384D01*
X50497834Y-46931385D01*
X50497833Y-46931385D01*
X50306564Y-47010611D01*
X50103516Y-47051000D01*
X49896484Y-47051000D01*
X49693436Y-47010611D01*
X49502167Y-46931385D01*
X49502166Y-46931385D01*
X49502165Y-46931384D01*
X49330027Y-46816365D01*
X49183635Y-46669973D01*
X49068616Y-46497835D01*
X49068615Y-46497833D01*
X48989389Y-46306564D01*
X48949000Y-46103516D01*
X48949000Y-45896484D01*
X48989389Y-45693436D01*
X49068615Y-45502167D01*
X49069395Y-45501000D01*
X49183635Y-45330027D01*
X49330027Y-45183635D01*
X49502165Y-45068616D01*
X49502167Y-45068615D01*
X49693436Y-44989389D01*
X49896484Y-44949000D01*
X50103516Y-44949000D01*
X50306564Y-44989389D01*
X50306564Y-44989389D01*
G37*
G36*
X83331600Y-45855800D02*
G01*
X81756400Y-45855800D01*
X81756400Y-45144200D01*
X83331600Y-45144200D01*
X83331600Y-45855800D01*
X83331600Y-45855800D01*
G37*
G36*
X77743600Y-45855800D02*
G01*
X76168400Y-45855800D01*
X76168400Y-45144200D01*
X77743600Y-45144200D01*
X77743600Y-45855800D01*
X77743600Y-45855800D01*
G37*
G36*
X62051000Y-45801000D02*
G01*
X57949000Y-45801000D01*
X57949000Y-43699000D01*
X62051000Y-43699000D01*
X62051000Y-45801000D01*
X62051000Y-45801000D01*
G37*
G36*
X67201000Y-45501000D02*
G01*
X66299000Y-45501000D01*
X66299000Y-44299000D01*
X67201000Y-44299000D01*
X67201000Y-45501000D01*
X67201000Y-45501000D01*
G37*
M02*
